1700 0 2 0           
35 Abaqus, Inc. - Abaqus 6.9-EFR - 190 12 ACIS 19.0 NT 24 Mon Mar 23 14:33:47 2009 
1 9.9999999999999995e-007 1e-010 
-0 body $-1 -1 -1 $-1 $2 $-1 $3 T -5.0000000000000018 -25 -25 1.7763568394002505e-015 25 25 #
-1 body $-1 -1 -1 $-1 $4 $-1 $5 T -3.0616169978683831e-016 -5 -5 2.0000000000000004 5 5 #
-2 lump $6 -1 -1 $-1 $-1 $7 $0 T -5.0000000000000018 -25 -25 1.7763568394002505e-015 25 25 #
-3 transform $-1 -1 1 0 0 0 1 0 0 0 1 0 0 0 1 no_rotate no_reflect no_shear #
-4 lump $8 -1 -1 $-1 $-1 $9 $1 T -3.0616169978683831e-016 -5 -5 2.0000000000000004 5 5 #
-5 transform $-1 -1 1 0 0 0 1 0 0 0 1 0 0 0 1 no_rotate no_reflect no_shear #
-6 cell_ptr-ct-attrib $-1 -1 $-1 $-1 $2 1 1 1 1 1 1 1 1 1 1 1 1 0 1 0 1 1 1 $10 $-1 auto #
-7 shell $-1 -1 -1 $-1 $-1 $-1 $11 $-1 $2 T -5.0000000000000018 -25 -25 1.7763568394002505e-015 25 25 #
-8 cell_ptr-ct-attrib $-1 -1 $-1 $-1 $4 1 1 1 1 1 1 1 1 1 1 1 1 0 1 0 1 1 1 $12 $-1 auto #
-9 shell $-1 -1 -1 $-1 $-1 $-1 $13 $-1 $4 T -3.0616169978683831e-016 -5 -5 2.0000000000000004 5 5 #
-10 cell3d-cell $-1 -1 $-1 $2 $-1 1 $14 #
-11 face $15 -1 -1 $-1 $16 $17 $7 $-1 $18 forward single T -4.9999999999999982 -25 -25 1.7763568394002505e-015 25 -24.999999999999993 F #
-12 cell3d-cell $-1 -1 $-1 $4 $-1 1 $19 #
-13 face $20 -1 -1 $-1 $21 $22 $9 $-1 $23 forward single T -3.0616169978683831e-016 -5 -5 2.0000000000000004 5 5 F #
-14 cshell $-1 -1 $-1 $24 $10 #
-15 cface_ptr-ct-attrib $-1 -1 $-1 $-1 $11 1 1 1 1 1 1 1 1 1 1 1 1 0 1 0 1 1 1 $-1 $25 #
-16 face $26 -1 -1 $-1 $27 $28 $7 $-1 $29 forward single T -5.0000000000000018 -25 -25 1.7763568394002505e-015 -25 25 F #
-17 loop $-1 -1 -1 $-1 $-1 $30 $11 T -4.9999999999999982 -25 -25 1.7763568394002505e-015 25 -24.999999999999993 periphery $18 F #
-18 plane-surface $-1 -1 -1 $-1 -4.9999999999999982 0 -25 6.123233995736766e-017 1.4210854715202004e-016 -1 -8.7016388700601026e-033 1 1.4210854715202004e-016 forward_v I I I I #
-19 cshell $-1 -1 $-1 $31 $12 #
-20 cface_ptr-ct-attrib $-1 -1 $-1 $-1 $13 1 1 1 1 1 1 1 1 1 1 1 1 0 1 0 1 1 1 $-1 $32 #
-21 face $33 -1 -1 $-1 $34 $35 $9 $-1 $36 forward single T 1.9999999999999998 -5 -5 2.0000000000000004 5 5 F #
-22 loop $-1 -1 -1 $-1 $37 $38 $13 T 1.9999999999999998 -5 -5 2.0000000000000004 5 5 u_sep $23 F #
-23 cone-surface $-1 -1 -1 $-1 0 0 0 1 0 6.123233995736766e-017 3.0616169978683831e-016 0 -5 1 I I 0 1 5 forward I I I I #
-24 cface $-1 -1 $39 $14 $27 0 #
-25 cface $-1 -1 $-1 $14 $11 0 #
-26 cface_ptr-ct-attrib $-1 -1 $-1 $-1 $16 1 1 1 1 1 1 1 1 1 1 1 1 0 1 0 1 1 1 $-1 $40 #
-27 face $41 -1 -1 $-1 $42 $43 $7 $-1 $44 forward single T -5.0000000000000018 -25 25 -1.7763568394002505e-015 24.999999999999993 25 F #
-28 loop $-1 -1 -1 $-1 $-1 $45 $16 T -5.0000000000000018 -25 -25 1.7763568394002505e-015 -25 25 periphery $29 F #
-29 plane-surface $-1 -1 -1 $-1 -5 -25 -1.7763568394002505e-015 0 -1 0 6.123233995736766e-017 0 -1 forward_v I I I I #
-30 coedge $-1 -1 -1 $-1 $46 $47 $48 $49 forward $17 $-1 #
-31 cface $-1 -1 $32 $19 $34 0 #
-32 cface $-1 -1 $50 $19 $13 0 #
-33 cface_ptr-ct-attrib $-1 -1 $-1 $-1 $21 1 1 1 1 1 1 1 1 1 1 1 1 0 1 0 1 1 1 $-1 $50 #
-34 face $51 -1 -1 $-1 $-1 $52 $9 $-1 $53 reversed single T -3.0616169978683831e-016 -5 -5 3.0616169978683831e-016 5 5 F #
-35 loop $-1 -1 -1 $-1 $-1 $54 $21 T 1.9999999999999998 -5 -5 2.0000000000000004 5 5 periphery $36 F #
-36 plane-surface $-1 -1 -1 $-1 2 0 1.2246467991473532e-016 1 0 6.123233995736766e-017 6.123233995736766e-017 0 -1 forward_v I I I I #
-37 loop $-1 -1 -1 $-1 $-1 $55 $13 T -3.0616169978683831e-016 -5 -5 3.0616169978683831e-016 5 5 u_sep $23 F #
-38 coedge $-1 -1 -1 $-1 $38 $38 $54 $56 forward $22 $-1 #
-39 cface $-1 -1 $57 $14 $42 0 #
-40 cface $-1 -1 $58 $14 $16 0 #
-41 cface_ptr-ct-attrib $-1 -1 $-1 $-1 $27 1 1 1 1 1 1 1 1 1 1 1 1 0 1 0 1 1 1 $-1 $24 #
-42 face $59 -1 -1 $-1 $60 $61 $7 $-1 $62 forward single T -5.0000000000000018 24.999999999999993 -24.999999999999993 1.7763568394002505e-015 25 25 F #
-43 loop $-1 -1 -1 $-1 $-1 $63 $27 T -5.0000000000000018 -25 25 -1.7763568394002505e-015 24.999999999999993 25 periphery $44 F #
-44 plane-surface $-1 -1 -1 $-1 -5.0000000000000018 -3.5527136788005009e-015 25 -6.123233995736766e-017 0 1 0 -1 0 forward_v I I I I #
-45 coedge $-1 -1 -1 $-1 $64 $65 $66 $67 forward $28 $-1 #
-46 coedge $-1 -1 -1 $-1 $68 $30 $65 $69 reversed $17 $-1 #
-47 coedge $-1 -1 -1 $-1 $30 $68 $70 $71 forward $17 $-1 #
-48 coedge $-1 -1 -1 $-1 $72 $66 $30 $49 reversed $73 $-1 #
-49 edge $-1 -1 -1 $-1 $74 -50 $75 0 $30 $76 forward @7 unknown T 1.7763568394002501e-015 -25 -25 1.7763568394002505e-015 25 -24.999999999999993 #
-50 cface $-1 -1 $-1 $19 $21 0 #
-51 cface_ptr-ct-attrib $-1 -1 $-1 $-1 $34 1 1 1 1 1 1 1 1 1 1 1 1 0 1 0 1 1 1 $-1 $31 #
-52 loop $-1 -1 -1 $-1 $-1 $77 $34 T -3.0616169978683831e-016 -5 -5 3.0616169978683831e-016 5 5 periphery $53 T #
-53 plane-surface $-1 -1 -1 $-1 0 0 0 1 0 6.123233995736766e-017 6.123233995736766e-017 0 -1 forward_v I I I I #
-54 coedge $-1 -1 -1 $-1 $54 $54 $38 $56 reversed $35 $-1 #
-55 coedge $-1 -1 -1 $-1 $55 $55 $77 $78 forward $37 $-1 #
-56 edge $-1 -1 -1 $-1 $79 1.5707963267948966 $79 7.8539816339744828 $38 $80 forward @7 unknown T 1.9999999999999998 -5 -5 2.0000000000000004 5 5 #
-57 cface $-1 -1 $40 $14 $81 0 #
-58 cface $-1 -1 $25 $14 $60 0 #
-59 cface_ptr-ct-attrib $-1 -1 $-1 $-1 $42 1 1 1 1 1 1 1 1 1 1 1 1 0 1 0 1 1 1 $-1 $39 #
-60 face $82 -1 -1 $-1 $81 $73 $7 $-1 $83 forward single T -1.7763568394002505e-015 -25 -25 1.7763568394002505e-015 25 25 F #
-61 loop $-1 -1 -1 $-1 $-1 $84 $42 T -5.0000000000000018 24.999999999999993 -24.999999999999993 1.7763568394002505e-015 25 25 periphery $62 F #
-62 plane-surface $-1 -1 -1 $-1 -5 25 1.7763568394002505e-015 -8.701638870060104e-033 1 1.4210854715202006e-016 -6.123233995736766e-017 -1.4210854715202006e-016 1 forward_v I I I I #
-63 coedge $-1 -1 -1 $-1 $85 $86 $87 $88 forward $43 $-1 #
-64 coedge $-1 -1 -1 $-1 $89 $45 $86 $90 reversed $28 $-1 #
-65 coedge $-1 -1 -1 $-1 $45 $89 $46 $69 forward $28 $-1 #
-66 coedge $-1 -1 -1 $-1 $48 $87 $45 $67 reversed $73 $-1 #
-67 edge $-1 -1 -1 $-1 $75 -50 $91 -0 $45 $92 forward @7 unknown T -1.7763568394002505e-015 -25 -25 1.7763568394002505e-015 -25 25 #
-68 coedge $-1 -1 -1 $-1 $47 $46 $93 $94 forward $17 $-1 #
-69 edge $-1 -1 -1 $-1 $95 0 $75 5 $65 $96 forward @7 unknown T -4.9999999999999982 -25 -25 1.7763568394002505e-015 -25 -25 #
-70 coedge $-1 -1 -1 $-1 $97 $84 $47 $71 reversed $61 $-1 #
-71 edge $-1 -1 -1 $-1 $98 0 $74 5 $47 $99 forward @7 unknown T -4.9999999999999982 25 -24.999999999999993 1.7763568394002505e-015 25 -24.999999999999993 #
-72 coedge $-1 -1 -1 $-1 $87 $48 $84 $100 reversed $73 $-1 #
-73 loop $-1 -1 -1 $-1 $-1 $48 $60 T -1.7763568394002505e-015 -25 -25 1.7763568394002505e-015 25 25 periphery $83 F #
-74 vertex $-1 -1 -1 $-1 $71 $101 #
-75 vertex $-1 -1 -1 $-1 $69 $102 #
-76 straight-curve $-1 -1 -1 $-1 1.7763568394002505e-015 -25 -25 8.7016388700601026e-033 -1 -1.4210854715202004e-016 I I #
-77 coedge $-1 -1 -1 $-1 $77 $77 $55 $78 reversed $52 $-1 #
-78 edge $-1 -1 -1 $-1 $103 -1.5707963267948966 $103 4.7123889803846897 $55 $104 forward @7 unknown T -3.0616169978683831e-016 -5 -5 3.0616169978683831e-016 5 5 #
-79 vertex $-1 -1 -1 $-1 $56 $105 #
-80 ellipse-curve $-1 -1 -1 $-1 2 0 1.2246467991473532e-016 -1 -0 -6.123233995736766e-017 3.0616169978683831e-016 0 -5 1 I I #
-81 face $106 -1 -1 $-1 $-1 $107 $7 $-1 $108 reversed single T -5.0000000000000018 -25 -25 -4.9999999999999982 25 25 F #
-82 cface_ptr-ct-attrib $-1 -1 $-1 $-1 $60 1 1 1 1 1 1 1 1 1 1 1 1 0 1 0 1 1 1 $-1 $58 #
-83 plane-surface $-1 -1 -1 $-1 0 -3.5527136788005009e-015 -3.5527136788005009e-015 1 0 6.123233995736766e-017 6.123233995736766e-017 0 -1 forward_v I I I I #
-84 coedge $-1 -1 -1 $-1 $70 $109 $72 $100 forward $61 $-1 #
-85 coedge $-1 -1 -1 $-1 $110 $63 $109 $111 reversed $43 $-1 #
-86 coedge $-1 -1 -1 $-1 $63 $110 $64 $90 forward $43 $-1 #
-87 coedge $-1 -1 -1 $-1 $66 $72 $63 $88 reversed $73 $-1 #
-88 edge $-1 -1 -1 $-1 $91 -49.999999999999993 $112 0 $63 $113 forward @7 unknown T -1.7763568394002505e-015 -25 25 -1.7763568394002505e-015 24.999999999999993 25 #
-89 coedge $-1 -1 -1 $-1 $65 $64 $114 $115 forward $28 $-1 #
-90 edge $-1 -1 -1 $-1 $116 0 $91 5 $86 $117 forward @7 unknown T -5.0000000000000018 -25 25 -1.7763568394002505e-015 -25 25 #
-91 vertex $-1 -1 -1 $-1 $90 $118 #
-92 straight-curve $-1 -1 -1 $-1 -1.7763568394002505e-015 -25 25 -6.123233995736766e-017 -0 1 I I #
-93 coedge $-1 -1 -1 $-1 $114 $119 $68 $94 reversed $107 $-1 #
-94 edge $-1 -1 -1 $-1 $95 0 $98 50 $68 $120 forward @7 unknown T -4.9999999999999982 -25 -25 -4.9999999999999982 25 -24.999999999999993 #
-95 vertex $-1 -1 -1 $-1 $94 $121 #
-96 straight-curve $-1 -1 -1 $-1 -4.9999999999999982 -25 -25 1 0 6.123233995736766e-017 I I #
-97 coedge $-1 -1 -1 $-1 $109 $70 $119 $122 forward $61 $-1 #
-98 vertex $-1 -1 -1 $-1 $122 $123 #
-99 straight-curve $-1 -1 -1 $-1 -4.9999999999999982 25 -24.999999999999993 1 0 6.123233995736766e-017 I I #
-100 edge $-1 -1 -1 $-1 $112 -49.999999999999993 $74 0 $84 $124 forward @7 unknown T -1.7763568394002505e-015 24.999999999999993 -24.999999999999993 1.7763568394002505e-015 25 25 #
-101 point $-1 -1 -1 $-1 1.7763568394002505e-015 25 -24.999999999999993 #
-102 point $-1 -1 -1 $-1 1.7763568394002505e-015 -25 -25 #
-103 vertex $-1 -1 -1 $-1 $78 $125 #
-104 ellipse-curve $-1 -1 -1 $-1 0 0 0 1 0 6.123233995736766e-017 3.0616169978683831e-016 0 -5 1 I I #
-105 point $-1 -1 -1 $-1 2 -5 -1.8369701987210294e-016 #
-106 cface_ptr-ct-attrib $-1 -1 $-1 $-1 $81 1 1 1 1 1 1 1 1 1 1 1 1 0 1 0 1 1 1 $-1 $57 #
-107 loop $-1 -1 -1 $-1 $-1 $119 $81 T -5.0000000000000018 -25 -25 -4.9999999999999982 25 25 periphery $108 T #
-108 plane-surface $-1 -1 -1 $-1 -5 -3.5527136788005009e-015 -3.5527136788005009e-015 1 0 6.123233995736766e-017 6.123233995736766e-017 0 -1 forward_v I I I I #
-109 coedge $-1 -1 -1 $-1 $84 $97 $85 $111 forward $61 $-1 #
-110 coedge $-1 -1 -1 $-1 $86 $85 $126 $127 forward $43 $-1 #
-111 edge $-1 -1 -1 $-1 $128 0 $112 5 $109 $129 forward @7 unknown T -5.0000000000000018 24.999999999999993 25 -1.7763568394002505e-015 24.999999999999993 25 #
-112 vertex $-1 -1 -1 $-1 $111 $130 #
-113 straight-curve $-1 -1 -1 $-1 -1.7763568394002505e-015 24.999999999999993 25 0 1 0 I I #
-114 coedge $-1 -1 -1 $-1 $126 $93 $89 $115 reversed $107 $-1 #
-115 edge $-1 -1 -1 $-1 $116 0 $95 50 $89 $131 forward @7 unknown T -5.0000000000000018 -25 -25 -4.9999999999999982 -25 25 #
-116 vertex $-1 -1 -1 $-1 $115 $132 #
-117 straight-curve $-1 -1 -1 $-1 -5.0000000000000018 -25 25 1 0 6.123233995736766e-017 I I #
-118 point $-1 -1 -1 $-1 -1.7763568394002505e-015 -25 25 #
-119 coedge $-1 -1 -1 $-1 $93 $126 $97 $122 reversed $107 $-1 #
-120 straight-curve $-1 -1 -1 $-1 -4.9999999999999982 -25 -25 -8.7016388700601026e-033 1 1.4210854715202004e-016 I I #
-121 point $-1 -1 -1 $-1 -4.9999999999999982 -25 -25 #
-122 edge $-1 -1 -1 $-1 $98 0 $128 49.999999999999993 $97 $133 forward @7 unknown T -5.0000000000000018 24.999999999999993 -24.999999999999993 -4.9999999999999982 25 25 #
-123 point $-1 -1 -1 $-1 -4.9999999999999982 25 -24.999999999999993 #
-124 straight-curve $-1 -1 -1 $-1 1.7763568394002505e-015 25 -24.999999999999993 6.123233995736766e-017 1.4210854715202006e-016 -1 I I #
-125 point $-1 -1 -1 $-1 1.8746997283273217e-032 -5 -3.0616169978683826e-016 #
-126 coedge $-1 -1 -1 $-1 $119 $114 $110 $127 reversed $107 $-1 #
-127 edge $-1 -1 -1 $-1 $128 0 $116 49.999999999999993 $110 $134 forward @7 unknown T -5.0000000000000018 -25 25 -5.0000000000000018 24.999999999999993 25 #
-128 vertex $-1 -1 -1 $-1 $122 $135 #
-129 straight-curve $-1 -1 -1 $-1 -5.0000000000000018 24.999999999999993 25 1 0 6.123233995736766e-017 I I #
-130 point $-1 -1 -1 $-1 -1.7763568394002505e-015 24.999999999999993 25 #
-131 straight-curve $-1 -1 -1 $-1 -5.0000000000000018 -25 25 6.123233995736766e-017 0 -1 I I #
-132 point $-1 -1 -1 $-1 -5.0000000000000018 -25 25 #
-133 straight-curve $-1 -1 -1 $-1 -4.9999999999999982 25 -24.999999999999993 -6.123233995736766e-017 -1.4210854715202006e-016 1 I I #
-134 straight-curve $-1 -1 -1 $-1 -5.0000000000000018 24.999999999999993 25 0 -1 0 I I #
-135 point $-1 -1 -1 $-1 -5.0000000000000018 24.999999999999993 25 #
End-of-ACIS-data 
