1900 0 1 0           
37 Abaqus, Inc. - Abaqus 6.12-MNT - 2002 14 ACIS 20.0.2 NT 24 Fri Apr 27 10:29:11 2012 
1 9.9999999999999995e-007 1e-010 
-0 body $1 -1 -1 $-1 $2 $-1 $3 T 0.21366644489421346 -0.1150250323449572 -0.03626156791166113 0.88309210210897515 0.11473016359928412 0.28556523971747577 #
-1 string_attrib-name_attrib-gen-attrib $-1 -1 $4 $-1 $0 2 1 1 1 1 1 1 1 1 1 1 1 1 1 0 1 1 1 @13 HKS_PART_NAME @5 BLADE #
-2 lump $-1 -1 -1 $-1 $-1 $5 $0 T 0.21366644489421346 -0.1150250323449572 -0.03626156791166113 0.88309210210897515 0.11473016359928412 0.28556523971747577 #
-3 transform $-1 -1 1 0 0 0 1 0 0 0 1 0 0 0 1 no_rotate no_reflect no_shear #
-4 string_attrib-name_attrib-gen-attrib $-1 -1 $-1 $1 $0 2 1 1 1 1 1 1 1 1 1 1 1 1 1 0 1 1 1 @18 HKS_ATTRIB_BODY_ID @1 1 #
-5 shell $-1 -1 -1 $-1 $-1 $-1 $6 $-1 $2 T 0.21366644489421346 -0.1150250323449572 -0.03626156791166113 0.88309210210897515 0.11473016359928412 0.28556523971747577 #
-6 face $-1 -1 -1 $-1 $-1 $7 $5 $-1 $8 forward double out T 0.21366644489421346 -0.1150250323449572 -0.03626156791166113 0.88309210210897515 0.11473016359928412 0.28556523971747577 T 0 16 0 16 #
-7 loop $-1 -1 -1 $-1 $-1 $9 $6 T 0.21366644489421346 -0.1150250323449572 -0.003708027115450538 0.88309210210897515 0.11473016359928412 0.25659609682686629 periphery $8 F #
-8 spline-surface $-1 -1 -1 $-1 reversed { exactsur full nubs 3 3 open open none none 17 17 
	0 3 1 1 2 1 3 1 4 1 
	5 1 6 1 7 1 8 1 9 1 
	10 1 11 1 12 1 13 1 14 1 
	15 1 16 3 
	0 3 1 1 2 1 3 1 4 1 
	5 1 6 1 7 1 8 1 9 1 
	10 1 11 1 12 1 13 1 14 1 
	15 1 16 3 
	0.21810715782327628 -0.025884060805268033 -0.03626156791166113 
	0.2319082804051501 -0.026495622725748569 -0.035944910781215311 
	0.25948269858447909 -0.028496346688998433 -0.034908967424050169 
	0.30078937704618303 -0.033032927771418356 -0.032559997189825607 
	0.34206693013843148 -0.038383391181482734 -0.029789611504832003 
	0.38332787107773181 -0.044198066306675485 -0.026778864304987382 
	0.42458426831992169 -0.050139710972496657 -0.023702374276750482 
	0.46583772292642112 -0.056163584953512369 -0.020583307204201234 
	0.50709039554170254 -0.062209310977768592 -0.017452925487827425 
	0.5483439627145269 -0.068230039393792463 -0.014335487139288894 
	0.58959983299049934 -0.074186409657934729 -0.011251372428166595 
	0.6308577488783722 -0.080085617132178821 -0.008196855709350942 
	0.6721186576367435 -0.085901191524572193 -0.0051856428831131285 
	0.71338232816030711 -0.091639590865619291 -0.0022143900829706409 
	0.75464635872142161 -0.097367929280218521 0.00075165332791471418 
	0.79591318632596453 -0.10301810682480145 0.0036772262713238024 
	0.8371657333368725 -0.10906734275062081 0.0068094253594467719 
	0.86470344600546678 -0.11209376929113103 0.008376461356505091 
	0.87851590046611094 -0.11238867202264523 0.0085291573462235454 
	0.21813866800973131 -0.02202053224042879 -0.03095639352683463 
	0.23193933232588515 -0.022644899985447997 -0.030633105742131878 
	0.25950941284201512 -0.024766836056456382 -0.029534400664636057 
	0.30080704352569343 -0.029556249181086118 -0.027054517981009774 
	0.34207802539407495 -0.035090339548551293 -0.024189053149562212 
	0.38333482399138513 -0.041020768705500213 -0.0211183703351773 
	0.42458906069491026 -0.047022787686576251 -0.018010619437384912 
	0.46584151833799847 -0.05307452091596819 -0.014877127284804087 
	0.5070941015040904 -0.059122746517601216 -0.011745451326632406 
	0.54834839908409538 -0.065123064360046029 -0.0086385812516306393 
	0.58960557788801715 -0.071042868984229984 -0.0055733996529771512 
	0.63086524930225885 -0.076893019848581157 -0.002544283674132175 
	0.67212848124366031 -0.082643674974796119 0.0004333149785440138 
	0.71339547419223859 -0.088289232128606149 0.0033564955563811782 
	0.75466343699487937 -0.093907687580478086 0.0062656432998012129 
	0.7959329719190642 -0.099482211505797516 0.0091520439906851714 
	0.83718410522036824 -0.10557095227857767 0.012304698066370939 
	0.86471713224602609 -0.10872831490851316 0.013939530708316217 
	0.87852801186063068 -0.10906722530016356 0.014115013171341312 
	0.2181975278439014 -0.01440973763436159 -0.020285845853567325 
	0.23199676909835376 -0.015073871562322871 -0.019941967765646634 
	0.25955474227505732 -0.017534136374841885 -0.018668081394407204 
	0.30083048861478545 -0.022935087863660095 -0.015871553777412117 
	0.34208911045247892 -0.028814568203311935 -0.012827251458189887 
	0.38334136941245556 -0.034871853454063802 -0.0096908845563921375 
	0.42459563068141692 -0.04087318597605602 -0.0065834890963017423 
	0.46585005453143935 -0.046869975316111978 -0.0034784460242637261 
	0.50710617423683979 -0.052819375498598178 -0.00039794031164550048 
	0.5483658380600499 -0.058669738487517761 0.0026312855019600678 
	0.58962996438633941 -0.064395400830190005 0.0055959432849492369 
	0.63089873343214053 -0.069991326540041934 0.008493425482790265 
	0.67217380298728024 -0.075411190167192471 0.011299745507151446 
	0.71345529777637728 -0.080651506394027239 0.014013098715465036 
	0.75473871327399589 -0.085838150143866032 0.016698661160520989 
	0.79602614837757257 -0.090912469610281432 0.019326063860705497 
	0.83730452490230012 -0.096239922938234843 0.022084535287586277 
	0.86484344162815563 -0.099232703178466788 0.023634149760283038 
	0.87864553187265293 -0.09981722463480909 0.023936805764280061 
	0.2182897551139798 -0.0028835152931994401 -0.0043369963684302959 
	0.23208501097456002 -0.0036590174785217019 -0.0039354535508761002 
	0.25959192248509311 -0.0075461547562953105 -0.0019227550900862422 
	0.30082963647374539 -0.014009886185700007 0.0014240632415712245 
	0.34208714201856549 -0.019920560328524618 0.0044845172207801237 
	0.38334875550282632 -0.025716441787984989 0.0074855333565050086 
	0.42461677184539814 -0.031333401114500795 0.010393906429779318 
	0.46588990109309458 -0.036807484892939252 0.013228300794520725 
	0.50716844011633999 -0.042130397345550921 0.015984421027667436 
	0.54845200195632116 -0.047312951689317193 0.018667866042666362 
	0.58973881585290266 -0.052404630228069508 0.021304256997104989 
	0.63102819323757231 -0.057424674391326772 0.023903556800139475 
	0.67232148724760821 -0.062335271971440828 0.0264461868861844 
	0.71361953703917169 -0.067112973502104031 0.028920005490910089 
	0.75492038862492894 -0.071812381406879247 0.031353284889260077 
	0.79622351509161371 -0.076448219804416725 0.033753648997969482 
	0.83751144248667697 -0.081508782626765128 0.036373928724520513 
	0.86505332370040566 -0.084418722912150426 0.037880649973310573 
	0.87884820295492572 -0.085204749016059053 0.038287641910159181 
	0.21828434530795365 0.0059143265243759569 0.013024565580367714 
	0.23207984395311532 0.0051456087364348466 0.013422595543810881 
	0.2595827646947661 0.0011469530014628013 0.015493036505344504 
	0.30083020064841326 -0.0050451068355378756 0.01869918756522887 
	0.34210228753265887 -0.010548318525741163 0.021548663903923265 
	0.3833805668049951 -0.015878489484545715 0.024308542477256612 
	0.4246651466296919 -0.021032597158436021 0.026977258254623188 
	0.46595206313296794 -0.026121408445135955 0.029612164591107729 
	0.50724139693979065 -0.031142670352240782 0.03221209492272728 
	0.54853489965785263 -0.036047435773751253 0.034751705208902597 
	0.58983272241610907 -0.040831481546559065 0.037228808762290219 
	0.63113454905606192 -0.045503642436342424 0.039647980085412496 
	0.67244082117255977 -0.050051578471102733 0.042002829735120664 
	0.71375160655472336 -0.054473395344665526 0.044292376869512554 
	0.75506530572041242 -0.05881378915090843 0.046539764422043356 
	0.79638279093139719 -0.063048385316969116 0.048732371622779658 
	0.83769128980115881 -0.067534096728888743 0.051055002342806396 
	0.86524006908996065 -0.070251276493065049 0.052461915229654418 
	0.87903471218633444 -0.07104390182456112 0.052872324142611296 
	0.21821847054796062 0.013022529432791759 0.031260995944850781 
	0.23201457257065339 0.012270672488803869 0.031650295628849925 
	0.25952410015828087 0.0084566391391425778 0.033625142027035593 
	0.3007893403996193 0.0027621041534718824 0.036573682554819048 
	0.34208077205846454 -0.0022005351603702622 0.039143259030941388 
	0.38337623596802639 -0.0070504968443609144 0.041654492804976948 
	0.42467649247126094 -0.011766533796519443 0.044096382462157815 
	0.46597931712750196 -0.016410806016219741 0.0465011134711521 
	0.50728460596231928 -0.020986218975667246 0.048870190239707192 
	0.54859359404636832 -0.025458259733091529 0.051185742510146348 
	0.58990669308322985 -0.029815423601178552 0.053441813336574898 
	0.63122414222410939 -0.03405102771397743 0.055634942436257273 
	0.67254651571708068 -0.03814902522409562 0.057756821004348299 
	0.71387369650611576 -0.042112687157247732 0.059809142726444983 
	0.7552040713210989 -0.045987094899924974 0.061815250034449598 
	0.7965377586922805 -0.049768936230580194 0.063773427912211827 
	0.83786573991688895 -0.053710230709524215 0.065814168118802543 
	0.86542366380028202 -0.056171872979395618 0.067088767715764344 
	0.8792202486298637 -0.0569102383178888 0.067471081658928442 
	0.21810926450402435 0.018919878474117292 0.050124387371004886 
	0.23190754724370688 0.018228959710580632 0.050482134224930655 
	0.25942989203999273 0.014773091761454634 0.052271528219753186 
	0.30071347857582398 0.0095912275210716207 0.054954615910089266 
	0.34202299959856075 0.0051340792572984288 0.057262457081869694 
	0.38333727684224184 0.00080983932208035861 0.059501480414404118 
	0.42465631631381184 -0.0033813244259012307 0.061671598993111032 
	0.46597794177853324 -0.0075002249145747959 0.063804300794280275 
	0.50730221714731449 -0.011545076210928405 0.065898661089926328 
	0.5486303175945817 -0.015483039119603047 0.067937676261903127 
	0.5899623902474429 -0.019310002305522232 0.069919217525660771 
	0.63129854646195538 -0.023022854023537775 0.071841673668570888 
	0.67263935650980433 -0.02660565854286611 0.073696793420218384 
	0.71398474497533604 -0.030060523286314096 0.075485667970941125 
	0.75533348457699445 -0.033421743536248674 0.077226054877804831 
	0.7966860252521365 -0.036676746196766447 0.078911443989774482 
	0.83803593256392528 -0.040005335834396888 0.080634935279512779 
	0.86560558360542683 -0.04213927318870804 0.08173985443248491 
	0.8794044933782007 -0.042812670074878365 0.082088528734276481 
	0.21795573340675667 0.02357860365408521 0.069629118724489791 
	0.23175710469075733 0.022973991491482351 0.069942177379763881 
	0.25929532308112641 0.019961696892399509 0.071501896080126359 
	0.30060173908288967 0.015417781602331567 0.073854663851558755 
	0.34193262068848074 0.011557535668668998 0.075853438397901263 
	0.38326831078359647 0.0078316586621609199 0.077782638830047102 
	0.42460911618830355 0.0042487243943966826 0.079637825763391193 
	0.46595299634448711 0.00075171129897920116 0.081448524066935563 
	0.50729966096945567 -0.0026674923135611376 0.083218933845730064 
	0.54865000515147822 -0.0059838740043243899 0.084936104052853262 
	0.59000408598564136 -0.0091958383023286461 0.086599208578559086 
	0.63136189460707659 -0.012303632928367166 0.088208375688772739 
	0.67272376514241716 -0.01529792101334539 0.089758770899730861 
	0.71408980132951794 -0.018175803695951048 0.091248893226702502 
	0.75545931968396074 -0.020956380335252343 0.092688632017002018 
	0.79683234550412618 -0.023638943990684329 0.094077621227939057 
	0.83820465574839642 -0.026341503772727898 0.095476964118300561 
	0.86578851635555876 -0.028078367558838739 0.096376284831488551 
	0.87959005638403087 -0.028678264308532604 0.096686901920225166 
	0.21775801783386994 0.027002633290785241 0.089773155984068834 
	0.23156353305820648 0.02651381982427781 0.090026255898311217 
	0.25912106927865675 0.024041344661153444 0.091306464596783474 
	0.30045458533646868 0.020254716132029407 0.093267121210515433 
	0.34181077891906031 0.017101790693993105 0.09489965634438019 
	0.38317132008427701 0.014070354553179773 0.09646928623357523 
	0.42453655591892181 0.011170106739007259 0.097970988873425799 
	0.4659052479146284 0.0083664382459647992 0.099422684261900374 
	0.50727709795624931 0.0056510185136291451 0.10082868583198144 
	0.54865261230955509 0.0030379946849026966 0.10218166841588885 
	0.59003165046733885 0.00052344041190419393 0.1034836650147163 
	0.63141406775164977 -0.0018966872009468089 0.10473676897612054 
	0.67279987408358388 -0.0042221109175119027 0.10594083675159553 
	0.71418902553738661 -0.0064540582036143324 0.10709650390361219 
	0.75558123705884117 -0.0086004946436811398 0.10820789488633049 
	0.79697654512836225 -0.010660400825241667 0.10927448186402865 
	0.8383727033388193 -0.01269655058081472 0.11032876813850948 
	0.86597195458966736 -0.014003336632596047 0.11100540137450066 
	0.8797765186712061 -0.014518728931537449 0.11127226338956601 
	0.21751147775245061 0.029062305825975708 0.11062363586245569 
	0.23132271508881824 0.028733391648162354 0.11079394244339437 
	0.25890282543914972 0.026891730298419701 0.11174752568449005 
	0.30026883933073312 0.02401322458757698 0.11323797060567026 
	0.34165447030394647 0.021682900628831842 0.11444457564936823 
	0.38304403790044528 0.019462582077145778 0.11559422162585437 
	0.42443746574757202 0.017350134767097646 0.11668801357237105 
	0.46583423256560685 0.01533099200444041 0.11773349389377684 
	0.50723411226250059 0.013398835849632531 0.11873393391966006 
	0.54863733463185327 0.011560087678737594 0.11968600876263039 
	0.59004373320248327 0.0098100956038845478 0.12059212709696113 
	0.63145311357633682 0.0081434273458104722 0.12145510167129731 
	0.67286518985271571 0.0065520936659216374 0.12227906918755384 
	0.71427980759324194 0.0050317789222592349 0.12306626421716649 
	0.75569698577319488 0.0035830133619819808 0.12381641220650777 
	0.79711652439773617 0.0022002083087056274 0.12453240688418887 
	0.83853826746401561 0.00087900440269631473 0.12521650545802096 
	0.86615442485868444 4.4645377305099765e-005 0.12564852342037933 
	0.87996254123903461 -0.00037148111731305326 0.12586398716538286 
	0.21721183167461877 0.029637978920806309 0.13224250727836398 
	0.23103104031703958 0.029531815741392839 0.13229747690061525 
	0.2586370801541496 0.028414730644191713 0.13287588597007724 
	0.30004254940697078 0.02663876961665115 0.13379545061910372 
	0.34146197609449336 0.025252836583781014 0.13451306491535342 
	0.38288466084559963 0.023957947215684242 0.13518353823590315 
	0.42431015068897532 0.022741443635241543 0.13581342463016621 
	0.46573878006332303 0.021612671432048976 0.13639788509904097 
	0.50717028845903056 0.020564350898636251 0.13694068896040154 
	0.54860443191432229 0.019589664741989213 0.1374453661011997 
	0.59004096960014285 0.01868188321014656 0.13791540108100869 
	0.63147973802127566 0.017836437575915409 0.1383531595148125 
	0.67292027028380819 0.017040280907657121 0.13876539689832698 
	0.7143623649766524 0.016287784953153566 0.13915502745190686 
	0.75580637880721635 0.015588917581002872 0.13951688997018397 
	0.79725195595369758 0.014933735670064967 0.13985613284468243 
	0.83870127028865948 0.014382986139433769 0.14014130227744737 
	0.86633561998677844 0.014056994717749498 0.14031009550129525 
	0.88014766448333415 0.01375063590746934 0.14046872326816778 
	0.21685391949397997 0.028585458030049769 0.15470443189627692 
	0.23068221077044787 0.028733100913103229 0.15462798473677797 
	0.25831823080256855 0.028453785477018725 0.1547726098704198 
	0.299772217202528 0.028033592612487248 0.1549901791177199 
	0.34122800507071932 0.027663740162007393 0.1551816828914756 
	0.38269167346037947 0.027514101816137383 0.15525916327019285 
	0.4241544625737923 0.027339892884137372 0.15534936591142628 
	0.46561878236402499 0.027208457343044223 0.15541742116452062 
	0.50708549397229508 0.027143859011846908 0.15545086916300369 
	0.54855388092326385 0.02712607662979237 0.15546007660036254 
	0.59002360670325504 0.027145706624007598 0.15544991249852641 
	0.63149447936127967 0.027197385096263394 0.15542315419951802 
	0.67296583829265488 0.027262652041176123 0.15538936000338366 
	0.71443748107334515 0.027335850900618533 0.1553514587868319 
	0.75591021761754518 0.0274396140003745 0.15529773188802651 
	0.79738354410754608 0.027559862606427524 0.15523546905370394 
	0.83886205769977251 0.027825060132000552 0.15509815395177068 
	0.86651499061934079 0.028018360166910592 0.15499806623813148 
	0.8803310345773625 0.027823762720283453 0.15509882573112382 
	0.21641905745809592 0.025382642448791199 0.17827974523821682 
	0.2302551761302421 0.025749014883885528 0.17809004336161816 
	0.25792913259371875 0.026529798997844207 0.17768576564460534 
	0.29945282875305385 0.02805758283819499 0.17689470323436424 
	0.34096617995558665 0.029296286138827163 0.17625332217462825 
	0.38246762677848711 0.030202332227365 0.17578418578002958 
	0.423970274203468 0.031141928064249404 0.17529767785413897 
	0.46547521098901035 0.032145498028757213 0.17477804513254475 
	0.50698108443607104 0.033175242159326448 0.17424485984000188 
	0.54848693818262362 0.03420443577686659 0.17371195959443497 
	0.58999255481803148 0.03522700353612726 0.17318249011392922 
	0.63149784612613546 0.036240480315656028 0.17265772779954755 
	0.67300206577556809 0.037224010554759733 0.17214847133214589 
	0.71450498992633693 0.038171339245599567 0.17165795945626805 
	0.75600785076365917 0.039116898698958798 0.17116836366369254 
	0.79751011851955256 0.040045885023711238 0.17068734917608611 
	0.83901973975156485 0.041180357643464643 0.17009993712129659 
	0.86669180162027171 0.041908199005793074 0.16972307232724007 
	0.88051186397097714 0.041825891938721979 0.16976568963024949 
	0.21589422302467248 0.019665628912198828 0.20315687068330929 
	0.2297308298212607 0.020045641547038928 0.2029601061261127 
	0.25745485502099891 0.022225551590478052 0.20183138303877085 
	0.29906326429688257 0.026120567495785969 0.19981460514873056 
	0.34063194498918864 0.02890540376455145 0.19837266078938282 
	0.38219765014891055 0.031607091443932048 0.19697376946004475 
	0.4237533140598248 0.034028185431116867 0.19572016512523066 
	0.46530528744093475 0.036346150872860673 0.19451995912699177 
	0.50685536822794919 0.038611229470022622 0.1933471371039201 
	0.54840269331721048 0.040799302564989419 0.19221418731706363 
	0.58994735878105542 0.042913054813042223 0.19111971969420066 
	0.63148952845565798 0.044957064469127013 0.1900613636870267 
	0.6730285700502886 0.046913662735888727 0.18904826792053223 
	0.71456451288905265 0.048783669049154682 0.18808000810375172 
	0.75609929288739963 0.050621180829884926 0.1871285734441358 
	0.79763244267469757 0.052413137824943216 0.18620072633506193 
	0.83917535926548892 0.054478019384035667 0.18513156318523896 
	0.86686532530144844 0.055706176642458777 0.18449564270006075 
	0.880689261623538 0.055732124231254745 0.18448220744725158 
	0.21520055440749947 0.0092306955337155897 0.23047686071623089 
	0.2290118552415511 0.0089035557417314198 0.23064624854813343 
	0.2567970923994245 0.01279397905584511 0.2286318486294811 
	0.29852963524216347 0.02015779615475375 0.2248189801143253 
	0.34019944417026865 0.025768570273639713 0.22191380964414592 
	0.38184484271622199 0.030697218156328324 0.21936183339571658 
	0.42346952748236366 0.035047038039834083 0.21710956516883795 
	0.46508382582857055 0.039106618733570103 0.21500757822321234 
	0.50669016772606723 0.042943863604029492 0.21302071326513428 
	0.54828862277672219 0.046560717613008396 0.21114796322401844 
	0.58988008600846009 0.049982191513130929 0.20937637792607044 
	0.63146538879950964 0.053231517423352082 0.20769392814599669 
	0.67304430172545737 0.056302284284212863 0.20610393342941213 
	0.71461713763091606 0.05920323425782581 0.20460186722246218 
	0.75618622529702884 0.061999443044616825 0.20315403435239571 
	0.79775142662892184 0.064687051707183807 0.20176243291622203 
	0.83933026314251546 0.067755683293341695 0.20017354381124847 
	0.86703779849396745 0.069474799315738328 0.19928341261058796 
	0.88086544611449114 0.069604455810710633 0.19921627851955537 
	0.21457857470124497 0.00079904447492870623 0.25675958271531307 
	0.22833645266010083 -0.0010209496508107457 0.25770194700907434 
	0.25610432249709786 0.0023841594577097419 0.25593883514247567 
	0.29789148955483513 0.01127440125370744 0.2513356079600535 
	0.33963509781959711 0.018947431646760889 0.24736263367123756 
	0.38136562894177461 0.026255033018840308 0.24357887277404738 
	0.42308019523908125 0.033116511678338893 0.2400261071910873 
	0.46478255773044685 0.039636965926091755 0.23664991867746227 
	0.5064689169533747 0.045710223190266637 0.23350528171867013 
	0.54813704024762777 0.051273893782956187 0.23062450071248408 
	0.58978804871718893 0.056359305949472617 0.22799135438689511 
	0.63142484647015662 0.061047612386005076 0.22556382315395529 
	0.67304888505411853 0.065379375288039512 0.2233209045476886 
	0.7146616987202794 0.069397467929464968 0.22124039946212082 
	0.75626756186690947 0.073221334536335073 0.21926046155822429 
	0.797868094577456 0.0768962468875833 0.21735764982188877 
	0.83948639202448427 0.081067578867084225 0.2151977998205547 
	0.86720952102284499 0.08322244536680927 0.21408204388571717 
	0.88103867739024166 0.083394262439988348 0.21399307971130987 
	0.21480370933655202 0.016039243936242176 0.27078539334203888 
	0.22857912627614685 0.014709360896996947 0.27147398583436588 
	0.25623011803722329 0.014848416998826233 0.2714019847749447 
	0.2978534448965981 0.019160291395599237 0.26916936412346237 
	0.33951976434370812 0.024673555097702395 0.26631468301132344 
	0.38120567957818696 0.030734405502872035 0.26317647012871859 
	0.42289416604746216 0.036867106758351829 0.26000105400745988 
	0.4645894299845485 0.043189198273281056 0.25672757459271722 
	0.50628841472384278 0.049615264268816746 0.25340025882949402 
	0.54798634766750987 0.056011938778884253 0.25008816151453617 
	0.5896791736878344 0.06226590489640587 0.2468499563576097 
	0.63136484728280184 0.068320002902149762 0.24371523976107862 
	0.67304015315038135 0.074084384064585757 0.24073053398302952 
	0.71470423581737885 0.079535142952551222 0.2379082168792126 
	0.75636178024054601 0.084803196480657969 0.23518050173315735 
	0.7980091704362513 0.089787499229406251 0.23259970827163545 
	0.8396640668664751 0.094981556969631328 0.22991030697912634 
	0.8674005315646518 0.097509077640271904 0.22860159658381801 
	0.88122420841905491 0.09752777463728067 0.22859191557324091 
	0.21495387734208732 0.026201563499186772 0.28013480157864712 
	0.2287374482292 0.025099535210263299 0.2807054144699247 
	0.25637334630657072 0.024816811858067445 0.28085180416885491 
	0.29794936861867888 0.027806803107694331 0.27930363379156742 
	0.3395799844443752 0.0323223611310424 0.27696554896622128 
	0.38124216052299531 0.03771984211677025 0.2741708183210666 
	0.42291511635120993 0.04341855353684073 0.27122011530132895 
	0.46459769460163225 0.049386154915407043 0.26813018529604571 
	0.50628641583771039 0.055525416518639882 0.26495137233004457 
	0.54797757218103549 0.061732725009904899 0.26173732575714537 
	0.58966772169029946 0.067911898426335215 0.25853784708287375 
	0.63135592789200212 0.074036767855863925 0.25536648615774282 
	0.67303987699238366 0.080042676407058311 0.2522567213018031 
	0.71471863951850001 0.085903650792117911 0.24922200107440362 
	0.75639537162692405 0.091707886975794184 0.24621665899406497 
	0.79806893922914224 0.097423693871710529 0.24325710420618465 
	0.83976449120069119 0.1037538342513654 0.2399794572160551 
	0.86750955882810921 0.10652175606391047 0.23854627089573896 
	0.88132474520564341 0.10630319429970729 0.23865943873493894 
	0.2150270636616689 0.031229694226006494 0.2848369633062533 
	0.22881394823745438 0.030220263995084581 0.2853596303814987 
	0.2564457534563292 0.029823169382997908 0.28556523971747577 
	0.29800479685987963 0.032338700260921588 0.28426273744799935 
	0.3396206172766032 0.036440813850142598 0.28213872763897629 
	0.3812712022042582 0.041514390517954185 0.27951170954820997 
	0.4229357298566393 0.046977584123369318 0.27668295394354192 
	0.46461152422932606 0.052755616122897434 0.27369117997704451 
	0.50629479769182684 0.058742644579476214 0.270591190936739 
	0.54798192982692751 0.064837500181116697 0.26743537069897672 
	0.58966944596406012 0.070943086375138215 0.26427399432948429 
	0.63135634479110203 0.077031422392326201 0.26112154982986929 
	0.67304044532380713 0.083041562583986706 0.25800959389714373 
	0.71472127804422836 0.088960386692193319 0.25494491999422036 
	0.75640149674213908 0.094862052492042978 0.25188913039312433 
	0.79807764716976892 0.10065003412761676 0.24889220466178719 
	0.83977097976822823 0.10691815611678322 0.24564666981747518 
	0.86751046123446129 0.10952997766509771 0.24429430975542943 
	0.88132437397323493 0.10927582520801886 0.24442590589485408 
	0 
	0 
	0 
	15 1 2 3 4 5 6 7 8 9 10 11 12 13 14 15 
	0 
	0 
	15 1 2 3 4 5 6 7 8 9 10 11 12 13 14 15 
	F 1 F 0 F 1 F 0 } I I I I #
-9 tcoedge-coedge $-1 -1 -1 $-1 $10 $11 $-1 $12 forward $7 $13 0 0.26169530844461059 F #
-10 tcoedge-coedge $-1 -1 -1 $-1 $14 $9 $-1 $15 forward $7 $16 0 0.66093136146444387 F #
-11 tcoedge-coedge $-1 -1 -1 $-1 $9 $14 $-1 $17 forward $7 $18 -0.33048851523693767 0.33048851523693767 F #
-12 tedge-edge $-1 -1 -1 $-1 $19 0 $20 0.26169530844461059 $9 $21 forward @7 unknown T 0.21366644489421346 -0.0040960345336153448 -0.003708027115450538 0.22409611292012038 0.035710842507068859 0.25659609682686629 0.0037081025710755501 #
-13 pcurve $-1 -1 -1 $-1 0 forward { exppc nubs 2 open 9 
	0 2 0.043615884740768426 2 0.065423827111152633 2 0.087231769481536853 2 0.10903971185192107 2 
	0.13084765422230529 2 0.17446353896307371 2 0.21807942370384217 2 0.26169530844461059 2 
	0.039956186448163698 2.2674395526490163 
	0.018832801178542202 3.8279043847276952 
	0.012082580388612818 4.4919252165546926 
	0.0062654327436946853 5.0641594201868907 
	0.0032400355166932538 5.5830049023194297 
	0.000774925600311054 6.0057629889808197 
	0 6.6541383955905751 
	0.00043118465868514271 7.1850978140737292 
	0.00085086870898554395 7.70189541993863 
	0.0025489769921435939 8.1973049196406347 
	0.0065258706436888024 8.7203127072300912 
	0.014306679457188375 9.7435795983623485 
	0.030375496096108762 10.63671050414284 
	0.046819722017309967 11.550707267059982 
	0.072669122900805169 12.320396811240657 
	0.083797267356735289 12.65174748634796 
	0.13180616547146026 13.879841089661863 
	0.001 
	0.22068486581664995 
	spline reversed { ref 0 } I I I I 
	} 0 0 #
-14 tcoedge-coedge $-1 -1 -1 $-1 $11 $10 $-1 $22 forward $7 $23 0 0.32502275586517776 F #
-15 tedge-edge $-1 -1 -1 $-1 $20 0 $24 0.66093136146444387 $10 $25 forward @7 unknown T 0.21590409331195054 -0.0040960345336153448 0.23967308505558504 0.87552933865616478 0.11473016359928412 0.25659609682686629 0.0039994614703432116 #
-16 pcurve $-1 -1 -1 $-1 0 forward { exppc nubs 2 open 27 
	0 2 0.00086058771024016129 2 0.0017211754204803226 2 0.0034423508409606451 2 0.0068847016819212903 2 
	0.013769403363842581 2 0.027538806727685161 2 0.055077613455370322 2 0.082616420183055483 2 0.096385823546898064 2 
	0.10327052522881935 2 0.10671287606978 2 0.10843405149026032 2 0.10929463920050048 2 0.11015522691074064 2 
	0.11101581462098081 2 0.11187640233122097 2 0.11359757775170129 2 0.11703992859266193 2 0.12392463027458323 2 
	0.13769403363842581 2 0.16523284036611097 2 0.22031045382148129 2 0.33046568073222193 2 0.44062090764296258 2 
	0.55077613455370322 2 0.66093136146444387 2 
	0.13180614016054862 13.879839940819441 
	0.13322387196868302 13.879746282067025 
	0.15135216022092873 13.879081538589739 
	0.16118701462857363 13.878720905791621 
	0.17097768309620329 13.878404307651843 
	0.19078559345186652 13.877763784730227 
	0.21044819421443112 13.877302428151006 
	0.25045285071655066 13.876363772491992 
	0.29014006354822786 13.876161370017996 
	0.37042813055999396 13.875751905552342 
	0.45163103808236749 13.878364794928592 
	0.6040914683760189 13.883270558167464 
	0.77803549166505981 13.899790923310416 
	1.0283237375130136 13.923562094829926 
	1.4303267196981309 13.981658167631545 
	1.7554254779880267 14.030035506078967 
	2.0803858985835362 14.078392258752709 
	2.2286923487095152 14.100188274567884 
	2.4057640069327442 14.125447548367596 
	2.4822129262021093 14.136352987458723 
	2.5685361493870498 14.148550142566057 
	2.6076994741424926 14.154083776841226 
	2.6499353477025656 14.160030481888001 
	2.6698458104095311 14.162833825090917 
	2.6906373900478355 14.165756905666649 
	2.7006941262861552 14.167170778535613 
	2.7109889238286904 14.168617153582208 
	2.7211632157333145 14.170046148130783 
	2.7313407632489808 14.171475599934814 
	2.7317038048186228 14.171527357471408 
	2.7516928818305826 14.174332372909756 
	2.7617265722782509 14.175740374719567 
	2.7720452535648334 14.177187598581316 
	2.7917639931470095 14.179953206865386 
	2.8127506547694394 14.182893901715781 
	2.8501596537753686 14.188135728773126 
	2.8941634014707498 14.194293251698369 
	2.9534165099267837 14.202584644882364 
	3.0569921068886403 14.217063495358936 
	3.2378060063152283 14.242339501393838 
	3.382669220732192 14.262555379224688 
	3.7511404481601534 14.313976089084598 
	4.0341818670527569 14.353183572395144 
	4.6858479842154006 14.443117107121257 
	5.3378079249671471 14.533091191130598 
	6.6414022097172793 14.71423679555258 
	7.9449676678496148 14.895378394268826 
	10.108252699928691 15.199597379732875 
	10.551531691774844 15.262279705220726 
	11.855024712865184 15.447064641820976 
	13.157836760103722 15.631753042645435 
	14.456251736048586 15.815128766781527 
	15.765255852940928 16 
	0.001 
	0.43424845947881918 
	spline reversed { ref 0 } I I I I 
	} 0 0 #
-17 tedge-edge $-1 -1 -1 $-1 $26 -0.33048851523693767 $19 0.33048851523693767 $11 $27 forward @7 unknown T 0.21860002674615597 -0.11477900916480915 -0.0013999975799789269 0.87252653265142333 0.0014000997909013194 0.010445560009716907 0.0014000730357307959 #
-18 pcurve $-1 -1 -1 $-1 0 forward { exppc nubs 1 open 2 
	-0.33048851523693767 1 0.33048851523693767 1 
	15.823322845396746 0 
	0.039956135701490036 2.2674391374739318 
	0.001 
	0.011122420231964539 
	spline reversed { ref 0 } I I I I 
	} 0 0 #
-19 tvertex-vertex $-1 -1 -1 $-1 $17 $28 0.00093153634444479653 #
-20 tvertex-vertex $-1 -1 -1 $-1 $15 $29 0.0040960098040849213 #
-21 intcurve-curve $-1 -1 -1 $-1 forward { exactcur full nubs 3 open 5 
	0 3 0.065423827111152646 1 0.13084765422230529 1 0.19627148133345795 1 0.26169530844461059 3 
	0.22000010311604321 2.6755452515840605e-008 7.5455625012099681e-008 
	0.21926510119834924 0.0089586021411039614 0.019869399794177275 
	0.21794921402930179 0.02499882072803444 0.06065725021523416 
	0.217374547465289 0.032002739935993306 0.12625008860834336 
	0.21794921256845251 0.024998820597623594 0.19184292995104649 
	0.21926510041286135 0.0089585716804871512 0.23263077219265335 
	0.22000010311600654 -2.4730158491338694e-008 0.25250008702249926 
	0 
	null_surface 
	null_surface 
	nullbs 
	nullbs 
	-1 
	-1 
	I I 
	0 
	0 
	3 0.065423827111152646 0.13084765422230529 0.19627148133345795 
	
	-1 
	none F F 1 F 0 } I I #
-22 tedge-edge $-1 -1 -1 $-1 $24 0 $26 0.32502275586517776 $14 $30 forward @7 unknown T 0.8694654889071981 -0.1150250323449572 0.0073845162654916398 0.88309210210897515 0.1124418558076824 0.24538375004090918 0.0016535334621866418 #
-23 pcurve $-1 -1 -1 $-1 0 forward { exppc nubs 2 open 7 
	0 2 0.054170459310862958 2 0.10834091862172592 2 0.16251137793258888 2 0.21668183724345183 2 
	0.27085229655431481 2 0.32502275586517776 2 
	15.765255857187682 16 
	15.824341025175993 14.661663239498282 
	15.883250099406453 13.327315174593966 
	15.940465604484306 11.878843021913962 
	15.970079105373665 10.654118176503747 
	15.985059540692735 9.3185189051598272 
	16 7.986483744677761 
	15.995832342136115 6.9893693375447778 
	15.954922266485482 5.3225478196317422 
	15.918923866811836 3.8558453940744091 
	15.893377362617677 2.65705751719603 
	15.862045864029096 1.1868046643254497 
	15.823322789351865 0 
	0.001 
	0.16741332620330007 
	spline reversed { ref 0 } I I I I 
	} 0 0 #
-24 tvertex-vertex $-1 -1 -1 $-1 $22 $31 0.0017111556128467406 #
-25 intcurve-curve $-1 -1 -1 $-1 forward { exactcur full nubs 3 open 5 
	0 3 0.16523284036611097 1 0.33046568073222193 1 0.4956985210983329 1 0.66093136146444387 3 
	0.22000010275680892 -2.4980796289181262e-008 0.25250005735739123 
	0.27429425027763721 0.0092275376123550426 0.25176443686066563 
	0.38288254486327877 0.027682665457199315 0.25029319555772772 
	0.54576498947783014 0.055365341273215601 0.2480863354602289 
	0.70864743265468866 0.083048022396013693 0.24587943581409047 
	0.81723572837977354 0.10150314213373127 0.24440817691640412 
	0.87152987620808564 0.1107307021289409 0.24367254652592826 
	0 
	null_surface 
	null_surface 
	nullbs 
	nullbs 
	-1 
	-1 
	I I 
	0 
	0 
	3 0.16523284036611097 0.33046568073222193 0.4956985210983329 
	
	-1 
	none F F 1 F 0 } I I #
-26 tvertex-vertex $-1 -1 -1 $-1 $17 $32 0.0014075102820386091 #
-27 straight-curve $-1 -1 -1 $-1 0.54555956274271011 -0.056685736063800007 0.004519062591715084 -0.98508555653566199 0.17152107005054837 -0.013673654725050029 F -0.33048851523693767 F 0.33048851523693767 #
-28 point $-1 -1 -1 $-1 0.22000010311603546 2.6755170523529159e-008 7.5455751868958032e-008 #
-29 point $-1 -1 -1 $-1 0.22000010311603546 -2.4729530423428514e-008 0.25250008702278137 #
-30 intcurve-curve $-1 -1 -1 $-1 forward { exactcur full nubs 3 open 5 
	0 3 0.08125568896629444 1 0.16251137793258888 1 0.24376706689888333 1 0.32502275586517776 3 
	0.87152987718582486 0.11073070019483588 0.24367259442806266 
	0.87407823217845548 0.092627752048179718 0.22368762956148167 
	0.87843999008165619 0.056066440184365005 0.18396806159723822 
	0.88143856864678849 -0.00060894847152676533 0.12566500934533037 
	0.87556638385588548 -0.057019468344614639 0.067373812788398255 
	0.87334065580952847 -0.094676920250162666 0.028510767568142716 
	0.87111902236938521 -0.11337149888277057 0.0090380497276782816 
	0 
	null_surface 
	null_surface 
	nullbs 
	nullbs 
	-1 
	-1 
	I I 
	0 
	0 
	3 0.08125568896629444 0.16251137793258888 0.24376706689888333 
	
	-1 
	none F F 1 F 0 } I I #
-31 point $-1 -1 -1 $-1 0.87152987718582153 0.11073070019483566 0.24367259442806244 #
-32 point $-1 -1 -1 $-1 0.87111902236938477 -0.11337149888277054 0.009038049727678299 #
End-of-ACIS-data 
