1900 0 1 0           
35 Abaqus, Inc. - Abaqus 6.12-3 - 2002 14 ACIS 20.0.2 NT 24 Thu Oct 11 11:57:52 2012 
1 9.9999999999999995e-007 1e-010 
-0 body $1 -1 -1 $-1 $2 $-1 $3 T 17.875 -0.58808600000000011 0 25.125000000000007 6.4119139999999994 0 #
-1 string_attrib-name_attrib-gen-attrib $-1 -1 $4 $-1 $0 2 1 1 1 1 1 1 1 1 1 1 1 1 1 0 1 1 1 @13 HKS_PART_NAME @4 seal #
-2 lump $-1 -1 -1 $-1 $-1 $5 $0 T 17.875 -0.58808600000000011 0 25.125000000000007 6.4119139999999994 0 #
-3 transform $-1 -1 1 0 0 0 1 0 0 0 1 0 0 0 1 no_rotate no_reflect no_shear #
-4 string_attrib-name_attrib-gen-attrib $-1 -1 $-1 $1 $0 2 1 1 1 1 1 1 1 1 1 1 1 1 1 0 1 1 1 @18 HKS_ATTRIB_BODY_ID @1 1 #
-5 shell $-1 -1 -1 $-1 $-1 $-1 $6 $-1 $2 T 17.875 -0.58808600000000011 0 25.125000000000007 6.4119139999999994 0 #
-6 face $-1 -1 -1 $-1 $7 $8 $5 $-1 $9 forward double out T 23.124999965098091 4.4119139999711932 -1.2325951644078309e-032 24.375000000000799 5.6619139999719934 0 F #
-7 face $-1 -1 -1 $-1 $10 $11 $5 $-1 $9 forward double out T 20.625 4.9119139999999994 0 23.125000221007085 5.6619139999999994 0 F #
-8 loop $-1 -1 -1 $-1 $-1 $12 $6 T 23.124999965098091 4.4119139999711932 -1.2325951644078309e-032 24.375000000000799 5.6619139999719934 0 periphery $9 F #
-9 plane-surface $-1 -1 -1 $-1 21.730387224878804 3.0603828734350174 0 0 0 1 1 0 0 forward_v I I I I #
-10 face $-1 -1 -1 $-1 $13 $14 $5 $-1 $9 forward double out T 23.625 0.41191400000004652 -1.2325951644078309e-032 24.375000000000799 4.4119141284872869 0 F #
-11 loop $-1 -1 -1 $-1 $-1 $15 $7 T 20.625 4.9119139999999994 0 23.125000221007085 5.6619139999999994 0 periphery $9 F #
-12 coedge $-1 -1 -1 $-1 $16 $17 $18 $19 reversed $8 $-1 #
-13 face $-1 -1 -1 $-1 $-1 $20 $5 $-1 $9 forward double out T 17.875 -0.58808600000000011 0 25.125000000000007 6.4119139999999994 0 F #
-14 loop $-1 -1 -1 $-1 $-1 $18 $10 T 23.625 0.41191400000004652 -1.2325951644078309e-032 24.375000000000799 4.4119141284872869 0 periphery $9 F #
-15 coedge $-1 -1 -1 $-1 $21 $22 $23 $24 reversed $11 $-1 #
-16 coedge $-1 -1 -1 $-1 $23 $12 $25 $26 reversed $8 $-1 #
-17 coedge $-1 -1 -1 $-1 $12 $23 $27 $28 reversed $8 $-1 #
-18 coedge $-1 -1 -1 $-1 $29 $30 $12 $19 forward $14 $-1 #
-19 edge $-1 -1 -1 $-1 $31 -1.509806271765517 $32 -0.75980627176470661 $18 $33 forward @7 unknown T 23.625 4.4119139999711932 -1.2325951644078309e-032 24.375000000000799 4.4119141284872869 0 #
-20 loop $-1 -1 -1 $-1 $34 $35 $13 T 20.625 0.41191400000004652 0 24.375000000000799 5.6619139999999994 0 hole $9 F #
-21 coedge $-1 -1 -1 $-1 $36 $15 $37 $38 reversed $11 $-1 #
-22 coedge $-1 -1 -1 $-1 $15 $36 $39 $40 reversed $11 $-1 #
-23 coedge $-1 -1 -1 $-1 $17 $16 $15 $24 forward $8 $-1 #
-24 edge $-1 -1 -1 $-1 $41 -1.4882653253321307 $42 -0.73826532536009315 $23 $43 forward @7 unknown T 23.124999965098091 4.9119139999999994 0 23.125000221007085 5.6619139999719934 0 #
-25 coedge $-1 -1 -1 $-1 $44 $37 $16 $26 forward $20 $-1 #
-26 edge $-1 -1 -1 $-1 $41 -1.5707963547164208 $31 0 $25 $45 forward @7 unknown T 23.124999965098095 4.411913999971194 0 24.375000000000799 5.6619139999719934 0 #
-27 coedge $-1 -1 -1 $-1 $39 $46 $17 $28 forward $20 $-1 #
-28 edge $-1 -1 -1 $-1 $32 2.5697457495252881e-007 $42 1.5707958847807273 $27 $47 forward @7 unknown T 23.125000221007085 4.4119141284872869 0 23.625000000000032 4.9119139999999994 0 #
-29 coedge $-1 -1 -1 $-1 $48 $18 $46 $49 reversed $14 $-1 #
-30 coedge $-1 -1 -1 $-1 $18 $48 $44 $50 reversed $14 $-1 #
-31 vertex $-1 -1 -1 $-1 $50 $51 #
-32 vertex $-1 -1 -1 $-1 $28 $52 #
-33 straight-curve $-1 -1 -1 $-1 22.865193728235305 4.4119142586837308 -1.2325951644078309e-032 -0.99999999999998535 1.7135479050485913e-007 0 I I #
-34 loop $-1 -1 -1 $-1 $-1 $53 $13 T 17.875 -0.58808600000000011 0 25.125000000000007 6.4119139999999994 0 periphery $9 F #
-35 coedge $-1 -1 -1 $-1 $37 $39 $36 $54 forward $20 $-1 #
-36 coedge $-1 -1 -1 $-1 $22 $21 $35 $54 reversed $11 $-1 #
-37 coedge $-1 -1 -1 $-1 $25 $35 $21 $38 forward $20 $-1 #
-38 edge $-1 -1 -1 $-1 $55 -1.1776936037284997 $41 1.3223063613695949 $37 $56 forward @7 unknown T 20.625 5.6619139999719934 0 23.124999965098095 5.6619139999999994 0 #
-39 coedge $-1 -1 -1 $-1 $35 $27 $22 $40 forward $20 $-1 #
-40 edge $-1 -1 -1 $-1 $42 -1.3223065533159115 $57 1.1776936676911731 $39 $58 forward @7 unknown T 20.625 4.9119139999999994 0 23.125000221007085 4.9119139999999994 0 #
-41 vertex $-1 -1 -1 $-1 $26 $59 #
-42 vertex $-1 -1 -1 $-1 $40 $60 #
-43 straight-curve $-1 -1 -1 $-1 23.12500047291206 4.1736486746399493 0 3.4121198667797907e-007 -0.99999999999994182 0 I I #
-44 coedge $-1 -1 -1 $-1 $61 $25 $30 $50 forward $20 $-1 #
-45 ellipse-curve $-1 -1 -1 $-1 23.125 4.411913999971194 0 -0 -0 -1 1.2500000000007994 0 0 1 I I #
-46 coedge $-1 -1 -1 $-1 $27 $61 $29 $49 forward $20 $-1 #
-47 ellipse-curve $-1 -1 -1 $-1 23.125 4.4119139999999994 0 0 0 1 0.50000000000004885 0 0 1 I I #
-48 coedge $-1 -1 -1 $-1 $30 $29 $61 $62 reversed $14 $-1 #
-49 edge $-1 -1 -1 $-1 $63 -2.3242344688392955 $32 1.6757656596479449 $46 $64 forward @7 unknown T 23.625 0.41191400000004652 0 23.625 4.4119141284872869 0 #
-50 edge $-1 -1 -1 $-1 $31 -1.675765563260875 $65 2.3242344367102725 $44 $66 forward @7 unknown T 24.375 0.41191400000004652 0 24.375000000000799 4.411913999971194 0 #
-51 point $-1 -1 -1 $-1 24.375000000000799 4.411913999971194 0 #
-52 point $-1 -1 -1 $-1 23.625 4.4119141284872869 0 #
-53 coedge $-1 -1 -1 $-1 $67 $68 $-1 $69 reversed $34 $-1 #
-54 edge $-1 -1 -1 $-1 $57 0.73826556328249104 $55 1.488265563282491 $35 $70 forward @7 unknown T 20.625 4.9119139999999994 0 20.625 5.6619139999999994 0 #
-55 vertex $-1 -1 -1 $-1 $54 $71 #
-56 straight-curve $-1 -1 -1 $-1 21.8026936037285 5.6619139999868064 0 1 -1.1202416928388021e-011 0 I I #
-57 vertex $-1 -1 -1 $-1 $54 $72 #
-58 straight-curve $-1 -1 -1 $-1 21.802693667691173 4.9119139999999994 0 -1 0 0 I I #
-59 point $-1 -1 -1 $-1 23.124999965098095 5.6619139999719934 0 #
-60 point $-1 -1 -1 $-1 23.125000221007085 4.9119139999999994 0 #
-61 coedge $-1 -1 -1 $-1 $46 $44 $48 $62 forward $20 $-1 #
-62 edge $-1 -1 -1 $-1 $65 -1.509806387560598 $63 -0.75980638756059804 $61 $73 forward @7 unknown T 23.625 0.41191400000004652 0 24.375 0.41191400000004652 0 #
-63 vertex $-1 -1 -1 $-1 $49 $74 #
-64 straight-curve $-1 -1 -1 $-1 23.625 2.736148468839342 0 0 1 0 I I #
-65 vertex $-1 -1 -1 $-1 $62 $75 #
-66 straight-curve $-1 -1 -1 $-1 24.375 2.736148436710319 0 -0 -1 0 I I #
-67 coedge $-1 -1 -1 $-1 $76 $53 $-1 $77 forward $34 $-1 #
-68 coedge $-1 -1 -1 $-1 $53 $78 $-1 $79 forward $34 $-1 #
-69 edge $-1 -1 -1 $-1 $80 -1.570796326794893 $81 0 $53 $82 forward @7 unknown T 24.125000000000004 5.4119139999999986 0 25.125 6.4119139999999994 0 #
-70 straight-curve $-1 -1 -1 $-1 20.625 4.1736484367175084 0 0 1 0 I I #
-71 point $-1 -1 -1 $-1 20.625 5.6619139999999994 0 #
-72 point $-1 -1 -1 $-1 20.625 4.9119139999999994 0 #
-73 straight-curve $-1 -1 -1 $-1 22.865193612439402 0.41191400000004652 0 -1 0 0 I I #
-74 point $-1 -1 -1 $-1 23.625 0.41191400000004652 0 #
-75 point $-1 -1 -1 $-1 24.375 0.41191400000004652 0 #
-76 coedge $-1 -1 -1 $-1 $83 $67 $-1 $84 reversed $34 $-1 #
-77 edge $-1 -1 -1 $-1 $80 0 $85 4.3750000000000036 $67 $86 forward @7 unknown T 19.75 6.4119139999999994 0 24.125000000000004 6.4119139999999994 0 #
-78 coedge $-1 -1 -1 $-1 $68 $87 $-1 $88 forward $34 $-1 #
-79 edge $-1 -1 -1 $-1 $89 0 $81 5.4999999999999991 $68 $90 forward @7 unknown T 25.124999999999996 -0.08808600000000022 0 25.125000000000007 5.4119139999999986 0 #
-80 vertex $-1 -1 -1 $-1 $69 $91 #
-81 vertex $-1 -1 -1 $-1 $69 $92 #
-82 ellipse-curve $-1 -1 -1 $-1 24.125 5.4119139999999986 0 -0 -0 -1 1.0000000000000009 0 0 1 I I #
-83 coedge $-1 -1 -1 $-1 $93 $76 $-1 $94 forward $34 $-1 #
-84 edge $-1 -1 -1 $-1 $95 -3.1415926535897931 $85 -1.5707963267948966 $76 $96 forward @7 unknown T 18.75 5.4119139999999994 0 19.75 6.4119139999999994 0 #
-85 vertex $-1 -1 -1 $-1 $84 $97 #
-86 straight-curve $-1 -1 -1 $-1 24.125000000000004 6.4119139999999994 0 -1 0 0 I I #
-87 coedge $-1 -1 -1 $-1 $78 $98 $-1 $99 forward $34 $-1 #
-88 edge $-1 -1 -1 $-1 $100 0 $89 0.60355358441460749 $78 $101 forward @7 unknown T 24.69822316765099 -0.51486283234901609 0 25.125000000000007 -0.088086000000000164 0 #
-89 vertex $-1 -1 -1 $-1 $79 $102 #
-90 straight-curve $-1 -1 -1 $-1 25.125000000000007 -0.08808600000000022 0 -1.9378438248002735e-015 1 0 I I #
-91 point $-1 -1 -1 $-1 24.125000000000004 6.4119139999999994 0 #
-92 point $-1 -1 -1 $-1 25.125 5.4119139999999986 0 #
-93 coedge $-1 -1 -1 $-1 $103 $83 $-1 $104 forward $34 $-1 #
-94 edge $-1 -1 -1 $-1 $95 0 $105 1 $83 $106 forward @7 unknown T 18.75 4.4119139999999994 0 18.75 5.4119139999999994 0 #
-95 vertex $-1 -1 -1 $-1 $94 $107 #
-96 ellipse-curve $-1 -1 -1 $-1 19.75 5.4119139999999994 0 -0 -0 -1 1 0 0 1 I I #
-97 point $-1 -1 -1 $-1 19.75 6.4119139999999994 0 #
-98 coedge $-1 -1 -1 $-1 $87 $108 $-1 $109 forward $34 $-1 #
-99 edge $-1 -1 -1 $-1 $110 -1.5707955473269575 $100 -0.78539893868277399 $87 $111 forward @7 unknown T 24.521446804273715 -0.58808600000000011 0 24.69822316765099 -0.51486283234901531 0 #
-100 vertex $-1 -1 -1 $-1 $88 $112 #
-101 straight-curve $-1 -1 -1 $-1 24.69822316765099 -0.51486283234901609 0 0.70710678118654824 0.70710678118654691 0 I I #
-102 point $-1 -1 -1 $-1 25.125000000000007 -0.08808600000000022 0 #
-103 coedge $-1 -1 -1 $-1 $113 $93 $-1 $114 forward $34 $-1 #
-104 edge $-1 -1 -1 $-1 $105 0 $115 3.1249999999999996 $93 $116 forward @7 unknown T 17.875 1.4119139999999999 0 18.75 4.4119139999999994 0 #
-105 vertex $-1 -1 -1 $-1 $104 $117 #
-106 straight-curve $-1 -1 -1 $-1 18.75 5.4119139999999994 0 0 -1 0 I I #
-107 point $-1 -1 -1 $-1 18.75 5.4119139999999994 0 #
-108 coedge $-1 -1 -1 $-1 $98 $118 $-1 $119 forward $34 $-1 #
-109 edge $-1 -1 -1 $-1 $120 0 $110 0.89644709673626366 $98 $121 forward @7 unknown T 23.624999707537452 -0.58808600000000011 0 24.521446804273715 -0.588086 0 #
-110 vertex $-1 -1 -1 $-1 $99 $122 #
-111 ellipse-curve $-1 -1 -1 $-1 24.52144660940673 -0.33808600000000011 0 0 0 1 0.25000000000007594 0 0 1 I I #
-112 point $-1 -1 -1 $-1 24.69822316765099 -0.51486283234901609 0 #
-113 coedge $-1 -1 -1 $-1 $123 $103 $-1 $124 forward $34 $-1 #
-114 edge $-1 -1 -1 $-1 $115 0 $125 2.0501524333570904 $103 $126 forward @7 unknown T 17.875 0.16191399999999989 0 19.5 1.4119139999999999 0 #
-115 vertex $-1 -1 -1 $-1 $114 $127 #
-116 straight-curve $-1 -1 -1 $-1 18.75 4.4119139999999994 0 -0.28000000000000003 -0.95999999999999996 0 I I #
-117 point $-1 -1 -1 $-1 18.75 4.4119139999999994 0 #
-118 coedge $-1 -1 -1 $-1 $108 $128 $-1 $129 forward $34 $-1 #
-119 edge $-1 -1 -1 $-1 $130 -3.1415926535897931 $120 -1.5707969117200005 $108 $131 forward @7 unknown T 23.125000000000007 -0.588086 0 23.624999707537452 -0.088086000000000386 0 #
-120 vertex $-1 -1 -1 $-1 $109 $132 #
-121 straight-curve $-1 -1 -1 $-1 23.624999707537452 -0.588086 0 1 -1.2384702105313261e-016 0 I I #
-122 point $-1 -1 -1 $-1 24.521446804273715 -0.58808600000000011 0 #
-123 coedge $-1 -1 -1 $-1 $133 $113 $-1 $134 reversed $34 $-1 #
-124 edge $-1 -1 -1 $-1 $125 0 $135 0.625 $113 $136 forward @7 unknown T 19.5 0.16191399999999989 0 20.125 0.161914 0 #
-125 vertex $-1 -1 -1 $-1 $124 $137 #
-126 straight-curve $-1 -1 -1 $-1 17.875 1.4119139999999999 0 0.79262398910459997 -0.60971076084969233 0 I I #
-127 point $-1 -1 -1 $-1 17.875 1.4119139999999999 0 #
-128 coedge $-1 -1 -1 $-1 $118 $138 $-1 $139 forward $34 $-1 #
-129 edge $-1 -1 -1 $-1 $140 0 $130 3.7500001743297768 $118 $141 forward @7 unknown T 23.125000000000007 -0.088086000000000553 0 23.125000000000007 3.6619141743297763 0 #
-130 vertex $-1 -1 -1 $-1 $119 $142 #
-131 ellipse-curve $-1 -1 -1 $-1 23.625000000000004 -0.088086000000000442 0 0 0 1 0.49999999999999645 0 0 1 I I #
-132 point $-1 -1 -1 $-1 23.624999707537452 -0.588086 0 #
-133 coedge $-1 -1 -1 $-1 $143 $123 $-1 $144 forward $34 $-1 #
-134 edge $-1 -1 -1 $-1 $145 -1.5707963267949911 $135 1.5707963267949911 $123 $146 forward @7 unknown T 20.125 0.161914 0 20.500000000000039 0.91191400000000378 0 #
-135 vertex $-1 -1 -1 $-1 $134 $147 #
-136 straight-curve $-1 -1 -1 $-1 19.5 0.16191399999999989 0 1 0 0 I I #
-137 point $-1 -1 -1 $-1 19.5 0.16191399999999989 0 #
-138 coedge $-1 -1 -1 $-1 $128 $148 $-1 $149 forward $34 $-1 #
-139 edge $-1 -1 -1 $-1 $150 -1.5707963267949037 $140 -3.4865955278462797e-007 $128 $151 forward @7 unknown T 22.625000000000004 3.6619141743297763 0 23.125000000000007 4.1619140000000039 0 #
-140 vertex $-1 -1 -1 $-1 $129 $152 #
-141 straight-curve $-1 -1 -1 $-1 23.125000000000007 3.6619141743297763 0 0 -1 0 I I #
-142 point $-1 -1 -1 $-1 23.125000000000007 -0.088086000000000386 0 #
-143 coedge $-1 -1 -1 $-1 $153 $133 $-1 $154 reversed $34 $-1 #
-144 edge $-1 -1 -1 $-1 $145 0 $155 0.25 $133 $156 forward @7 unknown T 19.875 0.91191399999999978 0 20.125 0.91191400000000378 0 #
-145 vertex $-1 -1 -1 $-1 $144 $157 #
-146 ellipse-curve $-1 -1 -1 $-1 20.125000000000036 0.53691400000000189 0 -0 -0 -1 0.37500000000000189 0 0 1 I I #
-147 point $-1 -1 -1 $-1 20.125 0.161914 0 #
-148 coedge $-1 -1 -1 $-1 $138 $153 $-1 $158 forward $34 $-1 #
-149 edge $-1 -1 -1 $-1 $159 0 $150 1.7500000000000462 $138 $160 forward @7 unknown T 20.874999999999957 4.1619139999999994 0 22.625000000000004 4.1619140000000039 0 #
-150 vertex $-1 -1 -1 $-1 $139 $161 #
-151 ellipse-curve $-1 -1 -1 $-1 22.625000000000007 3.6619139999999999 0 -0 -0 -1 0.500000000000004 0 0 1 I I #
-152 point $-1 -1 -1 $-1 23.125000000000007 3.6619141743297763 0 #
-153 coedge $-1 -1 -1 $-1 $148 $143 $-1 $162 forward $34 $-1 #
-154 edge $-1 -1 -1 $-1 $163 1.5707963267948966 $155 4.7123889803846808 $143 $164 forward @7 unknown T 19.125000000000007 0.91191400000000034 0 19.875000000000007 2.4119139999999994 0 #
-155 vertex $-1 -1 -1 $-1 $154 $165 #
-156 straight-curve $-1 -1 -1 $-1 20.125 0.91191400000000378 0 -1 -1.5987211554602254e-014 0 I I #
-157 point $-1 -1 -1 $-1 20.125 0.91191400000000378 0 #
-158 edge $-1 -1 -1 $-1 $166 -3.1415923600709572 $159 -1.5707963267949356 $148 $167 forward @7 unknown T 19.875000000000004 3.1619142935188354 0 20.874999999999957 4.1619140000000359 0 #
-159 vertex $-1 -1 -1 $-1 $149 $168 #
-160 straight-curve $-1 -1 -1 $-1 20.874999999999957 4.1619139999999994 0 1 2.5376526277145765e-015 0 I I #
-161 point $-1 -1 -1 $-1 22.625000000000004 4.1619140000000039 0 #
-162 edge $-1 -1 -1 $-1 $163 0 $166 0.7500002935188359 $153 $169 forward @7 unknown T 19.875000000000004 2.4119139999999994 0 19.875000000000007 3.1619142935188354 0 #
-163 vertex $-1 -1 -1 $-1 $162 $170 #
-164 ellipse-curve $-1 -1 -1 $-1 19.875000000000007 1.6619139999999999 0 0 0 1 0.74999999999999956 0 0 1 I I #
-165 point $-1 -1 -1 $-1 19.875 0.91191400000000034 0 #
-166 vertex $-1 -1 -1 $-1 $158 $171 #
-167 ellipse-curve $-1 -1 -1 $-1 20.874999999999996 3.1619139999999999 0 -0 -0 -1 1.000000000000036 0 0 1 I I #
-168 point $-1 -1 -1 $-1 20.874999999999957 4.1619139999999994 0 #
-169 straight-curve $-1 -1 -1 $-1 19.875000000000007 2.4119139999999994 0 -4.7369497177357505e-015 1 0 I I #
-170 point $-1 -1 -1 $-1 19.875000000000007 2.4119139999999994 0 #
-171 point $-1 -1 -1 $-1 19.875000000000004 3.1619142935188354 0 #
End-of-ACIS-data 
