1900 0 1 0           
37 Abaqus, Inc. - Abaqus 6.10-MNT - 2002 14 ACIS 20.0.2 NT 24 Mon May 17 10:08:56 2010 
1 9.9999999999999995e-007 1e-010 
-0 body $1 -1 -1 $-1 $2 $-1 $3 T -0.81298750000001507 -0.22307227944380364 0 0.54991249999998493 0.37902772055619627 3.6929224228288432e-017 #
-1 string_attrib-name_attrib-gen-attrib $-1 -1 $4 $-1 $0 2 1 1 1 1 1 1 1 1 1 1 1 1 1 0 1 1 1 @13 HKS_PART_NAME @5 Strut #
-2 lump $-1 -1 -1 $-1 $-1 $5 $0 T -0.81298750000001507 -0.22307227944380364 0 0.54991249999998493 0.37902772055619627 3.6929224228288432e-017 #
-3 transform $-1 -1 1 0 0 0 1 0 0 0 1 0 0 0 1 no_rotate no_reflect no_shear #
-4 string_attrib-name_attrib-gen-attrib $-1 -1 $-1 $1 $0 2 1 1 1 1 1 1 1 1 1 1 1 1 1 0 1 1 1 @18 HKS_ATTRIB_BODY_ID @1 1 #
-5 shell $-1 -1 -1 $-1 $-1 $-1 $6 $-1 $2 T -0.81298750000001507 -0.22307227944380364 0 0.54991249999998493 0.37902772055619627 3.6929224228288432e-017 #
-6 face $-1 -1 -1 $-1 $-1 $7 $5 $-1 $8 forward double out F F #
-7 loop $-1 -1 -1 $-1 $-1 $9 $6 T -0.81298750000001507 -0.22307227944380364 0 0.54991249999998493 0.37902772055619627 3.6929224228288432e-017 periphery $8 F #
-8 plane-surface $-1 -1 -1 $-1 -0.1040680458145707 0.077977720556196312 9.6440549035400081e-018 -1.4407942194727797e-017 6.2648021982586727e-017 1 1 -0 1.4407942194727797e-017 forward_v I I I I #
-9 coedge $-1 -1 -1 $-1 $10 $11 $-1 $12 reversed $7 $-1 #
-10 coedge $-1 -1 -1 $-1 $13 $9 $-1 $14 forward $7 $-1 #
-11 coedge $-1 -1 -1 $-1 $9 $15 $-1 $16 reversed $7 $-1 #
-12 edge $-1 -1 -1 $-1 $17 0 $18 0.13104999999999994 $9 $19 forward @7 unknown T 0.41886249999998498 0.37902772055619627 0 0.54991249999998493 0.37902772055619627 0 #
-13 coedge $-1 -1 -1 $-1 $20 $10 $-1 $21 forward $7 $-1 #
-14 edge $-1 -1 -1 $-1 $17 0 $22 1.5707963267948966 $10 $23 forward @7 unknown T 0.33386249999998496 0.29402772055619625 0 0.41886249999998498 0.37902772055619627 0 #
-15 coedge $-1 -1 -1 $-1 $11 $24 $-1 $25 forward $7 $-1 #
-16 edge $-1 -1 -1 $-1 $18 0 $26 1.5707963267948966 $11 $27 forward @7 unknown T 0.33386249999998496 0.1629777205561963 0 0.54991249999998493 0.37902772055619627 0 #
-17 vertex $-1 -1 -1 $-1 $12 $28 #
-18 vertex $-1 -1 -1 $-1 $12 $29 #
-19 straight-curve $-1 -1 -1 $-1 0.41886249999998498 0.37902772055619627 0 1 0 0 I I #
-20 coedge $-1 -1 -1 $-1 $30 $13 $-1 $31 forward $7 $-1 #
-21 edge $-1 -1 -1 $-1 $22 0 $32 0.93080000000000007 $13 $33 forward @7 unknown T -0.59693750000001511 0.29402772055619625 0 0.33386249999998496 0.2940277205561963 0 #
-22 vertex $-1 -1 -1 $-1 $21 $34 #
-23 ellipse-curve $-1 -1 -1 $-1 0.33386249999998496 0.37902772055619627 0 -0 -0 -1 0.08500000000000002 0 0 1 I I #
-24 coedge $-1 -1 -1 $-1 $15 $35 $-1 $36 reversed $7 $-1 #
-25 edge $-1 -1 -1 $-1 $37 0 $26 0.93080000000000007 $15 $38 forward @7 unknown T -0.59693750000001511 0.1629777205561963 0 0.33386249999998496 0.16297772055619636 0 #
-26 vertex $-1 -1 -1 $-1 $16 $39 #
-27 ellipse-curve $-1 -1 -1 $-1 0.33386249999998496 0.37902772055619627 0 -0 -0 -1 0.21604999999999996 0 0 1 I I #
-28 point $-1 -1 -1 $-1 0.41886249999998498 0.37902772055619627 0 #
-29 point $-1 -1 -1 $-1 0.54991249999998493 0.37902772055619627 0 #
-30 coedge $-1 -1 -1 $-1 $40 $20 $-1 $41 reversed $7 $-1 #
-31 edge $-1 -1 -1 $-1 $32 1.5707963267948966 $42 3.1415926535897931 $20 $43 forward @7 unknown T -0.81298750000001507 0.077977720556196298 0 -0.59693750000001511 0.29402772055619625 1.5407439555097887e-033 #
-32 vertex $-1 -1 -1 $-1 $31 $44 #
-33 straight-curve $-1 -1 -1 $-1 0.33386249999998496 0.2940277205561963 0 -1 -5.9638108327522376e-017 0 I I #
-34 point $-1 -1 -1 $-1 0.33386249999998496 0.2940277205561963 0 #
-35 coedge $-1 -1 -1 $-1 $24 $45 $-1 $46 forward $7 $-1 #
-36 edge $-1 -1 -1 $-1 $37 1.5707963267948966 $47 3.1415926535897931 $24 $48 forward @7 unknown T -0.68193750000001518 0.077977720556196339 0 -0.59693750000001511 0.16297772055619636 0 #
-37 vertex $-1 -1 -1 $-1 $25 $49 #
-38 straight-curve $-1 -1 -1 $-1 -0.59693750000001511 0.16297772055619636 0 1 -5.9638108327522376e-017 0 I I #
-39 point $-1 -1 -1 $-1 0.33386249999998496 0.1629777205561963 0 #
-40 coedge $-1 -1 -1 $-1 $50 $30 $-1 $51 reversed $7 $-1 #
-41 edge $-1 -1 -1 $-1 $52 1.5707963267948966 $42 3.1415926535897931 $30 $53 forward @7 unknown T -0.81298750000001507 -0.13807227944380357 1.5407439555097887e-033 -0.59693750000001511 0.077977720556196298 2.651972643553591e-017 #
-42 vertex $-1 -1 -1 $-1 $41 $54 #
-43 ellipse-curve $-1 -1 -1 $-1 -0.59693750000001511 0.077977720556196325 0 0 0 1 0.21604999999999991 0 0 1 I I #
-44 point $-1 -1 -1 $-1 -0.59693750000001511 0.29402772055619625 0 #
-45 coedge $-1 -1 -1 $-1 $35 $55 $-1 $56 reversed $7 $-1 #
-46 edge $-1 -1 -1 $-1 $57 1.5707963267948966 $47 3.1415926535897931 $35 $58 forward @7 unknown T -0.68193750000001518 -0.0070222794438037084 0 -0.59693750000001511 0.077977720556196339 1.5407439555097887e-033 #
-47 vertex $-1 -1 -1 $-1 $36 $59 #
-48 ellipse-curve $-1 -1 -1 $-1 -0.59693750000001511 0.077977720556196325 0 0 0 1 0.085000000000000034 0 0 1 I I #
-49 point $-1 -1 -1 $-1 -0.59693750000001511 0.16297772055619636 0 #
-50 coedge $-1 -1 -1 $-1 $60 $40 $-1 $61 reversed $7 $-1 #
-51 edge $-1 -1 -1 $-1 $62 -2.7569180582855004e-049 $52 0.93080000000000007 $40 $63 forward @7 unknown T -0.59693750000001511 -0.13807227944380362 2.651972643553591e-017 0.33386249999998496 -0.13807227944380357 3.6929224228288432e-017 #
-52 vertex $-1 -1 -1 $-1 $51 $64 #
-53 ellipse-curve $-1 -1 -1 $-1 -0.59693750000001511 0.077977720556196325 1.5407439555097887e-033 -0 -0 -1 0.21604999999999991 0 0 1 I I #
-54 point $-1 -1 -1 $-1 -0.81298750000001507 0.077977720556196298 1.5407439555097887e-033 #
-55 coedge $-1 -1 -1 $-1 $45 $60 $-1 $65 forward $7 $-1 #
-56 edge $-1 -1 -1 $-1 $57 0 $66 0.93080000000000007 $45 $67 forward @7 unknown T -0.59693750000001511 -0.0070222794438037084 1.5407439555097887e-033 0.33386249999998496 -0.0070222794438036529 1.0409497792752508e-017 #
-57 vertex $-1 -1 -1 $-1 $46 $68 #
-58 ellipse-curve $-1 -1 -1 $-1 -0.59693750000001511 0.077977720556196325 1.5407439555097887e-033 -0 -0 -1 0.085000000000000034 0 0 1 I I #
-59 point $-1 -1 -1 $-1 -0.68193750000001518 0.077977720556196339 0 #
-60 coedge $-1 -1 -1 $-1 $55 $50 $-1 $69 forward $7 $-1 #
-61 edge $-1 -1 -1 $-1 $70 6.5307236742656252e-016 $62 1.5707963267948966 $50 $71 forward @7 unknown T 0.33386249999998496 -0.22307227944380359 3.6929224228288432e-017 0.41886249999998498 -0.13807227944380362 3.6929224228288432e-017 #
-62 vertex $-1 -1 -1 $-1 $61 $72 #
-63 straight-curve $-1 -1 -1 $-1 0.33386249999998496 -0.13807227944380362 2.6519726435535935e-017 -1 5.9638108327522376e-017 -2.6484640404121851e-032 I I #
-64 point $-1 -1 -1 $-1 -0.59693750000001511 -0.13807227944380357 2.651972643553591e-017 #
-65 edge $-1 -1 -1 $-1 $73 0 $66 1.5707963267948966 $55 $74 forward @7 unknown T 0.33386249999998496 -0.22307227944380364 1.0409497792752508e-017 0.54991249999998493 -0.0070222794438036529 3.6929224228288432e-017 #
-66 vertex $-1 -1 -1 $-1 $56 $75 #
-67 straight-curve $-1 -1 -1 $-1 -0.59693750000001511 -0.0070222794438037084 1.0409497792752508e-017 1 5.9638108327522376e-017 0 I I #
-68 point $-1 -1 -1 $-1 -0.59693750000001511 -0.0070222794438037084 1.5407439555097887e-033 #
-69 edge $-1 -1 -1 $-1 $70 0 $73 0.13104999999999994 $60 $76 forward @7 unknown T 0.41886249999998498 -0.22307227944380364 3.6929224228288432e-017 0.54991249999998493 -0.22307227944380359 3.6929224228288432e-017 #
-70 vertex $-1 -1 -1 $-1 $69 $77 #
-71 ellipse-curve $-1 -1 -1 $-1 0.33386249999998496 -0.22307227944380364 3.6929224228288432e-017 0 0 1 0.08500000000000002 0 0 1 I I #
-72 point $-1 -1 -1 $-1 0.33386249999998496 -0.13807227944380362 3.6929224228288432e-017 #
-73 vertex $-1 -1 -1 $-1 $65 $78 #
-74 ellipse-curve $-1 -1 -1 $-1 0.33386249999998496 -0.22307227944380364 3.6929224228288432e-017 0 0 1 0.21604999999999996 0 0 1 I I #
-75 point $-1 -1 -1 $-1 0.33386249999998496 -0.0070222794438036529 1.0409497792752508e-017 #
-76 straight-curve $-1 -1 -1 $-1 0.41886249999998498 -0.22307227944380359 3.6929224228288432e-017 1 -4.235875713945658e-016 0 I I #
-77 point $-1 -1 -1 $-1 0.41886249999998498 -0.22307227944380359 3.6929224228288432e-017 #
-78 point $-1 -1 -1 $-1 0.54991249999998493 -0.22307227944380364 3.6929224228288432e-017 #
End-of-ACIS-data 
