1900 0 1 0           
33 Abaqus, Inc. - Abaqus 6.9-2 - 190 12 ACIS 19.0 NT 24 Mon Jan 18 13:58:27 2010 
1 9.9999999999999995e-007 1e-010 
-0 body $1 -1 -1 $-1 $2 $-1 $3 T -5.0000000000000036 -24.823158419799743 -12.500336690121213 5.0000000000000062 4.0450284196297153 0.00033668982702713009 #
-1 string_attrib-name_attrib-gen-attrib $-1 -1 $-1 $-1 $0 2 1 1 1 1 1 1 1 1 1 1 1 1 1 0 1 1 1 @13 HKS_PART_NAME @9 half_bolt #
-2 lump $4 -1 -1 $-1 $-1 $5 $0 T -5.0000000000000036 -24.823158419799743 -12.500336690121213 5.0000000000000062 4.0450284196297153 0.00033668982702713009 #
-3 transform $-1 -1 1 0 0 0 1 0 0 0 1 0 0 0 1 no_rotate no_reflect no_shear #
-4 cell_ptr-ct-attrib $-1 -1 $-1 $-1 $2 1 1 1 1 1 1 1 1 1 1 1 1 0 1 0 1 1 1 $6 $-1 auto #
-5 shell $-1 -1 -1 $-1 $-1 $-1 $7 $-1 $2 T -5.0000000000000036 -24.823158419799743 -12.500336690121213 5.0000000000000062 4.0450284196297153 0.00033668982702713009 #
-6 cell3d-cell $-1 -1 $-1 $2 $-1 1 $8 #
-7 face $9 -1 -1 $-1 $10 $11 $5 $-1 $12 reversed single T -5.0000000000000018 -3.8890650000000013 -1.4717116414431075e-010 5 4.0446917296556482 0 F #
-8 cshell $-1 -1 $-1 $13 $6 #
-9 cface_ptr-ct-attrib $-1 -1 $-1 $-1 $7 1 1 1 1 1 1 1 1 1 1 1 1 0 1 0 1 1 1 $-1 $14 #
-10 face $15 -1 -1 $-1 $16 $17 $5 $-1 $12 reversed single T -5.0000000000000018 -24.822821729825687 -1.4702905559715873e-010 5.0000000000000062 -16.889064999999999 -2.4146022011329698e-016 F #
-11 loop $-1 -1 -1 $-1 $-1 $18 $7 T -5.0000000000000018 -3.8890650000000013 -1.4717116414431075e-010 5 4.0446917296556482 0 periphery $12 T #
-12 plane-surface $-1 -1 -1 $-1 5.0000000000000018 -11.229065000000006 -3.1204089983872377e-017 -1.170092508604584e-032 3.7147726171276476e-017 -0.99999999999999989 3.2689673157899345e-016 -0.99999999999999989 -3.7147726171276476e-017 forward_v I I I I #
-13 cface $-1 -1 $19 $8 $16 0 #
-14 cface $-1 -1 $20 $8 $7 0 #
-15 cface_ptr-ct-attrib $-1 -1 $-1 $-1 $10 1 1 1 1 1 1 1 1 1 1 1 1 0 1 0 1 1 1 $-1 $21 #
-16 face $22 -1 -1 $-1 $23 $24 $5 $-1 $25 forward single T -5.0000000000000036 -22.323065000000003 -11.934000000000001 -4.9999999999999929 1.5449349999999988 1.4614934901024511e-015 F #
-17 loop $-1 -1 -1 $-1 $-1 $26 $10 T -5.0000000000000018 -24.822821729825687 -1.4702905559715873e-010 5.0000000000000062 -16.889064999999999 -2.4146022011329698e-016 periphery $12 T #
-18 coedge $-1 -1 -1 $-1 $27 $28 $29 $30 reversed $11 $-1 #
-19 cface $-1 -1 $31 $8 $23 0 #
-20 cface $-1 -1 $32 $8 $33 0 #
-21 cface $-1 -1 $34 $8 $10 0 #
-22 cface_ptr-ct-attrib $-1 -1 $-1 $-1 $16 1 1 1 1 1 1 1 1 1 1 1 1 0 1 0 1 1 1 $-1 $13 #
-23 face $35 -1 -1 $-1 $36 $37 $5 $-1 $38 forward single T -5.0000000000000009 -16.889065000000002 -6.5000000000000009 5.0000000000000009 -3.8890650000000013 7.9602041944577955e-016 F #
-24 loop $-1 -1 -1 $-1 $-1 $39 $16 T -5.0000000000000036 -22.323065000000003 -11.934000000000001 -4.9999999999999929 1.5449349999999988 1.4614934901024511e-015 periphery $25 F #
-25 plane-surface $-1 -1 -1 $-1 -5.0000000000000009 -1.1720650000000012 0 -1 -3.2689673157899345e-016 0 3.268967315789935e-016 -1 0 forward_v I I I I #
-26 coedge $-1 -1 -1 $-1 $40 $41 $42 $43 reversed $17 $-1 #
-27 coedge $-1 -1 -1 $-1 $44 $18 $45 $46 reversed $11 $-1 #
-28 coedge $-1 -1 -1 $-1 $18 $47 $48 $49 reversed $11 $-1 #
-29 coedge $-1 -1 -1 $-1 $50 $51 $18 $30 forward $37 $-1 #
-30 edge $52 -1 -1 $-1 $53 -10 $54 -0 $29 $55 forward @7 unknown T -5 -3.8890650000000013 0 5 -3.8890650000000013 0 #
-31 cface $-1 -1 $14 $8 $36 0 #
-32 cface $-1 -1 $56 $8 $57 0 #
-33 face $58 -1 -1 $-1 $59 $60 $5 $-1 $61 reversed single T -4.9354227254151253 -3.1725233251887563 -12.500336690121213 4.9354227254151199 4.0450284196297153 0.00033668982689986194 F #
-34 cface $-1 -1 $62 $8 $63 0 #
-35 cface_ptr-ct-attrib $-1 -1 $-1 $-1 $23 1 1 1 1 1 1 1 1 1 1 1 1 0 1 0 1 1 1 $-1 $19 #
-36 face $64 -1 -1 $-1 $65 $66 $5 $-1 $67 forward single T 4.9999999999999964 -22.323065000000007 -11.934000000000001 5.0000000000000062 1.5449349999999991 1.4614934901024511e-015 F #
-37 loop $-1 -1 -1 $-1 $-1 $42 $23 T -5.0000000000000009 -16.889065000000002 -6.5000000000000009 5.0000000000000009 -3.8890650000000013 7.9602041944577955e-016 periphery $38 F #
-38 cone-surface $-1 -1 -1 $-1 0 -10.389065000000002 0 1 0 0 -9.6751461840972265e-016 6.5000000000000009 0 1 I I 0 -1 6.5000000000000009 forward I I I I #
-39 coedge $-1 -1 -1 $-1 $68 $69 $40 $70 forward $24 $-1 #
-40 coedge $-1 -1 -1 $-1 $71 $26 $39 $70 reversed $17 $-1 #
-41 coedge $-1 -1 -1 $-1 $26 $72 $73 $74 reversed $17 $-1 #
-42 coedge $-1 -1 -1 $-1 $51 $50 $26 $43 forward $37 $-1 #
-43 edge $-1 -1 -1 $-1 $75 -5 $76 5 $42 $77 forward @7 unknown T -5 -16.889065000000002 -2.4146022011329713e-016 5 -16.889065000000002 -2.4146022011329703e-016 #
-44 coedge $-1 -1 -1 $-1 $78 $27 $79 $80 reversed $11 $-1 #
-45 coedge $-1 -1 -1 $-1 $81 $82 $27 $46 forward $66 $-1 #
-46 edge $-1 -1 -1 $-1 $83 -5.4340000000000002 $53 0 $45 $84 forward @7 unknown T 4.9999999999999982 -3.8890650000000013 0 5 1.5449349999999991 0 #
-47 coedge $-1 -1 -1 $-1 $28 $78 $85 $86 reversed $11 $-1 #
-48 coedge $-1 -1 -1 $-1 $69 $68 $28 $49 forward $24 $-1 #
-49 edge $-1 -1 -1 $-1 $54 -5.4339999999999993 $87 2.2204460492503131e-016 $48 $88 forward @7 unknown T -5.0000000000000018 -3.8890650000000013 0 -5 1.5449349999999986 0 #
-50 coedge $-1 -1 -1 $-1 $42 $29 $68 $89 reversed $37 $-1 #
-51 coedge $-1 -1 -1 $-1 $29 $42 $81 $90 forward $37 $-1 #
-52 integer_attrib-name_attrib-gen-attrib $-1 -1 $-1 $-1 $30 2 3 2 1 1 1 1 1 1 1 1 1 1 1 0 1 1 1 @12 make_tangent 1 #
-53 vertex $-1 -1 -1 $-1 $46 $91 #
-54 vertex $-1 -1 -1 $-1 $30 $92 #
-55 straight-curve $-1 -1 -1 $-1 -5 -3.8890650000000013 0 -1 -0 -0 I I #
-56 cface $-1 -1 $21 $8 $59 0 #
-57 face $93 -1 -1 $-1 $33 $94 $5 $-1 $95 reversed single T -4.9354227253809064 -17.606280054929368 -12.500336690121202 4.935422725380902 -3.1718499452406288 -12.499663310173085 F #
-58 cface_ptr-ct-attrib $-1 -1 $-1 $-1 $33 1 1 1 1 1 1 1 1 1 1 1 1 0 1 0 1 1 1 $-1 $20 #
-59 face $96 -1 -1 $-1 $63 $97 $5 $-1 $98 forward single T -5.0000000000000036 -24.823158419799739 -12.500336690121213 -2.5345386776490715 4.0450284196297153 0.00033668982701501321 F #
-60 loop $-1 -1 -1 $-1 $-1 $99 $33 T -4.9354227254151253 -3.1725233251887563 -12.500336690121213 4.9354227254151199 4.0450284196297153 0.00033668982689986194 periphery $61 T #
-61 plane-surface $-1 -1 -1 $-1 4.9999999999999982 0.4362525472204819 -6.250000000147157 2.8364709097474732e-016 -0.86602540378443782 0.50000000000000144 -1.6344836578949719e-016 0.50000000000000144 0.86602540378443782 forward_v I I I I #
-62 cface $-1 -1 $-1 $8 $65 0 #
-63 face $100 -1 -1 $-1 $-1 $101 $5 $-1 $102 forward single T 2.5345386776490608 -24.823158419799743 -12.500336690121207 5.0000000000000053 4.0450284196297144 0.00033668982702713009 F #
-64 cface_ptr-ct-attrib $-1 -1 $-1 $-1 $36 1 1 1 1 1 1 1 1 1 1 1 1 0 1 0 1 1 1 $-1 $31 #
-65 face $103 -1 -1 $-1 $57 $104 $5 $-1 $105 reversed single T -4.9354227253809002 -24.823158419799743 -12.500336690121205 4.9354227253809029 -17.605606674981246 0.00033668982702713009 F #
-66 loop $-1 -1 -1 $-1 $-1 $73 $36 T 4.9999999999999964 -22.323065000000007 -11.934000000000001 5.0000000000000062 1.5449349999999991 1.4614934901024511e-015 periphery $67 F #
-67 plane-surface $-1 -1 -1 $-1 4.9999999999999991 -1.1720650000000012 0 1 3.2689673157899345e-016 0 -3.268967315789934e-016 1 0 forward_v I I I I #
-68 coedge $-1 -1 -1 $-1 $48 $39 $50 $89 forward $24 $-1 #
-69 coedge $-1 -1 -1 $-1 $39 $48 $106 $107 reversed $24 $-1 #
-70 edge $-1 -1 -1 $-1 $108 -16.122499999999992 $75 -10.688499999999996 $39 $109 forward @7 unknown T -5.0000000000000018 -22.323065 -4.4332096412801342e-016 -4.9999999999999929 -16.889064999999999 -2.4146022011329698e-016 #
-71 coedge $-1 -1 -1 $-1 $110 $40 $111 $112 reversed $17 $-1 #
-72 coedge $-1 -1 -1 $-1 $41 $110 $113 $114 reversed $17 $-1 #
-73 coedge $-1 -1 -1 $-1 $82 $81 $41 $74 forward $66 $-1 #
-74 edge $-1 -1 -1 $-1 $76 10.688499999999996 $115 16.122499999999999 $73 $116 forward @7 unknown T 5 -22.323065000000007 -4.4332096412801381e-016 5.0000000000000062 -16.889064999999999 -2.4146022011329703e-016 #
-75 vertex $-1 -1 -1 $-1 $89 $117 #
-76 vertex $-1 -1 -1 $-1 $90 $118 #
-77 straight-curve $-1 -1 -1 $-1 0 -16.889065000000002 -2.4146022011329708e-016 1 0 0 I I #
-78 coedge $-1 -1 -1 $-1 $47 $44 $119 $120 forward $11 $-1 #
-79 coedge $-1 -1 -1 $-1 $121 $122 $44 $80 forward $101 $-1 #
-80 edge $123 -1 -1 $-1 $124 -1.5568457174951824 $83 -2.6645352591003741e-016 $79 $125 forward @7 unknown T 2.5348753858945723 1.5449349999999991 -1.4717116414431075e-010 4.9999999999999982 4.0446917296556482 0 #
-81 coedge $-1 -1 -1 $-1 $73 $45 $51 $90 reversed $66 $-1 #
-82 coedge $-1 -1 -1 $-1 $45 $73 $121 $126 forward $66 $-1 #
-83 vertex $-1 -1 -1 $-1 $80 $127 #
-84 straight-curve $-1 -1 -1 $-1 5 -3.8890650000000013 0 3.268967315789934e-016 -1 -0 I I #
-85 coedge $-1 -1 -1 $-1 $128 $106 $47 $86 forward $97 $-1 #
-86 edge $129 -1 -1 $-1 $87 -3.1415926535897931 $130 -1.5847469360946467 $85 $131 forward @7 unknown T -5.0000000000000018 1.5449349999999986 -1.4717116414431075e-010 -2.5348753858945763 4.0446917296556482 0 #
-87 vertex $-1 -1 -1 $-1 $86 $132 #
-88 straight-curve $-1 -1 -1 $-1 -5.0000000000000018 1.5449349999999984 0 -3.268967315789935e-016 1 -0 I I #
-89 edge $-1 -1 -1 $-1 $75 3.1415926535897931 $54 6.2831853071795862 $68 $133 forward @7 unknown T -5.0000000000000009 -16.889065000000002 -6.5000000000000009 -4.9999999999999991 -3.8890650000000013 7.9602041944577955e-016 #
-90 edge $-1 -1 -1 $-1 $76 3.1415926535897931 $53 6.2831853071795862 $51 $134 forward @7 unknown T 4.9999999999999991 -16.889065000000002 -6.5000000000000009 5.0000000000000009 -3.8890650000000013 7.9602041944577955e-016 #
-91 point $-1 -1 -1 $-1 5 -3.8890650000000013 0 #
-92 point $-1 -1 -1 $-1 -5 -3.8890650000000013 0 #
-93 cface_ptr-ct-attrib $-1 -1 $-1 $-1 $57 1 1 1 1 1 1 1 1 1 1 1 1 0 1 0 1 1 1 $-1 $32 #
-94 loop $-1 -1 -1 $-1 $-1 $135 $57 T -4.9354227253809064 -17.606280054929368 -12.500336690121202 4.935422725380902 -3.1718499452406288 -12.499663310173085 periphery $95 T #
-95 plane-surface $-1 -1 -1 $-1 5.0000000000000018 -10.389065000084997 -12.500000000147143 0 0 1 -3.2689673157899345e-016 1 -0 forward_v I I I I #
-96 cface_ptr-ct-attrib $-1 -1 $-1 $-1 $59 1 1 1 1 1 1 1 1 1 1 1 1 0 1 0 1 1 1 $-1 $56 #
-97 loop $-1 -1 -1 $-1 $-1 $111 $59 T -5.0000000000000036 -24.823158419799739 -12.500336690121213 -2.5345386776490715 4.0450284196297153 0.00033668982701501321 periphery $98 F #
-98 torus-surface $-1 -1 -1 $-1 -2.5000000000000013 -10.389065000000002 0 1 0 0 11.934000000000001 2.5000000000000004 0 0 -1 forward_v I I I I #
-99 coedge $-1 -1 -1 $-1 $136 $119 $122 $137 reversed $60 $-1 #
-100 cface_ptr-ct-attrib $-1 -1 $-1 $-1 $63 1 1 1 1 1 1 1 1 1 1 1 1 0 1 0 1 1 1 $-1 $34 #
-101 loop $-1 -1 -1 $-1 $-1 $113 $63 T 2.5345386776490608 -24.823158419799743 -12.500336690121207 5.0000000000000053 4.0450284196297144 0.00033668982702713009 periphery $102 F #
-102 torus-surface $-1 -1 -1 $-1 2.4999999999999973 -10.389065000000002 0 1 0 0 11.934000000000001 2.5000000000000004 0 0 -1 forward_v I I I I #
-103 cface_ptr-ct-attrib $-1 -1 $-1 $-1 $65 1 1 1 1 1 1 1 1 1 1 1 1 0 1 0 1 1 1 $-1 $62 #
-104 loop $-1 -1 -1 $-1 $-1 $138 $65 T -4.9354227253809002 -24.823158419799743 -12.500336690121205 4.9354227253809029 -17.605606674981246 0.00033668982702713009 periphery $105 T #
-105 plane-surface $-1 -1 -1 $-1 5.0000000000000053 -21.214382547390496 -6.2500000001470877 -2.8364709097474771e-016 0.86602540378443893 0.49999999999999933 -1.634483657894965e-016 0.49999999999999933 -0.86602540378443893 forward_v I I I I #
-106 coedge $-1 -1 -1 $-1 $85 $111 $69 $107 forward $97 $-1 #
-107 edge $139 -1 -1 $-1 $108 3.1415926535897931 $87 6.2831853071795862 $106 $140 forward @7 tangent T -5.0000000000000036 -22.323065000000003 -11.934000000000001 -5 1.5449349999999988 1.4614934901024511e-015 #
-108 vertex $-1 -1 -1 $-1 $107 $141 #
-109 straight-curve $-1 -1 -1 $-1 -4.9999999999999982 -6.2005650000000054 1.5559325106839149e-016 -3.268967315789933e-016 0.99999999999999956 3.7147726171276464e-017 I I #
-110 coedge $-1 -1 -1 $-1 $72 $71 $142 $143 reversed $17 $-1 #
-111 coedge $-1 -1 -1 $-1 $106 $144 $71 $112 forward $97 $-1 #
-112 edge $-1 -1 -1 $-1 $145 0.013950601987898843 $108 1.5707963267948966 $111 $146 forward @7 unknown T -5.0000000000000018 -24.822821729825684 -1.4702905559715873e-010 -2.5348753737072838 -22.323065 -4.4332096412801342e-016 #
-113 coedge $-1 -1 -1 $-1 $147 $121 $72 $114 forward $101 $-1 #
-114 edge $-1 -1 -1 $-1 $115 -1.5707963267948934 $148 -0.013950601987898843 $113 $149 forward @7 unknown T 2.5348753737072798 -24.822821729825684 -1.4702905559715873e-010 5.0000000000000053 -22.323065000000007 -4.4332096412801381e-016 #
-115 vertex $-1 -1 -1 $-1 $126 $150 #
-116 straight-curve $-1 -1 -1 $-1 5.0000000000000009 -6.2005650000000037 1.5559325106839144e-016 3.268967315789933e-016 -0.99999999999999956 -3.7147726171276464e-017 I I #
-117 point $-1 -1 -1 $-1 -5 -16.889065000000002 -2.4146022011329703e-016 #
-118 point $-1 -1 -1 $-1 5 -16.889065000000002 -2.4146022011329713e-016 #
-119 coedge $-1 -1 -1 $-1 $99 $151 $78 $120 reversed $60 $-1 #
-120 edge $-1 -1 -1 $-1 $124 2.465124614105425 $130 7.5348753858945736 $119 $152 forward @7 unknown T -2.5348753858945763 4.0446917296556455 -1.4717116414431075e-010 2.5348753858945723 4.0446917296556482 -1.4717116414431075e-010 #
-121 coedge $-1 -1 -1 $-1 $113 $79 $82 $126 reversed $101 $-1 #
-122 coedge $-1 -1 -1 $-1 $79 $153 $99 $137 forward $101 $-1 #
-123 integer_attrib-name_attrib-gen-attrib $-1 -1 $-1 $-1 $80 2 3 2 1 1 1 1 1 1 1 1 1 1 1 0 1 1 1 @12 make_tangent 1 #
-124 vertex $-1 -1 -1 $-1 $80 $154 #
-125 ellipse-curve $-1 -1 -1 $-1 2.4999999999999973 1.5449349999999984 0 -0 -0 -1 2.5000000000000004 0 0 1 F -1.5707963267948966 F -2.6645352591003741e-016 #
-126 edge $155 -1 -1 $-1 $115 3.1415926535897931 $83 6.2831853071795862 $82 $156 forward @7 tangent T 4.9999999999999964 -22.323065000000007 -11.934000000000001 5.0000000000000053 1.5449349999999991 1.4614934901024511e-015 #
-127 point $-1 -1 -1 $-1 4.9999999999999982 1.5449349999999991 0 #
-128 coedge $-1 -1 -1 $-1 $157 $85 $151 $158 forward $97 $-1 #
-129 integer_attrib-name_attrib-gen-attrib $-1 -1 $-1 $-1 $86 2 3 2 1 1 1 1 1 1 1 1 1 1 1 0 1 1 1 @12 make_tangent 1 #
-130 vertex $-1 -1 -1 $-1 $158 $159 #
-131 ellipse-curve $-1 -1 -1 $-1 -2.5000000000000013 1.5449349999999988 0 -0 -0 -1 2.5000000000000004 0 0 1 F -3.1415926535897931 F -1.5707963267948966 #
-132 point $-1 -1 -1 $-1 -5.0000000000000018 1.5449349999999986 0 #
-133 ellipse-curve $-1 -1 -1 $-1 -5 -10.389065000000002 0 1 0 0 -9.6751461840972265e-016 6.5000000000000009 0 1 I I #
-134 ellipse-curve $-1 -1 -1 $-1 5 -10.389065000000002 0 1 0 0 -9.6751461840972265e-016 6.5000000000000009 0 1 I I #
-135 coedge $-1 -1 -1 $-1 $160 $161 $153 $162 reversed $94 $-1 #
-136 coedge $-1 -1 -1 $-1 $151 $99 $161 $163 forward $60 $-1 #
-137 edge $-1 -1 -1 $-1 $164 7.7950981869683975 $124 23.247163449308214 $122 $165 forward @7 unknown T 2.5345386837411081 -3.1725233251887506 -12.500336690121207 4.9354227254151199 4.0450284196297144 0.00033668982689650471 #
-138 coedge $-1 -1 -1 $-1 $142 $166 $147 $167 reversed $104 $-1 #
-139 integer_attrib-name_attrib-gen-attrib $-1 -1 $-1 $-1 $107 2 3 2 1 1 1 1 1 1 1 1 1 1 1 0 1 1 1 @12 make_tangent 1 #
-140 ellipse-curve $-1 -1 -1 $-1 -5.0000000000000018 -10.389065000000002 0 1 0 0 -1.7763568394002505e-015 11.934000000000001 0 1 I I #
-141 point $-1 -1 -1 $-1 -5.0000000000000018 -22.323065 -4.4332096412801342e-016 #
-142 coedge $-1 -1 -1 $-1 $168 $138 $110 $143 forward $104 $-1 #
-143 edge $-1 -1 -1 $-1 $148 2.4651246262927264 $145 7.5348753737072904 $142 $169 forward @7 unknown T -2.5348753737072842 -24.822821729825687 -1.4702905559715873e-010 2.5348753737072798 -24.822821729825684 -1.4702905559715873e-010 #
-144 coedge $-1 -1 -1 $-1 $111 $157 $168 $170 forward $97 $-1 #
-145 vertex $-1 -1 -1 $-1 $170 $171 #
-146 ellipse-curve $-1 -1 -1 $-1 -2.5000000000000013 -22.323065 -4.4332096412801352e-016 -1.170092508604584e-032 3.7147726171276476e-017 -0.99999999999999989 0 -2.5 -9.2869315428191203e-017 1 I I #
-147 coedge $-1 -1 -1 $-1 $153 $113 $138 $167 forward $101 $-1 #
-148 vertex $-1 -1 -1 $-1 $167 $172 #
-149 ellipse-curve $-1 -1 -1 $-1 2.4999999999999973 -22.323065 -4.4332096412801352e-016 -1.170092508604584e-032 3.7147726171276476e-017 -0.99999999999999989 0 -2.5 -9.2869315428191203e-017 1 I I #
-150 point $-1 -1 -1 $-1 5.0000000000000053 -22.323065000000007 -4.4332096412801381e-016 #
-151 coedge $-1 -1 -1 $-1 $119 $136 $128 $158 reversed $60 $-1 #
-152 straight-curve $-1 -1 -1 $-1 4.9999999999999973 4.0446917296556482 -1.4717116414431075e-010 -1 -3.2752744865824959e-016 0 I I #
-153 coedge $-1 -1 -1 $-1 $122 $147 $135 $162 forward $101 $-1 #
-154 point $-1 -1 -1 $-1 2.5348753858945723 4.0446917296556482 -1.4717116414431075e-010 #
-155 integer_attrib-name_attrib-gen-attrib $-1 -1 $-1 $-1 $126 2 3 2 1 1 1 1 1 1 1 1 1 1 1 0 1 1 1 @12 make_tangent 1 #
-156 ellipse-curve $-1 -1 -1 $-1 4.9999999999999982 -10.389065000000002 0 1 0 0 -1.7763568394002505e-015 11.934000000000001 0 1 I I #
-157 coedge $-1 -1 -1 $-1 $144 $128 $173 $174 forward $97 $-1 #
-158 edge $-1 -1 -1 $-1 $130 -7.7260326251954634 $175 7.7260326371443604 $128 $176 forward @7 unknown T -4.9354227254151253 -3.1725233251887563 -12.500336690121213 -2.5345386837411126 4.0450284196297153 0.00033668982689986194 #
-159 point $-1 -1 -1 $-1 -2.5348753858945763 4.0446917296556482 -1.4717116414431075e-010 #
-160 coedge $-1 -1 -1 $-1 $173 $135 $166 $177 forward $94 $-1 #
-161 coedge $-1 -1 -1 $-1 $135 $173 $136 $163 reversed $94 $-1 #
-162 edge $-1 -1 -1 $-1 $178 7.7950981807272992 $164 23.247163460464151 $153 $179 forward @7 unknown T 2.5345386776490675 -17.606280054929368 -12.500336690121202 4.935422725380902 -3.1718499452406288 -12.499663310173085 #
-163 edge $-1 -1 -1 $-1 $164 2.4651246262848243 $175 7.5348753737151775 $161 $180 forward @7 unknown T -2.5348753737151788 -3.172186635214687 -12.500000000147143 2.5348753737151748 -3.1721866352146844 -12.500000000147143 #
-164 vertex $-1 -1 -1 $-1 $162 $181 #
-165 intcurve-curve $-1 -1 -1 $-1 forward { surfintcur full nubs 3 open 23 
	7.4723223888970001 3 7.7605654120563798 2 8.0488084352157578 2 8.3370514583751376 2 8.7174336395815537 2 
	9.0978158207879716 2 9.7188695414887789 2 10.339923262189586 2 11.63522515267038 2 12.930527043151171 2 
	14.225828933631963 2 15.521130824112756 2 16.816432714593546 2 18.111734605074339 2 19.407036495555133 2 
	20.702338386035926 2 21.323392106736733 2 21.944445827437541 2 22.324828008643955 2 22.705210189850373 2 
	22.993453213009751 2 23.281696236169132 2 23.569939259328514 3 
	2.1979913696943378 -3.1540869319562277 -12.468650394501575 
	2.2994444110836674 -3.1664799399065475 -12.490115713930132 
	2.4039189922802038 -3.1724298992393245 -12.500421345797468 
	2.59608100771979 -3.1724298992393245 -12.500421345797468 
	2.7005555889163255 -3.1664799399065462 -12.490115713930132 
	2.9034616716949877 -3.1416939240059127 -12.447185075073024 
	3.0019266272116001 -3.1229263837044243 -12.414678741737745 
	3.2019583761188146 -3.0737822197083893 -12.329558552801116 
	3.3179594077739729 -3.0358632793387383 -12.263881021511709 
	3.5307202403994666 -2.9478368109339326 -12.11141470582373 
	3.6277155021629333 -2.8978716575910277 -12.024872521625849 
	3.8426994241543513 -2.7701881202815017 -11.803718147715635 
	3.9674701524811375 -2.6757294842445969 -11.640110990886059 
	4.1809388095386195 -2.4764699467414486 -11.294983348037931 
	4.2701393109649253 -2.3718037500049549 -11.113696177455326 
	4.4894196978199075 -2.0718193135580241 -10.594107892049326 
	4.5958575118333833 -1.8547354362319102 -10.218107587016451 
	4.7556112025651398 -1.4050690949834657 -9.4392626375205424 
	4.8086033221826856 -1.1724578906616854 -9.0363682132254368 
	4.8827778876976637 -0.70406561846460147 -8.2250889999074595 
	4.9040444437099868 -0.46836356110833177 -7.8168410611178878 
	4.9302024143205756 -0.0061463575573633134 -7.0162573804352073 
	4.9350860354410537 0.22036889889197592 -6.6239214475754586 
	4.9350860354410537 0.65213619571890769 -5.8760785524245431 
	4.9302024143205765 0.87865145216824714 -5.4837426195647963 
	4.9040444437099877 1.3408686557192153 -4.6831589388821167 
	4.8827778876976637 1.5765707130754851 -4.274911000092545 
	4.8086033221826856 2.0449629852725693 -3.4636317867745667 
	4.7556112025651398 2.2775741895943513 -3.0607373624794585 
	4.5958575118333833 2.7272405308427952 -2.2818924129835523 
	4.4894196978199075 2.9443244081689071 -1.9058921079506754 
	4.2701393109649253 3.2443088446158383 -1.3863038225446753 
	4.180938809538616 3.348975041352332 -1.2050166519620695 
	3.9674701524811335 3.5482345788554803 -0.8598890091139415 
	3.8426994241543517 3.6426932148923847 -0.69628185228436668 
	3.6277155021629341 3.7703767522019103 -0.47512747837415303 
	3.5307202403994662 3.8203419055448151 -0.38858529417627286 
	3.3179594077739725 3.9083683739496204 -0.23611897848829347 
	3.2019583761188155 3.9462873143192683 -0.17044144719888554 
	3.001926627211601 3.9954314783153038 -0.085321258262255728 
	2.9034616716949899 4.014199018616794 -0.052814924926981241 
	2.7005555889163282 4.0389850345174274 -0.0098842860698740813 
	2.5960810077197909 4.0449349938502035 0.00042134579746638909 
	2.4039189922802033 4.0449349938502035 0.00042134579746649816 
	2.2994444110836665 4.0389850345174274 -0.0098842860698736199 
	2.1979913696943361 4.0265920265671085 -0.031349605498432173 
	0.0003366899740660825 
	torus 2.4999999999999973 -10.389065000000002 0 1 0 0 11.934000000000001 -2.5000000000000004 0 0 -1 forward_v I I I I 
	plane 4.9999999999999982 0.4362525472204819 -6.250000000147157 2.8364709097474732e-016 -0.86602540378443782 0.50000000000000144 -1.6344836578949719e-016 0.50000000000000144 0.86602540378443782 forward_v I I I I 
	nullbs 
	nullbs 
	-1 
	-1 
	I I 
	0 
	0 
	0 
	
	-1 
	none F } I I #
-166 coedge $-1 -1 -1 $-1 $138 $168 $160 $177 reversed $104 $-1 #
-167 edge $-1 -1 -1 $-1 $148 7.7950981866962659 $178 23.247163466440771 $147 $182 forward @7 unknown T 2.5345386776490608 -24.823158419799743 -12.500336690121205 4.9354227253809029 -17.605606674981246 0.00033668982702713009 #
-168 coedge $-1 -1 -1 $-1 $166 $142 $144 $170 reversed $104 $-1 #
-169 straight-curve $-1 -1 -1 $-1 5.0000000000000062 -24.822821729825684 -1.4702905559715873e-010 -1 -3.2752744865824959e-016 0 I I #
-170 edge $-1 -1 -1 $-1 $183 -7.7260326428567536 $145 7.726032636887739 $144 $184 forward @7 unknown T -4.9354227253809002 -24.823158419799739 -12.500336690121198 -2.5345386776490715 -17.605606674981253 0.00033668982701501321 #
-171 point $-1 -1 -1 $-1 -2.5348753737072838 -24.822821729825684 -1.4702905559715873e-010 #
-172 point $-1 -1 -1 $-1 2.5348753737072798 -24.822821729825684 -1.4702905559715873e-010 #
-173 coedge $-1 -1 -1 $-1 $161 $160 $157 $174 reversed $94 $-1 #
-174 edge $-1 -1 -1 $-1 $175 -7.7260326368800429 $183 7.7260326428568034 $157 $185 forward @7 unknown T -4.9354227253809064 -17.606280054929368 -12.5003366901212 -2.5345386776490715 -3.1718499452406288 -12.499663310173085 #
-175 vertex $-1 -1 -1 $-1 $174 $186 #
-176 intcurve-curve $-1 -1 -1 $-1 forward { surfintcur full nubs 3 open 23 
	-8.0488084352157614 3 -7.7605654120563798 2 -7.4723223888969983 2 -7.1840793657376203 2 -6.8036971845312024 2 
	-6.4233150033247881 2 -5.8022612826239808 2 -5.1812075619231734 2 -3.8859056714423801 2 -2.5906037809615867 2 
	-1.2953018904807934 2 0 3 1.2953018904807934 2 2.5906037809615867 2 3.8859056714423801 2 
	5.1812075619231734 2 5.8022612826239799 2 6.4233150033247863 2 6.8036971845312024 2 7.1840793657376176 2 
	7.4723223888969983 2 7.7605654120563781 2 8.0488084352157596 3 
	-2.1979913696943405 4.0265920265671085 -0.031349605498428454 
	-2.2994444110836705 4.0389850345174283 -0.0098842860698702545 
	-2.4039189922802082 4.0449349938502035 0.00042134579746641869 
	-2.5960810077197958 4.0449349938502035 0.00042134579746646856 
	-2.700555588916334 4.0389850345174274 -0.0098842860698696612 
	-2.9034616716949961 4.0141990186167931 -0.05281492492697689 
	-3.0019266272116067 3.9954314783153038 -0.085321258262254743 
	-3.2019583761188217 3.9462873143192683 -0.1704414471988846 
	-3.3179594077739778 3.90836837394962 -0.23611897848829266 
	-3.5307202403994706 3.8203419055448147 -0.38858529417627152 
	-3.627715502162939 3.7703767522019098 -0.47512747837415054 
	-3.8426994241543566 3.6426932148923843 -0.6962818522843639 
	-3.9674701524811415 3.5482345788554799 -0.85988900911393817 
	-4.1809388095386231 3.3489750413523316 -1.2050166519620662 
	-4.2701393109649288 3.2443088446158379 -1.3863038225446729 
	-4.489419697819911 2.9443244081689066 -1.9058921079506728 
	-4.5958575118333869 2.7272405308427934 -2.2818924129835478 
	-4.7556112025651434 2.2775741895943495 -3.0607373624794545 
	-4.80860332218269 2.0449629852725684 -3.4636317867745632 
	-4.8827778876976682 1.5765707130754838 -4.2749110000925414 
	-4.9040444437099922 1.3408686557192142 -4.6831589388821131 
	-4.9302024143205809 0.87865145216824525 -5.4837426195647945 
	-4.9350860354410582 0.65213619571890524 -5.8760785524245414 
	-4.9350860354410582 0.43625254730543911 -6.25 
	-4.9350860354410582 0.22036889889197295 -6.6239214475754586 
	-4.9302024143205818 -0.0061463575573659501 -7.0162573804352064 
	-4.904044443709993 -0.46836356110833488 -7.8168410611178878 
	-4.8827778876976673 -0.7040656184646048 -8.2250889999074595 
	-4.8086033221826909 -1.1724578906616892 -9.0363682132254368 
	-4.7556112025651442 -1.4050690949834692 -9.439262637520546 
	-4.5958575118333886 -1.8547354362319128 -10.218107587016453 
	-4.4894196978199119 -2.0718193135580272 -10.594107892049328 
	-4.2701393109649288 -2.3718037500049585 -11.113696177455328 
	-4.1809388095386248 -2.4764699467414526 -11.294983348037936 
	-3.9674701524811433 -2.6757294842446009 -11.640110990886065 
	-3.8426994241543566 -2.7701881202815049 -11.803718147715635 
	-3.627715502162939 -2.8978716575910304 -12.02487252162585 
	-3.5307202403994684 -2.9478368109339343 -12.111414705823732 
	-3.3179594077739747 -3.0358632793387397 -12.263881021511709 
	-3.2019583761188208 -3.0737822197083893 -12.329558552801114 
	-3.0019266272116063 -3.1229263837044243 -12.414678741737745 
	-2.9034616716949935 -3.1416939240059145 -12.447185075073023 
	-2.7005555889163322 -3.166479939906548 -12.49011571393013 
	-2.5960810077197953 -3.1724298992393245 -12.500421345797468 
	-2.4039189922802082 -3.1724298992393245 -12.500421345797468 
	-2.29944441108367 -3.1664799399065493 -12.490115713930134 
	-2.1979913696943401 -3.154086931956229 -12.468650394501573 
	0.00033668997406699491 
	torus -2.5000000000000013 -10.389065000000002 0 1 0 0 11.934000000000001 -2.5000000000000004 0 0 -1 forward_v I I I I 
	plane 4.9999999999999982 0.4362525472204819 -6.250000000147157 2.8364709097474732e-016 -0.86602540378443782 0.50000000000000144 -1.6344836578949719e-016 0.50000000000000144 0.86602540378443782 forward_v I I I I 
	nullbs 
	nullbs 
	-1 
	-1 
	I I 
	0 
	0 
	0 
	
	-1 
	none F } I I #
-177 edge $-1 -1 -1 $-1 $178 2.4651246323768796 $183 7.5348753676231333 $166 $187 forward @7 unknown T -2.5348753676231288 -17.605943364955312 -12.500000000147143 2.5348753676231248 -17.605943364955309 -12.500000000147143 #
-178 vertex $-1 -1 -1 $-1 $162 $188 #
-179 intcurve-curve $-1 -1 -1 $-1 forward { surfintcur full nubs 3 open 23 
	7.4723223886442858 3 7.7605654117920508 2 8.0488084349398168 2 8.3370514580875827 2 8.7174336392802161 2 
	9.0978158204728476 2 9.7188695411563053 2 10.339923261839765 2 11.635225152275849 2 12.930527042711933 2 
	14.225828933148019 2 15.521130823584103 2 16.816432714020188 2 18.111734604456274 2 19.40703649489236 2 
	20.702338385328442 2 21.323392106011902 2 21.944445826695357 2 22.324828007887991 2 22.705210189080624 2 
	22.993453212228388 2 23.281696235376156 2 23.56993925852392 3 
	2.1979913697064513 -17.569743958270074 -12.500000000147143 
	2.299444411091736 -17.594529974169593 -12.500000000147143 
	2.4039189922840754 -17.606429892834608 -12.500000000147143 
	2.5960810077159193 -17.606429892834608 -12.500000000147143 
	2.7005555889082591 -17.594529974169593 -12.500000000147143 
	2.9034616716788331 -17.544957942370569 -12.500000000147143 
	3.0019266271915543 -17.507422861769285 -12.500000000147143 
	3.2019583760914285 -17.409134533781472 -12.500000000147143 
	3.3179594077426189 -17.333296653045277 -12.500000000147143 
	3.530720240361104 -17.157243716242835 -12.500000000147143 
	3.6277155021215219 -17.05731340956109 -12.500000000147143 
	3.8426994241076322 -16.801946334951136 -12.500000000147143 
	3.9674701524320137 -16.613029062883307 -12.500000000147143 
	4.1809388094861353 -16.214509987889489 -12.500000000147143 
	4.2701393109114658 -16.005177594422996 -12.500000000147143 
	4.4894196977640517 -15.405208721550284 -12.500000000147143 
	4.5958575117781546 -14.971040966913886 -12.500000000147143 
	4.7556112025135917 -14.071708284449324 -12.500000000147143 
	4.8086033221342062 -13.606485875822258 -12.500000000147143 
	4.8827778876552914 -12.669701331461024 -12.500000000147143 
	4.9040444436706165 -12.198297216764914 -12.500000000147143 
	4.9302024142852945 -11.273862809695057 -12.500000000147143 
	4.9350860354068447 -10.82083229681203 -12.500000000147143 
	4.9350860354068447 -9.9572977031879741 -12.500000000147143 
	4.9302024142852945 -9.5042671903049474 -12.500000000147143 
	4.9040444436706165 -8.5798327832350871 -12.500000000147143 
	4.8827778876552923 -8.1084286685389806 -12.500000000147143 
	4.808603322134207 -7.1716441241777478 -12.500000000147143 
	4.7556112025135908 -6.7064217155506798 -12.500000000147145 
	4.5958575117781537 -5.8070890330861156 -12.500000000147145 
	4.4894196977640517 -5.3729212784497182 -12.500000000147143 
	4.2701393109114667 -4.7729524055770067 -12.500000000147143 
	4.1809388094861326 -4.5636200121105102 -12.500000000147143 
	3.9674701524320115 -4.1651009371166934 -12.500000000147143 
	3.8426994241076322 -3.9761836650488682 -12.500000000147143 
	3.6277155021215215 -3.7208165904389152 -12.500000000147143 
	3.5307202403611031 -3.6208862837571703 -12.500000000147143 
	3.3179594077426184 -3.4448333469547299 -12.500000000147143 
	3.2019583760914285 -3.3689954662185322 -12.500000000147143 
	3.0019266271915548 -3.27070713823072 -12.500000000147143 
	2.903461671678834 -3.2331720576294369 -12.500000000147143 
	2.7005555889082595 -3.18360002583041 -12.500000000147143 
	2.5960810077159198 -3.171700107165397 -12.500000000147143 
	2.4039189922840758 -3.171700107165397 -12.500000000147143 
	2.2994444110917369 -3.1836000258304087 -12.500000000147143 
	2.1979913697064517 -3.2083860417299301 -12.500000000147143 
	0.00033668997405738546 
	torus 2.4999999999999973 -10.389065000000002 0 1 0 0 11.934000000000001 -2.5000000000000004 0 0 -1 forward_v I I I I 
	plane 5.0000000000000018 -10.389065000084997 -12.500000000147143 0 0 1 -3.2689673157899345e-016 1 -0 forward_v I I I I 
	nullbs 
	nullbs 
	-1 
	-1 
	I I 
	0 
	0 
	0 
	
	-1 
	none F } I I #
-180 straight-curve $-1 -1 -1 $-1 4.9999999999999991 -3.1721866352146844 -12.500000000147143 -1 -3.2752744865824959e-016 0 I I #
-181 point $-1 -1 -1 $-1 2.5348753737151748 -3.1721866352146844 -12.500000000147143 #
-182 intcurve-curve $-1 -1 -1 $-1 forward { surfintcur full nubs 3 open 23 
	7.4723223886442423 3 7.7605654117920073 2 8.0488084349397724 2 8.3370514580875366 2 8.7174336392801646 2 
	9.0978158204727926 2 9.7188695411562485 2 10.339923261839703 2 11.63522515227578 2 12.930527042711859 2 
	14.225828933147936 2 15.521130823584013 2 16.816432714020088 2 18.111734604456167 2 19.407036494892242 2 
	20.702338385328318 2 21.323392106011774 2 21.94444582669523 2 22.324828007887859 2 22.705210189080489 2 
	22.993453212228253 2 23.281696235376018 2 23.569939258523782 3 
	2.1979913697064504 -24.804722026567951 -0.03134960579134656 
	2.299444411091736 -24.817115034517713 -0.0098842863637574191 
	2.4039189922840754 -24.823064993850217 0.00042134550311073813 
	2.5960810077159189 -24.823064993850217 0.0004213455031108472 
	2.7005555889082578 -24.817115034517709 -0.0098842863637600593 
	2.9034616716788322 -24.792329018618194 -0.052814925218927236 
	3.0019266271915521 -24.773561478317554 -0.085321258552737922 
	3.2019583760914241 -24.724417314323645 -0.17044144748567988 
	3.3179594077426184 -24.686498373955551 -0.23611897877239602 
	3.5307202403610991 -24.598471905554334 -0.38858529445416334 
	3.6277155021215157 -24.548506752213459 -0.47512747864852378 
	3.8426994241076251 -24.420823214908484 -0.69628185255085762 
	3.9674701524320048 -24.326364578874575 -0.85988900937525092 
	4.1809388094861255 -24.127105041377668 -1.2050166522125703 
	4.2701393109114605 -24.022438844644419 -1.3863038227895546 
	4.4894196977640437 -23.722454408208066 -1.9058921081772375 
	4.5958575117781448 -23.50537053088987 -2.2818924131964033 
	4.7556112025135828 -23.05570418965759 -3.0607373626643168 
	4.8086033221341999 -22.823092985344054 -3.4636317869451383 
	4.8827778876552852 -22.354700713163439 -4.2749110002345923 
	4.9040444436706112 -22.118998655815389 -4.6831589390099362 
	4.9302024142852892 -21.656781452280462 -5.4837426196648327 
	4.9350860354068402 -21.430266195838946 -5.8760785525110233 
	4.9350860354068402 -20.998498899026927 -6.6239214476361239 
	4.9302024142852883 -20.771983642585415 -7.0162573804823163 
	4.9040444436706103 -20.309766439050488 -7.8168410611372101 
	4.8827778876552852 -20.074064381702442 -8.225088999912554 
	4.8086033221341999 -19.605672109521826 -9.0363682132020102 
	4.7556112025135828 -19.373060905208291 -9.4392626374828339 
	4.5958575117781448 -18.923394563976011 -10.218107586950746 
	4.4894196977640437 -18.706310686657815 -10.594107891969911 
	4.2701393109114605 -18.406326250221461 -11.113696177357593 
	4.1809388094861273 -18.301660053488217 -11.294983347934577 
	3.967470152432008 -18.10240051599131 -11.640110990771898 
	3.8426994241076251 -18.007941879957396 -11.803718147596291 
	3.6277155021215153 -17.880258342652422 -12.024872521498624 
	3.5307202403611004 -17.830293189311547 -12.111414705692987 
	3.3179594077426189 -17.74226672091033 -12.263881021374754 
	3.2019583760914241 -17.704347780542236 -12.329558552661471 
	3.0019266271915517 -17.655203616548327 -12.414678741594413 
	2.9034616716788331 -17.636436076247684 -12.447185074928223 
	2.7005555889082591 -17.611650060348168 -12.490115713783391 
	2.5960810077159189 -17.605700101015664 -12.50042134565026 
	2.4039189922840758 -17.605700101015664 -12.50042134565026 
	2.2994444110917356 -17.611650060348168 -12.490115713783391 
	2.1979913697064486 -17.624043068297926 -12.468650394355807 
	0.00033668997406271372 
	torus 2.4999999999999973 -10.389065000000002 0 1 0 0 11.934000000000001 -2.5000000000000004 0 0 -1 forward_v I I I I 
	plane 5.0000000000000053 -21.214382547390496 -6.2500000001470877 -2.8364709097474771e-016 0.86602540378443893 0.49999999999999933 -1.634483657894965e-016 0.49999999999999933 -0.86602540378443893 forward_v I I I I 
	nullbs 
	nullbs 
	-1 
	-1 
	I I 
	0 
	0 
	0 
	
	-1 
	none F } I I #
-183 vertex $-1 -1 -1 $-1 $174 $189 #
-184 intcurve-curve $-1 -1 -1 $-1 forward { surfintcur full nubs 3 open 23 
	-8.0488084349397653 3 -7.7605654117920011 2 -7.4723223886442369 2 -7.1840793654964727 2 -6.8036971843038465 2 
	-6.4233150031112203 2 -5.8022612824277644 2 -5.1812075617443085 2 -3.8859056713082296 2 -2.5906037808721543 2 
	-1.2953018904360789 2 0 3 1.2953018904360756 2 2.5906037808721512 2 3.8859056713082269 2 
	5.1812075617443023 2 5.8022612824277582 2 6.4233150031112141 2 6.8036971843038412 2 7.1840793654964683 2 
	7.4723223886442334 2 7.7605654117919975 2 8.0488084349397617 3 
	-2.1979913697064539 -17.624043068297929 -12.468650394355805 
	-2.2994444110917418 -17.611650060348175 -12.490115713783387 
	-2.4039189922840802 -17.605700101015668 -12.50042134565026 
	-2.5960810077159233 -17.605700101015668 -12.50042134565026 
	-2.7005555889082622 -17.611650060348175 -12.490115713783387 
	-2.9034616716788357 -17.636436076247691 -12.447185074928219 
	-3.0019266271915566 -17.655203616548331 -12.414678741594409 
	-3.2019583760914285 -17.704347780542236 -12.329558552661467 
	-3.3179594077426224 -17.742266720910333 -12.26388102137475 
	-3.530720240361104 -17.830293189311551 -12.111414705692983 
	-3.6277155021215197 -17.880258342652422 -12.024872521498624 
	-3.8426994241076287 -18.007941879957396 -11.803718147596291 
	-3.9674701524320088 -18.102400515991313 -11.640110990771896 
	-4.1809388094861291 -18.30166005348822 -11.294983347934577 
	-4.2701393109114631 -18.406326250221465 -11.113696177357593 
	-4.4894196977640473 -18.706310686657819 -10.594107891969911 
	-4.5958575117781493 -18.923394563976018 -10.218107586950744 
	-4.7556112025135864 -19.373060905208298 -9.4392626374828321 
	-4.8086033221342035 -19.605672109521826 -9.0363682132020067 
	-4.8827778876552888 -20.074064381702435 -8.2250889999125558 
	-4.9040444436706148 -20.309766439050488 -7.8168410611372199 
	-4.9302024142852927 -20.771983642585415 -7.0162573804823234 
	-4.9350860354068429 -20.998498899026927 -6.6239214476361248 
	-4.9350860354068429 -21.21438254743294 -6.2500000000735749 
	-4.9350860354068429 -21.430266195838954 -5.8760785525110251 
	-4.9302024142852909 -21.65678145228047 -5.4837426196648327 
	-4.904044443670613 -22.118998655815396 -4.6831589390099388 
	-4.8827778876552888 -22.354700713163439 -4.2749110002345967 
	-4.8086033221342035 -22.823092985344054 -3.463631786945145 
	-4.7556112025135846 -23.055704189657586 -3.0607373626643244 
	-4.5958575117781466 -23.505370530889866 -2.2818924131964122 
	-4.4894196977640473 -23.722454408208062 -1.9058921081772442 
	-4.2701393109114631 -24.022438844644416 -1.3863038227895612 
	-4.1809388094861317 -24.127105041377664 -1.2050166522125765 
	-3.9674701524320115 -24.326364578874571 -0.85988900937525536 
	-3.8426994241076287 -24.420823214908484 -0.69628185255086394 
	-3.6277155021215197 -24.548506752213459 -0.47512747864853017 
	-3.5307202403611031 -24.59847190555433 -0.38858529445417084 
	-3.3179594077426224 -24.686498373955548 -0.23611897877240209 
	-3.2019583760914285 -24.724417314323645 -0.17044144748568624 
	-3.0019266271915566 -24.77356147831755 -0.085321258552743806 
	-2.9034616716788384 -24.792329018618197 -0.052814925218928499 
	-2.700555588908264 -24.817115034517713 -0.0098842863637610585 
	-2.5960810077159233 -24.823064993850213 0.00042134550310537957 
	-2.4039189922840807 -24.823064993850213 0.00042134550310554762 
	-2.29944441109174 -24.817115034517713 -0.0098842863637611696 
	-2.1979913697064544 -24.804722026567951 -0.031349605791349898 
	0.00033668997405734416 
	torus -2.5000000000000013 -10.389065000000002 0 1 0 0 11.934000000000001 -2.5000000000000004 0 0 -1 forward_v I I I I 
	plane 5.0000000000000053 -21.214382547390496 -6.2500000001470877 -2.8364709097474771e-016 0.86602540378443893 0.49999999999999933 -1.634483657894965e-016 0.49999999999999933 -0.86602540378443893 forward_v I I I I 
	nullbs 
	nullbs 
	-1 
	-1 
	I I 
	0 
	0 
	0 
	
	-1 
	none F } I I #
-185 intcurve-curve $-1 -1 -1 $-1 forward { surfintcur full nubs 3 open 23 
	-8.048808434939815 3 -7.7605654117920473 2 -7.4723223886442831 2 -7.1840793654965189 2 -6.8036971843038856 2 
	-6.4233150031112523 2 -5.8022612824277928 2 -5.1812075617443369 2 -3.8859056713082509 2 -2.5906037808721685 2 
	-1.295301890436086 2 0 3 1.2953018904360847 2 2.5906037808721694 2 3.885905671308254 2 
	5.1812075617443387 2 5.8022612824277973 2 6.4233150031112558 2 6.8036971843038883 2 7.1840793654965207 2 
	7.4723223886442858 2 7.7605654117920508 2 8.0488084349398168 3 
	-2.1979913697064539 -3.208386041729931 -12.500000000147143 
	-2.2994444110917396 -3.1836000258304091 -12.500000000147143 
	-2.4039189922840793 -3.171700107165397 -12.500000000147143 
	-2.5960810077159233 -3.171700107165397 -12.500000000147143 
	-2.7005555889082622 -3.1836000258304087 -12.500000000147143 
	-2.9034616716788366 -3.2331720576294352 -12.500000000147143 
	-3.0019266271915583 -3.2707071382307196 -12.500000000147143 
	-3.2019583760914321 -3.3689954662185322 -12.500000000147143 
	-3.317959407742622 -3.4448333469547299 -12.500000000147143 
	-3.5307202403611067 -3.6208862837571703 -12.500000000147143 
	-3.627715502121525 -3.7208165904389157 -12.500000000147143 
	-3.8426994241076367 -3.9761836650488682 -12.500000000147143 
	-3.967470152432016 -4.1651009371166943 -12.500000000147143 
	-4.1809388094861371 -4.5636200121105119 -12.500000000147143 
	-4.270139310911472 -4.7729524055770067 -12.500000000147143 
	-4.489419697764057 -5.37292127844972 -12.500000000147143 
	-4.5958575117781582 -5.8070890330861191 -12.500000000147143 
	-4.7556112025135953 -6.7064217155506833 -12.500000000147143 
	-4.8086033221342106 -7.1716441241777495 -12.500000000147143 
	-4.8827778876552959 -8.1084286685389806 -12.500000000147143 
	-4.9040444436706201 -8.5798327832350871 -12.500000000147143 
	-4.930202414285298 -9.5042671903049438 -12.500000000147143 
	-4.9350860354068491 -9.9572977031879724 -12.500000000147143 
	-4.9350860354068491 -10.389065000000002 -12.500000000147143 
	-4.9350860354068491 -10.82083229681203 -12.500000000147143 
	-4.930202414285298 -11.273862809695059 -12.500000000147143 
	-4.9040444436706201 -12.198297216764916 -12.500000000147143 
	-4.8827778876552959 -12.669701331461024 -12.500000000147143 
	-4.8086033221342106 -13.606485875822255 -12.500000000147143 
	-4.7556112025135953 -14.071708284449322 -12.500000000147143 
	-4.5958575117781582 -14.971040966913886 -12.500000000147143 
	-4.489419697764057 -15.405208721550284 -12.500000000147143 
	-4.270139310911472 -16.005177594422999 -12.500000000147143 
	-4.1809388094861371 -16.214509987889496 -12.500000000147143 
	-3.9674701524320164 -16.61302906288331 -12.500000000147143 
	-3.8426994241076367 -16.80194633495114 -12.500000000147143 
	-3.6277155021215255 -17.05731340956109 -12.500000000147143 
	-3.5307202403611075 -17.157243716242835 -12.500000000147143 
	-3.317959407742622 -17.333296653045277 -12.500000000147143 
	-3.2019583760914321 -17.409134533781472 -12.500000000147143 
	-3.0019266271915583 -17.507422861769285 -12.500000000147143 
	-2.9034616716788375 -17.544957942370569 -12.500000000147143 
	-2.7005555889082635 -17.594529974169593 -12.500000000147143 
	-2.5960810077159238 -17.606429892834608 -12.500000000147143 
	-2.4039189922840798 -17.606429892834608 -12.500000000147143 
	-2.29944441109174 -17.594529974169593 -12.500000000147143 
	-2.1979913697064553 -17.56974395827007 -12.500000000147143 
	0.00033668997405751633 
	torus -2.5000000000000013 -10.389065000000002 0 1 0 0 11.934000000000001 -2.5000000000000004 0 0 -1 forward_v I I I I 
	plane 5.0000000000000018 -10.389065000084997 -12.500000000147143 0 0 1 -3.2689673157899345e-016 1 -0 forward_v I I I I 
	nullbs 
	nullbs 
	-1 
	-1 
	I I 
	0 
	0 
	0 
	
	-1 
	none F } I I #
-186 point $-1 -1 -1 $-1 -2.5348753737151788 -3.1721866352146844 -12.500000000147143 #
-187 straight-curve $-1 -1 -1 $-1 5.0000000000000044 -17.605943364955309 -12.500000000147143 -1 -3.2752744865824959e-016 0 I I #
-188 point $-1 -1 -1 $-1 2.5348753676231248 -17.605943364955309 -12.500000000147143 #
-189 point $-1 -1 -1 $-1 -2.5348753676231288 -17.605943364955309 -12.500000000147143 #
End-of-ACIS-data 
