1600 0 1 0           
35 Abaqus, Inc. - Abaqus 6.8-DEV - 170 12 ACIS 17.0 NT 24 Tue Jul 10 12:57:25 2007 
1 9.9999999999999995e-007 1e-010 
-0 body $1 -1 -1 $-1 $2 $-1 $3 F #
-1 string_attrib-name_attrib-gen-attrib $-1 -1 $4 $-1 $0 2 1 1 1 1 1 1 1 1 1 1 1 1 1 0 1 1 1 @13 HKS_PART_NAME @6 Part-1 #
-2 lump $5 -1 -1 $-1 $-1 $6 $0 F #
-3 transform $-1 -1 1 0 0 0 1 0 0 0 1 0 0 0 1 no_rotate no_reflect no_shear #
-4 string_attrib-name_attrib-gen-attrib $-1 -1 $-1 $1 $0 2 1 1 1 1 1 1 1 1 1 1 1 1 1 0 1 1 1 @13 HKS_PART_NAME @12 omega_seal02 #
-5 cell_ptr-ct-attrib $-1 -1 $-1 $-1 $2 1 1 1 1 1 1 1 1 1 1 1 1 0 1 0 1 1 1 $7 $-1 auto #
-6 shell $-1 -1 -1 $-1 $-1 $-1 $8 $-1 $2 F #
-7 cell3d-cell $-1 -1 $-1 $2 $-1 1 $9 #
-8 face $10 -1 -1 $-1 $11 $12 $6 $-1 $13 reversed single F F #
-9 cshell $-1 -1 $-1 $14 $7 #
-10 cface_ptr-ct-attrib $-1 -1 $-1 $-1 $8 1 1 1 1 1 1 1 1 1 1 1 1 0 1 0 1 1 1 $-1 $15 #
-11 face $16 -1 -1 $-1 $17 $18 $6 $-1 $19 reversed single F F #
-12 loop $-1 -1 -1 $-1 $-1 $20 $8 F periphery $13 T #
-13 plane-surface $-1 -1 -1 $-1 36.68719363345604 0 18.693058826775847 -0.45399049973954692 0 0.89100652418836779 0.89100652418836779 0 0.45399049973954692 forward_v I I I I #
-14 cface $-1 -1 $21 $9 $17 0 #
-15 cface $-1 -1 $22 $9 $8 0 #
-16 cface_ptr-ct-attrib $-1 -1 $-1 $-1 $11 1 1 1 1 1 1 1 1 1 1 1 1 0 1 0 1 1 1 $-1 $23 #
-17 face $24 -1 -1 $-1 $25 $26 $6 $-1 $27 forward single F F #
-18 loop $-1 -1 -1 $-1 $-1 $28 $11 F periphery $19 T #
-19 plane-surface $-1 -1 -1 $-1 -18.693058826775847 0 36.68719363345604 0.89100652418836779 -0 0.45399049973954697 0.45399049973954697 0 -0.89100652418836779 forward_v I I I I #
-20 coedge $-1 -1 -1 $-1 $29 $30 $31 $32 reversed $12 $-1 #
-21 cface $-1 -1 $33 $9 $25 0 #
-22 cface $-1 -1 $-1 $9 $34 0 #
-23 cface $-1 -1 $35 $9 $11 0 #
-24 cface_ptr-ct-attrib $-1 -1 $-1 $-1 $17 1 1 1 1 1 1 1 1 1 1 1 1 0 1 0 1 1 1 $-1 $14 #
-25 face $36 -1 -1 $-1 $37 $38 $6 $-1 $39 forward single F F #
-26 loop $-1 -1 -1 $-1 $-1 $40 $17 F periphery $27 F #
-27 plane-surface $-1 -1 -1 $-1 64.647215960732922 0.1875 0 0 1 0 -1 0 0 forward_v I I I I #
-28 coedge $-1 -1 -1 $-1 $41 $42 $43 $44 reversed $18 $-1 #
-29 coedge $-1 -1 -1 $-1 $45 $20 $46 $47 reversed $12 $-1 #
-30 coedge $-1 -1 -1 $-1 $20 $48 $40 $49 reversed $12 $-1 #
-31 coedge $-1 -1 -1 $-1 $50 $51 $20 $32 forward $52 $-1 #
-32 edge $-1 -1 -1 $-1 $53 -0.09375 $54 0.09375 $31 $55 forward @7 unknown F #
-33 cface $-1 -1 $56 $9 $37 0 #
-34 face $57 -1 -1 $-1 $58 $59 $6 $-1 $60 forward single F F #
-35 cface $-1 -1 $15 $9 $61 0 #
-36 cface_ptr-ct-attrib $-1 -1 $-1 $-1 $25 1 1 1 1 1 1 1 1 1 1 1 1 0 1 0 1 1 1 $-1 $21 #
-37 face $62 -1 -1 $-1 $63 $64 $6 $-1 $65 forward single F F #
-38 loop $-1 -1 -1 $-1 $-1 $66 $25 F periphery $39 F #
-39 torus-surface $-1 -1 -1 $-1 0 0.654833000000004 0 0 -1 0 64 0.71750000000000458 0 0 -1 forward_v I I I I #
-40 coedge $-1 -1 -1 $-1 $67 $68 $30 $49 forward $26 $-1 #
-41 coedge $-1 -1 -1 $-1 $69 $28 $70 $71 reversed $18 $-1 #
-42 coedge $-1 -1 -1 $-1 $28 $72 $73 $74 reversed $18 $-1 #
-43 coedge $-1 -1 -1 $-1 $75 $76 $28 $44 forward $52 $-1 #
-44 edge $-1 -1 -1 $-1 $77 -0.09375 $78 0.09375 $43 $79 forward @7 unknown F #
-45 coedge $-1 -1 -1 $-1 $80 $29 $81 $82 reversed $12 $-1 #
-46 coedge $-1 -1 -1 $-1 $83 $84 $29 $47 forward $85 $-1 #
-47 edge $-1 -1 -1 $-1 $86 14.927539388349551 $53 15.427539654127647 $46 $87 forward @7 unknown F #
-48 coedge $-1 -1 -1 $-1 $30 $88 $66 $89 reversed $12 $-1 #
-49 edge $-1 -1 -1 $-1 $54 -15.361954404186285 $90 -15.156386325652145 $40 $91 forward @7 unknown F #
-50 coedge $-1 -1 -1 $-1 $92 $31 $68 $93 forward $52 $-1 #
-51 coedge $-1 -1 -1 $-1 $31 $94 $83 $95 reversed $52 $-1 #
-52 loop $-1 -1 -1 $-1 $-1 $31 $96 F periphery $97 F #
-53 vertex $-1 -1 -1 $-1 $95 $98 #
-54 vertex $-1 -1 -1 $-1 $93 $99 #
-55 straight-curve $-1 -1 -1 $-1 57.692672441196812 0.09375 29.395884858135666 -0 1 -0 I I #
-56 cface $-1 -1 $100 $9 $63 0 #
-57 cface_ptr-ct-attrib $-1 -1 $-1 $-1 $34 1 1 1 1 1 1 1 1 1 1 1 1 0 1 0 1 1 1 $-1 $22 #
-58 face $101 -1 -1 $-1 $102 $103 $6 $-1 $104 forward single F F #
-59 loop $-1 -1 -1 $-1 $-1 $81 $34 F periphery $60 F #
-60 cone-surface $-1 -1 -1 $-1 0 0.0937499999999995 0 0 -1 0 64.249999734221888 0 0 1 I I 0 -1 64.249999734221888 forward I I I I #
-61 face $105 -1 -1 $-1 $34 $85 $6 $-1 $106 forward single F F #
-62 cface_ptr-ct-attrib $-1 -1 $-1 $-1 $37 1 1 1 1 1 1 1 1 1 1 1 1 0 1 0 1 1 1 $-1 $33 #
-63 face $107 -1 -1 $-1 $108 $109 $6 $-1 $110 forward single F F #
-64 loop $-1 -1 -1 $-1 $-1 $111 $37 F periphery $65 F #
-65 plane-surface $-1 -1 -1 $-1 63.352784039267078 0.18749999999999784 0 2.106294823064576e-014 1 0 -1 0 0 forward_v I I I I #
-66 coedge $-1 -1 -1 $-1 $112 $113 $48 $89 forward $38 $-1 #
-67 coedge $-1 -1 -1 $-1 $114 $40 $113 $115 forward $26 $-1 #
-68 coedge $-1 -1 -1 $-1 $40 $116 $50 $93 reversed $26 $-1 #
-69 coedge $-1 -1 -1 $-1 $117 $41 $118 $119 reversed $18 $-1 #
-70 coedge $-1 -1 -1 $-1 $120 $121 $41 $71 forward $26 $-1 #
-71 edge $-1 -1 -1 $-1 $122 58.631542861857639 $77 58.837110940391774 $70 $123 forward @7 unknown F #
-72 coedge $-1 -1 -1 $-1 $42 $124 $125 $126 reversed $18 $-1 #
-73 coedge $-1 -1 -1 $-1 $127 $128 $42 $74 forward $85 $-1 #
-74 edge $-1 -1 -1 $-1 $78 -58.803693586435202 $129 -58.303693320657104 $73 $130 forward @7 unknown F #
-75 coedge $-1 -1 -1 $-1 $131 $43 $128 $132 reversed $52 $-1 #
-76 coedge $-1 -1 -1 $-1 $43 $133 $120 $134 forward $52 $-1 #
-77 vertex $-1 -1 -1 $-1 $44 $135 #
-78 vertex $-1 -1 -1 $-1 $74 $136 #
-79 straight-curve $-1 -1 -1 $-1 -29.395884858135666 0.09375 57.692672441196812 0 -1 0 I I #
-80 coedge $-1 -1 -1 $-1 $137 $45 $138 $139 reversed $12 $-1 #
-81 coedge $-1 -1 -1 $-1 $140 $141 $45 $82 forward $59 $-1 #
-82 edge $-1 -1 -1 $-1 $142 -0.0937499999999995 $86 0.0937499999999995 $81 $143 forward @7 unknown F #
-83 coedge $-1 -1 -1 $-1 $144 $46 $51 $95 forward $85 $-1 #
-84 coedge $-1 -1 -1 $-1 $46 $145 $140 $146 reversed $85 $-1 #
-85 loop $-1 -1 -1 $-1 $-1 $46 $61 F periphery $106 F #
-86 vertex $-1 -1 -1 $-1 $146 $147 #
-87 straight-curve $-1 -1 -1 $-1 43.946633957194322 0 22.391928420806579 0.89100652418836779 0 0.45399049973954692 I I #
-88 coedge $-1 -1 -1 $-1 $48 $148 $111 $149 reversed $12 $-1 #
-89 edge $-1 -1 -1 $-1 $90 -0.70934274303098466 $150 3.8509353966207938 $66 $151 forward @7 unknown F #
-90 vertex $-1 -1 -1 $-1 $115 $152 #
-91 straight-curve $-1 -1 -1 $-1 44.005070842782601 0.1875 22.421703501202998 -0.89100652418836779 0 -0.45399049973954692 I I #
-92 coedge $-1 -1 -1 $-1 $153 $50 $116 $154 forward $52 $-1 #
-93 edge $-1 -1 -1 $-1 $54 0 $155 0.15707963267948788 $50 $156 forward @7 unknown F #
-94 coedge $-1 -1 -1 $-1 $51 $157 $144 $158 reversed $52 $-1 #
-95 edge $-1 -1 -1 $-1 $53 0 $159 0.15707963267948966 $83 $160 forward @7 unknown F #
-96 face $161 -1 -1 $-1 $61 $52 $6 $-1 $97 forward single F F #
-97 cone-surface $-1 -1 -1 $-1 0 0.09375 0 0 -1 0 64.75 0 0 1 I I 0 1 64.75 forward I I I I #
-98 point $-1 -1 -1 $-1 57.692672441196812 0 29.395884858135666 #
-99 point $-1 -1 -1 $-1 57.692672441196812 0.1875 29.395884858135666 #
-100 cface $-1 -1 $162 $9 $108 0 #
-101 cface_ptr-ct-attrib $-1 -1 $-1 $-1 $58 1 1 1 1 1 1 1 1 1 1 1 1 0 1 0 1 1 1 $-1 $163 #
-102 face $164 -1 -1 $-1 $-1 $165 $6 $-1 $166 forward single F F #
-103 loop $-1 -1 -1 $-1 $-1 $138 $58 F periphery $104 F #
-104 torus-surface $-1 -1 -1 $-1 0 0.654833 0 0 -1 0 64 -0.53000000000000103 0 0 -1 forward_v I I I I #
-105 cface_ptr-ct-attrib $-1 -1 $-1 $-1 $61 1 1 1 1 1 1 1 1 1 1 1 1 0 1 0 1 1 1 $-1 $35 #
-106 plane-surface $-1 -1 -1 $-1 64.499999867110944 0 0 0 -1 0 1 0 0 forward_v I I I I #
-107 cface_ptr-ct-attrib $-1 -1 $-1 $-1 $63 1 1 1 1 1 1 1 1 1 1 1 1 0 1 0 1 1 1 $-1 $56 #
-108 face $167 -1 -1 $-1 $96 $168 $6 $-1 $169 forward single F F #
-109 loop $-1 -1 -1 $-1 $-1 $170 $63 F periphery $110 F #
-110 cone-surface $-1 -1 -1 $-1 0 0.09375 0 0 -1 0 63.25 0 0 1 I I 0 -1 63.25 forward I I I I #
-111 coedge $-1 -1 -1 $-1 $171 $172 $88 $149 forward $64 $-1 #
-112 coedge $-1 -1 -1 $-1 $173 $66 $172 $174 forward $38 $-1 #
-113 coedge $-1 -1 -1 $-1 $66 $175 $67 $115 reversed $38 $-1 #
-114 coedge $-1 -1 -1 $-1 $176 $67 $175 $177 forward $26 $-1 #
-115 edge $-1 -1 -1 $-1 $90 0 $178 0.15707963267948788 $67 $179 forward @7 unknown F #
-116 coedge $-1 -1 -1 $-1 $68 $180 $92 $154 reversed $26 $-1 #
-117 coedge $-1 -1 -1 $-1 $181 $69 $182 $183 reversed $18 $-1 #
-118 coedge $-1 -1 -1 $-1 $184 $185 $69 $119 forward $38 $-1 #
-119 edge $-1 -1 -1 $-1 $186 2.4322499105587942 $122 6.9925280502105744 $118 $187 forward @7 unknown F #
-120 coedge $-1 -1 -1 $-1 $188 $70 $76 $134 reversed $26 $-1 #
-121 coedge $-1 -1 -1 $-1 $70 $189 $184 $190 forward $26 $-1 #
-122 vertex $-1 -1 -1 $-1 $119 $191 #
-123 straight-curve $-1 -1 -1 $-1 -2.6843954590760433 0.1875 5.2684227289129435 -0.45399049973954697 0 0.89100652418836779 I I #
-124 coedge $-1 -1 -1 $-1 $72 $192 $193 $194 reversed $18 $-1 #
-125 coedge $-1 -1 -1 $-1 $195 $196 $72 $126 forward $59 $-1 #
-126 edge $-1 -1 -1 $-1 $129 -0.0937499999999995 $197 0.0937499999999995 $125 $198 forward @7 unknown F #
-127 coedge $-1 -1 -1 $-1 $199 $73 $196 $200 reversed $85 $-1 #
-128 coedge $-1 -1 -1 $-1 $73 $201 $75 $132 forward $85 $-1 #
-129 vertex $-1 -1 -1 $-1 $126 $202 #
-130 straight-curve $-1 -1 -1 $-1 -2.6995666202987607 0 5.2981978093093716 0.45399049973954697 0 -0.89100652418836779 I I #
-131 coedge $-1 -1 -1 $-1 $203 $75 $201 $204 reversed $52 $-1 #
-132 edge $-1 -1 -1 $-1 $205 0 $78 0.15707963267948966 $128 $206 forward @7 unknown F #
-133 coedge $-1 -1 -1 $-1 $76 $207 $188 $208 forward $52 $-1 #
-134 edge $-1 -1 -1 $-1 $209 0 $77 0.15707963267948788 $76 $210 forward @7 unknown F #
-135 point $-1 -1 -1 $-1 -29.395884858135663 0.1875 57.692672441196812 #
-136 point $-1 -1 -1 $-1 -29.395884858135663 0 57.692672441196812 #
-137 coedge $-1 -1 -1 $-1 $211 $80 $212 $213 reversed $12 $-1 #
-138 coedge $-1 -1 -1 $-1 $214 $215 $80 $139 forward $103 $-1 #
-139 edge $-1 -1 -1 $-1 $216 2.0620113685109445 $142 7.362766592258434 $138 $217 forward @7 unknown F #
-140 coedge $-1 -1 -1 $-1 $218 $81 $84 $146 forward $59 $-1 #
-141 coedge $-1 -1 -1 $-1 $81 $219 $214 $220 reversed $59 $-1 #
-142 vertex $-1 -1 -1 $-1 $220 $221 #
-143 straight-curve $-1 -1 -1 $-1 57.247168942292596 0.0937499999999995 29.168889487605156 -0 -1 -0 I I #
-144 coedge $-1 -1 -1 $-1 $222 $83 $94 $158 forward $85 $-1 #
-145 coedge $-1 -1 -1 $-1 $84 $223 $218 $224 reversed $85 $-1 #
-146 edge $-1 -1 -1 $-1 $86 0 $225 0.15707963267948971 $140 $226 forward @7 unknown F #
-147 point $-1 -1 -1 $-1 57.24716894229261 0 29.16888948760516 #
-148 coedge $-1 -1 -1 $-1 $88 $211 $170 $227 reversed $12 $-1 #
-149 edge $-1 -1 -1 $-1 $150 -14.644196126292318 $228 -14.438628047758169 $111 $229 forward @7 unknown F #
-150 vertex $-1 -1 -1 $-1 $174 $230 #
-151 ellipse-curve $-1 -1 -1 $-1 57.024417548055538 0.654833000000004 29.055391983331003 -0.45399049973954692 0 0.89100652418836779 0.63929718110515799 0 0.325738183563127 1 I I #
-152 point $-1 -1 -1 $-1 57.509509942058024 0.1875 29.302558903431454 #
-153 coedge $-1 -1 -1 $-1 $231 $92 $180 $232 forward $52 $-1 #
-154 edge $-1 -1 -1 $-1 $155 0 $233 0.15707963267948788 $92 $234 forward @7 unknown F #
-155 vertex $-1 -1 -1 $-1 $154 $235 #
-156 ellipse-curve $-1 -1 -1 $-1 0 0.1875 0 0 -1 0 57.692672441196812 0 29.395884858135666 1 F 0 F 1.5707963267948966 #
-157 coedge $-1 -1 -1 $-1 $94 $236 $222 $237 reversed $52 $-1 #
-158 edge $-1 -1 -1 $-1 $159 0 $238 0.15707963267948966 $144 $239 forward @7 unknown F #
-159 vertex $-1 -1 -1 $-1 $158 $240 #
-160 ellipse-curve $-1 -1 -1 $-1 0 0 0 0 -1 0 57.692672441196812 0 29.395884858135666 1 F 0 F 1.5707963267948966 #
-161 cface_ptr-ct-attrib $-1 -1 $-1 $-1 $96 1 1 1 1 1 1 1 1 1 1 1 1 0 1 0 1 1 1 $-1 $241 #
-162 cface $-1 -1 $241 $9 $102 0 #
-163 cface $-1 -1 $23 $9 $58 0 #
-164 cface_ptr-ct-attrib $-1 -1 $-1 $-1 $102 1 1 1 1 1 1 1 1 1 1 1 1 0 1 0 1 1 1 $-1 $162 #
-165 loop $-1 -1 -1 $-1 $-1 $212 $102 F periphery $166 F #
-166 cone-surface $-1 -1 -1 $-1 0 0.093749999999999584 0 0 -1 0 63.75000026577812 0 0 1 I I 0 1 63.75000026577812 forward I I I I #
-167 cface_ptr-ct-attrib $-1 -1 $-1 $-1 $108 1 1 1 1 1 1 1 1 1 1 1 1 0 1 0 1 1 1 $-1 $100 #
-168 loop $-1 -1 -1 $-1 $-1 $242 $108 F periphery $169 F #
-169 plane-surface $-1 -1 -1 $-1 63.500000132889049 0 0 0 -1 0 1 0 0 forward_v I I I I #
-170 coedge $-1 -1 -1 $-1 $243 $244 $148 $227 forward $109 $-1 #
-171 coedge $-1 -1 -1 $-1 $245 $111 $244 $246 forward $64 $-1 #
-172 coedge $-1 -1 -1 $-1 $111 $247 $112 $174 reversed $64 $-1 #
-173 coedge $-1 -1 -1 $-1 $248 $112 $247 $249 forward $38 $-1 #
-174 edge $-1 -1 -1 $-1 $150 0 $250 0.15707963267948788 $112 $251 forward @7 unknown F #
-175 coedge $-1 -1 -1 $-1 $113 $252 $114 $177 reversed $38 $-1 #
-176 coedge $-1 -1 -1 $-1 $253 $114 $252 $254 forward $26 $-1 #
-177 edge $-1 -1 -1 $-1 $178 0 $255 0.15707963267948788 $114 $256 forward @7 unknown F #
-178 vertex $-1 -1 -1 $-1 $177 $257 #
-179 ellipse-curve $-1 -1 -1 $-1 0 0.1875 0 0 -1 0 57.509509942058024 0 29.302558903431454 1 F 0 F 1.5707963267948966 #
-180 coedge $-1 -1 -1 $-1 $116 $258 $153 $232 reversed $26 $-1 #
-181 coedge $-1 -1 -1 $-1 $259 $117 $260 $261 reversed $18 $-1 #
-182 coedge $-1 -1 -1 $-1 $262 $263 $117 $183 forward $64 $-1 #
-183 edge $-1 -1 -1 $-1 $264 57.043281042939228 $186 57.248849121473377 $182 $265 forward @7 unknown F #
-184 coedge $-1 -1 -1 $-1 $266 $118 $121 $190 reversed $38 $-1 #
-185 coedge $-1 -1 -1 $-1 $118 $267 $262 $268 forward $38 $-1 #
-186 vertex $-1 -1 -1 $-1 $183 $269 #
-187 ellipse-curve $-1 -1 -1 $-1 -29.055391983331006 0.654833000000004 57.024417548055538 0.89100652418836779 -0 0.45399049973954697 -0.325738183563127 -0 0.63929718110515799 1 I I #
-188 coedge $-1 -1 -1 $-1 $270 $120 $133 $208 reversed $26 $-1 #
-189 coedge $-1 -1 -1 $-1 $121 $271 $266 $272 forward $26 $-1 #
-190 edge $-1 -1 -1 $-1 $273 0 $122 0.15707963267948788 $121 $274 forward @7 unknown F #
-191 point $-1 -1 -1 $-1 -29.30255890343145 0.1875 57.509509942058024 #
-192 coedge $-1 -1 -1 $-1 $124 $259 $275 $276 reversed $18 $-1 #
-193 coedge $-1 -1 -1 $-1 $277 $278 $124 $194 forward $103 $-1 #
-194 edge $-1 -1 -1 $-1 $197 -1.0795812850788491 $279 4.2211739386686409 $193 $280 forward @7 unknown F #
-195 coedge $-1 -1 -1 $-1 $281 $125 $278 $282 reversed $59 $-1 #
-196 coedge $-1 -1 -1 $-1 $125 $283 $127 $200 forward $59 $-1 #
-197 vertex $-1 -1 -1 $-1 $194 $284 #
-198 straight-curve $-1 -1 -1 $-1 -29.168889487605156 0.0937499999999995 57.247168942292596 -0 1 0 I I #
-199 coedge $-1 -1 -1 $-1 $285 $127 $283 $286 reversed $85 $-1 #
-200 edge $-1 -1 -1 $-1 $287 0 $129 0.15707963267948971 $196 $288 forward @7 unknown F #
-201 coedge $-1 -1 -1 $-1 $128 $289 $131 $204 forward $85 $-1 #
-202 point $-1 -1 -1 $-1 -29.168889487605156 0 57.24716894229261 #
-203 coedge $-1 -1 -1 $-1 $290 $131 $289 $291 reversed $52 $-1 #
-204 edge $-1 -1 -1 $-1 $292 0 $205 0.15707963267948966 $201 $293 forward @7 unknown F #
-205 vertex $-1 -1 -1 $-1 $132 $294 #
-206 ellipse-curve $-1 -1 -1 $-1 0 0 0 -0 -1 0 -20.008850385777855 0 61.580909430111191 1 F 0 F 1.5707963267948966 #
-207 coedge $-1 -1 -1 $-1 $133 $295 $270 $296 forward $52 $-1 #
-208 edge $-1 -1 -1 $-1 $297 0 $209 0.15707963267948788 $133 $298 forward @7 unknown F #
-209 vertex $-1 -1 -1 $-1 $134 $299 #
-210 ellipse-curve $-1 -1 -1 $-1 0 0.1875 0 -0 -1 0 -20.008850385777855 0 61.580909430111191 1 F 0 F 1.5707963267948966 #
-211 coedge $-1 -1 -1 $-1 $148 $137 $242 $300 reversed $12 $-1 #
-212 coedge $-1 -1 -1 $-1 $301 $302 $137 $213 forward $165 $-1 #
-213 edge $-1 -1 -1 $-1 $303 -0.093749999999999584 $216 0.093749999999999584 $212 $304 forward @7 unknown F #
-214 coedge $-1 -1 -1 $-1 $305 $138 $141 $220 forward $103 $-1 #
-215 coedge $-1 -1 -1 $-1 $138 $306 $301 $307 reversed $103 $-1 #
-216 vertex $-1 -1 -1 $-1 $307 $308 #
-217 ellipse-curve $-1 -1 -1 $-1 57.024417548055538 0.654833 29.055391983331003 0.45399049973954692 -0 -0.89100652418836779 0.47223345781983583 0 0.24061496486196032 1 I I #
-218 coedge $-1 -1 -1 $-1 $309 $140 $145 $224 forward $59 $-1 #
-219 coedge $-1 -1 -1 $-1 $141 $310 $305 $311 reversed $59 $-1 #
-220 edge $-1 -1 -1 $-1 $142 0 $312 0.15707963267948782 $214 $313 forward @7 unknown F #
-221 point $-1 -1 -1 $-1 57.247168942292575 0.187499999999999 29.168889487605142 #
-222 coedge $-1 -1 -1 $-1 $314 $144 $157 $237 forward $85 $-1 #
-223 coedge $-1 -1 -1 $-1 $145 $315 $309 $316 reversed $85 $-1 #
-224 edge $-1 -1 -1 $-1 $225 0 $317 0.15707963267948971 $218 $318 forward @7 unknown F #
-225 vertex $-1 -1 -1 $-1 $224 $319 #
-226 ellipse-curve $-1 -1 -1 $-1 0 0 0 0 -1 0 57.24716894229261 0 29.16888948760516 1 F 0 F 1.5707963267948966 #
-227 edge $-1 -1 -1 $-1 $228 -0.09375 $320 0.09375 $170 $321 forward @7 unknown F #
-228 vertex $-1 -1 -1 $-1 $246 $322 #
-229 straight-curve $-1 -1 -1 $-1 43.49125086403258 0.18750000000041617 22.159899145571178 -0.89100652418836779 1.8767224292147211e-014 -0.45399049973954692 I I #
-230 point $-1 -1 -1 $-1 56.53932515405306 0.18749999999999567 28.808225063230562 #
-231 coedge $-1 -1 -1 $-1 $323 $153 $258 $324 forward $52 $-1 #
-232 edge $-1 -1 -1 $-1 $233 0 $325 0.15707963267948788 $153 $326 forward @7 unknown F #
-233 vertex $-1 -1 -1 $-1 $232 $327 #
-234 ellipse-curve $-1 -1 -1 $-1 0 0.1875 0 0 -1 0 52.383850385777841 0 38.059095085937649 1 F 0 F 1.5707963267948966 #
-235 point $-1 -1 -1 $-1 52.383850385777841 0.1875 38.059095085937649 #
-236 coedge $-1 -1 -1 $-1 $157 $328 $314 $329 reversed $52 $-1 #
-237 edge $-1 -1 -1 $-1 $238 0 $330 0.15707963267948966 $222 $331 forward @7 unknown F #
-238 vertex $-1 -1 -1 $-1 $237 $332 #
-239 ellipse-curve $-1 -1 -1 $-1 0 0 0 0 -1 0 52.383850385777841 0 38.059095085937649 1 F 0 F 1.5707963267948966 #
-240 point $-1 -1 -1 $-1 52.383850385777841 0 38.059095085937649 #
-241 cface $-1 -1 $163 $9 $96 0 #
-242 coedge $-1 -1 -1 $-1 $333 $334 $211 $300 forward $168 $-1 #
-243 coedge $-1 -1 -1 $-1 $335 $170 $334 $336 forward $109 $-1 #
-244 coedge $-1 -1 -1 $-1 $170 $337 $171 $246 reversed $109 $-1 #
-245 coedge $-1 -1 -1 $-1 $338 $171 $337 $339 forward $64 $-1 #
-246 edge $-1 -1 -1 $-1 $228 0 $340 0.15707963267948782 $171 $341 forward @7 unknown F #
-247 coedge $-1 -1 -1 $-1 $172 $342 $173 $249 reversed $64 $-1 #
-248 coedge $-1 -1 -1 $-1 $343 $173 $342 $344 forward $38 $-1 #
-249 edge $-1 -1 -1 $-1 $250 0 $345 0.15707963267948788 $173 $346 forward @7 unknown F #
-250 vertex $-1 -1 -1 $-1 $249 $347 #
-251 ellipse-curve $-1 -1 -1 $-1 0 0.18749999999999567 0 0 -1 0 56.53932515405306 0 28.808225063230562 1 F 0 F 1.5707963267948966 #
-252 coedge $-1 -1 -1 $-1 $175 $348 $176 $254 reversed $38 $-1 #
-253 coedge $-1 -1 -1 $-1 $349 $176 $348 $350 forward $26 $-1 #
-254 edge $-1 -1 -1 $-1 $255 0 $351 0.15707963267948788 $176 $352 forward @7 unknown F #
-255 vertex $-1 -1 -1 $-1 $254 $353 #
-256 ellipse-curve $-1 -1 -1 $-1 0 0.1875 0 0 -1 0 52.217542316742716 0 37.938265201033182 1 F 0 F 1.5707963267948966 #
-257 point $-1 -1 -1 $-1 52.217542316742716 0.1875 37.938265201033182 #
-258 coedge $-1 -1 -1 $-1 $180 $354 $231 $324 reversed $26 $-1 #
-259 coedge $-1 -1 -1 $-1 $192 $181 $355 $356 reversed $18 $-1 #
-260 coedge $-1 -1 -1 $-1 $357 $358 $181 $261 forward $109 $-1 #
-261 edge $-1 -1 -1 $-1 $359 -0.09375 $264 0.09375 $260 $360 forward @7 unknown F #
-262 coedge $-1 -1 -1 $-1 $361 $182 $185 $268 reversed $64 $-1 #
-263 coedge $-1 -1 -1 $-1 $182 $362 $357 $363 forward $64 $-1 #
-264 vertex $-1 -1 -1 $-1 $261 $364 #
-265 straight-curve $-1 -1 -1 $-1 -2.8177914410589433 0.18750000000139158 5.5302270845447667 -0.45399049973954697 9.5623783932190748e-015 0.89100652418836779 I I #
-266 coedge $-1 -1 -1 $-1 $365 $184 $189 $272 reversed $38 $-1 #
-267 coedge $-1 -1 -1 $-1 $185 $366 $361 $367 forward $38 $-1 #
-268 edge $-1 -1 -1 $-1 $368 0 $186 0.15707963267948788 $185 $369 forward @7 unknown F #
-269 point $-1 -1 -1 $-1 -28.808225063230559 0.18749999999999567 56.53932515405306 #
-270 coedge $-1 -1 -1 $-1 $370 $188 $207 $296 reversed $26 $-1 #
-271 coedge $-1 -1 -1 $-1 $189 $371 $365 $372 forward $26 $-1 #
-272 edge $-1 -1 -1 $-1 $373 0 $273 0.15707963267948788 $189 $374 forward @7 unknown F #
-273 vertex $-1 -1 -1 $-1 $190 $375 #
-274 ellipse-curve $-1 -1 -1 $-1 0 0.1875 0 -0 -1 0 -19.945326356009801 0 61.38540256947902 1 F 0 F 1.5707963267948966 #
-275 coedge $-1 -1 -1 $-1 $376 $377 $192 $276 forward $165 $-1 #
-276 edge $-1 -1 -1 $-1 $279 -0.093749999999999584 $378 0.093749999999999584 $275 $379 forward @7 unknown F #
-277 coedge $-1 -1 -1 $-1 $380 $193 $377 $381 reversed $103 $-1 #
-278 coedge $-1 -1 -1 $-1 $193 $382 $195 $282 forward $103 $-1 #
-279 vertex $-1 -1 -1 $-1 $276 $383 #
-280 ellipse-curve $-1 -1 -1 $-1 -29.055391983331006 0.654833 57.024417548055538 -0.89100652418836779 0 -0.45399049973954697 -0.24061496486196035 -0 0.47223345781983583 1 I I #
-281 coedge $-1 -1 -1 $-1 $384 $195 $382 $385 reversed $59 $-1 #
-282 edge $-1 -1 -1 $-1 $386 0 $197 0.15707963267948782 $278 $387 forward @7 unknown F #
-283 coedge $-1 -1 -1 $-1 $196 $388 $199 $286 forward $59 $-1 #
-284 point $-1 -1 -1 $-1 -29.168889487605139 0.187499999999999 57.247168942292575 #
-285 coedge $-1 -1 -1 $-1 $389 $199 $388 $390 reversed $85 $-1 #
-286 edge $-1 -1 -1 $-1 $391 0 $287 0.15707963267948971 $283 $392 forward @7 unknown F #
-287 vertex $-1 -1 -1 $-1 $200 $393 #
-288 ellipse-curve $-1 -1 -1 $-1 0 0 0 -0 -1 0 -19.854341806460432 0 61.105380919193621 1 F 0 F 1.5707963267948966 #
-289 coedge $-1 -1 -1 $-1 $201 $394 $203 $291 forward $85 $-1 #
-290 coedge $-1 -1 -1 $-1 $395 $203 $394 $396 reversed $52 $-1 #
-291 edge $-1 -1 -1 $-1 $397 0 $292 0.15707963267948966 $289 $398 forward @7 unknown F #
-292 vertex $-1 -1 -1 $-1 $204 $399 #
-293 ellipse-curve $-1 -1 -1 $-1 0 0 0 -0 -1 0 -10.129131611354959 0 63.952820053535163 1 F 0 F 1.5707963267948966 #
-294 point $-1 -1 -1 $-1 -20.008850385777855 0 61.580909430111191 #
-295 coedge $-1 -1 -1 $-1 $207 $400 $370 $401 forward $52 $-1 #
-296 edge $-1 -1 -1 $-1 $402 0 $297 0.15707963267948788 $207 $403 forward @7 unknown F #
-297 vertex $-1 -1 -1 $-1 $208 $404 #
-298 ellipse-curve $-1 -1 -1 $-1 0 0.1875 0 -0 -1 0 -10.129131611354959 0 63.952820053535163 1 F 0 F 1.5707963267948966 #
-299 point $-1 -1 -1 $-1 -20.008850385777855 0.1875 61.580909430111191 #
-300 edge $-1 -1 -1 $-1 $320 14.373042797816822 $303 14.87304306359492 $242 $405 forward @7 unknown F #
-301 coedge $-1 -1 -1 $-1 $406 $212 $215 $307 forward $165 $-1 #
-302 coedge $-1 -1 -1 $-1 $212 $407 $333 $408 reversed $165 $-1 #
-303 vertex $-1 -1 -1 $-1 $408 $409 #
-304 straight-curve $-1 -1 -1 $-1 56.801666153818488 0.093749999999999584 28.94189447905686 -0 1 -0 I I #
-305 coedge $-1 -1 -1 $-1 $410 $214 $219 $311 forward $103 $-1 #
-306 coedge $-1 -1 -1 $-1 $215 $411 $406 $412 reversed $103 $-1 #
-307 edge $-1 -1 -1 $-1 $216 0 $413 0.15707963267948782 $301 $414 forward @7 unknown F #
-308 point $-1 -1 -1 $-1 56.801666153818502 0.18749999999999917 28.94189447905687 #
-309 coedge $-1 -1 -1 $-1 $415 $218 $223 $316 forward $59 $-1 #
-310 coedge $-1 -1 -1 $-1 $219 $416 $410 $417 reversed $59 $-1 #
-311 edge $-1 -1 -1 $-1 $312 0 $418 0.15707963267948782 $305 $419 forward @7 unknown F #
-312 vertex $-1 -1 -1 $-1 $311 $420 #
-313 ellipse-curve $-1 -1 -1 $-1 0 0.187499999999999 0 0 -1 0 57.247168942292575 0 29.168889487605142 1 F 0 F 1.5707963267948966 #
-314 coedge $-1 -1 -1 $-1 $421 $222 $236 $329 forward $85 $-1 #
-315 coedge $-1 -1 -1 $-1 $223 $422 $415 $423 reversed $85 $-1 #
-316 edge $-1 -1 -1 $-1 $317 0 $424 0.15707963267948971 $309 $425 forward @7 unknown F #
-317 vertex $-1 -1 -1 $-1 $316 $426 #
-318 ellipse-curve $-1 -1 -1 $-1 0 0 0 0 -1 0 51.979341673571369 0 37.765202303570966 1 F 0 F 1.5707963267948966 #
-319 point $-1 -1 -1 $-1 51.979341673571369 0 37.765202303570966 #
-320 vertex $-1 -1 -1 $-1 $300 $427 #
-321 straight-curve $-1 -1 -1 $-1 56.356162654914264 0.09375 28.714899108526346 -0 -1 -0 I I #
-322 point $-1 -1 -1 $-1 56.356162654914264 0.1875 28.714899108526346 #
-323 coedge $-1 -1 -1 $-1 $400 $231 $354 $428 forward $52 $-1 #
-324 edge $-1 -1 -1 $-1 $325 0 $429 0.15707963267948788 $231 $430 forward @7 unknown F #
-325 vertex $-1 -1 -1 $-1 $324 $431 #
-326 ellipse-curve $-1 -1 -1 $-1 0 0.1875 0 0 -1 0 45.785164081828938 0 45.78516408182896 1 F 0 F 1.5707963267948966 #
-327 point $-1 -1 -1 $-1 45.785164081828938 0.1875 45.78516408182896 #
-328 coedge $-1 -1 -1 $-1 $236 $395 $421 $432 reversed $52 $-1 #
-329 edge $-1 -1 -1 $-1 $330 0 $433 0.15707963267948966 $314 $434 forward @7 unknown F #
-330 vertex $-1 -1 -1 $-1 $329 $435 #
-331 ellipse-curve $-1 -1 -1 $-1 0 0 0 0 -1 0 45.785164081828938 0 45.78516408182896 1 F 0 F 1.5707963267948966 #
-332 point $-1 -1 -1 $-1 45.785164081828938 0 45.78516408182896 #
-333 coedge $-1 -1 -1 $-1 $436 $242 $302 $408 forward $168 $-1 #
-334 coedge $-1 -1 -1 $-1 $242 $437 $243 $336 reversed $168 $-1 #
-335 coedge $-1 -1 -1 $-1 $438 $243 $437 $439 forward $109 $-1 #
-336 edge $-1 -1 -1 $-1 $320 0 $440 0.15707963267948971 $243 $441 forward @7 unknown F #
-337 coedge $-1 -1 -1 $-1 $244 $442 $245 $339 reversed $109 $-1 #
-338 coedge $-1 -1 -1 $-1 $443 $245 $442 $444 forward $64 $-1 #
-339 edge $-1 -1 -1 $-1 $340 0 $445 0.15707963267948782 $245 $446 forward @7 unknown F #
-340 vertex $-1 -1 -1 $-1 $339 $447 #
-341 ellipse-curve $-1 -1 -1 $-1 0 0.1875 0 0 -1 0 56.356162654914264 0 28.714899108526346 1 F 0 F 1.5707963267948966 #
-342 coedge $-1 -1 -1 $-1 $247 $448 $248 $344 reversed $64 $-1 #
-343 coedge $-1 -1 -1 $-1 $449 $248 $448 $450 forward $38 $-1 #
-344 edge $-1 -1 -1 $-1 $345 0 $451 0.15707963267948788 $248 $452 forward @7 unknown F #
-345 vertex $-1 -1 -1 $-1 $344 $453 #
-346 ellipse-curve $-1 -1 -1 $-1 0 0.18749999999999567 0 0 -1 0 51.336632963250551 0 37.298247092403415 1 F 0 F 1.5707963267948966 #
-347 point $-1 -1 -1 $-1 51.336632963250551 0.18749999999999567 37.298247092403415 #
-348 coedge $-1 -1 -1 $-1 $252 $454 $253 $350 reversed $38 $-1 #
-349 coedge $-1 -1 -1 $-1 $455 $253 $454 $456 forward $26 $-1 #
-350 edge $-1 -1 -1 $-1 $351 0 $457 0.15707963267948788 $253 $458 forward @7 unknown F #
-351 vertex $-1 -1 -1 $-1 $350 $459 #
-352 ellipse-curve $-1 -1 -1 $-1 0 0.1875 0 0 -1 0 45.639805499501961 0 45.639805499501982 1 F 0 F 1.5707963267948966 #
-353 point $-1 -1 -1 $-1 45.639805499501961 0.1875 45.639805499501982 #
-354 coedge $-1 -1 -1 $-1 $258 $460 $323 $428 reversed $26 $-1 #
-355 coedge $-1 -1 -1 $-1 $461 $462 $259 $356 forward $168 $-1 #
-356 edge $-1 -1 -1 $-1 $378 -57.576698662673905 $359 -57.076698396895807 $355 $463 forward @7 unknown F #
-357 coedge $-1 -1 -1 $-1 $464 $260 $263 $363 reversed $109 $-1 #
-358 coedge $-1 -1 -1 $-1 $260 $465 $461 $466 forward $109 $-1 #
-359 vertex $-1 -1 -1 $-1 $466 $467 #
-360 straight-curve $-1 -1 -1 $-1 -28.714899108526346 0.09375 56.356162654914264 -0 1 0 I I #
-361 coedge $-1 -1 -1 $-1 $468 $262 $267 $367 reversed $64 $-1 #
-362 coedge $-1 -1 -1 $-1 $263 $469 $464 $470 forward $64 $-1 #
-363 edge $-1 -1 -1 $-1 $471 0 $264 0.15707963267948782 $263 $472 forward @7 unknown F #
-364 point $-1 -1 -1 $-1 -28.714899108526343 0.1875 56.356162654914264 #
-365 coedge $-1 -1 -1 $-1 $473 $266 $271 $372 reversed $38 $-1 #
-366 coedge $-1 -1 -1 $-1 $267 $474 $468 $475 forward $38 $-1 #
-367 edge $-1 -1 -1 $-1 $476 0 $368 0.15707963267948788 $267 $477 forward @7 unknown F #
-368 vertex $-1 -1 -1 $-1 $268 $478 #
-369 ellipse-curve $-1 -1 -1 $-1 0 0.18749999999999567 0 -0 -1 0 -19.608848923983491 0 60.34983151630064 1 F 0 F 1.5707963267948966 #
-370 coedge $-1 -1 -1 $-1 $460 $270 $295 $401 reversed $26 $-1 #
-371 coedge $-1 -1 -1 $-1 $271 $455 $473 $479 forward $26 $-1 #
-372 edge $-1 -1 -1 $-1 $480 0 $373 0.15707963267948788 $271 $481 forward @7 unknown F #
-373 vertex $-1 -1 -1 $-1 $272 $482 #
-374 ellipse-curve $-1 -1 -1 $-1 0 0.1875 0 -0 -1 0 -10.096973678960122 0 63.749782859168448 1 F 0 F 1.5707963267948966 #
-375 point $-1 -1 -1 $-1 -19.945326356009801 0.1875 61.38540256947902 #
-376 coedge $-1 -1 -1 $-1 $483 $275 $462 $484 reversed $165 $-1 #
-377 coedge $-1 -1 -1 $-1 $275 $485 $277 $381 forward $165 $-1 #
-378 vertex $-1 -1 -1 $-1 $276 $486 #
-379 straight-curve $-1 -1 -1 $-1 -28.941894479056863 0.093749999999999584 56.801666153818488 0 -1 0 I I #
-380 coedge $-1 -1 -1 $-1 $487 $277 $485 $488 reversed $103 $-1 #
-381 edge $-1 -1 -1 $-1 $489 0 $279 0.15707963267948782 $377 $490 forward @7 unknown F #
-382 coedge $-1 -1 -1 $-1 $278 $491 $281 $385 forward $103 $-1 #
-383 point $-1 -1 -1 $-1 -28.941894479056867 0.18749999999999917 56.801666153818502 #
-384 coedge $-1 -1 -1 $-1 $492 $281 $491 $493 reversed $59 $-1 #
-385 edge $-1 -1 -1 $-1 $494 0 $386 0.15707963267948782 $382 $495 forward @7 unknown F #
-386 vertex $-1 -1 -1 $-1 $282 $496 #
-387 ellipse-curve $-1 -1 -1 $-1 0 0.187499999999999 0 -0 -1 0 -19.854341806460418 0 61.105380919193578 1 F 0 F 1.5707963267948966 #
-388 coedge $-1 -1 -1 $-1 $283 $497 $285 $390 forward $59 $-1 #
-389 coedge $-1 -1 -1 $-1 $498 $285 $497 $499 reversed $85 $-1 #
-390 edge $-1 -1 -1 $-1 $500 0 $391 0.15707963267948971 $388 $501 forward @7 unknown F #
-391 vertex $-1 -1 -1 $-1 $286 $502 #
-392 ellipse-curve $-1 -1 -1 $-1 0 0 0 -0 -1 0 -10.050914337257989 0 63.458975620731664 1 F 0 F 1.5707963267948966 #
-393 point $-1 -1 -1 $-1 -19.854341806460432 0 61.105380919193621 #
-394 coedge $-1 -1 -1 $-1 $289 $503 $290 $396 forward $85 $-1 #
-395 coedge $-1 -1 -1 $-1 $328 $290 $503 $504 reversed $52 $-1 #
-396 edge $-1 -1 -1 $-1 $505 0 $397 0.15707963267948966 $394 $506 forward @7 unknown F #
-397 vertex $-1 -1 -1 $-1 $291 $507 #
-398 ellipse-curve $-1 -1 -1 $-1 0 0 0 -0 -1 0 -1.1894382036718667e-014 0 64.75 1 F 0 F 1.5707963267948966 #
-399 point $-1 -1 -1 $-1 -10.129131611354959 0 63.952820053535163 #
-400 coedge $-1 -1 -1 $-1 $295 $323 $460 $508 forward $52 $-1 #
-401 edge $-1 -1 -1 $-1 $509 0 $402 0.15707963267948788 $295 $510 forward @7 unknown F #
-402 vertex $-1 -1 -1 $-1 $296 $511 #
-403 ellipse-curve $-1 -1 -1 $-1 0 0.1875 0 -0 -1 0 -1.1894382036718667e-014 0 64.75 1 F 0 F 1.5707963267948966 #
-404 point $-1 -1 -1 $-1 -10.129131611354959 0.1875 63.952820053535163 #
-405 straight-curve $-1 -1 -1 $-1 43.549687749620844 0 22.18967422596759 0.89100652418836779 0 0.45399049973954692 I I #
-406 coedge $-1 -1 -1 $-1 $512 $301 $306 $412 forward $165 $-1 #
-407 coedge $-1 -1 -1 $-1 $302 $513 $436 $514 reversed $165 $-1 #
-408 edge $-1 -1 -1 $-1 $303 0 $515 0.15707963267948971 $333 $516 forward @7 unknown F #
-409 point $-1 -1 -1 $-1 56.801666153818466 0 28.941894479056852 #
-410 coedge $-1 -1 -1 $-1 $517 $305 $310 $417 forward $103 $-1 #
-411 coedge $-1 -1 -1 $-1 $306 $518 $512 $519 reversed $103 $-1 #
-412 edge $-1 -1 -1 $-1 $413 0 $520 0.15707963267948782 $406 $521 forward @7 unknown F #
-413 vertex $-1 -1 -1 $-1 $412 $522 #
-414 ellipse-curve $-1 -1 -1 $-1 0 0.18749999999999917 0 0 -1 0 56.801666153818502 0 28.94189447905687 1 F 0 F 1.5707963267948966 #
-415 coedge $-1 -1 -1 $-1 $523 $309 $315 $423 forward $59 $-1 #
-416 coedge $-1 -1 -1 $-1 $310 $524 $517 $525 reversed $59 $-1 #
-417 edge $-1 -1 -1 $-1 $418 0 $526 0.15707963267948782 $410 $527 forward @7 unknown F #
-418 vertex $-1 -1 -1 $-1 $417 $528 #
-419 ellipse-curve $-1 -1 -1 $-1 0 0.187499999999999 0 0 -1 0 51.979341673571334 0 37.765202303570945 1 F 0 F 1.5707963267948966 #
-420 point $-1 -1 -1 $-1 51.979341673571334 0.187499999999999 37.765202303570945 #
-421 coedge $-1 -1 -1 $-1 $503 $314 $328 $432 forward $85 $-1 #
-422 coedge $-1 -1 -1 $-1 $315 $498 $523 $529 reversed $85 $-1 #
-423 edge $-1 -1 -1 $-1 $424 0 $530 0.15707963267948971 $415 $531 forward @7 unknown F #
-424 vertex $-1 -1 -1 $-1 $423 $532 #
-425 ellipse-curve $-1 -1 -1 $-1 0 0 0 0 -1 0 45.431610503302174 0 45.431610503302196 1 F 0 F 1.5707963267948966 #
-426 point $-1 -1 -1 $-1 45.431610503302174 0 45.431610503302196 #
-427 point $-1 -1 -1 $-1 56.356162654914264 0 28.714899108526346 #
-428 edge $-1 -1 -1 $-1 $429 0 $533 0.15707963267948788 $323 $534 forward @7 unknown F #
-429 vertex $-1 -1 -1 $-1 $428 $535 #
-430 ellipse-curve $-1 -1 -1 $-1 0 0.1875 0 0 -1 0 38.059095085937621 0 52.383850385777855 1 F 0 F 1.5707963267948966 #
-431 point $-1 -1 -1 $-1 38.059095085937621 0.1875 52.383850385777855 #
-432 edge $-1 -1 -1 $-1 $433 0 $536 0.15707963267948966 $421 $537 forward @7 unknown F #
-433 vertex $-1 -1 -1 $-1 $432 $538 #
-434 ellipse-curve $-1 -1 -1 $-1 0 0 0 0 -1 0 38.059095085937621 0 52.383850385777855 1 F 0 F 1.5707963267948966 #
-435 point $-1 -1 -1 $-1 38.059095085937621 0 52.383850385777855 #
-436 coedge $-1 -1 -1 $-1 $539 $333 $407 $514 forward $168 $-1 #
-437 coedge $-1 -1 -1 $-1 $334 $540 $335 $439 reversed $168 $-1 #
-438 coedge $-1 -1 -1 $-1 $541 $335 $540 $542 forward $109 $-1 #
-439 edge $-1 -1 -1 $-1 $440 0 $543 0.15707963267948971 $335 $544 forward @7 unknown F #
-440 vertex $-1 -1 -1 $-1 $336 $545 #
-441 ellipse-curve $-1 -1 -1 $-1 0 0 0 0 -1 0 56.356162654914264 0 28.714899108526346 1 F 0 F 1.5707963267948966 #
-442 coedge $-1 -1 -1 $-1 $337 $546 $338 $444 reversed $109 $-1 #
-443 coedge $-1 -1 -1 $-1 $547 $338 $546 $548 forward $64 $-1 #
-444 edge $-1 -1 -1 $-1 $445 0 $549 0.15707963267948782 $338 $550 forward @7 unknown F #
-445 vertex $-1 -1 -1 $-1 $444 $551 #
-446 ellipse-curve $-1 -1 -1 $-1 0 0.1875 0 0 -1 0 51.170324894215419 0 37.177417207498941 1 F 0 F 1.5707963267948966 #
-447 point $-1 -1 -1 $-1 51.170324894215419 0.1875 37.177417207498941 #
-448 coedge $-1 -1 -1 $-1 $342 $552 $343 $450 reversed $64 $-1 #
-449 coedge $-1 -1 -1 $-1 $553 $343 $552 $554 forward $38 $-1 #
-450 edge $-1 -1 -1 $-1 $451 0 $555 0.15707963267948788 $343 $556 forward @7 unknown F #
-451 vertex $-1 -1 -1 $-1 $450 $557 #
-452 ellipse-curve $-1 -1 -1 $-1 0 0.18749999999999567 0 0 -1 0 44.869862492376107 0 44.869862492376129 1 F 0 F 1.5707963267948966 #
-453 point $-1 -1 -1 $-1 44.869862492376107 0.18749999999999567 44.869862492376129 #
-454 coedge $-1 -1 -1 $-1 $348 $558 $349 $456 reversed $38 $-1 #
-455 coedge $-1 -1 -1 $-1 $371 $349 $558 $559 forward $26 $-1 #
-456 edge $-1 -1 -1 $-1 $457 0 $560 0.15707963267948788 $349 $561 forward @7 unknown F #
-457 vertex $-1 -1 -1 $-1 $456 $562 #
-458 ellipse-curve $-1 -1 -1 $-1 0 0.1875 0 0 -1 0 37.938265201033154 0 52.21754231674273 1 F 0 F 1.5707963267948966 #
-459 point $-1 -1 -1 $-1 37.938265201033154 0.1875 52.21754231674273 #
-460 coedge $-1 -1 -1 $-1 $354 $370 $400 $508 reversed $26 $-1 #
-461 coedge $-1 -1 -1 $-1 $563 $355 $358 $466 reversed $168 $-1 #
-462 coedge $-1 -1 -1 $-1 $355 $564 $376 $484 forward $168 $-1 #
-463 straight-curve $-1 -1 -1 $-1 -2.8026202798362192 0 5.5004520041483431 0.45399049973954697 0 -0.89100652418836779 I I #
-464 coedge $-1 -1 -1 $-1 $565 $357 $362 $470 reversed $109 $-1 #
-465 coedge $-1 -1 -1 $-1 $358 $566 $563 $567 forward $109 $-1 #
-466 edge $-1 -1 -1 $-1 $568 0 $359 0.15707963267948971 $358 $569 forward @7 unknown F #
-467 point $-1 -1 -1 $-1 -28.714899108526343 0 56.356162654914264 #
-468 coedge $-1 -1 -1 $-1 $570 $361 $366 $475 reversed $64 $-1 #
-469 coedge $-1 -1 -1 $-1 $362 $571 $565 $572 forward $64 $-1 #
-470 edge $-1 -1 -1 $-1 $573 0 $471 0.15707963267948782 $362 $574 forward @7 unknown F #
-471 vertex $-1 -1 -1 $-1 $363 $575 #
-472 ellipse-curve $-1 -1 -1 $-1 0 0.1875 0 -0 -1 0 -19.545324894215433 0 60.154324655668461 1 F 0 F 1.5707963267948966 #
-473 coedge $-1 -1 -1 $-1 $558 $365 $371 $479 reversed $38 $-1 #
-474 coedge $-1 -1 -1 $-1 $366 $553 $570 $576 forward $38 $-1 #
-475 edge $-1 -1 -1 $-1 $577 0 $476 0.15707963267948788 $366 $578 forward @7 unknown F #
-476 vertex $-1 -1 -1 $-1 $367 $579 #
-477 ellipse-curve $-1 -1 -1 $-1 0 0.18749999999999567 0 -0 -1 0 -9.9266378461894504 0 62.674324737009179 1 F 0 F 1.5707963267948966 #
-478 point $-1 -1 -1 $-1 -19.608848923983491 0.18749999999999567 60.34983151630064 #
-479 edge $-1 -1 -1 $-1 $580 0 $480 0.15707963267948788 $371 $581 forward @7 unknown F #
-480 vertex $-1 -1 -1 $-1 $372 $582 #
-481 ellipse-curve $-1 -1 -1 $-1 0 0.1875 0 -0 -1 0 -1.185661979331111e-014 0 64.544431921465858 1 F 0 F 1.5707963267948966 #
-482 point $-1 -1 -1 $-1 -10.096973678960122 0.1875 63.749782859168448 #
-483 coedge $-1 -1 -1 $-1 $583 $376 $564 $584 reversed $165 $-1 #
-484 edge $-1 -1 -1 $-1 $585 0 $378 0.15707963267948971 $462 $586 forward @7 unknown F #
-485 coedge $-1 -1 -1 $-1 $377 $587 $380 $488 forward $165 $-1 #
-486 point $-1 -1 -1 $-1 -28.941894479056849 0 56.801666153818466 #
-487 coedge $-1 -1 -1 $-1 $588 $380 $587 $589 reversed $103 $-1 #
-488 edge $-1 -1 -1 $-1 $590 0 $489 0.15707963267948782 $485 $591 forward @7 unknown F #
-489 vertex $-1 -1 -1 $-1 $381 $592 #
-490 ellipse-curve $-1 -1 -1 $-1 0 0.18749999999999917 0 -0 -1 0 -19.69983347353287 0 60.629853166586074 1 F 0 F 1.5707963267948966 #
-491 coedge $-1 -1 -1 $-1 $382 $593 $384 $493 forward $103 $-1 #
-492 coedge $-1 -1 -1 $-1 $594 $384 $593 $595 reversed $59 $-1 #
-493 edge $-1 -1 -1 $-1 $596 0 $494 0.15707963267948782 $491 $597 forward @7 unknown F #
-494 vertex $-1 -1 -1 $-1 $385 $598 #
-495 ellipse-curve $-1 -1 -1 $-1 0 0.187499999999999 0 -0 -1 0 -10.050914337257982 0 63.458975620731621 1 F 0 F 1.5707963267948966 #
-496 point $-1 -1 -1 $-1 -19.854341806460418 0.187499999999999 61.105380919193578 #
-497 coedge $-1 -1 -1 $-1 $388 $599 $389 $499 forward $59 $-1 #
-498 coedge $-1 -1 -1 $-1 $422 $389 $599 $600 reversed $85 $-1 #
-499 edge $-1 -1 -1 $-1 $601 0 $500 0.15707963267948971 $497 $602 forward @7 unknown F #
-500 vertex $-1 -1 -1 $-1 $390 $603 #
-501 ellipse-curve $-1 -1 -1 $-1 0 0 0 -0 -1 0 -1.1802533477959972e-014 0 64.249999734221902 1 F 0 F 1.5707963267948966 #
-502 point $-1 -1 -1 $-1 -10.050914337257989 0 63.458975620731664 #
-503 coedge $-1 -1 -1 $-1 $394 $421 $395 $504 forward $85 $-1 #
-504 edge $-1 -1 -1 $-1 $536 0 $505 0.15707963267948966 $503 $604 forward @7 unknown F #
-505 vertex $-1 -1 -1 $-1 $396 $605 #
-506 ellipse-curve $-1 -1 -1 $-1 0 0 0 0 -1 0 10.129131611354936 0 63.95282005353517 1 F 0 F 1.5707963267948966 #
-507 point $-1 -1 -1 $-1 -1.1894382036718667e-014 0 64.75 #
-508 edge $-1 -1 -1 $-1 $533 0 $509 0.15707963267948788 $400 $606 forward @7 unknown F #
-509 vertex $-1 -1 -1 $-1 $401 $607 #
-510 ellipse-curve $-1 -1 -1 $-1 0 0.1875 0 0 -1 0 10.129131611354936 0 63.95282005353517 1 F 0 F 1.5707963267948966 #
-511 point $-1 -1 -1 $-1 -1.1894382036718667e-014 0.1875 64.75 #
-512 coedge $-1 -1 -1 $-1 $608 $406 $411 $519 forward $165 $-1 #
-513 coedge $-1 -1 -1 $-1 $407 $609 $539 $610 reversed $165 $-1 #
-514 edge $-1 -1 -1 $-1 $515 0 $611 0.15707963267948971 $436 $612 forward @7 unknown F #
-515 vertex $-1 -1 -1 $-1 $514 $613 #
-516 ellipse-curve $-1 -1 -1 $-1 0 0 0 0 -1 0 56.801666153818466 0 28.941894479056852 1 F 0 F 1.5707963267948966 #
-517 coedge $-1 -1 -1 $-1 $614 $410 $416 $525 forward $103 $-1 #
-518 coedge $-1 -1 -1 $-1 $411 $615 $608 $616 reversed $103 $-1 #
-519 edge $-1 -1 -1 $-1 $520 0 $617 0.15707963267948782 $512 $618 forward @7 unknown F #
-520 vertex $-1 -1 -1 $-1 $519 $619 #
-521 ellipse-curve $-1 -1 -1 $-1 0 0.18749999999999917 0 0 -1 0 51.574833606421926 0 37.471309989865645 1 F 0 F 1.5707963267948966 #
-522 point $-1 -1 -1 $-1 51.574833606421926 0.18749999999999917 37.471309989865645 #
-523 coedge $-1 -1 -1 $-1 $599 $415 $422 $529 forward $59 $-1 #
-524 coedge $-1 -1 -1 $-1 $416 $594 $614 $620 reversed $59 $-1 #
-525 edge $-1 -1 -1 $-1 $526 0 $621 0.15707963267948782 $517 $622 forward @7 unknown F #
-526 vertex $-1 -1 -1 $-1 $525 $623 #
-527 ellipse-curve $-1 -1 -1 $-1 0 0.187499999999999 0 0 -1 0 45.431610503302139 0 45.43161050330216 1 F 0 F 1.5707963267948966 #
-528 point $-1 -1 -1 $-1 45.431610503302139 0.187499999999999 45.43161050330216 #
-529 edge $-1 -1 -1 $-1 $530 0 $624 0.15707963267948971 $523 $625 forward @7 unknown F #
-530 vertex $-1 -1 -1 $-1 $529 $626 #
-531 ellipse-curve $-1 -1 -1 $-1 0 0 0 0 -1 0 37.765202303570938 0 51.979341673571383 1 F 0 F 1.5707963267948966 #
-532 point $-1 -1 -1 $-1 37.765202303570938 0 51.979341673571383 #
-533 vertex $-1 -1 -1 $-1 $508 $627 #
-534 ellipse-curve $-1 -1 -1 $-1 0 0.1875 0 0 -1 0 29.395884858135645 0 57.692672441196819 1 F 0 F 1.5707963267948966 #
-535 point $-1 -1 -1 $-1 29.395884858135645 0.1875 57.692672441196819 #
-536 vertex $-1 -1 -1 $-1 $504 $628 #
-537 ellipse-curve $-1 -1 -1 $-1 0 0 0 0 -1 0 29.395884858135645 0 57.692672441196819 1 F 0 F 1.5707963267948966 #
-538 point $-1 -1 -1 $-1 29.395884858135645 0 57.692672441196819 #
-539 coedge $-1 -1 -1 $-1 $629 $436 $513 $610 forward $168 $-1 #
-540 coedge $-1 -1 -1 $-1 $437 $630 $438 $542 reversed $168 $-1 #
-541 coedge $-1 -1 -1 $-1 $631 $438 $630 $632 forward $109 $-1 #
-542 edge $-1 -1 -1 $-1 $543 0 $633 0.15707963267948971 $438 $634 forward @7 unknown F #
-543 vertex $-1 -1 -1 $-1 $439 $635 #
-544 ellipse-curve $-1 -1 -1 $-1 0 0 0 0 -1 0 51.170324894215419 0 37.177417207498941 1 F 0 F 1.5707963267948966 #
-545 point $-1 -1 -1 $-1 51.170324894215419 0 37.177417207498941 #
-546 coedge $-1 -1 -1 $-1 $442 $636 $443 $548 reversed $109 $-1 #
-547 coedge $-1 -1 -1 $-1 $637 $443 $636 $638 forward $64 $-1 #
-548 edge $-1 -1 -1 $-1 $549 0 $639 0.15707963267948782 $443 $640 forward @7 unknown F #
-549 vertex $-1 -1 -1 $-1 $548 $641 #
-550 ellipse-curve $-1 -1 -1 $-1 0 0.1875 0 0 -1 0 44.724503910049123 0 44.724503910049144 1 F 0 F 1.5707963267948966 #
-551 point $-1 -1 -1 $-1 44.724503910049123 0.1875 44.724503910049144 #
-552 coedge $-1 -1 -1 $-1 $448 $642 $449 $554 reversed $64 $-1 #
-553 coedge $-1 -1 -1 $-1 $474 $449 $642 $643 forward $38 $-1 #
-554 edge $-1 -1 -1 $-1 $555 0 $644 0.15707963267948788 $449 $645 forward @7 unknown F #
-555 vertex $-1 -1 -1 $-1 $554 $646 #
-556 ellipse-curve $-1 -1 -1 $-1 0 0.18749999999999567 0 0 -1 0 37.298247092403386 0 51.336632963250565 1 F 0 F 1.5707963267948966 #
-557 point $-1 -1 -1 $-1 37.298247092403386 0.18749999999999567 51.336632963250565 #
-558 coedge $-1 -1 -1 $-1 $454 $473 $455 $559 reversed $38 $-1 #
-559 edge $-1 -1 -1 $-1 $560 0 $580 0.15707963267948788 $455 $647 forward @7 unknown F #
-560 vertex $-1 -1 -1 $-1 $559 $648 #
-561 ellipse-curve $-1 -1 -1 $-1 0 0.1875 0 0 -1 0 29.302558903431432 0 57.509509942058031 1 F 0 F 1.5707963267948966 #
-562 point $-1 -1 -1 $-1 29.302558903431432 0.1875 57.509509942058031 #
-563 coedge $-1 -1 -1 $-1 $649 $461 $465 $567 reversed $168 $-1 #
-564 coedge $-1 -1 -1 $-1 $462 $650 $483 $584 forward $168 $-1 #
-565 coedge $-1 -1 -1 $-1 $651 $464 $469 $572 reversed $109 $-1 #
-566 coedge $-1 -1 -1 $-1 $465 $652 $649 $653 forward $109 $-1 #
-567 edge $-1 -1 -1 $-1 $654 0 $568 0.15707963267948971 $465 $655 forward @7 unknown F #
-568 vertex $-1 -1 -1 $-1 $567 $656 #
-569 ellipse-curve $-1 -1 -1 $-1 0 0 0 -0 -1 0 -19.545324894215433 0 60.154324655668461 1 F 0 F 1.5707963267948966 #
-570 coedge $-1 -1 -1 $-1 $642 $468 $474 $576 reversed $64 $-1 #
-571 coedge $-1 -1 -1 $-1 $469 $637 $651 $657 forward $64 $-1 #
-572 edge $-1 -1 -1 $-1 $658 0 $573 0.15707963267948782 $469 $659 forward @7 unknown F #
-573 vertex $-1 -1 -1 $-1 $470 $660 #
-574 ellipse-curve $-1 -1 -1 $-1 0 0.1875 0 -0 -1 0 -9.8944799137946138 0 62.471287542642457 1 F 0 F 1.5707963267948966 #
-575 point $-1 -1 -1 $-1 -19.545324894215433 0.1875 60.154324655668461 #
-576 edge $-1 -1 -1 $-1 $661 0 $577 0.15707963267948788 $474 $662 forward @7 unknown F #
-577 vertex $-1 -1 -1 $-1 $475 $663 #
-578 ellipse-curve $-1 -1 -1 $-1 0 0.18749999999999567 0 -0 -1 0 -1.165659875031807e-014 0 63.455568078534149 1 F 0 F 1.5707963267948966 #
-579 point $-1 -1 -1 $-1 -9.9266378461894504 0.18749999999999567 62.674324737009179 #
-580 vertex $-1 -1 -1 $-1 $479 $664 #
-581 ellipse-curve $-1 -1 -1 $-1 0 0.1875 0 0 -1 0 10.096973678960099 0 63.749782859168455 1 F 0 F 1.5707963267948966 #
-582 point $-1 -1 -1 $-1 -1.185661979331111e-014 0.1875 64.544431921465858 #
-583 coedge $-1 -1 -1 $-1 $665 $483 $650 $666 reversed $165 $-1 #
-584 edge $-1 -1 -1 $-1 $667 0 $585 0.15707963267948971 $564 $668 forward @7 unknown F #
-585 vertex $-1 -1 -1 $-1 $484 $669 #
-586 ellipse-curve $-1 -1 -1 $-1 0 0 0 -0 -1 0 -19.699833473532856 0 60.629853166586031 1 F 0 F 1.5707963267948966 #
-587 coedge $-1 -1 -1 $-1 $485 $670 $487 $589 forward $165 $-1 #
-588 coedge $-1 -1 -1 $-1 $671 $487 $670 $672 reversed $103 $-1 #
-589 edge $-1 -1 -1 $-1 $673 0 $590 0.15707963267948782 $587 $674 forward @7 unknown F #
-590 vertex $-1 -1 -1 $-1 $488 $675 #
-591 ellipse-curve $-1 -1 -1 $-1 0 0.18749999999999917 0 -0 -1 0 -9.9726971878915904 0 62.965131975445999 1 F 0 F 1.5707963267948966 #
-592 point $-1 -1 -1 $-1 -19.69983347353287 0.18749999999999917 60.629853166586074 #
-593 coedge $-1 -1 -1 $-1 $491 $676 $492 $595 forward $103 $-1 #
-594 coedge $-1 -1 -1 $-1 $524 $492 $676 $677 reversed $59 $-1 #
-595 edge $-1 -1 -1 $-1 $678 0 $596 0.15707963267948782 $593 $679 forward @7 unknown F #
-596 vertex $-1 -1 -1 $-1 $493 $680 #
-597 ellipse-curve $-1 -1 -1 $-1 0 0.187499999999999 0 -0 -1 0 -1.1802533477959964e-014 0 64.249999734221859 1 F 0 F 1.5707963267948966 #
-598 point $-1 -1 -1 $-1 -10.050914337257982 0.187499999999999 63.458975620731621 #
-599 coedge $-1 -1 -1 $-1 $497 $523 $498 $600 forward $59 $-1 #
-600 edge $-1 -1 -1 $-1 $624 0 $601 0.15707963267948971 $599 $681 forward @7 unknown F #
-601 vertex $-1 -1 -1 $-1 $499 $682 #
-602 ellipse-curve $-1 -1 -1 $-1 0 0 0 0 -1 0 10.050914337257966 0 63.458975620731671 1 F 0 F 1.5707963267948966 #
-603 point $-1 -1 -1 $-1 -1.1802533477959972e-014 0 64.249999734221902 #
-604 ellipse-curve $-1 -1 -1 $-1 0 0 0 0 -1 0 20.008850385777833 0 61.580909430111198 1 F 0 F 1.5707963267948966 #
-605 point $-1 -1 -1 $-1 10.129131611354936 0 63.95282005353517 #
-606 ellipse-curve $-1 -1 -1 $-1 0 0.1875 0 0 -1 0 20.008850385777833 0 61.580909430111198 1 F 0 F 1.5707963267948966 #
-607 point $-1 -1 -1 $-1 10.129131611354936 0.1875 63.95282005353517 #
-608 coedge $-1 -1 -1 $-1 $683 $512 $518 $616 forward $165 $-1 #
-609 coedge $-1 -1 -1 $-1 $513 $684 $629 $685 reversed $165 $-1 #
-610 edge $-1 -1 -1 $-1 $611 0 $686 0.15707963267948971 $539 $687 forward @7 unknown F #
-611 vertex $-1 -1 -1 $-1 $610 $688 #
-612 ellipse-curve $-1 -1 -1 $-1 0 0 0 0 -1 0 51.57483360642189 0 37.471309989865624 1 F 0 F 1.5707963267948966 #
-613 point $-1 -1 -1 $-1 51.57483360642189 0 37.471309989865624 #
-614 coedge $-1 -1 -1 $-1 $676 $517 $524 $620 forward $103 $-1 #
-615 coedge $-1 -1 -1 $-1 $518 $671 $683 $689 reversed $103 $-1 #
-616 edge $-1 -1 -1 $-1 $617 0 $690 0.15707963267948782 $608 $691 forward @7 unknown F #
-617 vertex $-1 -1 -1 $-1 $616 $692 #
-618 ellipse-curve $-1 -1 -1 $-1 0 0.18749999999999917 0 0 -1 0 45.078057488575922 0 45.078057488575944 1 F 0 F 1.5707963267948966 #
-619 point $-1 -1 -1 $-1 45.078057488575922 0.18749999999999917 45.078057488575944 #
-620 edge $-1 -1 -1 $-1 $621 0 $693 0.15707963267948782 $614 $694 forward @7 unknown F #
-621 vertex $-1 -1 -1 $-1 $620 $695 #
-622 ellipse-curve $-1 -1 -1 $-1 0 0.187499999999999 0 0 -1 0 37.765202303570916 0 51.979341673571348 1 F 0 F 1.5707963267948966 #
-623 point $-1 -1 -1 $-1 37.765202303570916 0.187499999999999 51.979341673571348 #
-624 vertex $-1 -1 -1 $-1 $600 $696 #
-625 ellipse-curve $-1 -1 -1 $-1 0 0 0 0 -1 0 29.168889487605139 0 57.247168942292618 1 F 0 F 1.5707963267948966 #
-626 point $-1 -1 -1 $-1 29.168889487605139 0 57.247168942292618 #
-627 point $-1 -1 -1 $-1 20.008850385777833 0.1875 61.580909430111198 #
-628 point $-1 -1 -1 $-1 20.008850385777833 0 61.580909430111198 #
-629 coedge $-1 -1 -1 $-1 $697 $539 $609 $685 forward $168 $-1 #
-630 coedge $-1 -1 -1 $-1 $540 $698 $541 $632 reversed $168 $-1 #
-631 coedge $-1 -1 -1 $-1 $699 $541 $698 $700 forward $109 $-1 #
-632 edge $-1 -1 -1 $-1 $633 0 $701 0.15707963267948971 $541 $702 forward @7 unknown F #
-633 vertex $-1 -1 -1 $-1 $542 $703 #
-634 ellipse-curve $-1 -1 -1 $-1 0 0 0 0 -1 0 44.724503910049123 0 44.724503910049144 1 F 0 F 1.5707963267948966 #
-635 point $-1 -1 -1 $-1 44.724503910049123 0 44.724503910049144 #
-636 coedge $-1 -1 -1 $-1 $546 $704 $547 $638 reversed $109 $-1 #
-637 coedge $-1 -1 -1 $-1 $571 $547 $704 $705 forward $64 $-1 #
-638 edge $-1 -1 -1 $-1 $639 0 $706 0.15707963267948782 $547 $707 forward @7 unknown F #
-639 vertex $-1 -1 -1 $-1 $638 $708 #
-640 ellipse-curve $-1 -1 -1 $-1 0 0.1875 0 0 -1 0 37.177417207498912 0 51.170324894215433 1 F 0 F 1.5707963267948966 #
-641 point $-1 -1 -1 $-1 37.177417207498912 0.1875 51.170324894215433 #
-642 coedge $-1 -1 -1 $-1 $552 $570 $553 $643 reversed $64 $-1 #
-643 edge $-1 -1 -1 $-1 $644 0 $661 0.15707963267948788 $553 $709 forward @7 unknown F #
-644 vertex $-1 -1 -1 $-1 $643 $710 #
-645 ellipse-curve $-1 -1 -1 $-1 0 0.18749999999999567 0 0 -1 0 28.808225063230541 0 56.539325154053067 1 F 0 F 1.5707963267948966 #
-646 point $-1 -1 -1 $-1 28.808225063230541 0.18749999999999567 56.539325154053067 #
-647 ellipse-curve $-1 -1 -1 $-1 0 0.1875 0 0 -1 0 19.94532635600978 0 61.385402569479027 1 F 0 F 1.5707963267948966 #
-648 point $-1 -1 -1 $-1 19.94532635600978 0.1875 61.385402569479027 #
-649 coedge $-1 -1 -1 $-1 $711 $563 $566 $653 reversed $168 $-1 #
-650 coedge $-1 -1 -1 $-1 $564 $712 $583 $666 forward $168 $-1 #
-651 coedge $-1 -1 -1 $-1 $704 $565 $571 $657 reversed $109 $-1 #
-652 coedge $-1 -1 -1 $-1 $566 $699 $711 $713 forward $109 $-1 #
-653 edge $-1 -1 -1 $-1 $714 0 $654 0.15707963267948971 $566 $715 forward @7 unknown F #
-654 vertex $-1 -1 -1 $-1 $653 $716 #
-655 ellipse-curve $-1 -1 -1 $-1 0 0 0 -0 -1 0 -9.8944799137946138 0 62.471287542642457 1 F 0 F 1.5707963267948966 #
-656 point $-1 -1 -1 $-1 -19.545324894215433 0 60.154324655668461 #
-657 edge $-1 -1 -1 $-1 $717 0 $658 0.15707963267948782 $571 $718 forward @7 unknown F #
-658 vertex $-1 -1 -1 $-1 $572 $719 #
-659 ellipse-curve $-1 -1 -1 $-1 0 0.1875 0 -0 -1 0 -1.1618836506910513e-014 0 63.25 1 F 0 F 1.5707963267948966 #
-660 point $-1 -1 -1 $-1 -9.8944799137946138 0.1875 62.471287542642457 #
-661 vertex $-1 -1 -1 $-1 $576 $720 #
-662 ellipse-curve $-1 -1 -1 $-1 0 0.18749999999999567 0 0 -1 0 9.9266378461894273 0 62.674324737009186 1 F 0 F 1.5707963267948966 #
-663 point $-1 -1 -1 $-1 -1.165659875031807e-014 0.18749999999999567 63.455568078534149 #
-664 point $-1 -1 -1 $-1 10.096973678960099 0.1875 63.749782859168455 #
-665 coedge $-1 -1 -1 $-1 $721 $583 $712 $722 reversed $165 $-1 #
-666 edge $-1 -1 -1 $-1 $723 0 $667 0.15707963267948971 $650 $724 forward @7 unknown F #
-667 vertex $-1 -1 -1 $-1 $584 $725 #
-668 ellipse-curve $-1 -1 -1 $-1 0 0 0 -0 -1 0 -9.9726971878915833 0 62.965131975445956 1 F 0 F 1.5707963267948966 #
-669 point $-1 -1 -1 $-1 -19.699833473532856 0 60.629853166586031 #
-670 coedge $-1 -1 -1 $-1 $587 $726 $588 $672 forward $165 $-1 #
-671 coedge $-1 -1 -1 $-1 $615 $588 $726 $727 reversed $103 $-1 #
-672 edge $-1 -1 -1 $-1 $728 0 $673 0.15707963267948782 $670 $729 forward @7 unknown F #
-673 vertex $-1 -1 -1 $-1 $589 $730 #
-674 ellipse-curve $-1 -1 -1 $-1 0 0.18749999999999917 0 -0 -1 0 -1.1710685065669216e-014 0 63.750000265778141 1 F 0 F 1.5707963267948966 #
-675 point $-1 -1 -1 $-1 -9.9726971878915904 0.18749999999999917 62.965131975445999 #
-676 coedge $-1 -1 -1 $-1 $593 $614 $594 $677 forward $103 $-1 #
-677 edge $-1 -1 -1 $-1 $693 0 $678 0.15707963267948782 $676 $731 forward @7 unknown F #
-678 vertex $-1 -1 -1 $-1 $595 $732 #
-679 ellipse-curve $-1 -1 -1 $-1 0 0.187499999999999 0 0 -1 0 10.050914337257959 0 63.458975620731628 1 F 0 F 1.5707963267948966 #
-680 point $-1 -1 -1 $-1 -1.1802533477959964e-014 0.187499999999999 64.249999734221859 #
-681 ellipse-curve $-1 -1 -1 $-1 0 0 0 0 -1 0 19.854341806460411 0 61.105380919193628 1 F 0 F 1.5707963267948966 #
-682 point $-1 -1 -1 $-1 10.050914337257966 0 63.458975620731671 #
-683 coedge $-1 -1 -1 $-1 $726 $608 $615 $689 forward $165 $-1 #
-684 coedge $-1 -1 -1 $-1 $609 $721 $697 $733 reversed $165 $-1 #
-685 edge $-1 -1 -1 $-1 $686 0 $734 0.15707963267948971 $629 $735 forward @7 unknown F #
-686 vertex $-1 -1 -1 $-1 $685 $736 #
-687 ellipse-curve $-1 -1 -1 $-1 0 0 0 0 -1 0 45.078057488575887 0 45.078057488575908 1 F 0 F 1.5707963267948966 #
-688 point $-1 -1 -1 $-1 45.078057488575887 0 45.078057488575908 #
-689 edge $-1 -1 -1 $-1 $690 0 $737 0.15707963267948782 $683 $738 forward @7 unknown F #
-690 vertex $-1 -1 -1 $-1 $689 $739 #
-691 ellipse-curve $-1 -1 -1 $-1 0 0.18749999999999917 0 0 -1 0 37.471309989865617 0 51.57483360642194 1 F 0 F 1.5707963267948966 #
-692 point $-1 -1 -1 $-1 37.471309989865617 0.18749999999999917 51.57483360642194 #
-693 vertex $-1 -1 -1 $-1 $677 $740 #
-694 ellipse-curve $-1 -1 -1 $-1 0 0.187499999999999 0 0 -1 0 29.168889487605121 0 57.247168942292582 1 F 0 F 1.5707963267948966 #
-695 point $-1 -1 -1 $-1 29.168889487605121 0.187499999999999 57.247168942292582 #
-696 point $-1 -1 -1 $-1 19.854341806460411 0 61.105380919193628 #
-697 coedge $-1 -1 -1 $-1 $741 $629 $684 $733 forward $168 $-1 #
-698 coedge $-1 -1 -1 $-1 $630 $742 $631 $700 reversed $168 $-1 #
-699 coedge $-1 -1 -1 $-1 $652 $631 $742 $743 forward $109 $-1 #
-700 edge $-1 -1 -1 $-1 $701 0 $744 0.15707963267948971 $631 $745 forward @7 unknown F #
-701 vertex $-1 -1 -1 $-1 $632 $746 #
-702 ellipse-curve $-1 -1 -1 $-1 0 0 0 0 -1 0 37.177417207498912 0 51.170324894215433 1 F 0 F 1.5707963267948966 #
-703 point $-1 -1 -1 $-1 37.177417207498912 0 51.170324894215433 #
-704 coedge $-1 -1 -1 $-1 $636 $651 $637 $705 reversed $109 $-1 #
-705 edge $-1 -1 -1 $-1 $706 0 $717 0.15707963267948782 $637 $747 forward @7 unknown F #
-706 vertex $-1 -1 -1 $-1 $705 $748 #
-707 ellipse-curve $-1 -1 -1 $-1 0 0.1875 0 0 -1 0 28.714899108526325 0 56.356162654914272 1 F 0 F 1.5707963267948966 #
-708 point $-1 -1 -1 $-1 28.714899108526325 0.1875 56.356162654914272 #
-709 ellipse-curve $-1 -1 -1 $-1 0 0.18749999999999567 0 0 -1 0 19.608848923983469 0 60.349831516300647 1 F 0 F 1.5707963267948966 #
-710 point $-1 -1 -1 $-1 19.608848923983469 0.18749999999999567 60.349831516300647 #
-711 coedge $-1 -1 -1 $-1 $742 $649 $652 $713 reversed $168 $-1 #
-712 coedge $-1 -1 -1 $-1 $650 $741 $665 $722 forward $168 $-1 #
-713 edge $-1 -1 -1 $-1 $749 0 $714 0.15707963267948971 $652 $750 forward @7 unknown F #
-714 vertex $-1 -1 -1 $-1 $713 $751 #
-715 ellipse-curve $-1 -1 -1 $-1 0 0 0 -0 -1 0 -1.1618836506910513e-014 0 63.25 1 F 0 F 1.5707963267948966 #
-716 point $-1 -1 -1 $-1 -9.8944799137946138 0 62.471287542642457 #
-717 vertex $-1 -1 -1 $-1 $657 $752 #
-718 ellipse-curve $-1 -1 -1 $-1 0 0.1875 0 0 -1 0 9.8944799137945907 0 62.471287542642465 1 F 0 F 1.5707963267948966 #
-719 point $-1 -1 -1 $-1 -1.1618836506910513e-014 0.1875 63.25 #
-720 point $-1 -1 -1 $-1 9.9266378461894273 0.18749999999999567 62.674324737009186 #
-721 coedge $-1 -1 -1 $-1 $684 $665 $741 $753 reversed $165 $-1 #
-722 edge $-1 -1 -1 $-1 $754 0 $723 0.15707963267948971 $712 $755 forward @7 unknown F #
-723 vertex $-1 -1 -1 $-1 $666 $756 #
-724 ellipse-curve $-1 -1 -1 $-1 0 0 0 -0 -1 0 -1.1710685065669208e-014 0 63.750000265778098 1 F 0 F 1.5707963267948966 #
-725 point $-1 -1 -1 $-1 -9.9726971878915833 0 62.965131975445956 #
-726 coedge $-1 -1 -1 $-1 $670 $683 $671 $727 forward $165 $-1 #
-727 edge $-1 -1 -1 $-1 $737 0 $728 0.15707963267948782 $726 $757 forward @7 unknown F #
-728 vertex $-1 -1 -1 $-1 $672 $758 #
-729 ellipse-curve $-1 -1 -1 $-1 0 0.18749999999999917 0 0 -1 0 9.9726971878915673 0 62.965131975446006 1 F 0 F 1.5707963267948966 #
-730 point $-1 -1 -1 $-1 -1.1710685065669216e-014 0.18749999999999917 63.750000265778141 #
-731 ellipse-curve $-1 -1 -1 $-1 0 0.187499999999999 0 0 -1 0 19.854341806460397 0 61.105380919193585 1 F 0 F 1.5707963267948966 #
-732 point $-1 -1 -1 $-1 10.050914337257959 0.187499999999999 63.458975620731628 #
-733 edge $-1 -1 -1 $-1 $734 0 $759 0.15707963267948971 $697 $760 forward @7 unknown F #
-734 vertex $-1 -1 -1 $-1 $733 $761 #
-735 ellipse-curve $-1 -1 -1 $-1 0 0 0 0 -1 0 37.471309989865595 0 51.574833606421905 1 F 0 F 1.5707963267948966 #
-736 point $-1 -1 -1 $-1 37.471309989865595 0 51.574833606421905 #
-737 vertex $-1 -1 -1 $-1 $727 $762 #
-738 ellipse-curve $-1 -1 -1 $-1 0 0.18749999999999917 0 0 -1 0 28.941894479056849 0 56.801666153818509 1 F 0 F 1.5707963267948966 #
-739 point $-1 -1 -1 $-1 28.941894479056849 0.18749999999999917 56.801666153818509 #
-740 point $-1 -1 -1 $-1 19.854341806460397 0.187499999999999 61.105380919193585 #
-741 coedge $-1 -1 -1 $-1 $712 $697 $721 $753 forward $168 $-1 #
-742 coedge $-1 -1 -1 $-1 $698 $711 $699 $743 reversed $168 $-1 #
-743 edge $-1 -1 -1 $-1 $744 0 $749 0.15707963267948971 $699 $763 forward @7 unknown F #
-744 vertex $-1 -1 -1 $-1 $700 $764 #
-745 ellipse-curve $-1 -1 -1 $-1 0 0 0 0 -1 0 28.714899108526325 0 56.356162654914272 1 F 0 F 1.5707963267948966 #
-746 point $-1 -1 -1 $-1 28.714899108526325 0 56.356162654914272 #
-747 ellipse-curve $-1 -1 -1 $-1 0 0.1875 0 0 -1 0 19.545324894215412 0 60.154324655668468 1 F 0 F 1.5707963267948966 #
-748 point $-1 -1 -1 $-1 19.545324894215412 0.1875 60.154324655668468 #
-749 vertex $-1 -1 -1 $-1 $743 $765 #
-750 ellipse-curve $-1 -1 -1 $-1 0 0 0 0 -1 0 9.8944799137945907 0 62.471287542642465 1 F 0 F 1.5707963267948966 #
-751 point $-1 -1 -1 $-1 -1.1618836506910513e-014 0 63.25 #
-752 point $-1 -1 -1 $-1 9.8944799137945907 0.1875 62.471287542642465 #
-753 edge $-1 -1 -1 $-1 $759 0 $754 0.15707963267948971 $741 $766 forward @7 unknown F #
-754 vertex $-1 -1 -1 $-1 $722 $767 #
-755 ellipse-curve $-1 -1 -1 $-1 0 0 0 0 -1 0 9.9726971878915602 0 62.965131975445964 1 F 0 F 1.5707963267948966 #
-756 point $-1 -1 -1 $-1 -1.1710685065669208e-014 0 63.750000265778098 #
-757 ellipse-curve $-1 -1 -1 $-1 0 0.18749999999999917 0 0 -1 0 19.699833473532848 0 60.629853166586081 1 F 0 F 1.5707963267948966 #
-758 point $-1 -1 -1 $-1 9.9726971878915673 0.18749999999999917 62.965131975446006 #
-759 vertex $-1 -1 -1 $-1 $753 $768 #
-760 ellipse-curve $-1 -1 -1 $-1 0 0 0 0 -1 0 28.941894479056831 0 56.801666153818474 1 F 0 F 1.5707963267948966 #
-761 point $-1 -1 -1 $-1 28.941894479056831 0 56.801666153818474 #
-762 point $-1 -1 -1 $-1 19.699833473532848 0.18749999999999917 60.629853166586081 #
-763 ellipse-curve $-1 -1 -1 $-1 0 0 0 0 -1 0 19.545324894215412 0 60.154324655668468 1 F 0 F 1.5707963267948966 #
-764 point $-1 -1 -1 $-1 19.545324894215412 0 60.154324655668468 #
-765 point $-1 -1 -1 $-1 9.8944799137945907 0 62.471287542642465 #
-766 ellipse-curve $-1 -1 -1 $-1 0 0 0 0 -1 0 19.699833473532834 0 60.629853166586038 1 F 0 F 1.5707963267948966 #
-767 point $-1 -1 -1 $-1 9.9726971878915602 0 62.965131975445964 #
-768 point $-1 -1 -1 $-1 19.699833473532834 0 60.629853166586038 #
End-of-ACIS-data 
