1700 0 1 0           
35 Abaqus, Inc. - Abaqus 6.9-DEV - 190 12 ACIS 19.0 NT 24 Tue Sep 23 15:06:03 2008 
1 9.9999999999999995e-007 1e-010 
-0 body $1 -1 -1 $-1 $2 $-1 $3 T 2.0365599999999997 -1.59728 -0.74375000000000002 2.35656 -1.2772799999999997 0.15615499999999999 #
-1 string_attrib-name_attrib-gen-attrib $-1 -1 $4 $-1 $0 2 1 1 1 1 1 1 1 1 1 1 1 1 1 0 1 1 1 @13 HKS_PART_NAME @4 bolt #
-2 lump $5 -1 -1 $-1 $-1 $6 $0 T 2.0365599999999997 -1.59728 -0.74375000000000002 2.35656 -1.2772799999999997 0.15615499999999999 #
-3 transform $-1 -1 1 0 0 0 1 0 0 0 1 0 0 0 1 no_rotate no_reflect no_shear #
-4 string_attrib-name_attrib-gen-attrib $-1 -1 $-1 $1 $0 2 1 1 1 1 1 1 1 1 1 1 1 1 1 0 1 1 1 @13 HKS_PART_NAME @6 bolt-1 #
-5 cell_ptr-ct-attrib $-1 -1 $-1 $-1 $2 1 1 1 1 1 1 1 1 1 1 1 1 0 1 0 1 1 1 $7 $-1 auto #
-6 shell $-1 -1 -1 $-1 $-1 $-1 $8 $-1 $2 T 2.0365599999999997 -1.59728 -0.74375000000000002 2.35656 -1.2772799999999997 0.15615499999999999 #
-7 cell3d-cell $-1 -1 $9 $2 $-1 1 $10 #
-8 face $11 -1 -1 $-1 $12 $13 $6 $-1 $14 forward double in T 2.1965600000000003 -1.4372799999999999 -0.74375000000000002 2.2965600000000004 -1.4372799999999999 0 F #
-9 cell3d-cell $-1 -1 $-1 $2 $-1 1 $15 #
-10 cshell $-1 -1 $-1 $16 $7 #
-11 cface_ptr-ct-attrib $-1 -1 $-1 $-1 $8 1 1 1 1 1 1 1 1 1 1 1 1 0 1 0 1 1 1 $17 $18 #
-12 face $19 -1 -1 $-1 $20 $21 $6 $-1 $22 forward double in T 2.0965600000000002 -1.53728 0 2.2965600000000004 -1.3372799999999998 0 F #
-13 loop $-1 -1 -1 $-1 $-1 $23 $8 T 2.1965600000000003 -1.4372799999999999 -0.74375000000000002 2.2965600000000004 -1.4372799999999999 0 periphery $14 F #
-14 plane-surface $-1 -1 -1 $-1 2.2465600000000006 -1.4372799999999999 -0.74375000000000002 1.2362745529583002e-028 -1 0 1 1.2362745529583002e-028 0 forward_v I I I I #
-15 cshell $-1 -1 $-1 $24 $9 #
-16 cface $-1 -1 $25 $10 $12 1 #
-17 cface $-1 -1 $26 $15 $8 1 #
-18 cface $-1 -1 $17 $15 $8 0 #
-19 cface_ptr-ct-attrib $-1 -1 $-1 $-1 $12 1 1 1 1 1 1 1 1 1 1 1 1 0 1 0 1 1 1 $16 $27 #
-20 face $28 -1 -1 $-1 $29 $30 $6 $-1 $31 forward single T 2.0965600000000002 -1.53728 -0.74375000000000002 2.2965600000000004 -1.3372799999999998 0 F #
-21 loop $-1 -1 -1 $-1 $-1 $32 $12 T 2.0965600000000002 -1.53728 0 2.2965600000000004 -1.3372799999999998 0 periphery $22 F #
-22 plane-surface $-1 -1 -1 $-1 4.4408920985006262e-015 1.7171449447535753e-014 0 0 0 1 1 0 0 forward_v I I I I #
-23 coedge $-1 -1 -1 $-1 $33 $34 $35 $36 forward $13 $-1 #
-24 cface $-1 -1 $18 $15 $29 0 #
-25 cface $-1 -1 $37 $10 $38 0 #
-26 cface $-1 -1 $27 $15 $20 0 #
-27 cface $-1 -1 $-1 $15 $12 0 #
-28 cface_ptr-ct-attrib $-1 -1 $-1 $-1 $20 1 1 1 1 1 1 1 1 1 1 1 1 0 1 0 1 1 1 $-1 $26 #
-29 face $39 -1 -1 $-1 $40 $41 $6 $-1 $42 forward single T 2.0965600000000002 -1.53728 -0.74375000000000002 2.2965600000000004 -1.3372799999999998 -0.74375000000000002 F #
-30 loop $-1 -1 -1 $-1 $-1 $43 $20 T 2.0965600000000002 -1.53728 -0.74375000000000002 2.2965600000000004 -1.3372799999999998 0 periphery $31 F #
-31 cone-surface $-1 -1 -1 $-1 2.1965600000000003 -1.4372799999999999 0 0 0 -1 0.10000000000000009 0 0 1 I I 0 1 0.10000000000000009 forward I I I I #
-32 coedge $-1 -1 -1 $-1 $35 $44 $45 $46 forward $21 $-1 #
-33 coedge $-1 -1 -1 $-1 $47 $23 $-1 $48 reversed $13 $-1 #
-34 coedge $-1 -1 -1 $-1 $23 $47 $49 $50 forward $13 $-1 #
-35 coedge $-1 -1 -1 $-1 $44 $32 $44 $36 forward $21 $-1 #
-36 edge $-1 -1 -1 $-1 $51 -1.1732799999999979 $52 -1.0732799999999978 $35 $53 forward @7 unknown T 2.1965600000000003 -1.4372799999999999 0 2.2965600000000004 -1.4372799999999994 0 #
-37 cface $-1 -1 $54 $10 $40 0 #
-38 face $55 -1 -1 $-1 $56 $57 $6 $-1 $58 reversed single T 2.0365599999999997 -1.59728 0 2.35656 -1.2772799999999997 0 F #
-39 cface_ptr-ct-attrib $-1 -1 $-1 $-1 $29 1 1 1 1 1 1 1 1 1 1 1 1 0 1 0 1 1 1 $-1 $24 #
-40 face $59 -1 -1 $-1 $38 $60 $6 $-1 $61 forward single T 2.0365599999999997 -1.59728 0 2.35656 -1.2772799999999997 0.15615499999999999 F #
-41 loop $-1 -1 -1 $-1 $-1 $62 $29 T 2.0965600000000002 -1.53728 -0.74375000000000002 2.2965600000000004 -1.3372799999999998 -0.74375000000000002 periphery $42 F #
-42 plane-surface $-1 -1 -1 $-1 -4.7967099999999991 -0.95818000000000003 -0.74375000000000002 0 0 -1 -1 0 0 forward_v I I I I #
-43 coedge $-1 -1 -1 $-1 $49 $63 $62 $64 forward $30 $-1 #
-44 coedge $-1 -1 -1 $-1 $32 $35 $23 $36 reversed $21 $-1 #
-45 coedge $-1 -1 -1 $-1 $65 $66 $67 $46 forward $57 $-1 #
-46 edge $-1 -1 -1 $-1 $51 0 $51 6.2831853071796004 $45 $68 forward @7 unknown T 2.0965600000000002 -1.53728 0 2.2965600000000004 -1.3372799999999998 0 #
-47 coedge $-1 -1 -1 $-1 $34 $33 $69 $70 forward $13 $-1 #
-48 edge $-1 -1 -1 $-1 $71 0 $52 0.74375000000000002 $33 $72 forward @7 unknown T 2.1965600000000003 -1.4372799999999999 -0.74375000000000002 2.1965600000000003 -1.4372799999999999 0 #
-49 coedge $-1 -1 -1 $-1 $67 $43 $63 $50 forward $30 $-1 #
-50 edge $-1 -1 -1 $-1 $73 -0.37187500000000007 $51 0.37187499999999996 $49 $74 forward @7 unknown T 2.2965600000000004 -1.4372799999999999 -0.74375000000000002 2.2965600000000004 -1.4372799999999997 0 #
-51 vertex $-1 -1 -1 $-1 $46 $75 #
-52 vertex $-1 -1 -1 $-1 $36 $76 #
-53 straight-curve $-1 -1 -1 $-1 1.1232800000000025 -1.4372799999999994 0 -1 -1.2362745529582999e-028 0 I I #
-54 cface $-1 -1 $-1 $10 $56 0 #
-55 cface_ptr-ct-attrib $-1 -1 $-1 $-1 $38 1 1 1 1 1 1 1 1 1 1 1 1 0 1 0 1 1 1 $-1 $25 #
-56 face $77 -1 -1 $-1 $-1 $78 $6 $-1 $79 forward single T 2.0365599999999997 -1.59728 0.15615499999999999 2.35656 -1.2772799999999997 0.15615499999999999 F #
-57 loop $-1 -1 -1 $-1 $-1 $80 $38 T 2.0365599999999997 -1.59728 0 2.35656 -1.2772799999999997 0 periphery $58 T #
-58 plane-surface $-1 -1 -1 $-1 0 0 0 0 0 1 1 0 0 forward_v I I I I #
-59 cface_ptr-ct-attrib $-1 -1 $-1 $-1 $40 1 1 1 1 1 1 1 1 1 1 1 1 0 1 0 1 1 1 $-1 $37 #
-60 loop $-1 -1 -1 $-1 $-1 $81 $40 T 2.0365599999999997 -1.59728 0 2.35656 -1.2772799999999997 0.15615499999999999 unknown #
-61 cone-surface $-1 -1 -1 $-1 2.1965599999999998 -1.4372799999999999 0.15615499999999999 0 0 -1 0.16000000000000014 0 0 1 I I 0 1 0.16000000000000014 forward I I I I #
-62 coedge $-1 -1 -1 $-1 $82 $69 $43 $64 reversed $41 $-1 #
-63 coedge $-1 -1 -1 $-1 $43 $67 $34 $50 reversed $30 $-1 #
-64 edge $-1 -1 -1 $-1 $73 0 $73 6.2831853071796004 $43 $83 forward @7 unknown T 2.0965600000000002 -1.53728 -0.74375000000000002 2.2965600000000004 -1.3372799999999998 -0.74375000000000002 #
-65 coedge $-1 -1 -1 $-1 $80 $45 $66 $84 reversed $57 $-1 #
-66 coedge $-1 -1 -1 $-1 $45 $80 $65 $84 forward $57 $-1 #
-67 coedge $-1 -1 -1 $-1 $63 $49 $32 $46 reversed $30 $-1 #
-68 ellipse-curve $-1 -1 -1 $-1 2.1965600000000003 -1.4372799999999999 0 0 0 1 0.10000000000000009 0 0 1 I I #
-69 coedge $-1 -1 -1 $-1 $62 $82 $82 $70 forward $41 $-1 #
-70 edge $-1 -1 -1 $-1 $71 3.4716349999999996 $73 3.5716349999999997 $69 $85 forward @7 unknown T 2.1965600000000003 -1.4372799999999999 -0.74375000000000002 2.2965600000000004 -1.4372799999999999 -0.74375000000000002 #
-71 vertex $-1 -1 -1 $-1 $70 $86 #
-72 straight-curve $-1 -1 -1 $-1 2.1965600000000003 -1.4372799999999999 -0.74375000000000002 -0 -0 1 I I #
-73 vertex $-1 -1 -1 $-1 $64 $87 #
-74 straight-curve $-1 -1 -1 $-1 2.2965600000000004 -1.4372799999999997 -0.37187499999999996 -0 -0 1 I I #
-75 point $-1 -1 -1 $-1 2.2965600000000004 -1.4372799999999999 0 #
-76 point $-1 -1 -1 $-1 2.1965600000000003 -1.4372799999999999 0 #
-77 cface_ptr-ct-attrib $-1 -1 $-1 $-1 $56 1 1 1 1 1 1 1 1 1 1 1 1 0 1 0 1 1 1 $-1 $54 #
-78 loop $-1 -1 -1 $-1 $-1 $88 $56 T 2.0365599999999997 -1.59728 0.15615499999999999 2.35656 -1.2772799999999997 0.15615499999999999 unknown #
-79 plane-surface $-1 -1 -1 $-1 -1.6229549999999995 -5.874930171974786e-016 0.15615499999999999 0 0 1 1 0 0 forward_v I I I I #
-80 coedge $-1 -1 -1 $-1 $66 $65 $81 $89 reversed $57 $-1 #
-81 coedge $-1 -1 -1 $-1 $90 $91 $80 $89 forward $60 $-1 #
-82 coedge $-1 -1 -1 $-1 $69 $62 $47 $70 reversed $41 $-1 #
-83 ellipse-curve $-1 -1 -1 $-1 2.1965600000000003 -1.4372799999999999 -0.74375000000000002 0 0 1 0.10000000000000009 0 0 1 I I #
-84 edge $-1 -1 -1 $-1 $92 -1.1932799999999999 $51 -1.1332800000000003 $66 $93 forward @7 unknown T 2.2965600000000004 -1.4372799999999999 0 2.35656 -1.4372799999999997 0 #
-85 straight-curve $-1 -1 -1 $-1 -1.2750749999999993 -1.4372799999999999 -0.74375000000000002 1 1.2362745529583002e-028 0 I I #
-86 point $-1 -1 -1 $-1 2.1965600000000003 -1.4372799999999999 -0.74375000000000002 #
-87 point $-1 -1 -1 $-1 2.2965600000000004 -1.4372799999999999 -0.74375000000000002 #
-88 coedge $-1 -1 -1 $-1 $94 $95 $96 $97 forward $78 $-1 #
-89 edge $-1 -1 -1 $-1 $92 0 $92 6.2831853071796004 $81 $98 forward @7 unknown T 2.0365599999999997 -1.59728 0 2.35656 -1.2772799999999997 0 #
-90 coedge $-1 -1 -1 $-1 $96 $81 $91 $99 forward $60 $-1 #
-91 coedge $-1 -1 -1 $-1 $81 $96 $90 $99 reversed $60 $-1 #
-92 vertex $-1 -1 -1 $-1 $89 $100 #
-93 straight-curve $-1 -1 -1 $-1 1.1632800000000001 -1.4372799999999997 0 -1 0 0 I I #
-94 coedge $-1 -1 -1 $-1 $95 $88 $95 $101 forward $78 $-1 #
-95 coedge $-1 -1 -1 $-1 $88 $94 $94 $101 reversed $78 $-1 #
-96 coedge $-1 -1 -1 $-1 $91 $90 $88 $97 reversed $60 $-1 #
-97 edge $-1 -1 -1 $-1 $102 0 $102 6.2831853071796004 $96 $103 forward @7 unknown T 2.0365599999999997 -1.59728 0.15615499999999999 2.35656 -1.2772799999999997 0.15615499999999999 #
-98 ellipse-curve $-1 -1 -1 $-1 2.1965599999999998 -1.4372799999999999 0 0 0 1 0.16000000000000014 0 0 1 I I #
-99 edge $-1 -1 -1 $-1 $92 -0.078077499999999994 $102 0.078077499999999994 $90 $104 forward @7 unknown T 2.35656 -1.4372799999999999 0 2.35656 -1.4372799999999997 0.15615499999999999 #
-100 point $-1 -1 -1 $-1 2.35656 -1.4372799999999999 0 #
-101 edge $-1 -1 -1 $-1 $102 -2.0297574999999997 $105 -1.8697574999999995 $94 $106 forward @7 unknown T 2.1965599999999998 -1.4372799999999999 0.15615499999999999 2.35656 -1.4372799999999997 0.15615499999999999 #
-102 vertex $-1 -1 -1 $-1 $97 $107 #
-103 ellipse-curve $-1 -1 -1 $-1 2.1965599999999998 -1.4372799999999999 0.15615499999999999 0 0 1 0.16000000000000014 0 0 1 I I #
-104 straight-curve $-1 -1 -1 $-1 2.35656 -1.4372799999999997 0.078077499999999994 -0 -0 1 I I #
-105 vertex $-1 -1 -1 $-1 $101 $108 #
-106 straight-curve $-1 -1 -1 $-1 0.32680250000000022 -1.4372799999999997 0.15615499999999999 -1 9.1984713761778293e-029 0 I I #
-107 point $-1 -1 -1 $-1 2.35656 -1.4372799999999999 0.15615499999999999 #
-108 point $-1 -1 -1 $-1 2.1965599999999998 -1.4372799999999999 0.15615499999999999 #
End-of-ACIS-data 
