500 0 1 0           
61 Hibbitt, Karlsson & Sorensen, Inc. -  ABAQUS/CAE Version 3 -  13 ACIS 5.0.3 NT 24 Fri May 12 17:48:22 2000 
-1 9.9999999999999995e-007 1e-010 
-0 body $-1 $1 $-1 $2 #
-1 lump $3 $-1 $4 $0 #
-2 transform $-1 1 0 0 0 1 0 0 0 1 0 0 0 1 no_rotate no_reflect no_shear #
-3 cell_ptr-ct-attrib $-1 $-1 $-1 $1 $5 $-1 auto #
-4 shell $-1 $-1 $-1 $6 $-1 $1 #
-5 cell3d-cell $-1 $-1 $1 $-1 1 $7 #
-6 face $8 $9 $10 $4 $-1 $11 forward single #
-7 cshell $-1 $-1 $12 $5 #
-8 cface_ptr-ct-attrib $-1 $-1 $-1 $6 $-1 $13 #
-9 face $14 $15 $16 $4 $-1 $17 forward single #
-10 loop $-1 $18 $19 $6 #
-11 cone-surface $-1 -0.43749999999999589 -2.5882849051060797 0.31249999999998745 0 0 -1 0.13999999999999987 6.3359513498662022e-017 0 1 I I 0 -1 0.13999999999999987 forward I I I I #
-12 cface $-1 $20 $7 $21 0 #
-13 cface $-1 $22 $7 $6 0 #
-14 cface_ptr-ct-attrib $-1 $-1 $-1 $9 $-1 $22 #
-15 face $23 $24 $25 $4 $-1 $26 forward single #
-16 loop $-1 $27 $28 $9 #
-17 cone-surface $-1 2.1965559240971499 -1.4372776601317199 0.31249999999998745 0 0 -1 0.13999999999999999 6.3359513498662072e-017 0 1 I I 0 -1 0.13999999999999999 forward I I I I #
-18 loop $-1 $-1 $29 $6 #
-19 coedge $-1 $19 $19 $30 $31 forward $10 $-1 #
-20 cface $-1 $32 $7 $33 0 #
-21 face $34 $35 $36 $4 $-1 $37 reversed single #
-22 cface $-1 $38 $7 $9 0 #
-23 cface_ptr-ct-attrib $-1 $-1 $-1 $15 $-1 $38 #
-24 face $39 $40 $41 $4 $-1 $42 forward single #
-25 loop $-1 $43 $44 $15 #
-26 cone-surface $-1 2.1965559240971602 1.4372776601317003 0.31249999999998745 0 0 -1 0.13999999999999999 6.3359513498662072e-017 0 1 I I 0 -1 0.13999999999999999 forward I I I I #
-27 loop $-1 $-1 $45 $9 #
-28 coedge $-1 $28 $28 $46 $47 forward $16 $-1 #
-29 coedge $-1 $29 $29 $48 $49 forward $18 $-1 #
-30 coedge $-1 $30 $30 $19 $31 reversed $50 $-1 #
-31 edge $-1 $51 1.7382444060145776 $51 8.0214297131941787 $19 $52 forward 7 unknown #
-32 cface $-1 $53 $7 $35 0 #
-33 face $54 $55 $56 $4 $-1 $57 forward single #
-34 cface_ptr-ct-attrib $-1 $-1 $-1 $21 $-1 $12 #
-35 face $58 $33 $59 $4 $-1 $60 forward single #
-36 loop $-1 $-1 $61 $21 #
-37 plane-surface $-1 -4.8359832817231974 0.19999998919844367 0.11249999999998792 0 0 1 1 0 0 forward_v I I I I #
-38 cface $-1 $62 $7 $15 0 #
-39 cface_ptr-ct-attrib $-1 $-1 $-1 $24 $-1 $62 #
-40 face $63 $64 $65 $4 $-1 $66 forward single #
-41 loop $-1 $67 $68 $24 #
-42 cone-surface $-1 -0.43749999999975697 2.5882849051061205 0.31249999999998745 0 0 -1 0.13999999999999987 6.3359513498662022e-017 0 1 I I 0 -1 0.13999999999999987 forward I I I I #
-43 loop $-1 $-1 $69 $15 #
-44 coedge $-1 $44 $44 $70 $71 forward $25 $-1 #
-45 coedge $-1 $45 $45 $72 $73 forward $27 $-1 #
-46 coedge $-1 $46 $46 $28 $47 reversed $74 $-1 #
-47 edge $-1 $75 2.0888610053834507 $75 8.3720463125630502 $28 $76 forward 7 unknown #
-48 coedge $-1 $48 $48 $29 $49 reversed $77 $-1 #
-49 edge $-1 $78 -1.7382444060145772 $78 4.544940901165023 $29 $79 forward 7 unknown #
-50 loop $-1 $80 $30 $81 #
-51 vertex $-1 $31 $82 #
-52 ellipse-curve $-1 -0.43749999999999589 -2.5882849051060797 -1.2545520178264269e-014 0 0 -1 0.13999999999999987 6.3359513498662022e-017 0 1 I I #
-53 cface $-1 $83 $7 $84 0 #
-54 ref_vt-eye-attrib $-1 $85 $-1 $33 $-1 $-1 #
-55 face $86 $87 $88 $4 $-1 $89 forward single #
-56 loop $-1 $-1 $90 $33 #
-57 torus-surface $-1 -1.9999999999995699 -2.5617376914902601 0.20000000000000001 0 0 -1 1.05000000000003 0.20000000000000001 -1 0 0 forward_v I I I I #
-58 ref_vt-eye-attrib $-1 $91 $-1 $35 $-1 $-1 #
-59 loop $-1 $-1 $92 $35 #
-60 torus-surface $-1 -3 -4.9616784476586798e-015 0.20000000000000001 0 0 1 1.70000000000027 0.20000000000000001 1 0 0 forward_v I I I I #
-61 coedge $-1 $93 $94 $95 $96 reversed $36 $-1 #
-62 cface $-1 $97 $7 $24 0 #
-63 cface_ptr-ct-attrib $-1 $-1 $-1 $40 $-1 $97 #
-64 face $98 $99 $100 $4 $-1 $101 forward single #
-65 loop $-1 $102 $103 $40 #
-66 cone-surface $-1 -3.3541666666668002 2.0952782565144199 0.31249999999998745 0 0 -1 0.13999999999999999 6.3359513498662072e-017 0 1 I I 0 -1 0.13999999999999999 forward I I I I #
-67 loop $-1 $-1 $104 $24 #
-68 coedge $-1 $68 $68 $105 $106 forward $41 $-1 #
-69 coedge $-1 $69 $69 $107 $108 forward $43 $-1 #
-70 coedge $-1 $70 $70 $44 $71 reversed $109 $-1 #
-71 edge $-1 $110 -2.0888610053834555 $110 4.1943243017961453 $44 $111 forward 7 unknown #
-72 coedge $-1 $72 $72 $45 $73 reversed $112 $-1 #
-73 edge $-1 $113 -2.0888610053834533 $113 4.1943243017961471 $45 $114 forward 7 unknown #
-74 loop $-1 $50 $46 $81 #
-75 vertex $-1 $47 $115 #
-76 ellipse-curve $-1 2.1965559240971499 -1.4372776601317199 -1.2545520178264269e-014 0 0 -1 0.13999999999999999 6.3359513498662072e-017 0 1 I I #
-77 loop $-1 $116 $48 $117 #
-78 vertex $-1 $49 $118 #
-79 ellipse-curve $-1 -0.43749999999999589 -2.5882849051060797 0.31249999999998745 0 0 1 0.13999999999999987 6.3359513498662022e-017 0 1 I I #
-80 loop $-1 $119 $120 $81 #
-81 face $121 $21 $122 $4 $-1 $123 forward single #
-82 point $-1 -0.46083333333332799 -2.7263267667117375 -1.2545520178264269e-014 #
-83 cface $-1 $124 $7 $87 0 #
-84 face $125 $126 $127 $4 $-1 $128 forward single #
-85 cface_ptr-ct-attrib $-1 $-1 $54 $33 $-1 $20 #
-86 ref_vt-eye-attrib $-1 $129 $-1 $55 $-1 $-1 #
-87 face $130 $84 $131 $4 $-1 $132 forward single #
-88 loop $-1 $-1 $133 $55 #
-89 plane-surface $-1 -0.499999999999999 -2.9580398915498498 0 -0.16666666666666607 -0.98601329718326947 0 0 0 -1 forward_v I I I I #
-90 coedge $-1 $134 $135 $93 $136 forward $56 $-1 #
-91 cface_ptr-ct-attrib $-1 $-1 $58 $35 $-1 $32 #
-92 coedge $-1 $137 $138 $139 $140 forward $59 $-1 #
-93 coedge $-1 $139 $61 $90 $136 reversed $36 $-1 #
-94 coedge $-1 $61 $139 $141 $142 reversed $36 $-1 #
-95 coedge $-1 $143 $144 $61 $96 forward $131 $-1 #
-96 edge $145 $146 -2.2336701504448597 $147 2.2336701504448526 $95 $148 forward 7 unknown #
-97 cface $-1 $149 $7 $40 0 #
-98 cface_ptr-ct-attrib $-1 $-1 $-1 $64 $-1 $149 #
-99 face $150 $151 $152 $4 $-1 $153 forward single #
-100 loop $-1 $154 $155 $64 #
-101 cone-surface $-1 -4.8967117988688802 0.95818022940966407 0.31249999999998745 0 0 -1 0.14000000000000004 6.3359513498662096e-017 0 1 I I 0 -1 0.14000000000000004 forward I I I I #
-102 loop $-1 $-1 $156 $40 #
-103 coedge $-1 $103 $103 $157 $158 forward $65 $-1 #
-104 coedge $-1 $104 $104 $159 $160 forward $67 $-1 #
-105 coedge $-1 $105 $105 $68 $106 reversed $161 $-1 #
-106 edge $-1 $162 -1.9965170384825037 $162 4.2866682686970972 $68 $163 forward 7 unknown #
-107 coedge $-1 $107 $107 $69 $108 reversed $164 $-1 #
-108 edge $-1 $165 2.0888610053834533 $165 8.3720463125630538 $69 $166 forward 7 unknown #
-109 loop $-1 $74 $70 $81 #
-110 vertex $-1 $71 $167 #
-111 ellipse-curve $-1 2.1965559240971602 1.4372776601317003 -1.2545520178264269e-014 0 0 -1 0.13999999999999999 6.3359513498662072e-017 0 1 I I #
-112 loop $-1 $77 $72 $117 #
-113 vertex $-1 $73 $168 #
-114 ellipse-curve $-1 2.1965559240971499 -1.4372776601317199 0.31249999999998745 0 0 1 0.13999999999999999 6.3359513498662072e-017 0 1 I I #
-115 point $-1 2.1272279661912035 -1.5589067448630918 -1.2545520178264269e-014 #
-116 loop $-1 $-1 $169 $117 #
-117 face $170 $81 $171 $4 $-1 $172 reversed single #
-118 point $-1 -0.46083333333332799 -2.7263267667117375 0.31249999999998745 #
-119 loop $-1 $-1 $173 $81 #
-120 coedge $174 $175 $176 $177 $178 reversed $80 $-1 #
-121 ref_vt-eye-attrib $-1 $179 $-1 $81 $-1 $-1 #
-122 loop $-1 $180 $181 $81 #
-123 plane-surface $-1 -1.7222222222222301 -6.6613381477509402e-016 0 0 0 -1 -1 0 0 forward_v I I I I #
-124 cface $-1 $182 $7 $81 0 #
-125 cface_ptr-ct-attrib $-1 $183 $-1 $84 $-1 $53 #
-126 face $184 $185 $186 $4 $-1 $187 forward single #
-127 loop $-1 $-1 $141 $84 #
-128 torus-surface $-1 -1.9999999999995299 2.5617376914902299 0.20000000000000001 0 0 -1 1.0500000000002101 0.20000000000000001 -1 0 0 forward_v I I I I #
-129 cface_ptr-ct-attrib $-1 $-1 $86 $55 $-1 $188 #
-130 cface_ptr-ct-attrib $-1 $189 $-1 $87 $-1 $83 #
-131 loop $-1 $-1 $95 $87 #
-132 torus-surface $-1 0 0 0.20000000000000001 0 0 1 2.2000000000000002 0.20000000000000001 1 0 0 forward_v I I I I #
-133 coedge $190 $191 $192 $193 $194 reversed $88 $-1 #
-134 coedge $-1 $195 $90 $144 $196 forward $56 $-1 #
-135 coedge $-1 $90 $195 $137 $197 reversed $56 $-1 #
-136 edge $198 $199 1.1986275246209117 $146 2.2336701504448597 $90 $200 forward 7 unknown #
-137 coedge $-1 $201 $92 $135 $197 forward $59 $-1 #
-138 coedge $202 $92 $201 $203 $204 forward $59 $-1 #
-139 coedge $-1 $94 $93 $92 $140 reversed $36 $-1 #
-140 edge $205 $206 1.1986277928344558 $199 5.0845572973537774 $92 $207 forward 7 unknown #
-141 coedge $-1 $203 $208 $94 $142 forward $127 $-1 #
-142 edge $209 $147 -2.2336701504448611 $206 -1.1986277928344555 $141 $210 forward 7 unknown #
-143 coedge $211 $177 $95 $208 $212 reversed $131 $-1 #
-144 coedge $-1 $95 $177 $134 $196 reversed $131 $-1 #
-145 ptlist-eye-attrib $-1 $-1 $-1 $96 #
-146 vertex $-1 $196 $213 #
-147 vertex $-1 $96 $214 #
-148 ellipse-curve $-1 0 0 0.11249999999998792 0 0 1 2.0201563178757791 0 0 1 I I #
-149 cface $-1 $215 $7 $64 0 #
-150 cface_ptr-ct-attrib $-1 $-1 $-1 $99 $-1 $215 #
-151 face $216 $217 $218 $4 $-1 $219 forward single #
-152 loop $-1 $220 $221 $99 #
-153 cone-surface $-1 -4.8967117988688802 -0.95818022940968184 0.31249999999998745 0 0 -1 0.13999999999999993 6.3359513498662047e-017 0 1 I I 0 -1 0.13999999999999993 forward I I I I #
-154 loop $-1 $-1 $222 $64 #
-155 coedge $-1 $155 $155 $223 $224 forward $100 $-1 #
-156 coedge $-1 $156 $156 $225 $226 forward $102 $-1 #
-157 coedge $-1 $157 $157 $103 $158 reversed $227 $-1 #
-158 edge $-1 $228 -2.1591611037820573 $228 4.1240242033975427 $103 $229 forward 7 unknown #
-159 coedge $-1 $159 $159 $104 $160 reversed $230 $-1 #
-160 edge $-1 $231 1.9965170384825042 $231 8.2797023456621055 $104 $232 forward 7 unknown #
-161 loop $-1 $109 $105 $81 #
-162 vertex $-1 $106 $233 #
-163 ellipse-curve $-1 -0.43749999999975697 2.5882849051061205 -1.2545520178264269e-014 0 0 -1 0.13999999999999987 6.3359513498662022e-017 0 1 I I #
-164 loop $-1 $112 $107 $117 #
-165 vertex $-1 $108 $234 #
-166 ellipse-curve $-1 2.1965559240971602 1.4372776601317003 0.31249999999998745 0 0 1 0.13999999999999999 6.3359513498662072e-017 0 1 I I #
-167 point $-1 2.1272279661912128 1.5589067448630722 -1.2545520178264269e-014 #
-168 point $-1 2.1272279661912035 -1.5589067448630918 0.31249999999998745 #
-169 coedge $-1 $235 $236 $237 $238 reversed $116 $-1 #
-170 cface_ptr-ct-attrib $-1 $-1 $-1 $117 $-1 $239 #
-171 loop $-1 $240 $241 $117 #
-172 plane-surface $-1 -3.4166666666666701 -2.4650332429582194 0.31249999999998745 0 0 -1 -1 0 0 forward_v I I I I #
-173 coedge $242 $243 $244 $245 $246 reversed $119 $-1 #
-174 copar-eye-attrib $-1 $-1 $-1 $120 #
-175 coedge $247 $248 $120 $249 $250 reversed $80 $-1 #
-176 coedge $251 $120 $248 $195 $252 reversed $80 $-1 #
-177 coedge $253 $144 $143 $120 $178 forward $131 $-1 #
-178 edge $254 $255 1.8158450062898737 $256 6.2831853071795862 $120 $257 forward 7 unknown #
-179 cface_ptr-ct-attrib $-1 $-1 $121 $81 $-1 $124 #
-180 loop $-1 $258 $259 $81 #
-181 coedge $-1 $181 $181 $260 $261 reversed $122 $-1 #
-182 cface $-1 $262 $7 $185 0 #
-183 ref_vt-eye-attrib $-1 $-1 $125 $84 $-1 $-1 #
-184 cface_ptr-ct-attrib $-1 $263 $-1 $126 $-1 $264 #
-185 face $265 $-1 $266 $4 $-1 $267 forward single #
-186 loop $-1 $-1 $268 $126 #
-187 cone-surface $-1 -3 -7.62621370675905e-015 0 0 0 1 -0.41666666666667801 2.46503324295821 0 1 I I 0 1 2.5000000000000382 forward I I I I #
-188 cface $-1 $264 $7 $55 0 #
-189 ref_vt-eye-attrib $-1 $-1 $130 $87 $-1 $-1 #
-190 copar-eye-attrib $-1 $-1 $-1 $133 #
-191 coedge $269 $270 $133 $243 $271 forward $88 $-1 #
-192 coedge $-1 $133 $272 $273 $274 reversed $88 $-1 #
-193 coedge $275 $273 $276 $133 $194 forward $186 $-1 #
-194 edge $277 $278 0 $279 0.21249999999998748 $193 $280 forward 7 unknown #
-195 coedge $281 $135 $134 $176 $252 forward $56 $-1 #
-196 edge $282 $146 -0.33258156865245775 $256 0.78539816339744661 $134 $283 forward 7 unknown #
-197 edge $284 $199 -0.33258156865245797 $285 0.78539816339744617 $137 $286 forward 7 unknown #
-198 ptlist-eye-attrib $-1 $-1 $-1 $136 #
-199 vertex $-1 $197 $287 #
-200 ellipse-curve $-1 -1.9999999999995699 -2.5617376914902601 0.11249999999998792 0 0 -1 -1.2298436821242511 0 0 1 I I #
-201 coedge $288 $138 $137 $248 $289 forward $59 $-1 #
-202 copar-eye-attrib $-1 $-1 $-1 $138 #
-203 coedge $290 $249 $141 $138 $204 reversed $127 $-1 #
-204 edge $291 $292 -0.78539816339744961 $206 0.33258156865245303 $138 $293 forward 7 unknown #
-205 ptlist-eye-attrib $-1 $-1 $-1 $140 #
-206 vertex $-1 $142 $294 #
-207 ellipse-curve $-1 -3 -4.9616784476586798e-015 0.11249999999998792 0 0 1 1.5201563178760489 0 0 1 I I #
-208 coedge $295 $141 $249 $143 $212 forward $127 $-1 #
-209 ptlist-eye-attrib $-1 $-1 $-1 $142 #
-210 ellipse-curve $-1 -1.9999999999995299 2.5617376914902299 0.11249999999998792 0 0 -1 -1.2298436821244312 0 0 1 I I #
-211 copar-eye-attrib $-1 $-1 $-1 $143 #
-212 edge $296 $255 -0.78539816339685031 $147 0.33258156865305333 $208 $297 forward 7 unknown #
-213 point $-1 -1.2431731186925072 -1.5923417176013877 0.11249999999998792 #
-214 point $-1 -1.243173118692348 1.5923417176012076 0.11249999999998792 #
-215 cface $-1 $298 $7 $99 0 #
-216 cface_ptr-ct-attrib $-1 $-1 $-1 $151 $-1 $298 #
-217 face $299 $117 $300 $4 $-1 $301 forward single #
-218 loop $-1 $302 $260 $151 #
-219 cone-surface $-1 -3.3541666666666501 -2.0952782565144501 0.31249999999998745 0 0 -1 0.14000000000000015 6.3359513498662146e-017 0 1 I I 0 -1 0.14000000000000015 forward I I I I #
-220 loop $-1 $-1 $303 $99 #
-221 coedge $-1 $221 $221 $259 $304 forward $152 $-1 #
-222 coedge $-1 $222 $222 $305 $306 forward $154 $-1 #
-223 coedge $-1 $223 $223 $155 $224 reversed $258 $-1 #
-224 edge $-1 $307 -1.9682938380337656 $307 4.3148914691458344 $155 $308 forward 7 unknown #
-225 coedge $-1 $225 $225 $156 $226 reversed $309 $-1 #
-226 edge $-1 $310 2.1591611037820577 $310 8.4423464109616582 $156 $311 forward 7 unknown #
-227 loop $-1 $161 $157 $81 #
-228 vertex $-1 $158 $312 #
-229 ellipse-curve $-1 -3.3541666666668002 2.0952782565144199 -1.2545520178264269e-014 0 0 -1 0.13999999999999999 6.3359513498662072e-017 0 1 I I #
-230 loop $-1 $164 $159 $117 #
-231 vertex $-1 $160 $313 #
-232 ellipse-curve $-1 -0.43749999999975697 2.5882849051061205 0.31249999999998745 0 0 1 0.13999999999999987 6.3359513498662022e-017 0 1 I I #
-233 point $-1 -0.49531681792076732 2.7157886915812237 -1.2545520178264269e-014 #
-234 point $-1 2.1272279661912128 1.5589067448630722 0.31249999999998745 #
-235 coedge $-1 $314 $169 $272 $315 reversed $116 $-1 #
-236 coedge $-1 $169 $314 $316 $317 reversed $116 $-1 #
-237 coedge $-1 $318 $273 $169 $238 forward $186 $-1 #
-238 edge $319 $320 -4.544940901164999 $321 -1.7382444060145903 $237 $322 forward 7 unknown #
-239 cface $-1 $-1 $7 $117 0 #
-240 loop $-1 $323 $324 $117 #
-241 coedge $-1 $241 $241 $325 $326 reversed $171 $-1 #
-242 copar-eye-attrib $-1 $-1 $-1 $173 #
-243 coedge $327 $328 $173 $191 $271 reversed $119 $-1 #
-244 coedge $-1 $173 $329 $330 $331 reversed $119 $-1 #
-245 coedge $332 $330 $333 $173 $246 forward $300 $-1 #
-246 edge $334 $335 0 $336 1.3984074965604671 $245 $337 forward 7 unknown #
-247 copar-eye-attrib $-1 $-1 $-1 $175 #
-248 coedge $338 $176 $175 $201 $289 reversed $80 $-1 #
-249 coedge $339 $208 $203 $175 $250 forward $127 $-1 #
-250 edge $340 $292 1.6615582681458274e-015 $255 1.0350423576104077 $175 $341 forward 7 unknown #
-251 copar-eye-attrib $-1 $-1 $-1 $176 #
-252 edge $342 $256 -5.0350250549890989e-016 $285 1.0350427089296956 $176 $343 forward 7 unknown #
-253 copar-eye-attrib $-1 $-1 $-1 $177 #
-254 ptlist-eye-attrib $-1 $344 $-1 $178 #
-255 vertex $-1 $178 $345 #
-256 vertex $-1 $178 $346 #
-257 ellipse-curve $-1 0 0 0 0 0 -1 -1.3538461538458499 -1.7340993603933901 0 1 I I #
-258 loop $-1 $227 $223 $81 #
-259 coedge $-1 $259 $259 $221 $304 reversed $180 $-1 #
-260 coedge $-1 $260 $260 $181 $261 forward $218 $-1 #
-261 edge $-1 $347 -3.0184845986887368 $347 3.2647007084908637 $260 $348 forward 7 unknown #
-262 cface $-1 $188 $7 $217 0 #
-263 ref_vt-eye-attrib $-1 $-1 $184 $126 $-1 $-1 #
-264 cface $-1 $13 $7 $126 0 #
-265 cface_ptr-ct-attrib $-1 $349 $-1 $185 $-1 $182 #
-266 loop $-1 $-1 $350 $185 #
-267 plane-surface $-1 -3.4166666666666798 2.4650332429581998 0 -0.16666666666667093 0.98601329718326858 0 0 0 1 forward_v I I I I #
-268 coedge $351 $276 $318 $352 $353 reversed $186 $-1 #
-269 copar-eye-attrib $-1 $-1 $-1 $191 #
-270 coedge $354 $355 $191 $333 $356 forward $88 $-1 #
-271 edge $357 $278 0 $335 2.9580398915498125 $191 $358 forward 7 unknown #
-272 coedge $-1 $192 $355 $235 $315 forward $88 $-1 #
-273 coedge $-1 $237 $193 $192 $274 forward $186 $-1 #
-274 edge $359 $279 0 $320 0.099999999999999978 $273 $360 forward 7 unknown #
-275 copar-eye-attrib $-1 $-1 $-1 $193 #
-276 coedge $361 $193 $268 $328 $362 forward $186 $-1 #
-277 ptlist-eye-attrib $-1 $363 $-1 $194 #
-278 vertex $-1 $362 $364 #
-279 vertex $-1 $274 $365 #
-280 straight-curve $-1 -3.4166666666666701 -2.4650332429582198 0 0 0 1 I I #
-281 copar-eye-attrib $-1 $-1 $-1 $195 #
-282 ptlist-eye-attrib $-1 $-1 $-1 $196 #
-283 ellipse-curve $-1 -1.3538461538458499 -1.7340993603933901 0.20000000000000001 -0.78822698199699881 0.61538461538447886 0 0.087028526915247997 0.111472128816857 -0.14142135623731 1 I I #
-284 ptlist-eye-attrib $-1 $-1 $-1 $197 #
-285 vertex $-1 $252 $366 #
-286 ellipse-curve $-1 -2.38181852544969 -1.5836197979703801 0.20000000000000001 -0.93154105762948225 -0.36363616150012606 0 -0.051425919136276997 0.13173979976069899 -0.14142135623731 1 I I #
-287 point $-1 -2.44721619168739 -1.4160880241164024 0.11249999999998792 #
-288 copar-eye-attrib $-1 $-1 $-1 $201 #
-289 edge $367 $285 2.3972558026602622 $292 6.2831853071795827 $248 $368 forward 7 unknown #
-290 copar-eye-attrib $-1 $-1 $-1 $203 #
-291 ptlist-eye-attrib $-1 $369 $-1 $204 #
-292 vertex $-1 $250 $370 #
-293 ellipse-curve $-1 -2.3818181818178998 1.5836196638303 0.20000000000000001 -0.93154097872355712 0.36363636363647306 0 -0.0514259477226734 -0.13173978860171601 -0.141421356237309 1 I I #
-294 point $-1 -2.447215884408545 1.4160879041670551 0.11249999999998792 #
-295 copar-eye-attrib $-1 $-1 $-1 $208 #
-296 ptlist-eye-attrib $-1 $371 $-1 $212 #
-297 ellipse-curve $-1 -1.3538461538456901 1.73409936039321 0.20000000000000001 -0.78822698199699925 -0.6153846153844782 0 0.087028526915196205 -0.11147212881679 -0.14142135623739399 1 I I #
-298 cface $-1 $239 $7 $151 0 #
-299 ref_vt-eye-attrib $-1 $372 $-1 $217 $-1 $-1 #
-300 loop $-1 $-1 $330 $217 #
-301 cone-surface $-1 0 0 0 0 0 1 -0.499999999999999 -2.9580398915498498 0 1 I I 0 1 3.0000000000000409 forward I I I I #
-302 loop $-1 $-1 $325 $151 #
-303 coedge $-1 $303 $303 $324 $373 forward $220 $-1 #
-304 edge $-1 $374 -2.5795366887114599 $374 3.7036486184681405 $221 $375 forward 7 unknown #
-305 coedge $-1 $305 $305 $222 $306 reversed $323 $-1 #
-306 edge $-1 $376 1.96829383803376 $376 8.2514791452133611 $222 $377 forward 7 unknown #
-307 vertex $-1 $224 $378 #
-308 ellipse-curve $-1 -4.8967117988688802 0.95818022940966407 -1.2545520178264269e-014 0 0 -1 0.14000000000000004 6.3359513498662096e-017 0 1 I I #
-309 loop $-1 $230 $225 $117 #
-310 vertex $-1 $226 $379 #
-311 ellipse-curve $-1 -3.3541666666668002 2.0952782565144199 0.31249999999998745 0 0 1 0.13999999999999999 6.3359513498662072e-017 0 1 I I #
-312 point $-1 -3.4318668775566059 2.2117371644076322 -1.2545520178264269e-014 #
-313 point $-1 -0.49531681792076732 2.7157886915812237 0.31249999999998745 #
-314 coedge $-1 $236 $235 $380 $381 reversed $116 $-1 #
-315 edge $382 $383 -2.9580398915498116 $320 0 $272 $384 forward 7 unknown #
-316 coedge $-1 $385 $386 $236 $317 forward $266 $-1 #
-317 edge $387 $321 -2.9580398915498103 $388 -2.7650998005044776e-031 $316 $389 forward 7 unknown #
-318 coedge $-1 $268 $237 $386 $390 reversed $186 $-1 #
-319 ptlist-eye-attrib $-1 $-1 $-1 $238 #
-320 vertex $-1 $274 $391 #
-321 vertex $-1 $390 $392 #
-322 ellipse-curve $-1 -2.9999999999999956 -8.8319312258576532e-015 0.31249999999998734 -3.157387042032862e-016 -1.4289321922155847e-031 -1 2.5000000000000377 1.1314198839046972e-015 -7.8934676050822737e-016 1 F -4.544940901164999 F -1.7382444060145901 #
-323 loop $-1 $309 $305 $117 #
-324 coedge $-1 $324 $324 $303 $373 reversed $240 $-1 #
-325 coedge $-1 $325 $325 $241 $326 forward $302 $-1 #
-326 edge $-1 $393 3.0184845986887372 $393 9.3016699058683372 $325 $394 forward 7 unknown #
-327 copar-eye-attrib $-1 $-1 $-1 $243 #
-328 coedge $395 $396 $243 $276 $362 reversed $119 $-1 #
-329 coedge $397 $244 $396 $398 $399 reversed $119 $-1 #
-330 coedge $-1 $398 $245 $244 $331 forward $300 $-1 #
-331 edge $400 $336 -3.4814295630439132 $401 -2.8017557441356842 $330 $402 forward 7 unknown #
-332 copar-eye-attrib $-1 $-1 $-1 $245 #
-333 coedge $403 $245 $404 $270 $356 reversed $300 $-1 #
-334 ptlist-eye-attrib $-1 $405 $-1 $246 #
-335 vertex $-1 $271 $406 #
-336 vertex $-1 $246 $407 #
-337 ellipse-curve $-1 0 0 0 0 0 1 -0.499999999999999 -2.9580398915498498 0 1 I I #
-338 copar-eye-attrib $-1 $-1 $-1 $248 #
-339 copar-eye-attrib $-1 $-1 $-1 $249 #
-340 ptlist-eye-attrib $-1 $408 $-1 $250 #
-341 ellipse-curve $-1 -1.9999999999995299 2.5617376914902299 0 0 0 1 -0.38181818181837301 -0.97811802765993305 0 1 I I #
-342 ptlist-eye-attrib $-1 $409 $-1 $252 #
-343 ellipse-curve $-1 -1.9999999999995699 -2.5617376914902601 0 0 0 1 0.64615384615372096 0.82763833109687202 0 1 I I #
-344 epar-eye-attrib $-1 $-1 $254 $178 #
-345 point $-1 -1.3538461538456901 1.73409936039321 0 #
-346 point $-1 -1.3538461538458499 -1.7340993603933901 0 #
-347 vertex $-1 $261 $410 #
-348 ellipse-curve $-1 -3.3541666666666501 -2.0952782565144501 -1.2545520178264269e-014 0 0 -1 0.14000000000000015 6.3359513498662146e-017 0 1 I I #
-349 ref_vt-eye-attrib $-1 $-1 $265 $185 $-1 $-1 #
-350 coedge $411 $412 $385 $413 $414 reversed $266 $-1 #
-351 copar-eye-attrib $-1 $-1 $-1 $268 #
-352 coedge $415 $386 $412 $268 $353 forward $266 $-1 #
-353 edge $416 $417 0 $418 0.21249999999998748 $352 $419 forward 7 unknown #
-354 copar-eye-attrib $-1 $-1 $-1 $270 #
-355 coedge $-1 $272 $270 $404 $420 forward $88 $-1 #
-356 edge $421 $335 0 $422 0.21249999999998656 $270 $423 forward 7 unknown #
-357 ptlist-eye-attrib $-1 $424 $-1 $271 #
-358 straight-curve $-1 -3.4166666666666701 -2.4650332429582198 0 0.98601329718326902 -0.16666666666666599 0 I I #
-359 ptlist-eye-attrib $-1 $-1 $-1 $274 #
-360 straight-curve $-1 -3.4166666666666701 -2.4650332429582194 0.21249999999998748 0 0 1 I I #
-361 copar-eye-attrib $-1 $-1 $-1 $276 #
-362 edge $425 $417 8.88178419700099e-016 $278 2.8066964951504136 $276 $426 forward 7 unknown #
-363 epar-eye-attrib $-1 $-1 $277 $194 #
-364 point $-1 -3.4166666666666701 -2.4650332429582198 0 #
-365 point $-1 -3.4166666666666701 -2.4650332429582198 0.21249999999998748 #
-366 point $-1 -2.38181852544969 -1.5836197979703801 0 #
-367 ptlist-eye-attrib $-1 $427 $-1 $289 #
-368 ellipse-curve $-1 -3 -4.9616784476586798e-015 0 0 0 -1 0.61818181818210405 1.5836196638303 0 1 I I #
-369 epar-eye-attrib $-1 $-1 $291 $204 #
-370 point $-1 -2.3818181818178998 1.5836196638303 0 #
-371 epar-eye-attrib $-1 $-1 $296 $212 #
-372 cface_ptr-ct-attrib $-1 $-1 $299 $217 $-1 $262 #
-373 edge $-1 $428 2.579536688711463 $428 8.8627219958910644 $303 $429 forward 7 unknown #
-374 vertex $-1 $304 $430 #
-375 ellipse-curve $-1 -4.8967117988688802 -0.95818022940968184 -1.2545520178264269e-014 0 0 -1 0.13999999999999993 6.3359513498662047e-017 0 1 I I #
-376 vertex $-1 $306 $431 #
-377 ellipse-curve $-1 -4.8967117988688802 0.95818022940966407 0.31249999999998745 0 0 1 0.14000000000000004 6.3359513498662096e-017 0 1 I I #
-378 point $-1 -4.9509075041490718 1.0872647967644904 -1.2545520178264269e-014 #
-379 point $-1 -3.4318668775566059 2.2117371644076322 0.31249999999998745 #
-380 coedge $-1 $404 $432 $314 $381 forward $300 $-1 #
-381 edge $433 $388 -1.7382444060145894 $383 1.7382444060145852 $380 $434 forward 7 unknown #
-382 ptlist-eye-attrib $-1 $-1 $-1 $315 #
-383 vertex $-1 $420 $435 #
-384 straight-curve $-1 -3.4166666666666701 -2.4650332429582194 0.31249999999998745 -0.98601329718326991 0.16666666666666399 3.1132256077985535e-016 I I #
-385 coedge $-1 $350 $316 $432 $436 reversed $266 $-1 #
-386 coedge $-1 $316 $352 $318 $390 forward $266 $-1 #
-387 ptlist-eye-attrib $-1 $-1 $-1 $317 #
-388 vertex $-1 $436 $437 #
-389 straight-curve $-1 -0.50000000000001399 2.9580398915498507 0.31249999999998657 0.98601329718326847 0.16666666666667204 -3.1132256077985495e-016 I I #
-390 edge $438 $418 0 $321 0.099999999999999978 $386 $439 forward 7 unknown #
-391 point $-1 -3.4166666666666701 -2.4650332429582194 0.31249999999998745 #
-392 point $-1 -3.4166666666666798 2.4650332429581998 0.31249999999998745 #
-393 vertex $-1 $326 $440 #
-394 ellipse-curve $-1 -3.3541666666666501 -2.0952782565144501 0.31249999999998745 0 0 1 0.14000000000000015 6.3359513498662146e-017 0 1 I I #
-395 copar-eye-attrib $-1 $-1 $-1 $328 #
-396 coedge $441 $329 $328 $412 $442 forward $119 $-1 #
-397 copar-eye-attrib $-1 $-1 $-1 $329 #
-398 coedge $443 $413 $330 $329 $399 forward $300 $-1 #
-399 edge $444 $401 2.078081315468701 $445 3.4764888120291713 $398 $337 forward 7 unknown #
-400 ptlist-eye-attrib $-1 $-1 $-1 $331 #
-401 vertex $-1 $399 $446 #
-402 ellipse-curve $-1 -2.0872192862952943e-014 3.4111168750738941e-015 -1.3600232051658168e-014 3.157387042032862e-016 1.6124857441902812e-030 1 -3.0000000000000591 -1.5321077739827473e-014 9.4721611260987723e-016 1 F -3.4814295630439154 F -2.8017557441356904 #
-403 copar-eye-attrib $-1 $-1 $-1 $333 #
-404 coedge $-1 $333 $380 $355 $420 reversed $300 $-1 #
-405 epar-eye-attrib $-1 $-1 $334 $246 #
-406 point $-1 -0.499999999999999 -2.9580398915498498 0 #
-407 point $-1 2.82842712474624 -0.999999999999999 -1.77190094086884e-015 #
-408 epar-eye-attrib $-1 $-1 $340 $250 #
-409 epar-eye-attrib $-1 $-1 $342 $252 #
-410 point $-1 -3.4931071143372701 -2.0780866306143859 -1.2545520178264269e-014 #
-411 copar-eye-attrib $-1 $-1 $-1 $350 #
-412 coedge $447 $352 $350 $396 $442 reversed $266 $-1 #
-413 coedge $448 $432 $398 $350 $414 forward $300 $-1 #
-414 edge $449 $445 0 $450 0.21249999999998656 $413 $451 forward 7 unknown #
-415 copar-eye-attrib $-1 $-1 $-1 $352 #
-416 ptlist-eye-attrib $-1 $452 $-1 $353 #
-417 vertex $-1 $362 $453 #
-418 vertex $-1 $353 $454 #
-419 straight-curve $-1 -3.4166666666666798 2.4650332429581998 0 0 0 1 I I #
-420 edge $455 $422 0 $383 0.10000000000000089 $355 $456 forward 7 unknown #
-421 ptlist-eye-attrib $-1 $457 $-1 $356 #
-422 vertex $-1 $420 $458 #
-423 straight-curve $-1 -0.499999999999999 -2.9580398915498498 0 0 0 1 I I #
-424 epar-eye-attrib $-1 $-1 $357 $271 #
-425 ptlist-eye-attrib $-1 $459 $-1 $362 #
-426 ellipse-curve $-1 -3 -7.62621370675905e-015 0 0 0 1 -0.41666666666667801 2.46503324295821 0 1 I I #
-427 epar-eye-attrib $-1 $-1 $367 $289 #
-428 vertex $-1 $373 $460 #
-429 ellipse-curve $-1 -4.8967117988688802 -0.95818022940968184 0.31249999999998745 0 0 1 0.13999999999999993 6.3359513498662047e-017 0 1 I I #
-430 point $-1 -5.0151743698013949 -0.88357044929970774 -1.2545520178264269e-014 #
-431 point $-1 -4.9509075041490718 1.0872647967644904 0.31249999999998745 #
-432 coedge $-1 $380 $413 $385 $436 forward $300 $-1 #
-433 ptlist-eye-attrib $-1 $-1 $-1 $381 #
-434 ellipse-curve $-1 4.2188474935755949e-015 3.1839138395000841e-015 0.31249999999998634 -3.157387042032862e-016 -1.4289321922155847e-031 -1 3.0000000000000417 1.357703860685635e-015 -9.4721611260987171e-016 1 F -1.7382444060145894 F 1.7382444060145852 #
-435 point $-1 -0.49999999999999867 -2.9580398915498467 0.31249999999998745 #
-436 edge $461 $450 0 $388 0.10000000000000089 $432 $462 forward 7 unknown #
-437 point $-1 -0.50000000000001399 2.9580398915498507 0.31249999999998745 #
-438 ptlist-eye-attrib $-1 $-1 $-1 $390 #
-439 straight-curve $-1 -3.4166666666666798 2.4650332429581998 0.21249999999998748 0 0 1 I I #
-440 point $-1 -3.4931071143372701 -2.0780866306143859 0.31249999999998745 #
-441 copar-eye-attrib $-1 $-1 $-1 $396 #
-442 edge $463 $417 0 $445 2.9580398915498098 $412 $464 forward 7 unknown #
-443 copar-eye-attrib $-1 $-1 $-1 $398 #
-444 ptlist-eye-attrib $-1 $465 $-1 $399 #
-445 vertex $-1 $399 $466 #
-446 point $-1 2.8284271247462298 1 1.0150983417455701e-015 #
-447 copar-eye-attrib $-1 $-1 $-1 $412 #
-448 copar-eye-attrib $-1 $-1 $-1 $413 #
-449 ptlist-eye-attrib $-1 $467 $-1 $414 #
-450 vertex $-1 $414 $468 #
-451 straight-curve $-1 -0.50000000000001399 2.9580398915498498 0 0 0 1 I I #
-452 epar-eye-attrib $-1 $-1 $416 $353 #
-453 point $-1 -3.4166666666666798 2.4650332429581998 0 #
-454 point $-1 -3.4166666666666798 2.4650332429581998 0.21249999999998748 #
-455 ptlist-eye-attrib $-1 $-1 $-1 $420 #
-456 straight-curve $-1 -0.49999999999999867 -2.9580398915498467 0.21249999999998656 0 0 1 I I #
-457 epar-eye-attrib $-1 $-1 $421 $356 #
-458 point $-1 -0.499999999999999 -2.9580398915498498 0.21249999999998656 #
-459 epar-eye-attrib $-1 $-1 $425 $362 #
-460 point $-1 -5.0151743698013949 -0.88357044929970774 0.31249999999998745 #
-461 ptlist-eye-attrib $-1 $-1 $-1 $436 #
-462 straight-curve $-1 -0.50000000000001399 2.9580398915498507 0.21249999999998656 0 0 1 I I #
-463 ptlist-eye-attrib $-1 $469 $-1 $442 #
-464 straight-curve $-1 -3.4166666666666798 2.4650332429581998 0 0.98601329718326902 0.16666666666667099 0 I I #
-465 epar-eye-attrib $-1 $-1 $444 $399 #
-466 point $-1 -0.50000000000001399 2.9580398915498498 0 #
-467 epar-eye-attrib $-1 $-1 $449 $414 #
-468 point $-1 -0.50000000000001399 2.9580398915498498 0.21249999999998656 #
-469 epar-eye-attrib $-1 $-1 $463 $442 #
End-of-ACIS-data 
