1900 0 1 0           
35 Abaqus, Inc. - Abaqus 6.9-EFR - 190 12 ACIS 19.0 NT 24 Tue Jun 30 12:10:51 2009 
1 9.9999999999999995e-007 1e-010 
-0 body $1 -1 -1 $-1 $2 $-1 $3 T -5.5000000000000338 -3.0000000000000391 0.25124999999980513 3.0000000000000466 3.0000000000000444 0.31249999999998812 #
-1 string_attrib-name_attrib-gen-attrib $-1 -1 $-1 $-1 $0 2 1 1 1 1 1 1 1 1 1 1 1 1 1 0 1 1 1 @13 HKS_PART_NAME @6 gasket #
-2 lump $4 -1 -1 $-1 $-1 $5 $0 T -5.5000000000000338 -3.0000000000000391 0.25124999999980513 3.0000000000000466 3.0000000000000444 0.31249999999998812 #
-3 transform $-1 -1 1 0 0 0 1 0 0 0 1 0 0 0 1 no_rotate no_reflect no_shear #
-4 cell_ptr-ct-attrib $-1 -1 $-1 $-1 $2 1 1 1 1 1 1 1 1 1 1 1 1 0 1 0 1 1 1 $6 $-1 auto #
-5 shell $-1 -1 -1 $-1 $-1 $-1 $7 $-1 $2 T -5.5000000000000338 -3.0000000000000391 0.25124999999980513 3.0000000000000466 3.0000000000000444 0.31249999999998812 #
-6 cell3d-cell $-1 -1 $-1 $2 $-1 1 $8 #
-7 face $9 -1 -1 $-1 $10 $11 $5 $-1 $12 reversed single T -2.363636363636537 -1.773510709493048 0.25124999999999514 -1.3846153846149161 -1.5617376914898529 0.31249999999998745 F #
-8 cshell $-1 -1 $-1 $13 $6 #
-9 cface_ptr-ct-attrib $-1 -1 $-1 $-1 $7 1 1 1 1 1 1 1 1 1 1 1 1 0 1 0 1 1 1 $-1 $14 #
-10 face $15 -1 -1 $-1 $16 $17 $5 $-1 $18 reversed single T -1.3846153846149205 -2.2499999999997491 0.25124999999999492 2.2499999999997558 2.2499999999997544 0.31249999999998745 F #
-11 loop $-1 -1 -1 $-1 $-1 $19 $7 T -2.363636363636537 -1.773510709493048 0.25124999999999514 -1.3846153846149161 -1.5617376914898529 0.31249999999998745 periphery $12 T #
-12 cone-surface $-1 -1 -1 $-1 -1.9999999999999374 -2.5617376914907304 0.31249999999998745 0 0 -1 -1.0000000000008773 -4.52567953562269e-016 0 1 I I 0 -1 1.0000000000008773 forward I I I I #
-13 cface $-1 -1 $20 $8 $21 0 #
-14 cface $-1 -1 $22 $8 $7 0 #
-15 cface_ptr-ct-attrib $-1 -1 $-1 $-1 $10 1 1 1 1 1 1 1 1 1 1 1 1 0 1 0 1 1 1 $-1 $22 #
-16 face $23 -1 -1 $-1 $24 $25 $5 $-1 $26 reversed single T -2.3636363636361235 1.5617376914900187 0.25124999999999498 -1.3846153846149132 1.7735107094930593 0.31249999999998745 F #
-17 loop $-1 -1 -1 $-1 $-1 $27 $10 T -1.3846153846149205 -2.2499999999997491 0.25124999999999492 2.2499999999997558 2.2499999999997544 0.31249999999998745 periphery $18 T #
-18 cone-surface $-1 -1 -1 $-1 4.4408920985006262e-015 2.5561336765766625e-015 0.31249999999998745 0 0 -1 -2.2499999999997513 -1.0182778955140995e-015 0 1 I I 0 1 2.2499999999997513 forward I I I I #
-19 coedge $-1 -1 -1 $-1 $28 $29 $30 $31 reversed $11 $-1 #
-20 cface $-1 -1 $32 $8 $33 0 #
-21 face $34 -1 -1 $-1 $33 $35 $5 $-1 $36 forward single T -0.57749999999999591 -2.7282849051060802 0.25124999999995129 -0.29749999999999588 -2.44828490510608 0.31249999999998745 F #
-22 cface $-1 -1 $37 $8 $10 0 #
-23 cface_ptr-ct-attrib $-1 -1 $-1 $-1 $16 1 1 1 1 1 1 1 1 1 1 1 1 0 1 0 1 1 1 $-1 $37 #
-24 face $38 -1 -1 $-1 $39 $40 $5 $-1 $41 reversed single T -4.7500000000001386 -1.7500000000001528 0.25124999999999492 -2.3636363636361235 1.7500000000001332 0.31249999999998745 F #
-25 loop $-1 -1 -1 $-1 $-1 $42 $16 T -2.3636363636361235 1.5617376914900187 0.25124999999999498 -1.3846153846149132 1.7735107094930593 0.31249999999998745 periphery $26 T #
-26 cone-surface $-1 -1 -1 $-1 -1.9999999999995213 2.5617376914902508 0.31249999999998745 0 0 -1 -1.0000000000002318 -4.5256795356197693e-016 0 1 I I 0 -1 1.0000000000002318 forward I I I I #
-27 coedge $-1 -1 -1 $-1 $43 $44 $45 $46 reversed $17 $-1 #
-28 coedge $-1 -1 -1 $-1 $47 $19 $48 $49 reversed $11 $-1 #
-29 coedge $-1 -1 -1 $-1 $19 $47 $43 $50 forward $11 $-1 #
-30 coedge $-1 -1 -1 $-1 $45 $51 $19 $31 forward $52 $-1 #
-31 edge $-1 -1 -1 $-1 $53 1.1986277928346603 $54 2.2336701504448628 $30 $55 forward @7 unknown T -2.363636363636537 -1.773510709493048 0.25124999999999514 -1.3846153846149161 -1.5617376914898529 0.25125000000004311 #
-32 cface $-1 -1 $56 $8 $57 0 #
-33 face $58 -1 -1 $-1 $57 $59 $5 $-1 $60 forward single T 2.0565559240971489 -1.5772776601317213 0.25124999999983444 2.336555924097151 -1.2972776601317184 0.31249999999998745 F #
-34 cface_ptr-ct-attrib $-1 -1 $-1 $-1 $21 1 1 1 1 1 1 1 1 1 1 1 1 0 1 0 1 1 1 $-1 $13 #
-35 loop $-1 -1 -1 $-1 $61 $62 $21 T -0.57749999999999524 -2.7282849051060798 0.25124999999995129 -0.29749999999999666 -2.4482849051060813 0.25124999999996372 u_sep $36 F #
-36 cone-surface $-1 -1 -1 $-1 -0.43749999999999589 -2.5882849051060801 0.31249999999998745 0 0 -1 0.14000000000000001 6.3359513498662084e-017 0 1 I I 0 -1 0.14000000000000001 forward I I I I #
-37 cface $-1 -1 $63 $8 $16 0 #
-38 cface_ptr-ct-attrib $-1 -1 $-1 $-1 $24 1 1 1 1 1 1 1 1 1 1 1 1 0 1 0 1 1 1 $-1 $64 #
-39 face $65 -1 -1 $-1 $21 $52 $5 $-1 $66 forward single T -5.500000000000032 -3.0000000000000386 0.25124999999980513 3.0000000000000466 3.000000000000044 0.25125000000018244 F #
-40 loop $-1 -1 -1 $-1 $-1 $67 $24 T -4.7500000000001386 -1.7500000000001528 0.25124999999999492 -2.3636363636361235 1.7500000000001332 0.31249999999998745 periphery $41 T #
-41 cone-surface $-1 -1 -1 $-1 -2.9999999999999956 -9.7890646473902901e-015 0.31249999999998745 0 0 -1 -1.7500000000001426 -7.919939187333405e-016 0 1 I I 0 1 1.7500000000001426 forward I I I I #
-42 coedge $-1 -1 -1 $-1 $68 $69 $70 $71 reversed $25 $-1 #
-43 coedge $-1 -1 -1 $-1 $72 $27 $29 $50 reversed $17 $-1 #
-44 coedge $-1 -1 -1 $-1 $27 $72 $68 $73 forward $17 $-1 #
-45 coedge $-1 -1 -1 $-1 $70 $30 $27 $46 forward $52 $-1 #
-46 edge $-1 -1 -1 $-1 $54 0.90792250314493317 $74 5.375262804034648 $45 $75 forward @7 unknown T -1.3846153846149205 -2.2499999999997491 0.25124999999999492 2.2499999999997558 2.2499999999997544 0.25124999999999992 #
-47 coedge $-1 -1 -1 $-1 $29 $28 $76 $77 reversed $11 $-1 #
-48 coedge $-1 -1 -1 $-1 $67 $78 $28 $49 forward $40 $-1 #
-49 edge $79 -1 -1 $-1 $80 0 $53 0.061249999999944349 $28 $81 forward @7 tangent T -2.363636363636537 -1.6301967127662806 0.25125000000004311 -2.363636363636537 -1.6301967127662806 0.31249999999998745 #
-50 edge $82 -1 -1 $-1 $83 0 $54 0.061249999999987814 $43 $84 forward @7 tangent T -1.3846153846149205 -1.773510709493048 0.25124999999999964 -1.3846153846149205 -1.773510709493048 0.31249999999998745 #
-51 coedge $-1 -1 -1 $-1 $30 $70 $67 $85 forward $52 $-1 #
-52 loop $-1 -1 -1 $-1 $86 $70 $39 T -4.7500000000001386 -2.2499999999997491 0.25124999999999492 2.2499999999997558 2.2499999999997544 0.25125000000004338 hole $66 F #
-53 vertex $-1 -1 -1 $-1 $85 $87 #
-54 vertex $-1 -1 -1 $-1 $31 $88 #
-55 ellipse-curve $-1 -1 -1 $-1 -1.9999999999999374 -2.5617376914907304 0.25124999999999509 -4.439440826573019e-014 8.5858405106833529e-017 -1.0000000000000002 -1.0000000000008773 -4.52567953562269e-016 0 1 I I #
-56 cface $-1 -1 $89 $8 $90 0 #
-57 face $91 -1 -1 $-1 $90 $92 $5 $-1 $93 forward single T 2.0565559240971565 1.2972776601316975 0.25124999999983472 2.3365559240971638 1.577277660131704 0.31249999999998745 F #
-58 cface_ptr-ct-attrib $-1 -1 $-1 $-1 $33 1 1 1 1 1 1 1 1 1 1 1 1 0 1 0 1 1 1 $-1 $20 #
-59 loop $-1 -1 -1 $-1 $94 $95 $33 T 2.0565559240971489 -1.5772776601317213 0.25124999999983444 2.336555924097151 -1.2972776601317184 0.25124999999984687 u_sep $60 F #
-60 cone-surface $-1 -1 -1 $-1 2.1965559240971499 -1.4372776601317199 0.31249999999998745 0 0 -1 0.14000000000000007 6.3359513498662109e-017 0 1 I I 0 -1 0.14000000000000007 forward I I I I #
-61 loop $-1 -1 -1 $-1 $-1 $96 $21 T -0.57749999999999591 -2.7282849051060802 0.31249999999998745 -0.29749999999999588 -2.44828490510608 0.31249999999998745 u_sep $36 F #
-62 coedge $-1 -1 -1 $-1 $62 $62 $97 $98 forward $35 $-1 #
-63 cface $-1 -1 $99 $8 $100 0 #
-64 cface $-1 -1 $14 $8 $24 0 #
-65 cface_ptr-ct-attrib $-1 -1 $-1 $-1 $39 1 1 1 1 1 1 1 1 1 1 1 1 0 1 0 1 1 1 $-1 $99 #
-66 plane-surface $-1 -1 -1 $-1 -1.2788042140302254 0.00020718217007842203 0.25124999999999509 -4.439440826573019e-014 8.5858405106833529e-017 -1.0000000000000002 -0.16666666666666402 -0.98601329718326991 7.3144105151779587e-015 forward_v I I I I #
-67 coedge $-1 -1 -1 $-1 $101 $48 $51 $85 reversed $40 $-1 #
-68 coedge $-1 -1 -1 $-1 $102 $42 $44 $73 reversed $25 $-1 #
-69 coedge $-1 -1 -1 $-1 $42 $102 $101 $103 forward $25 $-1 #
-70 coedge $-1 -1 -1 $-1 $51 $45 $42 $71 forward $52 $-1 #
-71 edge $-1 -1 -1 $-1 $74 -2.2336701504448415 $104 -1.1986277928344569 $70 $105 forward @7 unknown T -2.3636363636361235 1.5617376914900187 0.25124999999999498 -1.3846153846149132 1.7735107094930593 0.25125000000004338 #
-72 coedge $-1 -1 -1 $-1 $44 $43 $106 $107 reversed $17 $-1 #
-73 edge $108 -1 -1 $-1 $109 0 $74 0.061249999999987537 $68 $110 forward @7 tangent T -1.3846153846149132 1.7735107094930593 0.25124999999999992 -1.3846153846149132 1.7735107094930593 0.31249999999998745 #
-74 vertex $-1 -1 -1 $-1 $71 $111 #
-75 ellipse-curve $-1 -1 -1 $-1 4.4408920985006262e-015 2.5561336765766625e-015 0.25124999999999509 4.439440826573019e-014 -8.5858405106833529e-017 1.0000000000000002 -2.2499999999997513 -1.0182778955140995e-015 0 1 I I #
-76 coedge $-1 -1 -1 $-1 $112 $106 $47 $77 forward $113 $-1 #
-77 edge $-1 -1 -1 $-1 $83 -2.2336701504448628 $80 -1.1986277928346603 $76 $114 forward @7 unknown T -2.363636363636537 -1.773510709493048 0.31249999999998745 -1.3846153846149161 -1.5617376914898531 0.31249999999998745 #
-78 coedge $-1 -1 -1 $-1 $48 $101 $112 $115 reversed $40 $-1 #
-79 integer_attrib-name_attrib-gen-attrib $-1 -1 $-1 $-1 $49 2 3 2 1 1 1 1 1 1 1 1 1 1 1 0 1 1 1 @12 make_tangent 1 #
-80 vertex $-1 -1 -1 $-1 $115 $116 #
-81 straight-curve $-1 -1 -1 $-1 -2.363636363636537 -1.6301967127662806 0.31249999999998745 0 0 -1 I I #
-82 integer_attrib-name_attrib-gen-attrib $-1 -1 $-1 $-1 $50 2 3 2 1 1 1 1 1 1 1 1 1 1 1 0 1 1 1 @12 make_tangent 1 #
-83 vertex $-1 -1 -1 $-1 $77 $117 #
-84 straight-curve $-1 -1 -1 $-1 -1.3846153846149205 -1.773510709493048 0.31249999999998745 0 0 -1 I I #
-85 edge $-1 -1 -1 $-1 $104 -1.9429648607553358 $53 1.9429648607551333 $51 $118 forward @7 unknown T -4.7500000000001386 -1.7500000000001528 0.25124999999999492 -2.3636363636361235 1.7500000000001332 0.25125000000004338 #
-86 loop $-1 -1 -1 $-1 $119 $120 $39 T -0.57749999999975676 2.4482849051061213 0.25124999999995173 -0.29749999999975774 2.7282849051061198 0.25124999999996417 hole $66 F #
-87 point $-1 -1 -1 $-1 -2.363636363636537 -1.6301967127662806 0.25125000000004311 #
-88 point $-1 -1 -1 $-1 -1.3846153846149205 -1.773510709493048 0.25124999999999964 #
-89 cface $-1 -1 $121 $8 $122 0 #
-90 face $123 -1 -1 $-1 $122 $124 $5 $-1 $125 forward single T -0.57749999999975732 2.44828490510612 0.25124999999995173 -0.29749999999975685 2.7282849051061202 0.31249999999998745 F #
-91 cface_ptr-ct-attrib $-1 -1 $-1 $-1 $57 1 1 1 1 1 1 1 1 1 1 1 1 0 1 0 1 1 1 $-1 $32 #
-92 loop $-1 -1 -1 $-1 $126 $127 $57 T 2.0565559240971565 1.2972776601316975 0.25124999999983472 2.3365559240971638 1.577277660131704 0.25124999999984715 u_sep $93 F #
-93 cone-surface $-1 -1 -1 $-1 2.1965559240971602 1.4372776601317003 0.31249999999998745 0 0 -1 0.1399999999999999 6.3359513498662035e-017 0 1 I I 0 -1 0.1399999999999999 forward I I I I #
-94 loop $-1 -1 -1 $-1 $-1 $128 $33 T 2.0565559240971498 -1.57727766013172 0.31249999999998745 2.3365559240971501 -1.2972776601317197 0.31249999999998745 u_sep $60 F #
-95 coedge $-1 -1 -1 $-1 $95 $95 $129 $130 forward $59 $-1 #
-96 coedge $-1 -1 -1 $-1 $96 $96 $131 $132 forward $61 $-1 #
-97 coedge $-1 -1 -1 $-1 $97 $97 $62 $98 reversed $133 $-1 #
-98 edge $-1 -1 -1 $-1 $134 -0.73133701354072334 $134 5.5518482936388631 $62 $135 forward @7 unknown T -0.57749999999999524 -2.7282849051060798 0.25124999999995129 -0.29749999999999666 -2.4482849051060813 0.25124999999996372 #
-99 cface $-1 -1 $136 $8 $39 0 #
-100 face $137 -1 -1 $-1 $138 $139 $5 $-1 $140 forward single T -3.4166666666666718 -2.9580398915498476 0.25124999999996023 -0.49999999999999822 -2.4650332429582109 0.31249999999998745 F #
-101 coedge $-1 -1 -1 $-1 $78 $67 $69 $103 reversed $40 $-1 #
-102 coedge $-1 -1 -1 $-1 $69 $68 $141 $142 reversed $25 $-1 #
-103 edge $143 -1 -1 $-1 $144 0 $104 0.061249999999944071 $101 $145 forward @7 tangent T -2.3636363636361235 1.6301967127663513 0.25125000000004338 -2.3636363636361235 1.6301967127663513 0.31249999999998745 #
-104 vertex $-1 -1 -1 $-1 $71 $146 #
-105 ellipse-curve $-1 -1 -1 $-1 -1.9999999999995213 2.5617376914902508 0.25124999999999509 -4.439440826573019e-014 8.5858405106833529e-017 -1.0000000000000002 -1.0000000000002318 -4.5256795356197693e-016 0 1 I I #
-106 coedge $-1 -1 -1 $-1 $76 $141 $72 $107 forward $113 $-1 #
-107 edge $-1 -1 -1 $-1 $109 0.90792250314493828 $83 5.3752628040346533 $106 $147 forward @7 unknown T -1.3846153846149205 -2.2499999999997486 0.31249999999998745 2.2499999999997558 2.249999999999754 0.31249999999998745 #
-108 integer_attrib-name_attrib-gen-attrib $-1 -1 $-1 $-1 $73 2 3 2 1 1 1 1 1 1 1 1 1 1 1 0 1 1 1 @12 make_tangent 1 #
-109 vertex $-1 -1 -1 $-1 $142 $148 #
-110 straight-curve $-1 -1 -1 $-1 -1.3846153846149132 1.7735107094930593 0.31249999999998745 0 0 -1 I I #
-111 point $-1 -1 -1 $-1 -1.3846153846149132 1.7735107094930593 0.25124999999999992 #
-112 coedge $-1 -1 -1 $-1 $141 $76 $78 $115 forward $113 $-1 #
-113 loop $-1 -1 -1 $-1 $149 $141 $150 T -4.7500000000001386 -2.2499999999997486 0.31249999999998745 2.2499999999997558 2.249999999999754 0.31249999999998745 hole $151 T #
-114 ellipse-curve $-1 -1 -1 $-1 -1.9999999999999374 -2.5617376914907304 0.31249999999998745 -0 -0 1 -1.0000000000008773 -4.52567953562269e-016 0 1 I I #
-115 edge $-1 -1 -1 $-1 $80 -1.9429648607551333 $144 1.9429648607553358 $112 $152 forward @7 unknown T -4.7500000000001386 -1.7500000000001523 0.31249999999998745 -2.3636363636361235 1.7500000000001328 0.31249999999998745 #
-116 point $-1 -1 -1 $-1 -2.363636363636537 -1.6301967127662806 0.31249999999998745 #
-117 point $-1 -1 -1 $-1 -1.3846153846149205 -1.773510709493048 0.31249999999998745 #
-118 ellipse-curve $-1 -1 -1 $-1 -2.9999999999999956 -9.7890646473902901e-015 0.25124999999999509 4.439440826573019e-014 -8.5858405106833529e-017 1.0000000000000002 -1.7500000000001426 -7.919939187333405e-016 0 1 I I #
-119 loop $-1 -1 -1 $-1 $153 $129 $39 T 2.0565559240971489 -1.5772776601317213 0.25124999999983444 2.336555924097151 -1.2972776601317184 0.25124999999984687 hole $66 F #
-120 coedge $-1 -1 -1 $-1 $120 $120 $154 $155 reversed $86 $-1 #
-121 cface $-1 -1 $156 $8 $157 0 #
-122 face $158 -1 -1 $-1 $157 $159 $5 $-1 $160 forward single T -3.4941666666668003 1.95527825651442 0.25125000000008119 -3.2141666666668001 2.23527825651442 0.31249999999998745 F #
-123 cface_ptr-ct-attrib $-1 -1 $-1 $-1 $90 1 1 1 1 1 1 1 1 1 1 1 1 0 1 0 1 1 1 $-1 $56 #
-124 loop $-1 -1 -1 $-1 $161 $154 $90 T -0.57749999999975676 2.4482849051061213 0.25124999999995173 -0.29749999999975774 2.7282849051061198 0.25124999999996417 u_sep $125 F #
-125 cone-surface $-1 -1 -1 $-1 -0.43749999999975708 2.5882849051061201 0.31249999999998745 0 0 -1 0.14000000000000021 6.335951349866217e-017 0 1 I I 0 -1 0.14000000000000021 forward I I I I #
-126 loop $-1 -1 -1 $-1 $-1 $162 $57 T 2.05655592409716 1.2972776601317004 0.31249999999998745 2.3365559240971603 1.5772776601317002 0.31249999999998745 u_sep $93 F #
-127 coedge $-1 -1 -1 $-1 $127 $127 $163 $164 forward $92 $-1 #
-128 coedge $-1 -1 -1 $-1 $128 $128 $165 $166 forward $94 $-1 #
-129 coedge $-1 -1 -1 $-1 $129 $129 $95 $130 reversed $119 $-1 #
-130 edge $-1 -1 -1 $-1 $167 -2.3477524733214432 $167 3.935432833858143 $95 $168 forward @7 unknown T 2.0565559240971489 -1.5772776601317213 0.25124999999983444 2.336555924097151 -1.2972776601317184 0.25124999999984687 #
-131 coedge $-1 -1 -1 $-1 $131 $131 $96 $132 reversed $169 $-1 #
-132 edge $-1 -1 -1 $-1 $170 -1.0069073924738581 $170 5.2762779147057426 $96 $171 forward @7 unknown T -0.57749999999999591 -2.7282849051060802 0.31249999999998745 -0.29749999999999588 -2.44828490510608 0.31249999999998745 #
-133 loop $-1 -1 -1 $-1 $172 $97 $39 T -0.57749999999999524 -2.7282849051060798 0.25124999999995129 -0.29749999999999666 -2.4482849051060813 0.25124999999996372 hole $66 F #
-134 vertex $-1 -1 -1 $-1 $98 $173 #
-135 ellipse-curve $-1 -1 -1 $-1 -0.43749999999999595 -2.5882849051060806 0.25124999999995751 -4.439440826573019e-014 8.5858405106833529e-017 -1.0000000000000002 -0.023333333333332831 -0.13804186160565701 1.0240174721249084e-015 1 I I #
-136 cface $-1 -1 $174 $8 $138 0 #
-137 cface_ptr-ct-attrib $-1 -1 $-1 $-1 $100 1 1 1 1 1 1 1 1 1 1 1 1 0 1 0 1 1 1 $-1 $63 #
-138 face $175 -1 -1 $-1 $-1 $176 $5 $-1 $177 forward single T -0.50000000000001432 -3.0000000000000391 0.25124999999980513 3.0000000000000466 3.0000000000000444 0.31249999999998745 F #
-139 loop $-1 -1 -1 $-1 $-1 $178 $100 T -3.4166666666666718 -2.9580398915498476 0.25124999999996023 -0.49999999999999822 -2.4650332429582109 0.31249999999998745 unknown #
-140 plane-surface $-1 -1 -1 $-1 -0.499999999999999 -2.9580398915498498 0 -0.16666666666666607 -0.98601329718326947 0 0 0 -1 forward_v I I I I #
-141 coedge $-1 -1 -1 $-1 $106 $112 $102 $142 forward $113 $-1 #
-142 edge $-1 -1 -1 $-1 $144 1.1986277928344569 $109 2.2336701504448415 $141 $179 forward @7 unknown T -2.3636363636361235 1.561737691490019 0.31249999999998745 -1.3846153846149132 1.7735107094930593 0.31249999999998745 #
-143 integer_attrib-name_attrib-gen-attrib $-1 -1 $-1 $-1 $103 2 3 2 1 1 1 1 1 1 1 1 1 1 1 0 1 1 1 @12 make_tangent 1 #
-144 vertex $-1 -1 -1 $-1 $142 $180 #
-145 straight-curve $-1 -1 -1 $-1 -2.3636363636361235 1.6301967127663513 0.31249999999998745 0 0 -1 I I #
-146 point $-1 -1 -1 $-1 -2.3636363636361235 1.6301967127663513 0.25125000000004338 #
-147 ellipse-curve $-1 -1 -1 $-1 4.4408920985006262e-015 2.5561336765766625e-015 0.31249999999998745 0 0 -1 -2.2499999999997513 -1.0182778955140995e-015 0 1 I I #
-148 point $-1 -1 -1 $-1 -1.3846153846149132 1.7735107094930593 0.31249999999998745 #
-149 loop $-1 -1 -1 $-1 $181 $182 $150 T -3.4941666666666502 -2.2352782565144502 0.31249999999998745 -3.21416666666665 -1.9552782565144502 0.31249999999998745 hole $151 T #
-150 face $183 -1 -1 $-1 $100 $113 $5 $-1 $151 reversed single T -5.5000000000000338 -3.0000000000000391 0.3124999999999854 3.0000000000000462 3.0000000000000444 0.31249999999998812 F #
-151 plane-surface $-1 -1 -1 $-1 -3.4166666666666701 -2.4650332429582198 0.31249999999998745 0 0 -1 -1 0 0 forward_v I I I I #
-152 ellipse-curve $-1 -1 -1 $-1 -2.9999999999999956 -9.7890646473902901e-015 0.31249999999998745 0 0 -1 -1.7500000000001426 -7.919939187333405e-016 0 1 I I #
-153 loop $-1 -1 -1 $-1 $184 $185 $39 T -3.4941666666666533 -2.2352782565144529 0.2512500000000808 -3.2141666666666491 -1.9552782565144489 0.25125000000009323 hole $66 F #
-154 coedge $-1 -1 -1 $-1 $154 $154 $120 $155 forward $124 $-1 #
-155 edge $-1 -1 -1 $-1 $186 2.8066964951497453 $186 9.089881802329332 $154 $187 forward @7 unknown T -0.57749999999975676 2.4482849051061213 0.25124999999995173 -0.29749999999975774 2.7282849051061198 0.25124999999996417 #
-156 cface $-1 -1 $188 $8 $189 0 #
-157 face $190 -1 -1 $-1 $189 $191 $5 $-1 $192 forward single T -5.0367117988688808 0.81818022940966406 0.25125000000014958 -4.7567117988688805 1.0981802294096645 0.31249999999998745 F #
-158 cface_ptr-ct-attrib $-1 -1 $-1 $-1 $122 1 1 1 1 1 1 1 1 1 1 1 1 0 1 0 1 1 1 $-1 $89 #
-159 loop $-1 -1 -1 $-1 $193 $194 $122 T -3.4941666666667999 1.9552782565144216 0.25125000000008119 -3.2141666666668023 2.2352782565144196 0.25125000000009362 u_sep $160 F #
-160 cone-surface $-1 -1 -1 $-1 -3.3541666666668002 2.0952782565144199 0.31249999999998745 0 0 -1 0.13999999999999996 6.3359513498662059e-017 0 1 I I 0 -1 0.13999999999999996 forward I I I I #
-161 loop $-1 -1 -1 $-1 $-1 $195 $90 T -0.57749999999975732 2.44828490510612 0.31249999999998745 -0.29749999999975685 2.7282849051061202 0.31249999999998745 u_sep $125 F #
-162 coedge $-1 -1 -1 $-1 $162 $162 $196 $197 forward $126 $-1 #
-163 coedge $-1 -1 -1 $-1 $163 $163 $127 $164 reversed $172 $-1 #
-164 edge $-1 -1 -1 $-1 $198 -1.8380583039636704 $198 4.4451270032159158 $127 $199 forward @7 unknown T 2.0565559240971565 1.2972776601316975 0.25124999999983472 2.3365559240971638 1.577277660131704 0.25124999999984715 #
-165 coedge $-1 -1 -1 $-1 $165 $165 $128 $166 reversed $200 $-1 #
-166 edge $-1 -1 -1 $-1 $201 0.60950806730687068 $201 6.8926933744864716 $128 $202 forward @7 unknown T 2.0565559240971498 -1.57727766013172 0.31249999999998745 2.3365559240971501 -1.2972776601317197 0.31249999999998745 #
-167 vertex $-1 -1 -1 $-1 $130 $203 #
-168 ellipse-curve $-1 -1 -1 $-1 2.1965559240971499 -1.4372776601317199 0.25124999999984066 -4.439440826573019e-014 8.5858405106833529e-017 -1.0000000000000002 -0.023333333333333189 -0.13804186160565912 1.0240174721249241e-015 1 I I #
-169 loop $-1 -1 -1 $-1 $204 $131 $150 T -0.57749999999999591 -2.7282849051060802 0.31249999999998745 -0.29749999999999588 -2.44828490510608 0.31249999999998745 hole $151 T #
-170 vertex $-1 -1 -1 $-1 $132 $205 #
-171 ellipse-curve $-1 -1 -1 $-1 -0.43749999999999589 -2.5882849051060801 0.31249999999998745 0 0 1 0.14000000000000001 6.3359513498662084e-017 0 1 I I #
-172 loop $-1 -1 -1 $-1 $-1 $163 $39 T 2.0565559240971565 1.2972776601316975 0.25124999999983472 2.3365559240971638 1.577277660131704 0.25124999999984715 hole $66 F #
-173 point $-1 -1 -1 $-1 -0.36267320707506334 -2.7066105196642525 0.25124999999995418 #
-174 cface $-1 -1 $206 $8 $150 0 #
-175 cface_ptr-ct-attrib $-1 -1 $-1 $-1 $138 1 1 1 1 1 1 1 1 1 1 1 1 0 1 0 1 1 1 $-1 $136 #
-176 loop $-1 -1 -1 $-1 $-1 $207 $138 T -0.50000000000001432 -3.0000000000000391 0.25124999999980513 3.0000000000000466 3.0000000000000444 0.31249999999998745 unknown #
-177 cone-surface $-1 -1 -1 $-1 0 0 0 0 0 1 -0.499999999999999 -2.9580398915498498 0 1 I I 0 1 3.0000000000000409 forward I I I I #
-178 coedge $-1 -1 -1 $-1 $208 $209 $210 $211 forward $139 $-1 #
-179 ellipse-curve $-1 -1 -1 $-1 -1.9999999999995213 2.5617376914902508 0.31249999999998745 -0 -0 1 -1.0000000000002318 -4.5256795356197693e-016 0 1 I I #
-180 point $-1 -1 -1 $-1 -2.3636363636361235 1.6301967127663513 0.31249999999998745 #
-181 loop $-1 -1 -1 $-1 $212 $213 $150 T -5.0367117988688808 -1.0981802294096823 0.31249999999998745 -4.7567117988688796 -0.81818022940968171 0.31249999999998745 hole $151 T #
-182 coedge $-1 -1 -1 $-1 $182 $182 $214 $215 reversed $149 $-1 #
-183 cface_ptr-ct-attrib $-1 -1 $-1 $-1 $150 1 1 1 1 1 1 1 1 1 1 1 1 0 1 0 1 1 1 $-1 $174 #
-184 loop $-1 -1 -1 $-1 $216 $217 $39 T -5.0367117988688808 0.81818022940966428 0.25125000000014958 -4.7567117988688814 1.0981802294096645 0.25125000000016201 hole $66 F #
-185 coedge $-1 -1 -1 $-1 $185 $185 $218 $219 reversed $153 $-1 #
-186 vertex $-1 -1 -1 $-1 $155 $220 #
-187 ellipse-curve $-1 -1 -1 $-1 -0.43749999999975725 2.5882849051061205 0.25124999999995795 -4.439440826573019e-014 8.5858405106833529e-017 -1.0000000000000002 -0.023333333333332876 -0.13804186160565729 1.0240174721249105e-015 1 I I #
-188 cface $-1 -1 $64 $8 $221 0 #
-189 face $222 -1 -1 $-1 $221 $223 $5 $-1 $224 forward single T -5.0367117988688808 -1.0981802294096823 0.25125000000014941 -4.7567117988688796 -0.81818022940968171 0.31249999999998745 F #
-190 cface_ptr-ct-attrib $-1 -1 $-1 $-1 $157 1 1 1 1 1 1 1 1 1 1 1 1 0 1 0 1 1 1 $-1 $121 #
-191 loop $-1 -1 -1 $-1 $225 $226 $157 T -5.0367117988688808 0.81818022940966428 0.25125000000014958 -4.7567117988688814 1.0981802294096645 0.25125000000016201 u_sep $192 F #
-192 cone-surface $-1 -1 -1 $-1 -4.8967117988688802 0.95818022940966396 0.31249999999998745 0 0 -1 0.1399999999999999 6.3359513498662035e-017 0 1 I I 0 -1 0.1399999999999999 forward I I I I #
-193 loop $-1 -1 -1 $-1 $-1 $227 $122 T -3.4941666666668003 1.95527825651442 0.31249999999998745 -3.2141666666668001 2.23527825651442 0.31249999999998745 u_sep $160 F #
-194 coedge $-1 -1 -1 $-1 $194 $194 $228 $229 forward $159 $-1 #
-195 coedge $-1 -1 -1 $-1 $195 $195 $230 $231 forward $161 $-1 #
-196 coedge $-1 -1 -1 $-1 $196 $196 $162 $197 reversed $232 $-1 #
-197 edge $-1 -1 -1 $-1 $233 0.099813897949101463 $233 6.3829992051287023 $162 $234 forward @7 unknown T 2.05655592409716 1.2972776601317004 0.31249999999998745 2.3365559240971603 1.5772776601317002 0.31249999999998745 #
-198 vertex $-1 -1 -1 $-1 $164 $235 #
-199 ellipse-curve $-1 -1 -1 $-1 2.1965559240971602 1.4372776601317008 0.25124999999984093 -4.439440826573019e-014 8.5858405106833529e-017 -1.0000000000000002 -0.023333333333333515 -0.13804186160566106 1.0240174721249385e-015 1 I I #
-200 loop $-1 -1 -1 $-1 $169 $165 $150 T 2.0565559240971498 -1.57727766013172 0.31249999999998745 2.3365559240971501 -1.2972776601317197 0.31249999999998745 hole $151 T #
-201 vertex $-1 -1 -1 $-1 $166 $236 #
-202 ellipse-curve $-1 -1 -1 $-1 2.1965559240971499 -1.4372776601317199 0.31249999999998745 0 0 1 0.14000000000000007 6.3359513498662109e-017 0 1 I I #
-203 point $-1 -1 -1 $-1 2.3113460864217621 -1.3571326750516184 0.2512499999998356 #
-204 loop $-1 -1 -1 $-1 $-1 $237 $150 T -5.5000000000000338 -3.0000000000000391 0.3124999999999854 3.0000000000000462 3.0000000000000444 0.31249999999998812 periphery $151 T #
-205 point $-1 -1 -1 $-1 -0.36267320707506268 -2.7066105196642525 0.31249999999998745 #
-206 cface $-1 -1 $238 $8 $239 0 #
-207 coedge $-1 -1 -1 $-1 $240 $241 $242 $243 forward $176 $-1 #
-208 coedge $-1 -1 -1 $-1 $244 $178 $245 $246 forward $139 $-1 #
-209 coedge $-1 -1 -1 $-1 $178 $244 $247 $248 forward $139 $-1 #
-210 coedge $-1 -1 -1 $-1 $241 $240 $178 $211 reversed $176 $-1 #
-211 edge $-1 -1 -1 $-1 $249 0.038749999999973722 $250 0.10000000000000089 $178 $251 forward @7 unknown T -0.49999999999999878 -2.9580398915498476 0.25124999999996028 -0.49999999999999867 -2.9580398915498471 0.31249999999998745 #
-212 loop $-1 -1 -1 $-1 $252 $253 $150 T -5.0367117988688799 0.81818022940966406 0.31249999999998745 -4.7567117988688805 1.0981802294096639 0.31249999999998745 hole $151 T #
-213 coedge $-1 -1 -1 $-1 $213 $213 $254 $255 reversed $181 $-1 #
-214 coedge $-1 -1 -1 $-1 $214 $214 $182 $215 forward $256 $-1 #
-215 edge $-1 -1 -1 $-1 $257 -2.2443238853342464 $257 4.038861421845354 $214 $258 forward @7 unknown T -3.4941666666666502 -2.2352782565144502 0.31249999999998745 -3.21416666666665 -1.9552782565144502 0.31249999999998745 #
-216 loop $-1 -1 -1 $-1 $259 $260 $39 T -5.500000000000032 -3.0000000000000386 0.25124999999980513 3.0000000000000466 3.000000000000044 0.25125000000018244 periphery $66 F #
-217 coedge $-1 -1 -1 $-1 $217 $217 $226 $261 reversed $184 $-1 #
-218 coedge $-1 -1 -1 $-1 $218 $218 $185 $219 forward $262 $-1 #
-219 edge $-1 -1 -1 $-1 $263 0.50607947931967368 $263 6.7892647864992597 $218 $264 forward @7 unknown T -3.4941666666666533 -2.2352782565144529 0.2512500000000808 -3.2141666666666491 -1.9552782565144489 0.25125000000009323 #
-220 point $-1 -1 -1 $-1 -0.46083333333318321 2.7263267667117619 0.25124999999995901 #
-221 face $265 -1 -1 $-1 $266 $262 $5 $-1 $267 forward single T -3.4941666666666533 -2.2352782565144529 0.2512500000000808 -3.2141666666666491 -1.9552782565144489 0.31249999999998745 F #
-222 cface_ptr-ct-attrib $-1 -1 $-1 $-1 $189 1 1 1 1 1 1 1 1 1 1 1 1 0 1 0 1 1 1 $-1 $156 #
-223 loop $-1 -1 -1 $-1 $268 $269 $189 T -5.036711798868879 -1.0981802294096799 0.25125000000014941 -4.7567117988688832 -0.81818022940968427 0.25125000000016184 u_sep $224 F #
-224 cone-surface $-1 -1 -1 $-1 -4.8967117988688802 -0.95818022940968195 0.31249999999998745 0 0 -1 0.14000000000000026 6.3359513498662195e-017 0 1 I I 0 -1 0.14000000000000026 forward I I I I #
-225 loop $-1 -1 -1 $-1 $-1 $270 $157 T -5.0367117988688799 0.81818022940966406 0.31249999999998745 -4.7567117988688805 1.0981802294096639 0.31249999999998745 u_sep $192 F #
-226 coedge $-1 -1 -1 $-1 $226 $226 $217 $261 forward $191 $-1 #
-227 coedge $-1 -1 -1 $-1 $227 $227 $271 $272 forward $193 $-1 #
-228 coedge $-1 -1 -1 $-1 $228 $228 $194 $229 reversed $259 $-1 #
-229 edge $-1 -1 -1 $-1 $273 2.3006170158309831 $273 8.5838023230105698 $194 $274 forward @7 unknown T -3.4941666666667999 1.9552782565144216 0.25125000000008119 -3.2141666666668023 2.2352782565144196 0.25125000000009362 #
-230 coedge $-1 -1 -1 $-1 $230 $230 $195 $231 reversed $275 $-1 #
-231 edge $-1 -1 -1 $-1 $276 1.7382444060152571 $276 8.0214297131948573 $195 $277 forward @7 unknown T -0.57749999999975732 2.44828490510612 0.31249999999998745 -0.29749999999975685 2.7282849051061202 0.31249999999998745 #
-232 loop $-1 -1 -1 $-1 $200 $196 $150 T 2.05655592409716 1.2972776601317004 0.31249999999998745 2.3365559240971603 1.5772776601317002 0.31249999999998745 hole $151 T #
-233 vertex $-1 -1 -1 $-1 $197 $278 #
-234 ellipse-curve $-1 -1 -1 $-1 2.1965559240971602 1.4372776601317003 0.31249999999998745 0 0 1 0.1399999999999999 6.3359513498662035e-017 0 1 I I #
-235 point $-1 -1 -1 $-1 2.3358591059123088 1.4512284140961573 0.25124999999983472 #
-236 point $-1 -1 -1 $-1 2.3113460864217599 -1.3571326750516182 0.31249999999998745 #
-237 coedge $-1 -1 -1 $-1 $245 $279 $280 $281 reversed $204 $-1 #
-238 cface $-1 -1 $-1 $8 $266 0 #
-239 face $282 -1 -1 $-1 $150 $283 $5 $-1 $284 forward single T -5.5000000000000338 -2.4650332429582198 0.25125000000008973 -3.4166666666666696 2.4650332429582003 0.31249999999998812 F #
-240 coedge $-1 -1 -1 $-1 $210 $207 $285 $286 forward $176 $-1 #
-241 coedge $-1 -1 -1 $-1 $207 $210 $260 $287 forward $176 $-1 #
-242 coedge $-1 -1 -1 $-1 $288 $289 $207 $243 reversed $290 $-1 #
-243 edge $-1 -1 -1 $-1 $291 0.038749999999974222 $292 0.10000000000000089 $207 $293 forward @7 unknown T -0.5000000000000141 2.9580398915498498 0.25124999999996078 -0.50000000000001399 2.9580398915498503 0.31249999999998745 #
-244 coedge $-1 -1 -1 $-1 $209 $208 $294 $295 reversed $139 $-1 #
-245 coedge $-1 -1 -1 $-1 $285 $237 $208 $246 reversed $204 $-1 #
-246 edge $-1 -1 -1 $-1 $250 -2.9580398915498116 $296 0 $208 $297 forward @7 unknown T -3.4166666666666701 -2.9580398915498471 0.31249999999998651 -0.49999999999999822 -2.4650332429582198 0.31249999999998745 #
-247 coedge $-1 -1 -1 $-1 $298 $260 $209 $248 reversed $216 $-1 #
-248 edge $-1 -1 -1 $-1 $299 -2.9580398915498129 $249 5.4734733255969235e-017 $209 $300 forward @7 unknown T -3.4166666666666718 -2.9580398915498476 0.25124999999996023 -0.49999999999999878 -2.4650332429582109 0.25125000000008979 #
-249 vertex $-1 -1 -1 $-1 $211 $301 #
-250 vertex $-1 -1 -1 $-1 $211 $302 #
-251 straight-curve $-1 -1 -1 $-1 -0.49999999999999867 -2.9580398915498471 0.21249999999998656 0 0 1 I I #
-252 loop $-1 -1 -1 $-1 $275 $271 $150 T -3.4941666666668003 1.95527825651442 0.31249999999998745 -3.2141666666668001 2.23527825651442 0.31249999999998745 hole $151 T #
-253 coedge $-1 -1 -1 $-1 $253 $253 $270 $303 reversed $212 $-1 #
-254 coedge $-1 -1 -1 $-1 $254 $254 $213 $255 forward $268 $-1 #
-255 edge $-1 -1 -1 $-1 $304 -3.0880581446785791 $304 3.1951271625010214 $254 $305 forward @7 unknown T -5.0367117988688808 -1.0981802294096823 0.31249999999998745 -4.7567117988688796 -0.81818022940968171 0.31249999999998745 #
-256 loop $-1 -1 -1 $-1 $-1 $214 $221 T -3.4941666666666502 -2.2352782565144502 0.31249999999998745 -3.21416666666665 -1.9552782565144502 0.31249999999998745 u_sep $267 F #
-257 vertex $-1 -1 -1 $-1 $215 $306 #
-258 ellipse-curve $-1 -1 -1 $-1 -3.3541666666666501 -2.0952782565144501 0.31249999999998745 0 0 1 0.13999999999999999 6.3359513498662072e-017 0 1 I I #
-259 loop $-1 -1 -1 $-1 $307 $228 $39 T -3.4941666666667999 1.9552782565144216 0.25125000000008119 -3.2141666666668023 2.2352782565144196 0.25125000000009362 hole $66 F #
-260 coedge $-1 -1 -1 $-1 $247 $308 $241 $287 reversed $216 $-1 #
-261 edge $-1 -1 -1 $-1 $309 1.551385809644195 $309 7.8345711168237813 $226 $310 forward @7 unknown T -5.0367117988688808 0.81818022940966428 0.25125000000014958 -4.7567117988688814 1.0981802294096645 0.25125000000016201 #
-262 loop $-1 -1 -1 $-1 $256 $218 $221 T -3.4941666666666533 -2.2352782565144529 0.2512500000000808 -3.2141666666666491 -1.9552782565144489 0.25125000000009323 u_sep $267 F #
-263 vertex $-1 -1 -1 $-1 $219 $311 #
-264 ellipse-curve $-1 -1 -1 $-1 -3.3541666666666514 -2.095278256514451 0.25125000000008701 -4.439440826573019e-014 8.5858405106833529e-017 -1.0000000000000002 -0.023333333333333303 -0.13804186160565979 1.0240174721249291e-015 1 I I #
-265 cface_ptr-ct-attrib $-1 -1 $-1 $-1 $221 1 1 1 1 1 1 1 1 1 1 1 1 0 1 0 1 1 1 $-1 $188 #
-266 face $312 -1 -1 $-1 $239 $290 $5 $-1 $313 forward single T -3.4166666666666803 2.4650332429581994 0.25124999999996073 -0.50000000000001399 2.9580398915498511 0.31249999999998751 F #
-267 cone-surface $-1 -1 -1 $-1 -3.3541666666666501 -2.0952782565144501 0.31249999999998745 0 0 -1 0.13999999999999999 6.3359513498662072e-017 0 1 I I 0 -1 0.13999999999999999 forward I I I I #
-268 loop $-1 -1 -1 $-1 $-1 $254 $189 T -5.0367117988688808 -1.0981802294096823 0.31249999999998745 -4.7567117988688796 -0.81818022940968171 0.31249999999998745 u_sep $224 F #
-269 coedge $-1 -1 -1 $-1 $269 $269 $314 $315 forward $223 $-1 #
-270 coedge $-1 -1 -1 $-1 $270 $270 $253 $303 forward $225 $-1 #
-271 coedge $-1 -1 -1 $-1 $271 $271 $227 $272 reversed $252 $-1 #
-272 edge $-1 -1 -1 $-1 $316 2.2443238853340071 $316 8.5275091925136071 $227 $317 forward @7 unknown T -3.4941666666668003 1.95527825651442 0.31249999999998745 -3.2141666666668001 2.23527825651442 0.31249999999998745 #
-273 vertex $-1 -1 -1 $-1 $229 $318 #
-274 ellipse-curve $-1 -1 -1 $-1 -3.3541666666668011 2.0952782565144208 0.2512500000000874 -4.439440826573019e-014 8.5858405106833529e-017 -1.0000000000000002 -0.023333333333332814 -0.1380418616056569 1.0240174721249076e-015 1 I I #
-275 loop $-1 -1 -1 $-1 $232 $230 $150 T -0.57749999999975732 2.44828490510612 0.31249999999998745 -0.29749999999975685 2.7282849051061202 0.31249999999998745 hole $151 T #
-276 vertex $-1 -1 -1 $-1 $231 $319 #
-277 ellipse-curve $-1 -1 -1 $-1 -0.43749999999975708 2.5882849051061201 0.31249999999998745 0 0 1 0.14000000000000021 6.335951349866217e-017 0 1 I I #
-278 point $-1 -1 -1 $-1 2.3358591059123044 1.4512284140961584 0.31249999999998745 #
-279 coedge $-1 -1 -1 $-1 $237 $285 $289 $320 reversed $204 $-1 #
-280 coedge $-1 -1 -1 $-1 $321 $294 $237 $281 forward $283 $-1 #
-281 edge $-1 -1 -1 $-1 $296 -4.544940901164999 $322 -1.7382444060145903 $280 $323 forward @7 unknown T -5.5000000000000338 -2.4650332429582198 0.31249999999998745 -3.4166666666666701 2.4650332429581994 0.31249999999998812 #
-282 cface_ptr-ct-attrib $-1 -1 $-1 $-1 $239 1 1 1 1 1 1 1 1 1 1 1 1 0 1 0 1 1 1 $-1 $206 #
-283 loop $-1 -1 -1 $-1 $-1 $294 $239 T -5.5000000000000338 -2.4650332429582198 0.25125000000008973 -3.4166666666666696 2.4650332429582003 0.31249999999998812 unknown #
-284 cone-surface $-1 -1 -1 $-1 -3 -7.62621370675905e-015 0 0 0 1 -0.41666666666667801 2.46503324295821 0 1 I I 0 1 2.5000000000000382 forward I I I I #
-285 coedge $-1 -1 -1 $-1 $279 $245 $240 $286 reversed $204 $-1 #
-286 edge $-1 -1 -1 $-1 $292 -1.7382444060145894 $250 1.7382444060145852 $240 $324 forward @7 unknown T -0.50000000000001432 -3.0000000000000391 0.3124999999999854 3.0000000000000462 3.0000000000000444 0.31249999999998745 #
-287 edge $-1 -1 -1 $-1 $249 -1.4309541206279394e-015 $291 3.476488812029173 $241 $325 forward @7 unknown T -0.5000000000000141 -3.0000000000000386 0.25124999999980513 3.0000000000000466 3.000000000000044 0.25124999999996078 #
-288 coedge $-1 -1 -1 $-1 $326 $242 $308 $327 forward $290 $-1 #
-289 coedge $-1 -1 -1 $-1 $242 $326 $279 $320 forward $290 $-1 #
-290 loop $-1 -1 -1 $-1 $-1 $326 $266 T -3.4166666666666803 2.4650332429581994 0.25124999999996073 -0.50000000000001399 2.9580398915498511 0.31249999999998751 unknown #
-291 vertex $-1 -1 -1 $-1 $243 $328 #
-292 vertex $-1 -1 -1 $-1 $243 $329 #
-293 straight-curve $-1 -1 -1 $-1 -0.50000000000001399 2.9580398915498503 0.21249999999998656 0 0 1 I I #
-294 coedge $-1 -1 -1 $-1 $280 $330 $244 $295 forward $283 $-1 #
-295 edge $-1 -1 -1 $-1 $299 0.038750000000102314 $296 0.099999999999999978 $294 $331 forward @7 unknown T -3.4166666666666701 -2.4650332429582198 0.25125000000008979 -3.4166666666666696 -2.4650332429582109 0.31249999999998745 #
-296 vertex $-1 -1 -1 $-1 $295 $332 #
-297 straight-curve $-1 -1 -1 $-1 -3.4166666666666701 -2.4650332429582198 0.31249999999998745 -0.98601329718326991 0.16666666666666399 3.1132256077985535e-016 I I #
-298 coedge $-1 -1 -1 $-1 $308 $247 $330 $333 reversed $216 $-1 #
-299 vertex $-1 -1 -1 $-1 $295 $334 #
-300 straight-curve $-1 -1 -1 $-1 -0.49999999999999883 -2.9580398915498476 0.25124999999996023 0.98601329718326991 -0.16666666666666388 -4.3787786604777294e-014 I I #
-301 point $-1 -1 -1 $-1 -0.49999999999999878 -2.9580398915498476 0.25124999999996028 #
-302 point $-1 -1 -1 $-1 -0.49999999999999867 -2.9580398915498471 0.31249999999998745 #
-303 edge $-1 -1 -1 $-1 $335 2.993555091520804 $335 9.2767403987004045 $270 $336 forward @7 unknown T -5.0367117988688799 0.81818022940966406 0.31249999999998745 -4.7567117988688805 1.0981802294096639 0.31249999999998745 #
-304 vertex $-1 -1 -1 $-1 $255 $337 #
-305 ellipse-curve $-1 -1 -1 $-1 -4.8967117988688802 -0.95818022940968195 0.31249999999998745 0 0 1 0.14000000000000026 6.3359513498662195e-017 0 1 I I #
-306 point $-1 -1 -1 $-1 -3.4414912598889291 -2.2047059286022885 0.31249999999998745 #
-307 loop $-1 -1 -1 $-1 $133 $314 $39 T -5.036711798868879 -1.0981802294096799 0.25125000000014941 -4.7567117988688832 -0.81818022940968427 0.25125000000016184 hole $66 F #
-308 coedge $-1 -1 -1 $-1 $260 $298 $288 $327 reversed $216 $-1 #
-309 vertex $-1 -1 -1 $-1 $261 $338 #
-310 ellipse-curve $-1 -1 -1 $-1 -4.8967117988688811 0.9581802294096643 0.25125000000015579 -4.439440826573019e-014 8.5858405106833529e-017 -1.0000000000000002 -0.023333333333332974 -0.13804186160565785 1.0240174721249147e-015 1 I I #
-311 point $-1 -1 -1 $-1 -3.4414912598889327 -2.2047059286022899 0.2512500000000909 #
-312 cface_ptr-ct-attrib $-1 -1 $-1 $-1 $266 1 1 1 1 1 1 1 1 1 1 1 1 0 1 0 1 1 1 $-1 $238 #
-313 plane-surface $-1 -1 -1 $-1 -3.4166666666666798 2.4650332429581998 0 -0.16666666666667093 0.98601329718326858 0 0 0 1 forward_v I I I I #
-314 coedge $-1 -1 -1 $-1 $314 $314 $269 $315 reversed $307 $-1 #
-315 edge $-1 -1 -1 $-1 $339 1.3498137386640143 $339 7.6329990458436008 $269 $340 forward @7 unknown T -5.036711798868879 -1.0981802294096799 0.25125000000014941 -4.7567117988688832 -0.81818022940968427 0.25125000000016184 #
-316 vertex $-1 -1 -1 $-1 $272 $341 #
-317 ellipse-curve $-1 -1 -1 $-1 -3.3541666666668002 2.0952782565144199 0.31249999999998745 0 0 1 0.13999999999999996 6.3359513498662059e-017 0 1 I I #
-318 point $-1 -1 -1 $-1 -3.4414912598890548 2.2047059286022783 0.25125000000009129 #
-319 point $-1 -1 -1 $-1 -0.4608333333331831 2.7263267667117623 0.31249999999998745 #
-320 edge $-1 -1 -1 $-1 $322 -2.9580398915498103 $292 -2.7650998005044776e-031 $289 $342 forward @7 unknown T -3.4166666666666803 2.4650332429581994 0.31249999999998657 -0.50000000000001399 2.9580398915498503 0.31249999999998751 #
-321 coedge $-1 -1 -1 $-1 $330 $280 $326 $343 reversed $283 $-1 #
-322 vertex $-1 -1 -1 $-1 $343 $344 #
-323 ellipse-curve $-1 -1 -1 $-1 -2.9999999999999956 -9.2760204357077158e-015 0.31249999999998734 -3.157387042032862e-016 -1.4289321922155847e-031 -1 2.5000000000000377 1.1314198839046972e-015 -7.8934676050822737e-016 1 F -4.544940901164999 F -1.7382444060145901 #
-324 ellipse-curve $-1 -1 -1 $-1 4.2188474935755949e-015 2.7398246296500214e-015 0.31249999999998634 -3.157387042032862e-016 -1.4289321922155847e-031 -1 3.0000000000000417 1.357703860685635e-015 -9.4721611260987171e-016 1 F -1.7382444060145894 F 1.7382444060145852 #
-325 ellipse-curve $-1 -1 -1 $-1 4.6074255521943996e-015 2.8588242884097781e-015 0.2512499999999383 4.439440826573019e-014 -8.5858405106833529e-017 1.0000000000000002 -0.49999999999999895 -2.9580398915498503 2.1943231545534179e-014 1 I I #
-326 coedge $-1 -1 -1 $-1 $289 $288 $321 $343 forward $290 $-1 #
-327 edge $-1 -1 -1 $-1 $291 -2.9580398915498098 $345 -4.378778660477701e-016 $288 $346 forward @7 unknown T -3.4166666666666803 2.4650332429581998 0.25124999999996073 -0.5000000000000141 2.9580398915498511 0.25125000000009023 #
-328 point $-1 -1 -1 $-1 -0.5000000000000141 2.9580398915498498 0.25124999999996078 #
-329 point $-1 -1 -1 $-1 -0.50000000000001399 2.9580398915498503 0.31249999999998745 #
-330 coedge $-1 -1 -1 $-1 $294 $321 $298 $333 forward $283 $-1 #
-331 straight-curve $-1 -1 -1 $-1 -3.4166666666666701 -2.4650332429582198 0.21249999999998748 0 0 1 I I #
-332 point $-1 -1 -1 $-1 -3.4166666666666701 -2.4650332429582198 0.31249999999998745 #
-333 edge $-1 -1 -1 $-1 $345 -2.8066964951504132 $299 -2.5579538487362923e-015 $330 $347 forward @7 unknown T -5.500000000000032 -2.4650332429582109 0.25125000000008973 -3.4166666666666696 2.4650332429582003 0.25125000000018244 #
-334 point $-1 -1 -1 $-1 -3.4166666666666696 -2.4650332429582109 0.25125000000008979 #
-335 vertex $-1 -1 -1 $-1 $303 $348 #
-336 ellipse-curve $-1 -1 -1 $-1 -4.8967117988688802 0.95818022940966396 0.31249999999998745 0 0 1 0.1399999999999999 6.3359513498662035e-017 0 1 I I #
-337 point $-1 -1 -1 $-1 -5.0365112307220565 -0.96567148120955204 0.31249999999998745 #
-338 point $-1 -1 -1 $-1 -5.0351805400277154 0.97882987158302748 0.25125000000016195 #
-339 vertex $-1 -1 -1 $-1 $315 $349 #
-340 ellipse-curve $-1 -1 -1 $-1 -4.8967117988688811 -0.95818022940968206 0.25125000000015563 -4.439440826573019e-014 8.5858405106833529e-017 -1.0000000000000002 -0.023333333333332592 -0.1380418616056556 1.0240174721248979e-015 1 I I #
-341 point $-1 -1 -1 $-1 -3.441491259889053 2.2047059286022792 0.31249999999998745 #
-342 straight-curve $-1 -1 -1 $-1 -0.50000000000001399 2.9580398915498503 0.31249999999998657 0.98601329718326847 0.16666666666667204 -3.1132256077985495e-016 I I #
-343 edge $-1 -1 -1 $-1 $345 0.038750000000102758 $322 0.099999999999999978 $326 $350 forward @7 unknown T -3.4166666666666803 2.4650332429581994 0.25125000000009023 -3.4166666666666798 2.4650332429581998 0.31249999999998745 #
-344 point $-1 -1 -1 $-1 -3.4166666666666798 2.4650332429581994 0.31249999999998745 #
-345 vertex $-1 -1 -1 $-1 $343 $351 #
-346 straight-curve $-1 -1 -1 $-1 -3.4166666666666807 2.4650332429581998 0.25125000000009018 -0.9860132971832688 -0.16666666666667218 4.37591671364083e-014 I I #
-347 ellipse-curve $-1 -1 -1 $-1 -2.9999999999999978 -4.496403249731884e-015 0.25125000000007147 4.439440826573019e-014 -8.5858405106833529e-017 1.0000000000000002 -0.41666666666666552 -2.4650332429582074 1.8286026287945138e-014 1 I I #
-348 point $-1 -1 -1 $-1 -5.0351805400277136 0.97882987158302748 0.31249999999998745 #
-349 point $-1 -1 -1 $-1 -5.0365112307220556 -0.96567148120954938 0.25125000000016184 #
-350 straight-curve $-1 -1 -1 $-1 -3.4166666666666798 2.4650332429581994 0.21249999999998748 0 0 1 I I #
-351 point $-1 -1 -1 $-1 -3.4166666666666803 2.4650332429581998 0.25125000000009023 #
End-of-ACIS-data 
