1900 0 1 0           
33 Abaqus, Inc. - Abaqus 6.9-1 - 190 12 ACIS 19.0 NT 24 Thu Aug 06 12:19:49 2009 
1 9.9999999999999995e-007 1e-010 
-0 body $1 -1 -1 $-1 $2 $-1 $3 T -4.541067761628919 24.677088999951948 -27.037318699855682 -2.3976214484340339 24.677089000000002 -23.6488074650361 #
-1 string_attrib-name_attrib-gen-attrib $-1 -1 $4 $-1 $0 2 1 1 1 1 1 1 1 1 1 1 1 1 1 0 1 1 1 @13 HKS_PART_NAME @5 crack #
-2 lump $5 -1 -1 $-1 $-1 $6 $0 T -4.541067761628919 24.677088999951948 -27.037318699855682 -2.3976214484340339 24.677089000000002 -23.6488074650361 #
-3 transform $-1 -1 1 0 0 0 1 0 0 0 1 0 0 0 1 no_rotate no_reflect no_shear #
-4 string_attrib-name_attrib-gen-attrib $-1 -1 $7 $1 $0 2 1 1 1 1 1 1 1 1 1 1 1 1 1 0 1 1 1 @13 HKS_PART_NAME @22 Bettis_pressure_vessel #
-5 cell_ptr-ct-attrib $-1 -1 $-1 $-1 $2 1 1 1 1 1 1 1 1 1 1 1 1 0 1 0 1 1 1 $8 $-1 auto #
-6 shell $-1 -1 -1 $-1 $-1 $-1 $9 $-1 $2 T -4.541067761628919 24.677088999951948 -27.037318699855682 -2.3976214484340339 24.677089000000002 -23.6488074650361 #
-7 string_attrib-name_attrib-gen-attrib $-1 -1 $-1 $4 $0 2 1 1 1 1 1 1 1 1 1 1 1 1 1 0 1 1 1 @13 HKS_PART_NAME @22 Bettis_pressure_vessel #
-8 cell2d-cell $-1 -1 $-1 $2 $-1 1 $10 #
-9 face $11 -1 -1 $-1 $-1 $12 $6 $-1 $13 reversed double out T -4.541067761628919 24.677088999951948 -27.037318699855682 -2.3976214484340339 24.677089000000002 -23.6488074650361 F #
-10 cface $-1 -1 $14 $8 $9 1 #
-11 cface_ptr-ct-attrib $-1 -1 $-1 $-1 $9 1 1 1 1 1 1 1 1 1 1 1 1 0 1 0 1 1 1 $10 $14 #
-12 loop $-1 -1 -1 $-1 $-1 $15 $9 T -4.541067761628919 24.677088999951948 -27.037318699855682 -2.3976214484340339 24.677089000000002 -23.6488074650361 periphery $13 T #
-13 plane-surface $-1 -1 -1 $-1 24.677088999999995 24.677089000000002 3.0220718056124352e-015 -6.123233995736766e-017 1 -7.498798913309288e-033 -1.2246467991473532e-016 0 1 forward_v I I I I #
-14 cface $-1 -1 $-1 $8 $9 0 #
-15 coedge $-1 -1 -1 $-1 $16 $17 $-1 $18 reversed $12 $-1 #
-16 coedge $-1 -1 -1 $-1 $19 $15 $-1 $20 forward $12 $-1 #
-17 coedge $-1 -1 -1 $-1 $15 $21 $-1 $22 forward $12 $-1 #
-18 edge $-1 -1 -1 $-1 $23 0 $24 0.27647646893761307 $15 $25 forward @7 unknown T -3.7721035302095629 24.677089000000002 -26.884044960625456 -3.5000000000000111 24.677089000000002 -26.835066325245215 #
-19 coedge $-1 -1 -1 $-1 $26 $16 $-1 $27 forward $12 $-1 #
-20 edge $-1 -1 -1 $-1 $23 -12.774852099339125 $28 -11.909646650590899 $16 $29 forward @7 unknown T -3.5000000000000124 24.677088999999999 -27.037318699855678 -2.648479225499468 24.677088999999999 -26.884044960625452 #
-21 coedge $-1 -1 -1 $-1 $17 $30 $-1 $31 forward $12 $-1 #
-22 edge $-1 -1 -1 $-1 $32 0 $24 1.9456515177010365 $17 $33 forward @7 unknown T -4.541067761628919 24.677089000000002 -26.835066325245215 -3.7269033838681014 24.677089000000002 -25.228154239256906 #
-23 vertex $-1 -1 -1 $-1 $20 $34 #
-24 vertex $-1 -1 -1 $-1 $18 $35 #
-25 straight-curve $-1 -1 -1 $-1 -3.5000000000000111 24.677089000000002 -26.884044960625456 -0.98418332400994257 -6.0263847876148924e-017 0.17715299811389235 I I #
-26 coedge $-1 -1 -1 $-1 $30 $19 $-1 $36 forward $12 $-1 #
-27 edge $-1 -1 -1 $-1 $28 -4.5039459219952667 $37 -0.56027367994436683 $19 $38 forward @7 unknown T -3.678372349808793 24.677088999999995 -27.037318699855682 -2.3976214484340339 24.677088999999999 -23.752921803616839 #
-28 vertex $-1 -1 -1 $-1 $27 $39 #
-29 straight-curve $-1 -1 -1 $-1 9.0727964028629611 24.677088999999999 -29.147148310484916 0.98418332400994268 6.0263847876148936e-017 -0.17715299811389093 I I #
-30 coedge $-1 -1 -1 $-1 $21 $26 $-1 $40 forward $12 $-1 #
-31 edge $-1 -1 -1 $-1 $41 0 $32 0.23182087528760897 $21 $42 forward @7 unknown T -4.541067761628919 24.677089000000002 -25.228154239256906 -4.4999999985463326 24.677089000000002 -24.999999999641453 #
-32 vertex $-1 -1 -1 $-1 $22 $43 #
-33 intcurve-curve $-1 -1 -1 $-1 forward { exactcur full nubs 3 open 5 
	0 3 0.44946171424377479 1 0.98686286794555089 1 1.5428361137047331 1 1.9456515177010365 3 
	-4.541067761628919 24.677089000000002 -25.228154239256906 
	-4.4016085751049001 24.677089000000002 -25.289097442807478 
	-4.095404312510464 24.677089000000002 -25.422907693451172 
	-3.7982559197040167 24.677089000000002 -25.880309338923638 
	-3.7269033838681014 24.677089000000002 -26.382908832827749 
	-3.7587315700137491 24.677089000000002 -26.701300563843258 
	-3.7721035302095629 24.677089000000002 -26.835066325245215 
	0 
	null_surface 
	null_surface 
	nullbs 
	nullbs 
	-1 
	-1 
	I I 
	0 
	0 
	3 0.44946171424377479 0.98686286794555089 1.5428361137047331 
	
	-1 
	none F F 1 F 0 } I I #
-34 point $-1 -1 -1 $-1 -3.5000000000000107 24.677088999999999 -26.884044960625452 #
-35 point $-1 -1 -1 $-1 -3.7721035302095629 24.677089000000002 -26.835066325245215 #
-36 edge $-1 -1 -1 $-1 $37 11.827591046213298 $44 12.415299635338062 $26 $45 forward @7 unknown T -4.256785342602794 24.677088999999999 -23.752921803616839 -3.6783723498087904 24.677089000000002 -23.6488074650361 #
-37 vertex $-1 -1 -1 $-1 $36 $46 #
-38 intcurve-curve $-1 -1 -1 $-1 reversed { exactcur full nubs 3 open 5 
	0 3 1.5427032905208868 1 2.0306069695396047 1 2.91018783563436 1 4.5039459219952667 3 
	-4.2567853426027931 24.677088999999999 -23.6488074650361 
	-3.7187863250739106 24.677088999999999 -23.732510636658276 
	-3.010636831057635 24.677088999999999 -23.842686225647373 
	-2.3976214484340339 24.677088999999999 -24.670159716880399 
	-2.5578207575347491 24.677088999999999 -25.70686636720519 
	-2.61295323115095 24.677088999999999 -26.515959326464277 
	-2.648479225499468 24.677088999999999 -27.037318699855682 
	0 
	null_surface 
	null_surface 
	nullbs 
	nullbs 
	-1 
	-1 
	I I 
	0 
	0 
	3 1.5427032905208868 2.0306069695396047 2.91018783563436 
	
	-1 
	none F F 1 F 0 } F -4.5039459219952667 F -0 #
-39 point $-1 -1 -1 $-1 -2.648479225499468 24.677088999999999 -27.037318699855678 #
-40 edge $-1 -1 -1 $-1 $44 1.0328418976920035 $41 2.405749263262956 $30 $47 forward @7 unknown T -4.4999999985463326 24.677088999951948 -24.999999999641453 -4.2567853426027931 24.677089000000002 -23.6488074650361 #
-41 vertex $-1 -1 -1 $-1 $40 $48 #
-42 straight-curve $-1 -1 -1 $-1 -4.4999999985463326 24.677089000000002 -24.999999999641453 -0.17715299811389199 -1.0847492604976756e-017 -0.98418332400994335 I I #
-43 point $-1 -1 -1 $-1 -4.541067761628919 24.677089000000002 -25.228154239256906 #
-44 vertex $-1 -1 -1 $-1 $40 $49 #
-45 straight-curve $-1 -1 -1 $-1 7.9621455210836496 24.677088999999999 -25.848215017918537 -0.98418332400994268 -6.0263847876148936e-017 0.17715299811389093 I I #
-46 point $-1 -1 -1 $-1 -3.678372349808793 24.677088999999999 -23.752921803616839 #
-47 straight-curve $-1 -1 -1 $-1 -4.0738143038490158 24.677089000000002 -22.632301692988847 -0.17715299811388968 4.9414364990453552e-017 -0.98418332400994291 I I #
-48 point $-1 -1 -1 $-1 -4.4999999985463326 24.677088999951948 -24.999999999641453 #
-49 point $-1 -1 -1 $-1 -4.2567853426027931 24.677089000000002 -23.6488074650361 #
End-of-ACIS-data 
