1900 0 1 0           
37 Abaqus, Inc. - Abaqus 6.10-EFR - 2001 14 ACIS 20.0.1 NT 24 Fri Dec 04 13:28:17 2009 
1 9.9999999999999995e-007 1e-010 
-0 body $1 -1 -1 $-1 $2 $-1 $3 F #
-1 string_attrib-name_attrib-gen-attrib $-1 -1 $4 $-1 $0 2 1 1 1 1 1 1 1 1 1 1 1 1 1 0 1 1 1 @13 HKS_PART_NAME @9 Syringe-3 #
-2 lump $5 -1 -1 $-1 $-1 $6 $0 F #
-3 transform $-1 -1 1 0 0 0 1 0 0 0 1 0 0 0 1 no_rotate no_reflect no_shear #
-4 string_attrib-name_attrib-gen-attrib $-1 -1 $-1 $1 $0 2 1 1 1 1 1 1 1 1 1 1 1 1 1 0 1 1 1 @18 HKS_ATTRIB_BODY_ID @1 1 #
-5 cell_ptr-ct-attrib $-1 -1 $-1 $-1 $2 1 1 1 1 1 1 1 1 1 1 1 1 0 1 0 1 1 1 $7 $-1 auto #
-6 shell $-1 -1 -1 $-1 $-1 $-1 $8 $-1 $2 F #
-7 cell3d-cell $-1 -1 $-1 $2 $-1 1 $9 #
-8 face $10 -1 -1 $-1 $11 $12 $6 $-1 $13 reversed single T -3.5542093756560105 -4.049999999999998 79.892283834915446 4.049999999999998 1.941673431347019 82.316309412338256 F #
-9 cshell $-1 -1 $-1 $14 $7 #
-10 cface_ptr-ct-attrib $-1 -1 $-1 $-1 $8 1 1 1 1 1 1 1 1 1 1 1 1 0 1 0 1 1 1 $-1 $15 #
-11 face $16 -1 -1 $-1 $17 $18 $6 $-1 $19 reversed single T -4.049999999999998 -1.9416734313470185 79.892283834915446 3.5542093756560087 4.049999999999998 82.316309412338256 F #
-12 loop $-1 -1 -1 $-1 $-1 $20 $8 T -3.5542093756560105 -4.049999999999998 79.892283834915446 4.049999999999998 1.941673431347019 82.316309412338256 periphery $13 T #
-13 cone-surface $-1 -1 -1 $-1 0 0 81.717784578406693 0 0 -1 1 0 0 1 I I 0.85805084745762716 0.5135647409794093 1 reversed I I I I #
-14 cface $-1 -1 $21 $9 $22 0 #
-15 cface $-1 -1 $-1 $9 $8 0 #
-16 cface_ptr-ct-attrib $-1 -1 $-1 $-1 $11 1 1 1 1 1 1 1 1 1 1 1 1 0 1 0 1 1 1 $-1 $23 #
-17 face $24 -1 -1 $-1 $25 $26 $6 $-1 $27 reversed single T -3.5542093756560105 -4.0499999999999998 76.942283834915429 4.0499999999999998 1.9416734313470212 79.892283834915446 F #
-18 loop $-1 -1 -1 $-1 $-1 $28 $11 T -4.049999999999998 -1.9416734313470185 79.892283834915446 3.5542093756560087 4.049999999999998 82.316309412338256 periphery $19 T #
-19 cone-surface $-1 -1 -1 $-1 0 0 81.717784578406693 0 0 -1 1 0 0 1 I I 0.85805084745762716 0.5135647409794093 1 reversed I I I I #
-20 coedge $-1 -1 -1 $-1 $29 $30 $31 $32 reversed $12 $-1 #
-21 cface $-1 -1 $33 $9 $34 0 #
-22 face $35 -1 -1 $-1 $34 $36 $6 $-1 $37 forward single T -6.2795390612749511 -7.1554966267201046 80.566760899400634 7.1554966267201046 3.4305278242458481 83.316309412338256 F #
-23 cface $-1 -1 $15 $9 $11 0 #
-24 cface_ptr-ct-attrib $-1 -1 $-1 $-1 $17 1 1 1 1 1 1 1 1 1 1 1 1 0 1 0 1 1 1 $-1 $38 #
-25 face $39 -1 -1 $-1 $40 $41 $6 $-1 $42 reversed single T -4.0499999999999998 -1.9416734313470216 76.942283834915429 3.55420937565601 4.0499999999999998 79.892283834915446 F #
-26 loop $-1 -1 -1 $-1 $-1 $43 $17 T -3.5542093756560105 -4.0499999999999998 76.942283834915429 4.0499999999999998 1.9416734313470212 79.892283834915446 periphery $27 T #
-27 cone-surface $-1 -1 -1 $-1 0 0 78.791309413024493 0 0 1 4.0499999999999998 0 0 1 I I 0 1 1 reversed I I I I #
-28 coedge $-1 -1 -1 $-1 $31 $44 $29 $45 reversed $18 $-1 #
-29 coedge $-1 -1 -1 $-1 $30 $20 $28 $45 forward $12 $-1 #
-30 coedge $-1 -1 -1 $-1 $20 $29 $43 $46 reversed $12 $-1 #
-31 coedge $-1 -1 -1 $-1 $44 $28 $20 $32 forward $18 $-1 #
-32 edge $-1 -1 -1 $-1 $47 -2.3599999999999985 $48 2.3599999999999985 $20 $49 forward @7 unknown T -3.5542093756560105 -1.9416734313470163 79.892283834915446 0 0 82.316309412338256 #
-33 cface $-1 -1 $50 $9 $51 0 #
-34 face $52 -1 -1 $-1 $53 $54 $6 $-1 $55 forward single T -7.1554966267201046 -3.4305278242458543 80.566760899400634 6.2795390612749493 7.1554966267201046 83.316309412338256 F #
-35 cface_ptr-ct-attrib $-1 -1 $-1 $-1 $22 1 1 1 1 1 1 1 1 1 1 1 1 0 1 0 1 1 1 $-1 $14 #
-36 loop $-1 -1 -1 $-1 $-1 $56 $22 T -6.2795390612749511 -7.1554966267201046 80.566760899400634 7.1554966267201046 3.4305278242458481 83.316309412338256 periphery $37 F #
-37 cone-surface $-1 -1 -1 $-1 0 0 82.932052573662631 0 0 -1 1 0 0 1 I I 0.93345769821839175 0.35868750415483097 1 reversed I I I I #
-38 cface $-1 -1 $23 $9 $17 0 #
-39 cface_ptr-ct-attrib $-1 -1 $-1 $-1 $25 1 1 1 1 1 1 1 1 1 1 1 1 0 1 0 1 1 1 $-1 $57 #
-40 face $58 -1 -1 $-1 $59 $60 $6 $-1 $61 reversed single T -2.2378355328204504 -2.5499999999999998 75.266309412338259 2.5499999999999998 1.2225351234407151 76.942283834915443 F #
-41 loop $-1 -1 -1 $-1 $-1 $62 $25 T -4.0499999999999998 -1.9416734313470216 76.942283834915429 3.55420937565601 4.0499999999999998 79.892283834915446 periphery $42 T #
-42 cone-surface $-1 -1 -1 $-1 0 0 78.791309413024493 0 0 1 4.0499999999999998 0 0 1 I I 0 1 1 reversed I I I I #
-43 coedge $-1 -1 -1 $-1 $63 $64 $30 $46 forward $26 $-1 #
-44 coedge $-1 -1 -1 $-1 $28 $31 $62 $65 reversed $18 $-1 #
-45 edge $-1 -1 -1 $-1 $47 -2.3599999999999985 $66 2.3599999999999985 $29 $67 forward @7 unknown T 0 0 79.892283834915446 3.5542093756560087 1.941673431347019 82.316309412338256 #
-46 edge $-1 -1 -1 $-1 $48 -2.641592653589794 $66 0.49999999999999933 $30 $68 reversed @7 unknown T -3.5542093756560105 -4.049999999999998 79.892283834915446 4.049999999999998 1.941673431347019 79.892283834915446 #
-47 vertex $-1 -1 -1 $-1 $32 $69 #
-48 vertex $-1 -1 -1 $-1 $32 $70 #
-49 straight-curve $-1 -1 -1 $-1 -1.7771046878280052 -0.97083671567350815 81.104296623626851 -0.75301046094407043 -0.41137148969216475 -0.5135647409794093 F -2.3599999999999985 F 2.3599999999999985 #
-50 cface $-1 -1 $71 $9 $72 0 #
-51 face $73 -1 -1 $-1 $72 $74 $6 $-1 $75 forward single T -6.512540191788454 -7.4209999999999949 79.766309412338231 7.4209999999999949 3.5578169219817868 80.566760899400649 F #
-52 cface_ptr-ct-attrib $-1 -1 $-1 $-1 $34 1 1 1 1 1 1 1 1 1 1 1 1 0 1 0 1 1 1 $-1 $21 #
-53 face $76 -1 -1 $-1 $77 $78 $6 $-1 $79 forward single T -4.0499999999999998 -4.0499999999999998 76.942283834915429 4.0499999999999998 4.0499999999999998 76.942283834915443 F #
-54 loop $-1 -1 -1 $-1 $-1 $80 $34 T -7.1554966267201046 -3.4305278242458543 80.566760899400634 6.2795390612749493 7.1554966267201046 83.316309412338256 periphery $55 F #
-55 cone-surface $-1 -1 -1 $-1 0 0 82.932052573662631 0 0 -1 1 0 0 1 I I 0.93345769821839175 0.35868750415483097 1 reversed I I I I #
-56 coedge $-1 -1 -1 $-1 $81 $82 $83 $84 forward $36 $-1 #
-57 cface $-1 -1 $38 $9 $25 0 #
-58 cface_ptr-ct-attrib $-1 -1 $-1 $-1 $40 1 1 1 1 1 1 1 1 1 1 1 1 0 1 0 1 1 1 $-1 $85 #
-59 face $86 -1 -1 $-1 $87 $88 $6 $-1 $89 reversed single T -2.5499999999999998 -1.2225351234407174 75.266309412338259 2.2378355328204518 2.5499999999999998 76.942283834915443 F #
-60 loop $-1 -1 -1 $-1 $-1 $90 $40 T -2.2378355328204504 -2.5499999999999998 75.266309412338259 2.5499999999999998 1.2225351234407151 76.942283834915443 periphery $61 T #
-61 cone-surface $-1 -1 -1 $-1 0 0 78.791309413024493 0 0 1 2.5499999999999998 0 0 1 I I 0 1 1 reversed I I I I #
-62 coedge $-1 -1 -1 $-1 $91 $92 $44 $65 forward $41 $-1 #
-63 coedge $-1 -1 -1 $-1 $93 $43 $92 $94 forward $26 $-1 #
-64 coedge $-1 -1 -1 $-1 $43 $93 $91 $95 reversed $26 $-1 #
-65 edge $-1 -1 -1 $-1 $66 -5.7831853071795871 $48 -2.641592653589794 $44 $96 reversed @7 unknown T -4.049999999999998 -1.9416734313470185 79.892283834915446 3.5542093756560087 4.049999999999998 79.892283834915446 #
-66 vertex $-1 -1 -1 $-1 $46 $97 #
-67 straight-curve $-1 -1 -1 $-1 1.7771046878280043 0.97083671567350949 81.104296623626851 0.75301046094407009 0.4113714896921653 -0.5135647409794093 F -2.3599999999999985 F 2.3599999999999985 #
-68 ellipse-curve $-1 -1 -1 $-1 0 0 79.892283834915446 0 0 -1 4.049999999999998 0 0 1 F -0.49999999999999933 F 2.641592653589794 #
-69 point $-1 -1 -1 $-1 0 0 82.316309412338256 #
-70 point $-1 -1 -1 $-1 -3.5542093756560105 -1.9416734313470163 79.892283834915446 #
-71 cface $-1 -1 $98 $9 $99 0 #
-72 face $100 -1 -1 $-1 $22 $101 $6 $-1 $102 forward single T -7.4209999999999949 -3.5578169219817846 79.766309412338231 6.5125401917884531 7.4209999999999949 80.566760899400649 F #
-73 cface_ptr-ct-attrib $-1 -1 $-1 $-1 $51 1 1 1 1 1 1 1 1 1 1 1 1 0 1 0 1 1 1 $-1 $33 #
-74 loop $-1 -1 -1 $-1 $-1 $103 $51 T -6.512540191788454 -7.1554966267201046 79.766309412338231 7.1554966267201046 3.5578169219817868 80.566760899400649 periphery $75 F #
-75 torus-surface $-1 -1 -1 $-1 0 0 80.180309412338232 0 0 1 7.0069999999999952 0.41399999999999992 1 0 0 forward_v I I I I #
-76 cface_ptr-ct-attrib $-1 -1 $-1 $-1 $53 1 1 1 1 1 1 1 1 1 1 1 1 0 1 0 1 1 1 $-1 $104 #
-77 face $105 -1 -1 $-1 $106 $107 $6 $-1 $108 reversed single T -7.5500000000000096 -7.5500000000000096 74.266309412338259 7.5500000000000096 7.5500000000000096 74.266309412338273 F #
-78 loop $-1 -1 -1 $-1 $109 $110 $53 T -4.0499999999999998 -4.0499999999999998 76.942283834915429 4.0499999999999998 4.0499999999999998 76.942283834915443 periphery $79 F #
-79 plane-surface $-1 -1 -1 $-1 -2.5499999999999972 0 76.942283834915443 0 0 1 1 0 0 forward_v I I I I #
-80 coedge $-1 -1 -1 $-1 $111 $112 $113 $114 forward $54 $-1 #
-81 coedge $-1 -1 -1 $-1 $82 $56 $112 $115 forward $36 $-1 #
-82 coedge $-1 -1 -1 $-1 $56 $81 $111 $116 reversed $36 $-1 #
-83 coedge $-1 -1 -1 $-1 $117 $118 $56 $84 reversed $74 $-1 #
-84 edge $-1 -1 -1 $-1 $119 -2.641592653589794 $120 0.49999999999999967 $83 $121 forward @7 unknown T -6.2795390612749511 -7.1554966267201046 80.566760899400649 7.1554966267201046 3.4305278242458419 80.566760899400649 #
-85 cface $-1 -1 $122 $9 $40 0 #
-86 cface_ptr-ct-attrib $-1 -1 $-1 $-1 $59 1 1 1 1 1 1 1 1 1 1 1 1 0 1 0 1 1 1 $-1 $122 #
-87 face $123 -1 -1 $-1 $124 $125 $6 $-1 $126 reversed single T -3.1154180947108232 -3.5499999999999972 74.266309412338273 3.5499999999999972 1.7019606620449172 75.266309412338259 F #
-88 loop $-1 -1 -1 $-1 $-1 $127 $59 T -2.5499999999999998 -1.2225351234407174 75.266309412338259 2.2378355328204518 2.5499999999999998 76.942283834915443 periphery $89 T #
-89 cone-surface $-1 -1 -1 $-1 0 0 78.791309413024493 0 0 1 2.5499999999999998 0 0 1 I I 0 1 1 reversed I I I I #
-90 coedge $-1 -1 -1 $-1 $128 $129 $130 $131 forward $60 $-1 #
-91 coedge $-1 -1 -1 $-1 $132 $62 $64 $95 forward $41 $-1 #
-92 coedge $-1 -1 -1 $-1 $62 $132 $63 $94 reversed $41 $-1 #
-93 coedge $-1 -1 -1 $-1 $64 $63 $110 $133 reversed $26 $-1 #
-94 edge $-1 -1 -1 $-1 $66 -1.4749999999999941 $134 1.4750000000000225 $63 $135 reversed @7 unknown T 3.5542093756560087 1.941673431347019 76.942283834915429 3.55420937565601 1.9416734313470212 79.892283834915446 #
-95 edge $-1 -1 -1 $-1 $48 -1.4749999999999941 $136 1.4750000000000225 $64 $137 reversed @7 unknown T -3.5542093756560105 -1.9416734313470216 76.942283834915429 -3.5542093756560096 -1.9416734313470163 79.892283834915446 #
-96 ellipse-curve $-1 -1 -1 $-1 0 0 79.892283834915446 0 0 -1 4.049999999999998 0 0 1 F 2.641592653589794 F 5.7831853071795871 #
-97 point $-1 -1 -1 $-1 3.5542093756560087 1.941673431347019 79.892283834915446 #
-98 cface $-1 -1 $138 $9 $139 0 #
-99 face $140 -1 -1 $-1 $-1 $141 $6 $-1 $142 forward single T -7.0499999999999954 -7.0499999999999954 79.766309412338231 7.0499999999999954 7.0499999999999954 79.766309412338245 F #
-100 cface_ptr-ct-attrib $-1 -1 $-1 $-1 $72 1 1 1 1 1 1 1 1 1 1 1 1 0 1 0 1 1 1 $-1 $50 #
-101 loop $-1 -1 -1 $-1 $-1 $143 $72 T -7.1554966267201046 -3.5578169219817846 79.766309412338231 6.5125401917884531 7.1554966267201046 80.566760899400649 periphery $102 F #
-102 torus-surface $-1 -1 -1 $-1 0 0 80.180309412338232 0 0 1 7.0069999999999952 0.41399999999999992 1 0 0 forward_v I I I I #
-103 coedge $-1 -1 -1 $-1 $118 $117 $144 $145 forward $74 $-1 #
-104 cface $-1 -1 $57 $9 $53 0 #
-105 cface_ptr-ct-attrib $-1 -1 $-1 $-1 $77 1 1 1 1 1 1 1 1 1 1 1 1 0 1 0 1 1 1 $-1 $146 #
-106 face $147 -1 -1 $-1 $148 $149 $6 $-1 $150 forward single T -7.5500000000000096 -7.5500000000000096 75.266309412338245 7.5500000000000096 7.5500000000000096 75.266309412338259 F #
-107 loop $-1 -1 -1 $-1 $151 $152 $77 T -7.5500000000000096 -7.5500000000000096 74.266309412338259 7.5500000000000096 7.5500000000000096 74.266309412338259 periphery $108 T #
-108 plane-surface $-1 -1 -1 $-1 -7.5500000000000096 0 74.266309412338259 0 0 1 1 0 0 forward_v I I I I #
-109 loop $-1 -1 -1 $-1 $-1 $153 $53 T -2.5499999999999998 -2.5499999999999998 76.942283834915443 2.5499999999999998 2.5499999999999998 76.942283834915443 hole $79 F #
-110 coedge $-1 -1 -1 $-1 $154 $154 $93 $133 forward $78 $-1 #
-111 coedge $-1 -1 -1 $-1 $112 $80 $82 $116 forward $54 $-1 #
-112 coedge $-1 -1 -1 $-1 $80 $111 $81 $115 reversed $54 $-1 #
-113 coedge $-1 -1 -1 $-1 $155 $156 $80 $114 reversed $101 $-1 #
-114 edge $-1 -1 -1 $-1 $120 0.49999999999999967 $119 3.6415926535897922 $113 $157 forward @7 unknown T -7.1554966267201046 -3.4305278242458397 80.566760899400649 6.2795390612749493 7.1554966267201046 80.566760899400649 #
-115 edge $-1 -1 -1 $-1 $120 -3.8327910522229169 $158 3.8327910522229147 $81 $159 reversed @7 unknown T -8.8817841970012523e-016 -4.4408920985006262e-016 80.566760899400634 6.2795390612749493 3.4305278242458481 83.316309412338256 #
-116 edge $-1 -1 -1 $-1 $119 -3.8327910522229169 $158 3.8327910522229143 $82 $160 reversed @7 unknown T -6.2795390612749502 -3.4305278242458543 80.566760899400634 4.4408920985006262e-016 4.4408920985006262e-016 83.316309412338256 #
-117 coedge $-1 -1 -1 $-1 $103 $83 $156 $161 reversed $74 $-1 #
-118 coedge $-1 -1 -1 $-1 $83 $103 $155 $162 forward $74 $-1 #
-119 vertex $-1 -1 -1 $-1 $161 $163 #
-120 vertex $-1 -1 -1 $-1 $84 $164 #
-121 ellipse-curve $-1 -1 -1 $-1 0 0 80.566760899400649 0 0 1 7.1554966267201046 0 0 1 F -2.641592653589794 F 0.49999999999999967 #
-122 cface $-1 -1 $104 $9 $59 0 #
-123 cface_ptr-ct-attrib $-1 -1 $-1 $-1 $87 1 1 1 1 1 1 1 1 1 1 1 1 0 1 0 1 1 1 $-1 $165 #
-124 face $166 -1 -1 $-1 $167 $168 $6 $-1 $169 reversed single T -3.5499999999999972 -1.701960662044917 74.266309412338273 3.1154180947108214 3.5499999999999972 75.266309412338259 F #
-125 loop $-1 -1 -1 $-1 $-1 $170 $87 T -3.1154180947108232 -3.5499999999999972 74.266309412338273 3.5499999999999972 1.7019606620449172 75.266309412338259 periphery $126 T #
-126 cone-surface $-1 -1 -1 $-1 0 0 75.266309412338273 0 0 -1 2.5499999999999972 0 0 1 I I 0.70710678118654746 0.70710678118654746 1 reversed I I I I #
-127 coedge $-1 -1 -1 $-1 $171 $172 $153 $173 forward $88 $-1 #
-128 coedge $-1 -1 -1 $-1 $174 $90 $172 $175 forward $60 $-1 #
-129 coedge $-1 -1 -1 $-1 $90 $174 $171 $176 reversed $60 $-1 #
-130 coedge $-1 -1 -1 $-1 $153 $153 $90 $131 reversed $109 $-1 #
-131 edge $-1 -1 -1 $-1 $177 -2.6415926535897931 $178 0.49999999999999878 $90 $179 forward @7 unknown T -2.2378355328204504 -2.5499999999999998 76.942283834915443 2.5499999999999998 1.2225351234407151 76.942283834915443 #
-132 coedge $-1 -1 -1 $-1 $92 $91 $154 $180 reversed $41 $-1 #
-133 edge $-1 -1 -1 $-1 $136 -2.6415926535897931 $134 0.49999999999999967 $93 $181 forward @7 unknown T -3.5542093756560096 -4.0499999999999998 76.942283834915429 4.0499999999999998 1.9416734313470212 76.942283834915443 #
-134 vertex $-1 -1 -1 $-1 $133 $182 #
-135 straight-curve $-1 -1 -1 $-1 3.55420937565601 1.9416734313470212 78.417283834915452 0 0 0.99999999999999956 F -1.4750000000000225 F 1.4749999999999941 #
-136 vertex $-1 -1 -1 $-1 $95 $183 #
-137 straight-curve $-1 -1 -1 $-1 -3.5542093756560096 -1.9416734313470216 78.417283834915452 0 0 0.99999999999999956 F -1.4750000000000225 F 1.4749999999999941 #
-138 cface $-1 -1 $184 $9 $185 0 #
-139 face $186 -1 -1 $-1 $185 $187 $6 $-1 $188 forward single F F #
-140 cface_ptr-ct-attrib $-1 -1 $-1 $-1 $99 1 1 1 1 1 1 1 1 1 1 1 1 0 1 0 1 1 1 $-1 $71 #
-141 loop $-1 -1 -1 $-1 $189 $190 $99 T -7.0499999999999954 -7.0499999999999954 79.766309412338245 7.0499999999999954 7.0499999999999954 79.766309412338245 periphery $142 F #
-142 plane-surface $-1 -1 -1 $-1 -7.0499999999997911 0 79.766309412338245 0 0 1 1 0 0 forward_v I I I I #
-143 coedge $-1 -1 -1 $-1 $156 $155 $191 $192 forward $101 $-1 #
-144 coedge $-1 -1 -1 $-1 $191 $191 $103 $145 reversed $189 $-1 #
-145 edge $-1 -1 -1 $-1 $193 -2.6415926535897931 $194 0.49999999999999967 $103 $195 forward @7 unknown T -6.1492210111658396 -7.0069999999999961 79.766309412338231 7.0069999999999961 3.3593347489996472 79.766309412338231 #
-146 cface $-1 -1 $165 $9 $77 0 #
-147 cface_ptr-ct-attrib $-1 -1 $-1 $-1 $106 1 1 1 1 1 1 1 1 1 1 1 1 0 1 0 1 1 1 $-1 $196 #
-148 face $197 -1 -1 $-1 $198 $199 $6 $-1 $200 reversed single T -7.2999999999999723 -7.2999999999999723 76.766309412338245 7.2999999999999723 7.2999999999999723 76.766309412338245 F #
-149 loop $-1 -1 -1 $-1 $201 $202 $106 T -7.5500000000000096 -7.5500000000000096 75.266309412338259 7.5500000000000096 7.5500000000000096 75.266309412338259 periphery $150 F #
-150 plane-surface $-1 -1 -1 $-1 -7.049999999999967 0 75.266309412338245 0 0 1 1 0 0 forward_v I I I I #
-151 loop $-1 -1 -1 $-1 $-1 $203 $77 T -3.5499999999999972 -3.5499999999999972 74.266309412338273 3.5499999999999972 3.5499999999999972 74.266309412338273 hole $108 T #
-152 coedge $-1 -1 -1 $-1 $204 $204 $205 $206 reversed $107 $-1 #
-153 coedge $-1 -1 -1 $-1 $130 $130 $127 $173 reversed $109 $-1 #
-154 coedge $-1 -1 -1 $-1 $110 $110 $132 $180 forward $78 $-1 #
-155 coedge $-1 -1 -1 $-1 $143 $113 $118 $162 reversed $101 $-1 #
-156 coedge $-1 -1 -1 $-1 $113 $143 $117 $161 forward $101 $-1 #
-157 ellipse-curve $-1 -1 -1 $-1 0 0 80.566760899400649 0 0 1 7.1554966267201046 0 0 1 F 0.49999999999999967 F 3.6415926535897922 #
-158 vertex $-1 -1 -1 $-1 $116 $207 #
-159 straight-curve $-1 -1 -1 $-1 3.1397695306374684 1.7152639121229232 81.941535155869445 0.8191861982187858 0.44752345973259283 -0.35868750415483064 F -3.8327910522229147 F 3.8327910522229169 #
-160 straight-curve $-1 -1 -1 $-1 -3.1397695306374667 -1.7152639121229263 81.941535155869445 -0.81918619821878536 -0.44752345973259366 -0.35868750415483064 F -3.8327910522229143 F 3.8327910522229169 #
-161 edge $-1 -1 -1 $-1 $193 -1.5707963267948966 $119 1.2039348720591074 $117 $208 forward @7 unknown T -6.512540191788454 -3.5578169219817846 79.766309412338231 -6.1492210111658396 -3.3593347489996446 80.566760899400649 #
-162 edge $-1 -1 -1 $-1 $194 -1.5707963267948939 $120 1.2039348720591074 $118 $209 forward @7 unknown T 6.1492210111658396 3.3593347489996472 79.766309412338231 6.5125401917884531 3.5578169219817868 80.566760899400649 #
-163 point $-1 -1 -1 $-1 -6.2795390612749502 -3.4305278242458397 80.566760899400649 #
-164 point $-1 -1 -1 $-1 6.2795390612749493 3.4305278242458419 80.566760899400649 #
-165 cface $-1 -1 $210 $9 $87 0 #
-166 cface_ptr-ct-attrib $-1 -1 $-1 $-1 $124 1 1 1 1 1 1 1 1 1 1 1 1 0 1 0 1 1 1 $-1 $210 #
-167 face $211 -1 -1 $-1 $212 $213 $6 $-1 $214 forward single T -6.625748342272324 -7.5500000000000096 74.266309412338259 7.5500000000000096 3.6196628164617297 75.266309412338259 F #
-168 loop $-1 -1 -1 $-1 $-1 $215 $124 T -3.5499999999999972 -1.701960662044917 74.266309412338273 3.1154180947108214 3.5499999999999972 75.266309412338259 periphery $169 T #
-169 cone-surface $-1 -1 -1 $-1 0 0 75.266309412338273 0 0 -1 2.5499999999999972 0 0 1 I I 0.70710678118654746 0.70710678118654746 1 reversed I I I I #
-170 coedge $-1 -1 -1 $-1 $216 $217 $174 $218 forward $125 $-1 #
-171 coedge $-1 -1 -1 $-1 $219 $127 $129 $176 forward $88 $-1 #
-172 coedge $-1 -1 -1 $-1 $127 $219 $128 $175 reversed $88 $-1 #
-173 edge $-1 -1 -1 $-1 $178 0.49999999999999878 $177 3.6415926535897931 $127 $220 forward @7 unknown T -2.5499999999999998 -1.2225351234407174 76.942283834915443 2.2378355328204518 2.5499999999999998 76.942283834915443 #
-174 coedge $-1 -1 -1 $-1 $129 $128 $170 $218 reversed $60 $-1 #
-175 edge $-1 -1 -1 $-1 $178 -0.83798721128859199 $221 0.83798721128859199 $128 $222 reversed @7 unknown T 2.2378355328204518 1.2225351234407151 75.266309412338259 2.2378355328204518 1.2225351234407151 76.942283834915443 #
-176 edge $-1 -1 -1 $-1 $177 -0.83798721128859199 $223 0.83798721128859199 $129 $224 reversed @7 unknown T -2.2378355328204504 -1.2225351234407174 75.266309412338259 -2.2378355328204504 -1.2225351234407174 76.942283834915443 #
-177 vertex $-1 -1 -1 $-1 $131 $225 #
-178 vertex $-1 -1 -1 $-1 $131 $226 #
-179 ellipse-curve $-1 -1 -1 $-1 0 0 76.942283834915443 0 0 1 2.5499999999999998 0 0 1 F -2.6415926535897931 F 0.49999999999999878 #
-180 edge $-1 -1 -1 $-1 $134 0.49999999999999967 $136 3.6415926535897931 $132 $227 forward @7 unknown T -4.0499999999999998 -1.9416734313470216 76.942283834915429 3.55420937565601 4.0499999999999998 76.942283834915443 #
-181 ellipse-curve $-1 -1 -1 $-1 0 0 76.942283834915443 0 0 1 4.0499999999999998 0 0 1 F -2.6415926535897931 F 0.49999999999999967 #
-182 point $-1 -1 -1 $-1 3.55420937565601 1.9416734313470212 76.942283834915429 #
-183 point $-1 -1 -1 $-1 -3.5542093756560096 -1.9416734313470216 76.942283834915429 #
-184 cface $-1 -1 $228 $9 $198 0 #
-185 face $229 -1 -1 $-1 $51 $230 $6 $-1 $231 forward single F F #
-186 cface_ptr-ct-attrib $-1 -1 $-1 $-1 $139 1 1 1 1 1 1 1 1 1 1 1 1 0 1 0 1 1 1 $-1 $98 #
-187 loop $-1 -1 -1 $-1 $-1 $232 $139 F unknown #
-188 cone-surface $-1 -1 -1 $-1 0 0 78.791309413024493 0 0 1 7.0499999999999954 0 0 1 I I 0 1 1 reversed I I I I #
-189 loop $-1 -1 -1 $-1 $-1 $191 $99 T -7.0069999999999961 -7.0069999999999961 79.766309412338231 7.0069999999999961 7.0069999999999961 79.766309412338231 hole $142 F #
-190 coedge $-1 -1 -1 $-1 $233 $233 $234 $235 forward $141 $-1 #
-191 coedge $-1 -1 -1 $-1 $144 $144 $143 $192 reversed $189 $-1 #
-192 edge $-1 -1 -1 $-1 $194 0.49999999999999967 $193 3.6415926535897931 $143 $236 forward @7 unknown T -7.0069999999999961 -3.3593347489996477 79.766309412338231 6.1492210111658396 7.0069999999999961 79.766309412338231 #
-193 vertex $-1 -1 -1 $-1 $145 $237 #
-194 vertex $-1 -1 -1 $-1 $145 $238 #
-195 ellipse-curve $-1 -1 -1 $-1 0 0 79.766309412338231 0 0 1 7.0069999999999961 0 0 1 F -2.6415926535897931 F 0.49999999999999967 #
-196 cface $-1 -1 $239 $9 $106 0 #
-197 cface_ptr-ct-attrib $-1 -1 $-1 $-1 $148 1 1 1 1 1 1 1 1 1 1 1 1 0 1 0 1 1 1 $-1 $240 #
-198 face $241 -1 -1 $-1 $99 $242 $6 $-1 $243 forward single T -7.2999999999999723 -7.2999999999999723 77.766309412338245 7.2999999999999723 7.2999999999999723 77.766309412338245 F #
-199 loop $-1 -1 -1 $-1 $244 $245 $148 T -7.2999999999999723 -7.2999999999999723 76.766309412338245 7.2999999999999723 7.2999999999999723 76.766309412338245 periphery $200 T #
-200 plane-surface $-1 -1 -1 $-1 -7.0499999999999714 0 76.766309412338245 0 0 1 1 0 0 forward_v I I I I #
-201 loop $-1 -1 -1 $-1 $-1 $246 $106 T -7.0499999999999954 -7.0499999999999954 75.266309412338245 7.0499999999999954 7.0499999999999954 75.266309412338245 hole $150 F #
-202 coedge $-1 -1 -1 $-1 $247 $247 $248 $249 forward $149 $-1 #
-203 coedge $-1 -1 -1 $-1 $250 $250 $251 $252 forward $151 $-1 #
-204 coedge $-1 -1 -1 $-1 $152 $152 $253 $254 reversed $107 $-1 #
-205 coedge $-1 -1 -1 $-1 $255 $256 $152 $206 forward $257 $-1 #
-206 edge $-1 -1 -1 $-1 $258 0.49999999999999878 $259 3.6415926535897922 $205 $260 forward @7 unknown T -7.5500000000000096 -3.6196628164617337 74.266309412338259 6.6257483422723267 7.5500000000000096 74.266309412338259 #
-207 point $-1 -1 -1 $-1 0 0 83.316309412338256 #
-208 ellipse-curve $-1 -1 -1 $-1 -6.1492210111658396 -3.3593347489996446 80.180309412338232 -0.47942553860420251 0.87758256189037298 0 -0.36331918062261437 -0.1984821729821398 -0 1 F -1.5707963267948966 F 1.2039348720591074 #
-209 ellipse-curve $-1 -1 -1 $-1 6.1492210111658387 3.3593347489996468 80.180309412338232 0.47942553860420278 -0.87758256189037287 0 0.36331918062261431 0.19848217298213991 0 1 F -1.5707963267948939 F 1.2039348720591074 #
-210 cface $-1 -1 $85 $9 $124 0 #
-211 cface_ptr-ct-attrib $-1 -1 $-1 $-1 $167 1 1 1 1 1 1 1 1 1 1 1 1 0 1 0 1 1 1 $-1 $239 #
-212 face $261 -1 -1 $-1 $262 $257 $6 $-1 $263 forward single T -7.5500000000000096 -3.6196628164617337 74.266309412338259 6.6257483422723267 7.5500000000000096 75.266309412338259 F #
-213 loop $-1 -1 -1 $-1 $-1 $253 $167 T -6.625748342272324 -7.5500000000000096 74.266309412338259 7.5500000000000096 3.6196628164617297 75.266309412338259 periphery $214 F #
-214 cone-surface $-1 -1 -1 $-1 0 0 78.791309413024493 0 0 1 7.5500000000000096 0 0 1 I I 0 1 1 reversed I I I I #
-215 coedge $-1 -1 -1 $-1 $264 $265 $219 $266 forward $168 $-1 #
-216 coedge $-1 -1 -1 $-1 $251 $170 $265 $267 forward $125 $-1 #
-217 coedge $-1 -1 -1 $-1 $170 $251 $264 $268 reversed $125 $-1 #
-218 edge $-1 -1 -1 $-1 $223 -2.6415926535897931 $221 0.49999999999999878 $174 $269 forward @7 unknown T -2.2378355328204504 -2.5499999999999998 75.266309412338259 2.5499999999999998 1.2225351234407151 75.266309412338259 #
-219 coedge $-1 -1 -1 $-1 $172 $171 $215 $266 reversed $88 $-1 #
-220 ellipse-curve $-1 -1 -1 $-1 0 0 76.942283834915443 0 0 1 2.5499999999999998 0 0 1 F 0.49999999999999878 F 3.6415926535897931 #
-221 vertex $-1 -1 -1 $-1 $218 $270 #
-222 straight-curve $-1 -1 -1 $-1 2.2378355328204518 1.2225351234407151 76.104296623626851 0 0 1 F -0.83798721128859199 F 0.83798721128859199 #
-223 vertex $-1 -1 -1 $-1 $176 $271 #
-224 straight-curve $-1 -1 -1 $-1 -2.2378355328204504 -1.2225351234407174 76.104296623626851 0 0 1 F -0.83798721128859199 F 0.83798721128859199 #
-225 point $-1 -1 -1 $-1 -2.2378355328204504 -1.2225351234407174 76.942283834915443 #
-226 point $-1 -1 -1 $-1 2.2378355328204518 1.2225351234407151 76.942283834915443 #
-227 ellipse-curve $-1 -1 -1 $-1 0 0 76.942283834915443 0 0 1 4.0499999999999998 0 0 1 F 0.49999999999999967 F 3.6415926535897931 #
-228 cface $-1 -1 $272 $9 $273 0 #
-229 cface_ptr-ct-attrib $-1 -1 $-1 $-1 $185 1 1 1 1 1 1 1 1 1 1 1 1 0 1 0 1 1 1 $-1 $138 #
-230 loop $-1 -1 -1 $-1 $-1 $274 $185 F unknown #
-231 cone-surface $-1 -1 -1 $-1 0 0 78.791309413024493 0 0 1 7.0499999999999954 0 0 1 I I 0 1 1 reversed I I I I #
-232 coedge $-1 -1 -1 $-1 $275 $276 $277 $278 forward $187 $-1 #
-233 coedge $-1 -1 -1 $-1 $190 $190 $279 $280 forward $141 $-1 #
-234 coedge $-1 -1 -1 $-1 $276 $275 $190 $235 reversed $187 $-1 #
-235 edge $-1 -1 -1 $-1 $281 -2.6415926535897931 $282 0.49999999999999878 $234 $283 forward @7 unknown T -6.1869570613271243 -7.0499999999999954 79.766309412338245 7.0499999999999954 3.379950047159622 79.766309412338245 #
-236 ellipse-curve $-1 -1 -1 $-1 0 0 79.766309412338231 0 0 1 7.0069999999999961 0 0 1 F 0.49999999999999967 F 3.6415926535897931 #
-237 point $-1 -1 -1 $-1 -6.1492210111658396 -3.359334748999645 79.766309412338231 #
-238 point $-1 -1 -1 $-1 6.1492210111658396 3.3593347489996472 79.766309412338231 #
-239 cface $-1 -1 $284 $9 $167 0 #
-240 cface $-1 -1 $285 $9 $148 0 #
-241 cface_ptr-ct-attrib $-1 -1 $-1 $-1 $198 1 1 1 1 1 1 1 1 1 1 1 1 0 1 0 1 1 1 $-1 $184 #
-242 loop $-1 -1 -1 $-1 $286 $287 $198 T -7.2999999999999723 -7.2999999999999723 77.766309412338245 7.2999999999999723 7.2999999999999723 77.766309412338245 periphery $243 F #
-243 plane-surface $-1 -1 -1 $-1 -7.0499999999999803 0 77.766309412338245 0 0 1 1 0 0 forward_v I I I I #
-244 loop $-1 -1 -1 $-1 $-1 $288 $148 T -7.0499999999999954 -7.0499999999999954 76.766309412338245 7.0499999999999954 7.0499999999999954 76.766309412338245 hole $200 T #
-245 coedge $-1 -1 -1 $-1 $289 $289 $290 $291 reversed $199 $-1 #
-246 coedge $-1 -1 -1 $-1 $292 $292 $293 $294 reversed $201 $-1 #
-247 coedge $-1 -1 -1 $-1 $202 $202 $295 $296 forward $149 $-1 #
-248 coedge $-1 -1 -1 $-1 $297 $298 $202 $249 reversed $213 $-1 #
-249 edge $-1 -1 -1 $-1 $299 -2.641592653589794 $300 0.49999999999999878 $248 $301 forward @7 unknown T -6.625748342272324 -7.5500000000000096 75.266309412338259 7.5500000000000096 3.6196628164617297 75.266309412338259 #
-250 coedge $-1 -1 -1 $-1 $203 $203 $302 $303 forward $151 $-1 #
-251 coedge $-1 -1 -1 $-1 $217 $216 $203 $252 reversed $125 $-1 #
-252 edge $-1 -1 -1 $-1 $304 -2.641592653589794 $305 0.49999999999999933 $251 $306 reversed @7 unknown T -3.1154180947108232 -3.5499999999999972 74.266309412338273 3.5499999999999972 1.7019606620449172 74.266309412338273 #
-253 coedge $-1 -1 -1 $-1 $298 $297 $204 $254 forward $213 $-1 #
-254 edge $-1 -1 -1 $-1 $259 -2.641592653589794 $258 0.49999999999999878 $253 $307 forward @7 unknown T -6.625748342272324 -7.5500000000000096 74.266309412338259 7.5500000000000096 3.6196628164617297 74.266309412338259 #
-255 coedge $-1 -1 -1 $-1 $295 $205 $297 $308 forward $257 $-1 #
-256 coedge $-1 -1 -1 $-1 $205 $295 $298 $309 reversed $257 $-1 #
-257 loop $-1 -1 -1 $-1 $-1 $205 $212 T -7.5500000000000096 -3.6196628164617337 74.266309412338259 6.6257483422723267 7.5500000000000096 75.266309412338259 periphery $263 F #
-258 vertex $-1 -1 -1 $-1 $254 $310 #
-259 vertex $-1 -1 -1 $-1 $254 $311 #
-260 ellipse-curve $-1 -1 -1 $-1 0 0 74.266309412338259 0 0 1 7.5500000000000096 0 0 1 F 0.49999999999999878 F 3.6415926535897922 #
-261 cface_ptr-ct-attrib $-1 -1 $-1 $-1 $212 1 1 1 1 1 1 1 1 1 1 1 1 0 1 0 1 1 1 $-1 $284 #
-262 face $312 -1 -1 $-1 $313 $314 $6 $-1 $315 forward single T -6.1869570613271243 -7.0499999999999954 75.266309412338245 7.0499999999999954 3.379950047159622 76.766309412338245 F #
-263 cone-surface $-1 -1 -1 $-1 0 0 78.791309413024493 0 0 1 7.5500000000000096 0 0 1 I I 0 1 1 reversed I I I I #
-264 coedge $-1 -1 -1 $-1 $302 $215 $217 $268 forward $168 $-1 #
-265 coedge $-1 -1 -1 $-1 $215 $302 $216 $267 reversed $168 $-1 #
-266 edge $-1 -1 -1 $-1 $221 0.49999999999999878 $223 3.6415926535897931 $219 $316 forward @7 unknown T -2.5499999999999998 -1.2225351234407174 75.266309412338259 2.2378355328204518 2.5499999999999998 75.266309412338259 #
-267 edge $-1 -1 -1 $-1 $221 -0.70710678118653525 $305 0.70710678118654724 $216 $317 forward @7 unknown T 2.2378355328204518 1.2225351234407151 74.266309412338273 3.1154180947108214 1.7019606620449172 75.266309412338259 #
-268 edge $-1 -1 -1 $-1 $223 -0.70710678118653547 $304 0.70710678118654757 $217 $318 forward @7 unknown T -3.1154180947108232 -1.701960662044915 74.266309412338273 -2.2378355328204504 -1.2225351234407174 75.266309412338259 #
-269 ellipse-curve $-1 -1 -1 $-1 0 0 75.266309412338259 0 0 1 2.5499999999999998 0 0 1 F -2.6415926535897931 F 0.49999999999999878 #
-270 point $-1 -1 -1 $-1 2.2378355328204518 1.2225351234407151 75.266309412338259 #
-271 point $-1 -1 -1 $-1 -2.2378355328204504 -1.2225351234407174 75.266309412338259 #
-272 cface $-1 -1 $240 $9 $319 0 #
-273 face $320 -1 -1 $-1 $319 $321 $6 $-1 $322 forward single T -6.8451439827448848 -7.7999999999999723 76.766309412338245 7.7999999999999723 3.7395192011127687 77.766309412338245 F #
-274 coedge $-1 -1 -1 $-1 $323 $324 $325 $326 forward $230 $-1 #
-275 coedge $-1 -1 -1 $-1 $234 $232 $324 $327 forward $187 $-1 #
-276 coedge $-1 -1 -1 $-1 $232 $234 $323 $328 reversed $187 $-1 #
-277 coedge $-1 -1 -1 $-1 $325 $325 $232 $278 reversed $286 $-1 #
-278 edge $-1 -1 -1 $-1 $329 -2.6415926535897931 $330 0.49999999999999878 $232 $331 forward @7 unknown T -6.1869570613271243 -7.0499999999999954 77.766309412338245 7.0499999999999954 3.379950047159622 77.766309412338245 #
-279 coedge $-1 -1 -1 $-1 $324 $323 $233 $280 reversed $230 $-1 #
-280 edge $-1 -1 -1 $-1 $282 0.49999999999999878 $281 3.6415926535897931 $279 $332 forward @7 unknown T -7.0499999999999954 -3.3799500471596282 79.766309412338245 6.1869570613271279 7.0499999999999954 79.766309412338245 #
-281 vertex $-1 -1 -1 $-1 $328 $333 #
-282 vertex $-1 -1 -1 $-1 $235 $334 #
-283 ellipse-curve $-1 -1 -1 $-1 0 0 79.766309412338245 0 0 1 7.0499999999999954 0 0 1 F -2.6415926535897931 F 0.49999999999999878 #
-284 cface $-1 -1 $146 $9 $212 0 #
-285 cface $-1 -1 $335 $9 $262 0 #
-286 loop $-1 -1 -1 $-1 $-1 $325 $198 T -7.0499999999999954 -7.0499999999999954 77.766309412338245 7.0499999999999954 7.0499999999999954 77.766309412338245 hole $243 F #
-287 coedge $-1 -1 -1 $-1 $336 $336 $337 $338 forward $242 $-1 #
-288 coedge $-1 -1 -1 $-1 $339 $339 $340 $341 forward $244 $-1 #
-289 coedge $-1 -1 -1 $-1 $245 $245 $342 $343 reversed $199 $-1 #
-290 coedge $-1 -1 -1 $-1 $344 $345 $245 $291 forward $346 $-1 #
-291 edge $-1 -1 -1 $-1 $347 0.49999999999999978 $348 3.6415926535897922 $290 $349 forward @7 unknown T -7.2999999999999723 -3.4998064318106641 76.766309412338245 6.4063527017996966 7.2999999999999723 76.766309412338245 #
-292 coedge $-1 -1 -1 $-1 $246 $246 $350 $351 reversed $201 $-1 #
-293 coedge $-1 -1 -1 $-1 $352 $353 $246 $294 forward $354 $-1 #
-294 edge $-1 -1 -1 $-1 $355 0.49999999999999878 $356 3.6415926535897931 $293 $357 forward @7 unknown T -7.0499999999999954 -3.3799500471596282 75.266309412338245 6.1869570613271279 7.0499999999999954 75.266309412338245 #
-295 coedge $-1 -1 -1 $-1 $256 $255 $247 $296 reversed $257 $-1 #
-296 edge $-1 -1 -1 $-1 $300 0.49999999999999878 $299 3.6415926535897922 $295 $358 forward @7 unknown T -7.5500000000000096 -3.6196628164617337 75.266309412338259 6.6257483422723267 7.5500000000000096 75.266309412338259 #
-297 coedge $-1 -1 -1 $-1 $253 $248 $255 $308 reversed $213 $-1 #
-298 coedge $-1 -1 -1 $-1 $248 $253 $256 $309 forward $213 $-1 #
-299 vertex $-1 -1 -1 $-1 $308 $359 #
-300 vertex $-1 -1 -1 $-1 $249 $360 #
-301 ellipse-curve $-1 -1 -1 $-1 0 0 75.266309412338259 0 0 1 7.5500000000000096 0 0 1 F -2.641592653589794 F 0.49999999999999878 #
-302 coedge $-1 -1 -1 $-1 $265 $264 $250 $303 reversed $168 $-1 #
-303 edge $-1 -1 -1 $-1 $305 -5.7831853071795871 $304 -2.641592653589794 $302 $361 reversed @7 unknown T -3.5499999999999972 -1.701960662044917 74.266309412338273 3.1154180947108214 3.5499999999999972 74.266309412338273 #
-304 vertex $-1 -1 -1 $-1 $268 $362 #
-305 vertex $-1 -1 -1 $-1 $252 $363 #
-306 ellipse-curve $-1 -1 -1 $-1 0 0 74.266309412338273 0 0 -1 3.5499999999999972 0 0 1 F -0.49999999999999933 F 2.641592653589794 #
-307 ellipse-curve $-1 -1 -1 $-1 0 0 74.266309412338259 0 0 1 7.5500000000000096 0 0 1 F -2.641592653589794 F 0.49999999999999878 #
-308 edge $-1 -1 -1 $-1 $259 -0.5 $299 0.5 $297 $364 forward @7 unknown T -6.625748342272324 -3.6196628164617337 74.266309412338259 -6.625748342272324 -3.6196628164617337 75.266309412338259 #
-309 edge $-1 -1 -1 $-1 $258 -0.5 $300 0.5 $298 $365 forward @7 unknown T 6.6257483422723267 3.6196628164617297 74.266309412338259 6.6257483422723267 3.6196628164617297 75.266309412338259 #
-310 point $-1 -1 -1 $-1 6.6257483422723267 3.6196628164617297 74.266309412338259 #
-311 point $-1 -1 -1 $-1 -6.625748342272324 -3.6196628164617337 74.266309412338259 #
-312 cface_ptr-ct-attrib $-1 -1 $-1 $-1 $262 1 1 1 1 1 1 1 1 1 1 1 1 0 1 0 1 1 1 $-1 $285 #
-313 face $366 -1 -1 $-1 $273 $354 $6 $-1 $367 forward single T -7.0499999999999954 -3.3799500471596282 75.266309412338245 6.1869570613271279 7.0499999999999954 76.766309412338245 F #
-314 loop $-1 -1 -1 $-1 $-1 $350 $262 T -6.1869570613271243 -7.0499999999999954 75.266309412338245 7.0499999999999954 3.379950047159622 76.766309412338245 periphery $315 F #
-315 cone-surface $-1 -1 -1 $-1 0 0 78.791309413024493 0 0 1 7.0499999999999954 0 0 1 I I 0 1 1 reversed I I I I #
-316 ellipse-curve $-1 -1 -1 $-1 0 0 75.266309412338259 0 0 1 2.5499999999999998 0 0 1 F 0.49999999999999878 F 3.6415926535897931 #
-317 straight-curve $-1 -1 -1 $-1 2.676626813765635 1.4622478927428162 74.766309412338273 0.62054458056374528 0.33900504942104426 -0.70710678118654724 F -0.70710678118653525 F 0.70710678118654724 #
-318 straight-curve $-1 -1 -1 $-1 -2.6766268137656364 -1.462247892742814 74.766309412338273 -0.62054458056374573 -0.33900504942104381 -0.70710678118654702 F -0.70710678118653547 F 0.70710678118654757 #
-319 face $368 -1 -1 $-1 $139 $346 $6 $-1 $369 forward single T -7.7999999999999723 -3.739519201112766 76.766309412338245 6.8451439827448839 7.7999999999999723 77.766309412338245 F #
-320 cface_ptr-ct-attrib $-1 -1 $-1 $-1 $273 1 1 1 1 1 1 1 1 1 1 1 1 0 1 0 1 1 1 $-1 $228 #
-321 loop $-1 -1 -1 $-1 $-1 $342 $273 T -6.8451439827448848 -7.2999999999999723 76.766309412338245 7.2999999999999723 3.7395192011127687 77.766309412338245 periphery $322 F #
-322 torus-surface $-1 -1 -1 $-1 0 0 77.266309412338245 0 0 1 7.2999999999999723 0.5 1 0 0 forward_v I I I I #
-323 coedge $-1 -1 -1 $-1 $279 $274 $276 $328 forward $230 $-1 #
-324 coedge $-1 -1 -1 $-1 $274 $279 $275 $327 reversed $230 $-1 #
-325 coedge $-1 -1 -1 $-1 $277 $277 $274 $326 reversed $286 $-1 #
-326 edge $-1 -1 -1 $-1 $330 0.49999999999999878 $329 3.6415926535897931 $274 $370 forward @7 unknown T -7.0499999999999954 -3.3799500471596282 77.766309412338245 6.1869570613271279 7.0499999999999954 77.766309412338245 #
-327 edge $-1 -1 -1 $-1 $330 0.25 $282 2.25 $275 $371 forward @7 unknown T 6.1869570613271279 3.379950047159622 77.766309412338245 6.1869570613271279 3.379950047159622 79.766309412338245 #
-328 edge $-1 -1 -1 $-1 $329 0.25 $281 2.25 $276 $372 forward @7 unknown T -6.1869570613271243 -3.3799500471596282 77.766309412338245 -6.1869570613271243 -3.3799500471596282 79.766309412338245 #
-329 vertex $-1 -1 -1 $-1 $278 $373 #
-330 vertex $-1 -1 -1 $-1 $278 $374 #
-331 ellipse-curve $-1 -1 -1 $-1 0 0 77.766309412338245 0 0 1 7.0499999999999954 0 0 1 F -2.6415926535897931 F 0.49999999999999878 #
-332 ellipse-curve $-1 -1 -1 $-1 0 0 79.766309412338245 0 0 1 7.0499999999999954 0 0 1 F 0.49999999999999878 F 3.6415926535897931 #
-333 point $-1 -1 -1 $-1 -6.1869570613271243 -3.3799500471596282 79.766309412338245 #
-334 point $-1 -1 -1 $-1 6.1869570613271279 3.379950047159622 79.766309412338245 #
-335 cface $-1 -1 $196 $9 $313 0 #
-336 coedge $-1 -1 -1 $-1 $287 $287 $375 $376 forward $242 $-1 #
-337 coedge $-1 -1 -1 $-1 $377 $378 $287 $338 reversed $321 $-1 #
-338 edge $-1 -1 -1 $-1 $379 -2.641592653589794 $380 0.49999999999999967 $337 $381 forward @7 unknown T -6.4063527017997002 -7.2999999999999723 77.766309412338245 7.2999999999999723 3.4998064318106681 77.766309412338245 #
-339 coedge $-1 -1 -1 $-1 $288 $288 $382 $383 forward $244 $-1 #
-340 coedge $-1 -1 -1 $-1 $384 $385 $288 $341 reversed $314 $-1 #
-341 edge $-1 -1 -1 $-1 $386 -2.6415926535897931 $387 0.49999999999999878 $340 $388 forward @7 unknown T -6.1869570613271243 -7.0499999999999954 76.766309412338245 7.0499999999999954 3.379950047159622 76.766309412338245 #
-342 coedge $-1 -1 -1 $-1 $378 $377 $289 $343 forward $321 $-1 #
-343 edge $-1 -1 -1 $-1 $348 -2.641592653589794 $347 0.49999999999999978 $342 $389 forward @7 unknown T -6.4063527017996984 -7.2999999999999723 76.766309412338245 7.2999999999999723 3.4998064318106672 76.766309412338245 #
-344 coedge $-1 -1 -1 $-1 $375 $290 $377 $390 forward $346 $-1 #
-345 coedge $-1 -1 -1 $-1 $290 $375 $378 $391 reversed $346 $-1 #
-346 loop $-1 -1 -1 $-1 $-1 $290 $319 T -7.2999999999999723 -3.739519201112766 76.766309412338245 6.8451439827448839 7.2999999999999723 77.766309412338245 periphery $369 F #
-347 vertex $-1 -1 -1 $-1 $343 $392 #
-348 vertex $-1 -1 -1 $-1 $343 $393 #
-349 ellipse-curve $-1 -1 -1 $-1 0 0 76.766309412338245 0 0 1 7.2999999999999723 0 0 1 F 0.49999999999999978 F 3.6415926535897922 #
-350 coedge $-1 -1 -1 $-1 $385 $384 $292 $351 forward $314 $-1 #
-351 edge $-1 -1 -1 $-1 $356 -2.6415926535897931 $355 0.49999999999999878 $350 $394 forward @7 unknown T -6.1869570613271243 -7.0499999999999954 75.266309412338245 7.0499999999999954 3.379950047159622 75.266309412338245 #
-352 coedge $-1 -1 -1 $-1 $382 $293 $384 $395 forward $354 $-1 #
-353 coedge $-1 -1 -1 $-1 $293 $382 $385 $396 reversed $354 $-1 #
-354 loop $-1 -1 -1 $-1 $-1 $293 $313 T -7.0499999999999954 -3.3799500471596282 75.266309412338245 6.1869570613271279 7.0499999999999954 76.766309412338245 periphery $367 F #
-355 vertex $-1 -1 -1 $-1 $351 $397 #
-356 vertex $-1 -1 -1 $-1 $351 $398 #
-357 ellipse-curve $-1 -1 -1 $-1 0 0 75.266309412338245 0 0 1 7.0499999999999954 0 0 1 F 0.49999999999999878 F 3.6415926535897931 #
-358 ellipse-curve $-1 -1 -1 $-1 0 0 75.266309412338259 0 0 1 7.5500000000000096 0 0 1 F 0.49999999999999878 F 3.6415926535897922 #
-359 point $-1 -1 -1 $-1 -6.625748342272324 -3.6196628164617337 75.266309412338259 #
-360 point $-1 -1 -1 $-1 6.6257483422723267 3.6196628164617297 75.266309412338259 #
-361 ellipse-curve $-1 -1 -1 $-1 0 0 74.266309412338273 0 0 -1 3.5499999999999972 0 0 1 F 2.641592653589794 F 5.7831853071795871 #
-362 point $-1 -1 -1 $-1 -3.1154180947108232 -1.701960662044915 74.266309412338273 #
-363 point $-1 -1 -1 $-1 3.1154180947108214 1.7019606620449172 74.266309412338273 #
-364 straight-curve $-1 -1 -1 $-1 -6.625748342272324 -3.6196628164617337 74.766309412338259 0 0 1 F -0.5 F 0.5 #
-365 straight-curve $-1 -1 -1 $-1 6.6257483422723267 3.6196628164617297 74.766309412338259 0 0 1 F -0.5 F 0.5 #
-366 cface_ptr-ct-attrib $-1 -1 $-1 $-1 $313 1 1 1 1 1 1 1 1 1 1 1 1 0 1 0 1 1 1 $-1 $335 #
-367 cone-surface $-1 -1 -1 $-1 0 0 78.791309413024493 0 0 1 7.0499999999999954 0 0 1 I I 0 1 1 reversed I I I I #
-368 cface_ptr-ct-attrib $-1 -1 $-1 $-1 $319 1 1 1 1 1 1 1 1 1 1 1 1 0 1 0 1 1 1 $-1 $272 #
-369 torus-surface $-1 -1 -1 $-1 0 0 77.266309412338245 0 0 1 7.2999999999999723 0.5 1 0 0 forward_v I I I I #
-370 ellipse-curve $-1 -1 -1 $-1 0 0 77.766309412338245 0 0 1 7.0499999999999954 0 0 1 F 0.49999999999999878 F 3.6415926535897931 #
-371 straight-curve $-1 -1 -1 $-1 6.1869570613271279 3.379950047159622 77.516309412338245 0 0 1 F 0.25 F 2.25 #
-372 straight-curve $-1 -1 -1 $-1 -6.1869570613271243 -3.3799500471596282 77.516309412338245 0 0 1 F 0.25 F 2.25 #
-373 point $-1 -1 -1 $-1 -6.1869570613271243 -3.3799500471596282 77.766309412338245 #
-374 point $-1 -1 -1 $-1 6.1869570613271279 3.379950047159622 77.766309412338245 #
-375 coedge $-1 -1 -1 $-1 $345 $344 $336 $376 reversed $346 $-1 #
-376 edge $-1 -1 -1 $-1 $380 0.49999999999999967 $379 3.6415926535897922 $375 $399 forward @7 unknown T -7.2999999999999723 -3.4998064318106659 77.766309412338245 6.4063527017996993 7.2999999999999723 77.766309412338245 #
-377 coedge $-1 -1 -1 $-1 $342 $337 $344 $390 reversed $321 $-1 #
-378 coedge $-1 -1 -1 $-1 $337 $342 $345 $391 forward $321 $-1 #
-379 vertex $-1 -1 -1 $-1 $390 $400 #
-380 vertex $-1 -1 -1 $-1 $338 $401 #
-381 ellipse-curve $-1 -1 -1 $-1 0 0 77.766309412338245 0 0 1 7.2999999999999723 0 0 1 F -2.641592653589794 F 0.49999999999999967 #
-382 coedge $-1 -1 -1 $-1 $353 $352 $339 $383 reversed $354 $-1 #
-383 edge $-1 -1 -1 $-1 $387 0.49999999999999878 $386 3.6415926535897931 $382 $402 forward @7 unknown T -7.0499999999999954 -3.3799500471596282 76.766309412338245 6.1869570613271279 7.0499999999999954 76.766309412338245 #
-384 coedge $-1 -1 -1 $-1 $350 $340 $352 $395 reversed $314 $-1 #
-385 coedge $-1 -1 -1 $-1 $340 $350 $353 $396 forward $314 $-1 #
-386 vertex $-1 -1 -1 $-1 $395 $403 #
-387 vertex $-1 -1 -1 $-1 $341 $404 #
-388 ellipse-curve $-1 -1 -1 $-1 0 0 76.766309412338245 0 0 1 7.0499999999999954 0 0 1 F -2.6415926535897931 F 0.49999999999999878 #
-389 ellipse-curve $-1 -1 -1 $-1 0 0 76.766309412338245 0 0 1 7.2999999999999723 0 0 1 F -2.641592653589794 F 0.49999999999999978 #
-390 edge $-1 -1 -1 $-1 $348 -1.5707963267949006 $379 1.5707963267948926 $377 $405 forward @7 unknown T -6.8451439827448848 -3.739519201112766 76.766309412338245 -6.4063527017996966 -3.4998064318106641 77.766309412338245 #
-391 edge $-1 -1 -1 $-1 $347 -1.5707963267949006 $380 1.5707963267948926 $378 $406 forward @7 unknown T 6.4063527017996957 3.4998064318106663 76.766309412338245 6.8451439827448839 3.7395192011127687 77.766309412338245 #
-392 point $-1 -1 -1 $-1 6.4063527017996957 3.4998064318106663 76.766309412338245 #
-393 point $-1 -1 -1 $-1 -6.4063527017996966 -3.4998064318106641 76.766309412338245 #
-394 ellipse-curve $-1 -1 -1 $-1 0 0 75.266309412338245 0 0 1 7.0499999999999954 0 0 1 F -2.6415926535897931 F 0.49999999999999878 #
-395 edge $-1 -1 -1 $-1 $356 -2.25 $386 -0.75 $384 $407 forward @7 unknown T -6.1869570613271243 -3.3799500471596282 75.266309412338245 -6.1869570613271243 -3.3799500471596282 76.766309412338245 #
-396 edge $-1 -1 -1 $-1 $355 -2.25 $387 -0.75 $385 $408 forward @7 unknown T 6.1869570613271279 3.379950047159622 75.266309412338245 6.1869570613271279 3.379950047159622 76.766309412338245 #
-397 point $-1 -1 -1 $-1 6.1869570613271279 3.379950047159622 75.266309412338245 #
-398 point $-1 -1 -1 $-1 -6.1869570613271243 -3.3799500471596282 75.266309412338245 #
-399 ellipse-curve $-1 -1 -1 $-1 0 0 77.766309412338245 0 0 1 7.2999999999999723 0 0 1 F 0.49999999999999967 F 3.6415926535897922 #
-400 point $-1 -1 -1 $-1 -6.4063527017997002 -3.4998064318106659 77.766309412338245 #
-401 point $-1 -1 -1 $-1 6.4063527017996993 3.4998064318106681 77.766309412338245 #
-402 ellipse-curve $-1 -1 -1 $-1 0 0 76.766309412338245 0 0 1 7.0499999999999954 0 0 1 F 0.49999999999999878 F 3.6415926535897931 #
-403 point $-1 -1 -1 $-1 -6.1869570613271243 -3.3799500471596282 76.766309412338245 #
-404 point $-1 -1 -1 $-1 6.1869570613271279 3.379950047159622 76.766309412338245 #
-405 ellipse-curve $-1 -1 -1 $-1 -6.4063527017996984 -3.499806431810665 77.266309412338245 -0.47942553860420251 0.87758256189037298 0 -0.43879128094518649 -0.23971276930210125 -0 1 F -1.5707963267949006 F 1.5707963267948926 #
-406 ellipse-curve $-1 -1 -1 $-1 6.4063527017996975 3.4998064318106672 77.266309412338245 0.47942553860420278 -0.87758256189037287 0 0.43879128094518643 0.23971276930210139 0 1 F -1.5707963267949006 F 1.5707963267948926 #
-407 straight-curve $-1 -1 -1 $-1 -6.1869570613271243 -3.3799500471596282 77.516309412338245 0 0 1 F -2.25 F -0.75 #
-408 straight-curve $-1 -1 -1 $-1 6.1869570613271279 3.379950047159622 77.516309412338245 0 0 1 F -2.25 F -0.75 #
End-of-ACIS-data 
