1900 0 1 0           
37 Abaqus, Inc. - Abaqus 6.10-EFR - 2001 14 ACIS 20.0.1 NT 24 Fri Dec 04 13:28:31 2009 
1 9.9999999999999995e-007 1e-010 
-0 body $1 -1 -1 $-1 $2 $-1 $3 T -1.0057862009517997 -1.007898684365609 92.988779029046341 1.0057862009518681 1.007898684365903 137.7548667151616 #
-1 string_attrib-name_attrib-gen-attrib $-1 -1 $4 $-1 $0 2 1 1 1 1 1 1 1 1 1 1 1 1 1 0 1 1 1 @13 HKS_PART_NAME @9 Syringe-4 #
-2 lump $5 -1 -1 $-1 $-1 $6 $0 T -1.0057862009517997 -1.007898684365609 92.988779029046341 1.0057862009518681 1.007898684365903 137.7548667151616 #
-3 transform $-1 -1 1 0 0 0 1 0 0 0 1 0 0 0 1 no_rotate no_reflect no_shear #
-4 string_attrib-name_attrib-gen-attrib $-1 -1 $-1 $1 $0 2 1 1 1 1 1 1 1 1 1 1 1 1 1 0 1 1 1 @18 HKS_ATTRIB_BODY_ID @1 1 #
-5 cell_ptr-ct-attrib $-1 -1 $-1 $-1 $2 1 1 1 1 1 1 1 1 1 1 1 1 0 1 0 1 1 1 $7 $-1 auto #
-6 shell $-1 -1 -1 $-1 $-1 $-1 $8 $-1 $2 T -1.0057862009517997 -1.007898684365609 92.988779029046341 1.0057862009518681 1.007898684365903 137.7548667151616 #
-7 cell3d-cell $-1 -1 $-1 $2 $-1 1 $9 #
-8 face $10 -1 -1 $-1 $11 $12 $6 $-1 $13 reversed single T -0.99999999999998845 -0.99999999999998845 92.988779029046341 0.99999999999998845 0.99999999999998845 92.988779029046356 F #
-9 cshell $-1 -1 $-1 $14 $7 #
-10 cface_ptr-ct-attrib $-1 -1 $-1 $-1 $8 1 1 1 1 1 1 1 1 1 1 1 1 0 1 0 1 1 1 $-1 $15 #
-11 face $16 -1 -1 $-1 $17 $18 $6 $-1 $19 forward single T -1.0057862009517997 -0.47942855160315578 92.988779029046341 0.87758557488932631 1.007898684365903 137.62666608909905 F #
-12 loop $-1 -1 -1 $-1 $20 $21 $8 T -0.99999999999998845 -0.99999999999998845 92.988779029046341 0.99999999999998845 0.99999999999998845 92.988779029046356 periphery $13 T #
-13 plane-surface $-1 -1 -1 $-1 -0.49999999999998845 0 92.988779029046341 0 0 1 1 0 0 forward_v I I I I #
-14 cface $-1 -1 $22 $9 $23 0 #
-15 cface $-1 -1 $-1 $9 $8 0 #
-16 cface_ptr-ct-attrib $-1 -1 $-1 $-1 $11 1 1 1 1 1 1 1 1 1 1 1 1 0 1 0 1 1 1 $-1 $24 #
-17 face $25 -1 -1 $-1 $26 $27 $6 $-1 $28 forward single T -0.87758557488937161 -1.007898684365609 92.988779029046341 1.0057862009518681 0.47942855160320613 137.7548667151616 F #
-18 loop $-1 -1 -1 $-1 $-1 $29 $11 T -1.0057862009517997 -0.47942855160315578 92.988779029046341 0.87758557488932631 1.007898684365903 137.62666608909905 periphery $19 F #
-19 cone-surface $-1 -1 -1 $-1 0 0 115.48877902837854 0 0 1 0.99999999999998845 0 0 1 I I 0 1 1 reversed I I I I #
-20 loop $-1 -1 -1 $-1 $-1 $30 $8 T -0.4999999999999829 -0.4999999999999829 92.988779029046341 0.4999999999999829 0.4999999999999829 92.988779029046341 hole $13 T #
-21 coedge $-1 -1 -1 $-1 $31 $31 $32 $33 reversed $12 $-1 #
-22 cface $-1 -1 $34 $9 $35 0 #
-23 face $36 -1 -1 $-1 $-1 $37 $6 $-1 $38 reversed single T -1.0057862009517997 -1.007898684365609 135.74329431325793 1.0057862009518681 1.007898684365903 137.7548667151616 T 2.6053636978361112 5.4501481482556642 -1.0078956713669447 1.0078956713666001 #
-24 cface $-1 -1 $15 $9 $11 0 #
-25 cface_ptr-ct-attrib $-1 -1 $-1 $-1 $17 1 1 1 1 1 1 1 1 1 1 1 1 0 1 0 1 1 1 $-1 $39 #
-26 face $40 -1 -1 $-1 $35 $41 $6 $-1 $42 reversed single T -0.43879778065976827 -0.50395434323797861 92.988779029046341 0.50091225830197605 0.23971926901678767 137.24999277251172 F #
-27 loop $-1 -1 -1 $-1 $-1 $43 $17 T -0.87758557488937161 -1.007898684365609 92.988779029046341 1.0057862009518681 0.47942855160320613 137.7548667151616 periphery $28 F #
-28 cone-surface $-1 -1 -1 $-1 0 0 115.48877902837854 0 0 1 0.99999999999998845 0 0 1 I I 0 1 1 reversed I I I I #
-29 tcoedge-coedge $-1 -1 -1 $-1 $44 $45 $46 $47 reversed $18 $48 -5.4011157955267093 -0 F #
-30 coedge $-1 -1 -1 $-1 $49 $49 $50 $51 forward $20 $-1 #
-31 coedge $-1 -1 -1 $-1 $21 $21 $52 $53 reversed $12 $-1 #
-32 coedge $-1 -1 -1 $-1 $45 $44 $21 $33 forward $18 $-1 #
-33 edge $-1 -1 -1 $-1 $54 0.49999999999999967 $55 3.6415926535897931 $21 $56 forward @7 unknown T -0.99999999999998845 -0.47942553860419734 92.988779029046341 0.87758256189036277 0.99999999999998845 92.988779029046356 #
-34 cface $-1 -1 $39 $9 $26 0 #
-35 face $57 -1 -1 $-1 $23 $58 $6 $-1 $59 reversed single T -0.50091225830196939 -0.2397192690166832 92.988779029046341 0.43879778065976516 0.50395434323788335 137.18787829486953 F #
-36 cface_ptr-ct-attrib $-1 -1 $-1 $-1 $23 1 1 1 1 1 1 1 1 1 1 1 1 0 1 0 1 1 1 $-1 $14 #
-37 loop $-1 -1 -1 $-1 $60 $46 $23 T -1.0057862009517997 -1.007898684365609 135.74329431325793 1.0057862009518681 1.007898684365903 137.7548667151616 periphery $38 T #
-38 plane-surface $-1 -1 -1 $-1 -2.8480535261500108 0 133.9010269880597 0.70710678118654935 0 -0.70710678118654569 0.70710678118654569 0 0.70710678118654935 forward_v I I I I #
-39 cface $-1 -1 $24 $9 $17 0 #
-40 cface_ptr-ct-attrib $-1 -1 $-1 $-1 $26 1 1 1 1 1 1 1 1 1 1 1 1 0 1 0 1 1 1 $-1 $34 #
-41 loop $-1 -1 -1 $-1 $-1 $61 $26 T -0.43879778065976827 -0.50395434323797861 92.988779029046341 0.50091225830197605 0.23971926901678767 137.24999277251172 periphery $42 T #
-42 cone-surface $-1 -1 -1 $-1 0 0 115.48877902837854 0 0 1 0.4999999999999829 0 0 1 I I 0 1 1 reversed I I I I #
-43 tcoedge-coedge $-1 -1 -1 $-1 $62 $63 $64 $65 reversed $27 $66 -5.4011157955288747 -0 F #
-44 coedge $-1 -1 -1 $-1 $32 $29 $63 $67 reversed $18 $-1 #
-45 coedge $-1 -1 -1 $-1 $29 $32 $62 $68 forward $18 $-1 #
-46 tcoedge-coedge $-1 -1 -1 $-1 $64 $64 $29 $47 forward $37 $69 0 5.4011157955267093 F #
-47 tedge-edge $-1 -1 -1 $-1 $70 0 $71 5.4011157955267093 $29 $72 forward @7 unknown T -1.0057862009517997 -0.47942855160315578 135.74329431325793 0.87758557488932631 1.007898684365903 137.62666608909905 3.0129989584165471e-006 #
-48 pcurve $-1 -1 -1 $-1 0 reversed { exppc nubs 5 open 11 
	0 5 1.0568864741567705 3 1.8003719318422364 2 2.2936576000565441 2 2.9247788680878779 3 
	3.5265536120845802 2 3.6007438636844729 3 4.0782079510783262 3 4.712538196105748 3 5.0155691972029093 3 
	5.4011157955267093 5 
	-22.13788404772157 -5.7831853071795889 
	-22.073268261444895 -5.6484077847622443 
	-21.992450818581375 -5.5213989274347046 
	-21.901896600382997 -5.4009514255389712 
	-21.738637542284785 -5.205373741051508 
	-21.564235326274495 -5.01977044140828 
	-21.442439142846009 -4.8941956753871549 
	-21.318650481325186 -4.7706235490874915 
	-21.131708036964337 -4.5839924340164933 
	-21.019802169081728 -4.4710066076512263 
	-20.910121712451485 -4.3558510141385769 
	-20.791844882635143 -4.2276864526605227 
	-20.679207480653204 -4.0945441760198955 
	-20.619392987523227 -4.019868620696764 
	-20.562466328319108 -3.9429434316740877 
	-20.509582269854011 -3.8633044193617558 
	-20.466796010890295 -3.7980609704847996 
	-20.42687649739446 -3.7309323641767849 
	-20.394922106877772 -3.6712650163770992 
	-20.328082802541232 -3.528608878778928 
	-20.282504479901149 -3.377565371189478 
	-20.265070732672399 -3.2889772076749839 
	-20.254518297878349 -3.1560039275465557 
	-20.265874869021204 -3.023738907009482 
	-20.271809567007921 -2.9812237048314132 
	-20.290173021026284 -2.8854780338498318 
	-20.318803031003071 -2.7922149423241791 
	-20.337732184097206 -2.7409585157533058 
	-20.359147426711786 -2.6907587812384373 
	-20.382718923940814 -2.6415926535897931 
	8.443131624886941e-006 
	8.433131624887019e-006 
	cone 0 0 115.48877902837854 0 0 1 0.99999999999998845 0 0 1 I I 0 1 1 reversed I I I I 
	} 0 0 #
-49 coedge $-1 -1 -1 $-1 $30 $30 $73 $74 forward $20 $-1 #
-50 coedge $-1 -1 -1 $-1 $61 $75 $30 $51 reversed $41 $-1 #
-51 edge $-1 -1 -1 $-1 $76 -2.6415926535897931 $77 0.49999999999999878 $30 $78 forward @7 unknown T -0.43879128094517139 -0.4999999999999829 92.988779029046341 0.4999999999999829 0.23971276930209282 92.988779029046341 #
-52 coedge $-1 -1 -1 $-1 $63 $62 $31 $53 forward $27 $-1 #
-53 edge $-1 -1 -1 $-1 $55 -2.6415926535897931 $54 0.49999999999999967 $31 $79 forward @7 unknown T -0.87758256189036266 -0.99999999999998845 92.988779029046341 0.99999999999998845 0.47942553860419723 92.988779029046356 #
-54 vertex $-1 -1 -1 $-1 $33 $80 #
-55 vertex $-1 -1 -1 $-1 $33 $81 #
-56 ellipse-curve $-1 -1 -1 $-1 0 0 92.988779029046356 0 0 1 0.99999999999998845 0 0 1 F 0.49999999999999967 F 3.6415926535897931 #
-57 cface_ptr-ct-attrib $-1 -1 $-1 $-1 $35 1 1 1 1 1 1 1 1 1 1 1 1 0 1 0 1 1 1 $-1 $22 #
-58 loop $-1 -1 -1 $-1 $-1 $82 $35 T -0.50091225830196939 -0.2397192690166832 92.988779029046341 0.43879778065976516 0.50395434323788335 137.18787829486953 periphery $59 T #
-59 cone-surface $-1 -1 -1 $-1 0 0 115.48877902837854 0 0 1 0.4999999999999829 0 0 1 I I 0 1 1 reversed I I I I #
-60 loop $-1 -1 -1 $-1 $-1 $83 $23 T -0.50091225830196939 -0.50395434323797861 136.24816825590776 0.50091225830197605 0.50395434323788335 137.24999277251172 hole $38 T #
-61 coedge $-1 -1 -1 $-1 $84 $50 $85 $86 reversed $41 $-1 #
-62 coedge $-1 -1 -1 $-1 $52 $43 $45 $68 reversed $27 $-1 #
-63 coedge $-1 -1 -1 $-1 $43 $52 $44 $67 forward $27 $-1 #
-64 tcoedge-coedge $-1 -1 -1 $-1 $46 $46 $43 $65 forward $37 $87 0 5.4011157955288747 F #
-65 tedge-edge $-1 -1 -1 $-1 $71 0 $70 5.4011157955288747 $43 $88 forward @7 unknown T -0.87758557488937161 -1.007898684365609 135.87149493932037 1.0057862009518681 0.47942855160320613 137.7548667151616 3.0129990089238834e-006 #
-66 pcurve $-1 -1 -1 $-1 0 reversed { exppc nubs 5 open 11 
	0 5 1.0568864741549961 3 1.8003719318429583 2 2.2936576000583884 2 2.9247788680919262 3 
	3.5265536120869476 2 3.6007438636859166 3 4.0782079510789195 3 4.7125381961068262 3 5.0155691972050658 3 
	5.4011157955288747 5 
	-20.382718923940843 -2.6415926535897887 
	-20.447334710217405 -2.5068151311726683 
	-20.528152153080697 -2.3798062738451304 
	-20.618706371279814 -2.2593587719486981 
	-20.78196542937798 -2.0637810874613116 
	-20.956367645388461 -1.8781777878179229 
	-21.078163828816653 -1.7526030217971496 
	-21.201952490336872 -1.629030895498047 
	-21.388894934697895 -1.4423997804268385 
	-21.500800802581285 -1.3294139540609022 
	-21.610481259210445 -1.2142583605492603 
	-21.728758089026979 -1.0860937990711057 
	-21.841395491008903 -0.9529515224304812 
	-21.901209984139513 -0.87827596710661404 
	-21.958136643343199 -0.80135077808429733 
	-22.011020701808199 -0.72171176577227636 
	-22.053806960771755 -0.65646831689550189 
	-22.093726474267669 -0.58933971058740187 
	-22.125680864784716 -0.52967236278708651 
	-22.192520169121181 -0.38701622518894929 
	-22.238098491761207 -0.23597271759955174 
	-22.255532238989957 -0.14738455408532641 
	-22.266084673784061 -0.01441127395667588 
	-22.254728102641138 0.11785374658061756 
	-22.248793404654492 0.16036894875807706 
	-22.230429950636164 0.25611461973982153 
	-22.201799940659335 0.34937771126561207 
	-22.18287078756515 0.40063413783650287 
	-22.161455544950599 0.45083387235135414 
	-22.13788404772157 0.49999999999999922 
	8.4431306873265919e-006 
	8.4331306873266699e-006 
	cone 0 0 115.48877902837854 0 0 1 0.99999999999998845 0 0 1 I I 0 1 1 reversed I I I I 
	} 0 0 #
-67 edge $-1 -1 -1 $-1 $54 -22.500000000000028 $70 22.137884047053745 $44 $89 forward @7 unknown T 0.87758256189035455 0.47942553860418902 92.988779029046341 0.87758256189037098 0.47942553860420545 137.6266630761001 #
-68 edge $-1 -1 -1 $-1 $55 -22.500000000000028 $71 20.382718923273018 $45 $90 forward @7 unknown T -0.87758256189039174 -0.47942553860422649 92.988779029046341 -0.87758256189033357 -0.4794255386041682 135.8714979523194 #
-69 pcurve $-1 -1 -1 $-1 0 forward { exppc nubs 5 open 9 
	0 5 1.0568864741567705 3 2.2936576000565441 3 2.9247788680878779 3 3.5265536120845802 3 
	4.0782079510783262 3 4.712538196105748 3 5.0155691972029093 3 5.4011157955267093 5 
	5.2688450841733641 -0.47942553860419723 
	5.1774645628774891 -0.59770394201244692 
	5.0631714391035985 -0.69827899339446764 
	4.9351084355973427 -0.78022171257318929 
	4.6409653545308061 -0.92148385188860038 
	4.3212448974258564 -0.99016702413275715 
	4.1459936547089313 -1.0078956713669447 
	3.8801991036811216 -1.0063832988175365 
	3.6195907633571949 -0.96067005610821232 
	3.5325269382635582 -0.94009240057642629 
	3.3652582414227368 -0.88953277659825281 
	3.2059648999094037 -0.81778075091942271 
	3.1306586233975793 -0.77748646836789237 
	2.9925220370380146 -0.6896290791870936 
	2.8705099110273125 -0.58062129541490115 
	2.8166739071335485 -0.52343852590228412 
	2.7137008783264349 -0.38974239627214174 
	2.6449421360117924 -0.23527075470316683 
	2.6202870942379235 -0.14762080916846715 
	2.6053636978361112 -0.014237733314203221 
	2.6214243147684044 0.11772963585338199 
	2.6298172451497948 0.15991114134285928 
	2.6557870908745826 0.25400846528101584 
	2.6962760392746361 0.34298961534645278 
	2.7230459043045983 0.39077511007202592 
	2.7533316308516333 0.43627820234407166 
	2.7866667619183829 0.47942553860419734 
	0 
	0 
	plane -2.8480535261500108 0 133.9010269880597 -0.70710678118654935 0 0.70710678118654569 0.70710678118654569 0 0.70710678118654935 reverse_v I I I I 
	} 0 0 #
-70 tvertex-vertex $-1 -1 -1 $-1 $47 $91 8.2156503822261584e-015 #
-71 tvertex-vertex $-1 -1 -1 $-1 $47 $92 2.9117702241727912e-014 #
-72 intcurve-curve $-1 -1 -1 $-1 forward { exactcur full nubs 5 open 9 
	0 5 1.0568864741567705 3 2.2936576000565441 3 2.9247788680878779 3 3.5265536120845802 3 
	4.0782079510783262 3 4.712538196105748 3 5.0155691972029093 3 5.4011157955267093 5 
	0.87758256189036787 0.47942553860419723 137.6266630761001 
	0.81296677561369313 0.59770394201244692 137.56204728982345 
	0.73214933275019067 0.69827899339446764 137.48122984695993 
	0.64159511455179707 0.78022171257318929 137.39067562876153 
	0.43360454729054654 0.92148385188860038 137.18268506150031 
	0.20752804398758018 0.99016702413275715 136.95660855819733 
	0.083606701851066223 1.0078956713669447 136.83268721606078 
	-0.10433842758314382 1.0063832988175365 136.64474208662659 
	-0.28861635225996318 0.96067005610821232 136.4604641619498 
	-0.35017977337970541 0.94009240057642629 136.39890074083002 
	-0.46845660319609328 0.88953277659825281 136.28062391101366 
	-0.58109400517802667 0.81778075091942271 136.16798650903172 
	-0.63434358396545187 0.77748646836789237 136.11473693024431 
	-0.73202090091025118 0.6896290791870936 136.01705961329947 
	-0.81829650259941067 0.58062129541490115 135.93078401161034 
	-0.85636430602467639 0.52343852590228412 135.89271620818505 
	-0.92917723297349863 0.38974239627214174 135.81990328123624 
	-0.97779700593004204 0.23527075470316683 135.77128350827968 
	-0.99523075315877607 0.14762080916846715 135.75384976105096 
	-1.0057831879528414 0.014237733314203221 135.74329732625688 
	-0.9944266168099789 -0.11772963585338199 135.75465389739975 
	-0.98849191882327392 -0.15991114134285928 135.76058859538648 
	-0.97012846480490023 -0.25400846528101584 135.77895204940484 
	-0.94149845482811401 -0.34298961534645278 135.80758205938162 
	-0.92256930173397067 -0.39077511007202592 135.82651121247574 
	-0.9011540591193965 -0.43627820234407166 135.84792645509032 
	-0.87758256189036254 -0.47942553860419734 135.87149795231937 
	0 
	null_surface 
	null_surface 
	nullbs 
	nullbs 
	-1 
	-1 
	I I 
	0 
	0 
	7 1.0568864741567705 2.2936576000565441 2.9247788680878779 3.5265536120845802 4.0782079510783262 4.712538196105748 5.0155691972029093 
	
	-1 
	none F F 1 F 0 } I I #
-73 coedge $-1 -1 -1 $-1 $82 $85 $49 $74 reversed $58 $-1 #
-74 edge $-1 -1 -1 $-1 $77 0.49999999999999878 $76 3.6415926535897931 $49 $93 forward @7 unknown T -0.4999999999999829 -0.23971276930209326 92.988779029046341 0.43879128094517167 0.4999999999999829 92.988779029046341 #
-75 coedge $-1 -1 -1 $-1 $50 $84 $82 $94 forward $41 $-1 #
-76 vertex $-1 -1 -1 $-1 $51 $95 #
-77 vertex $-1 -1 -1 $-1 $51 $96 #
-78 ellipse-curve $-1 -1 -1 $-1 0 0 92.988779029046341 0 0 1 0.4999999999999829 0 0 1 F -2.6415926535897931 F 0.49999999999999878 #
-79 ellipse-curve $-1 -1 -1 $-1 0 0 92.988779029046356 0 0 1 0.99999999999998845 0 0 1 F -2.6415926535897931 F 0.49999999999999967 #
-80 point $-1 -1 -1 $-1 0.87758256189036277 0.47942553860419723 92.988779029046341 #
-81 point $-1 -1 -1 $-1 -0.87758256189036266 -0.47942553860419734 92.988779029046341 #
-82 coedge $-1 -1 -1 $-1 $97 $73 $75 $94 reversed $58 $-1 #
-83 tcoedge-coedge $-1 -1 -1 $-1 $98 $98 $84 $99 reversed $60 $100 -2.698299180634351 -0 F #
-84 tcoedge-coedge $-1 -1 -1 $-1 $75 $61 $83 $99 forward $41 $101 0 2.698299180634351 F #
-85 coedge $-1 -1 -1 $-1 $73 $97 $61 $86 forward $58 $-1 #
-86 edge $-1 -1 -1 $-1 $102 -20.821510204218214 $76 22.5 $61 $103 reversed @7 unknown T -0.43879128094517572 -0.23971276930209759 92.988779029046341 -0.43879128094516706 -0.23971276930208893 136.31028923326454 #
-87 pcurve $-1 -1 -1 $-1 0 forward { exppc nubs 5 open 9 
	0 5 1.0568864741549961 3 2.2936576000583884 3 2.9247788680919262 3 3.5265536120869476 3 
	4.0782079510789195 3 4.7125381961068262 3 5.0155691972050658 3 5.4011157955288747 5 
	2.7866667619184113 0.47942553860419723 
	2.8780472832141299 0.59770394201224841 
	2.992340406987708 0.69827899339437804 
	3.1204034104949869 0.78022171257342798 
	3.4145464915615094 0.92148385188886128 
	3.7342669486670701 0.99016702413299629 
	3.9095181913816077 1.0078956713666001 
	4.1753127424105401 1.0063832988178019 
	4.435921082735149 0.96067005610801293 
	4.5229849078275493 0.9400924005766037 
	4.6902536046685555 0.88953277659844554 
	4.8495469461818601 0.81778075091961266 
	4.9248532226946509 0.77748646836773017 
	5.0629898090536471 0.68962907918696936 
	5.1850019350641077 0.58062129541531116 
	5.2388379389584969 0.52343852590188089 
	5.34181096776544 0.38974239627185236 
	5.410569710079983 0.23527075470303638 
	5.4352247518537808 0.14762080916860357 
	5.4501481482556642 0.014237733314116013 
	5.4340875313232857 -0.11772963585368763 
	5.4256946009419948 -0.15991114134255535 
	5.3997247552172496 -0.2540084652808916 
	5.3592358068170398 -0.34298961534643957 
	5.3324659417871203 -0.39077511007203991 
	5.3021802152400994 -0.43627820234407033 
	5.2688450841733498 -0.47942553860419712 
	0 
	0 
	plane -2.8480535261500108 0 133.9010269880597 -0.70710678118654935 0 0.70710678118654569 0.70710678118654569 0 0.70710678118654935 reverse_v I I I I 
	} 0 0 #
-88 intcurve-curve $-1 -1 -1 $-1 forward { exactcur full nubs 5 open 9 
	0 5 1.0568864741549961 3 2.2936576000583884 3 2.9247788680919262 3 3.5265536120869476 3 
	4.0782079510789195 3 4.7125381961068262 3 5.0155691972050658 3 5.4011157955288747 5 
	-0.87758256189035388 -0.47942553860419723 135.87149795231937 
	-0.81296677561378727 -0.59770394201224841 135.93611373859596 
	-0.73214933275049132 -0.69827899339437804 136.01693118145926 
	-0.64159511455138141 -0.78022171257342798 136.10748539965834 
	-0.43360454729013886 -0.92148385188886128 136.31547596691962 
	-0.20752804398673907 -0.99016702413299629 136.541552470223 
	-0.083606701851913101 -1.0078956713666001 136.66547381235785 
	0.10433842758307099 -1.0063832988178019 136.85341894179282 
	0.28861635226036775 -0.96067005610801293 137.03769686647013 
	0.35017977337925998 -0.9400924005766037 137.099260287589 
	0.46845660319576909 -0.88953277659844554 137.21753711740553 
	0.58109400517769894 -0.81778075091961266 137.33017451938741 
	0.63434358396578761 -0.77748646836773017 137.38342409817551 
	0.73202090091019523 -0.68962907918696936 137.48110141511995 
	0.81829650259918818 -0.58062129541531116 137.5673770168089 
	0.85636430602488911 -0.52343852590188089 137.60544482023465 
	0.92917723297360899 -0.38974239627185236 137.67825774718335 
	0.97779700593007446 -0.23527075470303638 137.72687752013979 
	0.99523075315876586 -0.14762080916860357 137.74431126736852 
	1.0057831879528591 -0.014237733314116013 137.7548637021626 
	0.9944266168099527 0.11772963585368763 137.74350713101967 
	0.98849191882330389 0.15991114134255535 137.73757243303305 
	0.97012846480497883 0.2540084652808916 137.7192089790147 
	0.94149845482806871 0.34298961534643957 137.6905789690378 
	0.92256930173396379 0.39077511007203991 137.67164981594368 
	0.90115405911939739 0.43627820234407033 137.65023457332916 
	0.87758256189036343 0.47942553860419712 137.6266630761001 
	0 
	null_surface 
	null_surface 
	nullbs 
	nullbs 
	-1 
	-1 
	I I 
	0 
	0 
	7 1.0568864741549961 2.2936576000583884 2.9247788680919262 3.5265536120869476 4.0782079510789195 4.7125381961068262 5.0155691972050658 
	
	-1 
	none F F 1 F 0 } I I #
-89 straight-curve $-1 -1 -1 $-1 0.87758256189036277 0.47942553860419723 115.48877902904637 0 0 1 F -22.500000000000028 F 22.137884047053745 #
-90 straight-curve $-1 -1 -1 $-1 -0.87758256189036266 -0.47942553860419734 115.48877902904637 0 0 1 F -22.500000000000028 F 20.382718923273018 #
-91 point $-1 -1 -1 $-1 0.87758256189036277 0.47942553860419723 137.6266630761001 #
-92 point $-1 -1 -1 $-1 -0.87758256189036266 -0.47942553860419734 135.87149795231937 #
-93 ellipse-curve $-1 -1 -1 $-1 0 0 92.988779029046341 0 0 1 0.4999999999999829 0 0 1 F 0.49999999999999878 F 3.6415926535897931 #
-94 edge $-1 -1 -1 $-1 $104 -21.699092766108492 $77 22.5 $75 $105 reversed @7 unknown T 0.43879128094505165 0.23971276930197283 92.988779029046341 0.43879128094529168 0.2397127693022128 137.18787179515493 #
-95 point $-1 -1 -1 $-1 -0.43879128094517139 -0.23971276930209326 92.988779029046341 #
-96 point $-1 -1 -1 $-1 0.43879128094517167 0.23971276930209282 92.988779029046341 #
-97 tcoedge-coedge $-1 -1 -1 $-1 $85 $82 $98 $106 forward $58 $107 0 2.698299180634899 F #
-98 tcoedge-coedge $-1 -1 -1 $-1 $83 $83 $97 $106 reversed $60 $108 -2.698299180634899 -0 F #
-99 tedge-edge $-1 -1 -1 $-1 $102 0 $104 2.698299180634351 $84 $109 forward @7 unknown T -0.43879778065976827 -0.50395434323797861 136.31028273354994 0.50091225830197605 0.23971926901678767 137.24999277251172 6.4997145925410162e-006 #
-100 pcurve $-1 -1 -1 $-1 0 forward { exppc nubs 5 open 9 
	-2.698299180634351 5 -2.5061018983642711 3 -2.3549960836724289 3 -2.2016342036441987 3 -2.0387942887702906 3 
	-1.7629655441419292 3 -1.1468266743440969 3 -0.52844176969621914 3 -0 5 
	4.6483005036095193 -0.23971276930219512 
	4.6649182655687866 -0.21820356444228595 
	4.6800203474537199 -0.19552354021338011 
	4.6935634883939628 -0.17134616264616542 
	4.7137378046702025 -0.12697887931940222 
	4.7266943110344073 -0.080067837463969338 
	4.7309357016627729 -0.058749739491893813 
	4.7361436403109423 -0.015884706281816083 
	4.7348137420469243 0.027279384406659765 
	4.7324210959332618 0.049238175770021639 
	4.7241825256042489 0.093311068344482856 
	4.7094372815536474 0.13567008189189983 
	4.7001099331659901 0.15713247213105747 
	4.6713843874071443 0.21226809330128751 
	4.633296753480451 0.26171941847776509 
	4.6063794708983181 0.29031004279445916 
	4.512025720435247 0.37460784188128593 
	4.3983853088913207 0.43360891980632504 
	4.3154435481367557 0.46333352405516104 
	4.1443063194418528 0.50294822392046146 
	3.9686375507639582 0.50394784352338606 
	3.8810114327476981 0.49508358357198834 
	3.7211519783348876 0.46074202888065507 
	3.5740802400032265 0.39011129378836462 
	3.5100472732603976 0.34913899056736702 
	3.4529014762572814 0.29885180678837259 
	3.4072113424821424 0.23971276930209331 
	0 
	0 
	plane -2.8480535261500108 0 133.9010269880597 -0.70710678118654935 0 0.70710678118654569 0.70710678118654569 0 0.70710678118654935 reverse_v I I I I 
	} 0 0 #
-101 pcurve $-1 -1 -1 $-1 0 forward { exppc nubs 5 open 11 
	0 5 0.52844176969621914 3 0.89943306021145031 2 1.1468266743440969 3 1.7629655441419292 1 
	1.7988661204229006 3 2.0387942887702906 3 2.2016342036441987 3 2.3549960836724289 3 2.5061018983642711 3 
	2.698299180634351 5 
	-20.82151020488601 -2.6415926535897976 
	-20.853818008311748 -2.5068155054229257 
	-20.89422618888895 -2.3798077668063891 
	-20.939504333892302 -2.2593576458162161 
	-21.021065849764597 -2.0639432333783918 
	-21.108189226362093 -1.8784871253437785 
	-21.169083294726693 -1.7529046048679051 
	-21.230976416996302 -1.6293292920825939 
	-21.292866673315544 -1.5057586407515728 
	-21.379080912330579 -1.332769417177722 
	-21.467246455189592 -1.1493684248607383 
	-21.529204673296132 -1.0120945646296791 
	-21.587553380370899 -0.8682390177056134 
	-21.656792077392922 -0.65733571347399677 
	-21.676774199554046 -0.59023462343766875 
	-21.69284739968964 -0.53028573229911824 
	-21.717077870839901 -0.42693876984573476 
	-21.735727565745158 -0.31918942733960409 
	-21.742322997040503 -0.27437572167208485 
	-21.752749459098968 -0.18727136872748595 
	-21.75857500804586 -0.098482785643336707 
	-21.760266864337808 -0.054522545874795922 
	-21.761207244418582 0.031700041702617907 
	-21.7575246756845 0.11762307364811941 
	-21.754525559609476 0.16059740569213185 
	-21.745363926098872 0.25606628154372135 
	-21.731098530254073 0.34906612239352214 
	-21.721522083456733 0.40093423179672438 
	-21.710843298945861 0.45098078336133157 
	-21.699092766776317 0.50000000000023204 
	7.6239285723546729e-006 
	1.4403403338643789e-005 
	cone 0 0 115.48877902837854 0 0 1 0.4999999999999829 0 0 1 I I 0 1 1 reversed I I I I 
	} 0 0 #
-102 tvertex-vertex $-1 -1 -1 $-1 $86 $110 4.3302256221303443e-015 #
-103 straight-curve $-1 -1 -1 $-1 -0.43879128094517139 -0.23971276930209326 115.48877902904634 0 0 1 F -22.5 F 20.821510204218214 #
-104 tvertex-vertex $-1 -1 -1 $-1 $94 $111 1.1999710885310756e-013 #
-105 straight-curve $-1 -1 -1 $-1 0.43879128094517167 0.23971276930209282 115.48877902904634 0 0 1 F -22.5 F 21.699092766108492 #
-106 tedge-edge $-1 -1 -1 $-1 $104 0 $102 2.698299180634899 $97 $112 forward @7 unknown T -0.50091225830196939 -0.2397192690166832 136.24816825590776 0.43879778065976516 0.50395434323788335 137.18787829486953 6.49971458989729e-006 #
-107 pcurve $-1 -1 -1 $-1 0 forward { exppc nubs 5 open 11 
	0 5 0.52844176969671075 3 0.89943306021163305 2 1.1468266743455962 3 1.762965544143219 1 
	1.7988661204232661 3 2.0387942887708834 3 2.2016342036447893 3 2.3549960836730137 3 2.506101898364844 3 
	2.698299180634899 5 
	-21.699092766776374 0.49999999999999534 
	-21.666784963350608 0.63477714816699249 
	-21.626376782773406 0.76178488678366341 
	-21.581098637770197 0.88223500777329045 
	-21.499537121897912 1.0776494202111837 
	-21.412413745300356 1.263105528245825 
	-21.351519676935926 1.3886880487215203 
	-21.289626554666501 1.5122633615065515 
	-21.227736298347139 1.6358340128376105 
	-21.141522059331994 1.8088232364116446 
	-21.053356516472892 1.9922242287287466 
	-20.991398298366487 2.1294980889596515 
	-20.933049591291816 2.2733536358834798 
	-20.863810894269676 2.4842569401148427 
	-20.843828772108566 2.5513580301512206 
	-20.827755571972808 2.6113069212903679 
	-20.803525100822579 2.7146538837438019 
	-20.784875405917361 2.8224032262499845 
	-20.77827997462191 2.8672169319175209 
	-20.767853512563445 2.9543212848620919 
	-20.762027963616525 3.0431098679462569 
	-20.760336107324576 3.0870701077147875 
	-20.759395727243803 3.1732926952921874 
	-20.763078295977969 3.2592157272376938 
	-20.76607741205288 3.3021900592817004 
	-20.775239045563485 3.3976589351332849 
	-20.789504441408248 3.4906587759830803 
	-20.799080888205623 3.542526885386279 
	-20.809759672716496 3.5925734369508953 
	-20.82151020488601 3.6415926535897931 
	7.6239286220025308e-006 
	1.4403403380631107e-005 
	cone 0 0 115.48877902837854 0 0 1 0.4999999999999829 0 0 1 I I 0 1 1 reversed I I I I 
	} 0 0 #
-108 pcurve $-1 -1 -1 $-1 0 forward { exppc nubs 5 open 9 
	-2.698299180634899 5 -2.506101898364844 3 -2.3549960836730137 3 -2.2016342036447893 3 -2.0387942887708834 3 
	-1.762965544143219 3 -1.1468266743455962 3 -0.52844176969671075 3 -0 5 
	3.4072113424821424 0.23971276930209329 
	3.3905935805229035 0.21820356444218247 
	3.3754914986379703 0.19552354021326507 
	3.3619483576977274 0.17134616264605451 
	3.3417740414215018 0.12697887931929083 
	3.3288175350572971 0.080067837463858163 
	3.3245761444289315 0.058749739491785261 
	3.3193682057808047 0.015884706281704311 
	3.3206981040448227 -0.027279384406764445 
	3.3230907501584994 -0.049238175770121365 
	3.3313293204875265 -0.093311068344588993 
	3.3460745645381422 -0.13567008189199026 
	3.3554019129257995 -0.15713247213115764 
	3.3841274586846311 -0.21226809330128399 
	3.4222150926112249 -0.26171941847769736 
	3.4491323751936278 -0.29031004279465733 
	3.5434861256566421 -0.37460784188135721 
	3.6571265372004973 -0.43360891980634292 
	3.7400682979550766 -0.46333352405510375 
	3.9112055266501358 -0.50294822392059135 
	4.0868742953281298 -0.50394784352329347 
	4.1745004133438215 -0.49508358357205395 
	4.3343598677568025 -0.46074202888068116 
	4.4814316060886767 -0.39011129378829285 
	4.5454645728312926 -0.34913899056749126 
	4.6026103698344087 -0.29885180678842715 
	4.6483005036096046 -0.23971276930209279 
	0 
	0 
	plane -2.8480535261500108 0 133.9010269880597 -0.70710678118654935 0 0.70710678118654569 0.70710678118654569 0 0.70710678118654935 reverse_v I I I I 
	} 0 0 #
-109 intcurve-curve $-1 -1 -1 $-1 forward { exactcur full nubs 5 open 9 
	0 5 0.52844176969621914 3 1.1468266743440969 3 1.7629655441419292 3 2.0387942887702906 3 
	2.2016342036441987 3 2.3549960836724289 3 2.5061018983642711 3 2.698299180634351 5 
	-0.43879128094517572 -0.23971276930209331 136.31028923326454 
	-0.40648347751945613 -0.29885180678837259 136.34259703669028 
	-0.36607529694224628 -0.34913899056736702 136.38300521726751 
	-0.32079715193888436 -0.39011129378836462 136.42828336227086 
	-0.21680172844368117 -0.46074202888065507 136.53227878576604 
	-0.10376402419159758 -0.49508358357198834 136.64531649001816 
	-0.041803001933254702 -0.50394784352338606 136.70727751227651 
	0.082413575641583581 -0.50294822392046146 136.83149408985133 
	0.2034258705652241 -0.46333352405516104 136.95250638477495 
	0.26207455203831342 -0.43360891980632504 137.01115506624808 
	0.34243045765786073 -0.37460784188128593 137.09151097186759 
	0.40914863444068539 -0.29031004279445916 137.15822914865043 
	0.42818202748562539 -0.26171941847776509 137.17726254169537 
	0.4551140517145349 -0.21226809330128751 137.2041945659243 
	0.47542607991390717 -0.15713247213105747 137.22450659412362 
	0.48202151120929759 -0.13567008189189983 137.23110202541903 
	0.49244797326774625 -0.093311068344482856 137.24152848747747 
	0.49827352221465571 -0.049238175770021639 137.24735403642438 
	0.49996537850661715 -0.027279384406659765 137.24904589271637 
	0.50090575858738351 0.015884706281816083 137.24998627279712 
	0.49722318985326508 0.058749739491893813 137.246303704063 
	0.4942240737782817 0.080067837463969338 137.24330458798801 
	0.48506244026767709 0.12697887931940222 137.23414295447742 
	0.47079704442293924 0.17134616264616542 137.21987755863267 
	0.46122059762552547 0.19552354021338011 137.21030111183529 
	0.45054181311465102 0.21820356444228595 137.19962232732439 
	0.43879128094511577 0.23971276930219512 137.18787179515488 
	0 
	null_surface 
	null_surface 
	nullbs 
	nullbs 
	-1 
	-1 
	I I 
	0 
	0 
	7 0.52844176969621914 1.1468266743440969 1.7629655441419292 2.0387942887702906 2.2016342036441987 2.3549960836724289 2.5061018983642711 
	
	-1 
	none F F 1 F 0 } I I #
-110 point $-1 -1 -1 $-1 -0.43879128094517139 -0.23971276930209326 136.31028923326454 #
-111 point $-1 -1 -1 $-1 0.43879128094517167 0.23971276930209282 137.18787179515482 #
-112 intcurve-curve $-1 -1 -1 $-1 forward { exactcur full nubs 5 open 9 
	0 5 0.52844176969671075 3 1.1468266743455962 3 1.762965544143219 3 2.0387942887708834 3 
	2.2016342036447893 3 2.3549960836730137 3 2.506101898364844 3 2.698299180634899 5 
	0.43879128094517528 0.23971276930209279 137.18787179515493 
	0.40648347751942593 0.29885180678842715 137.15556399172914 
	0.36607529694220364 0.34913899056749126 137.11515581115196 
	0.32079715193900826 0.39011129378829285 137.06987766614873 
	0.21680172844365186 0.46074202888068116 136.96588224265338 
	0.10376402419144126 0.49508358357205395 136.8528445384012 
	0.041803001933488737 0.50394784352329347 136.79088351614325 
	-0.082413575641403281 0.50294822392059135 136.66666693856831 
	-0.20342587056515304 0.46333352405510375 136.54565464364458 
	-0.2620745520382739 0.43360891980634292 136.48700596217145 
	-0.34243045765776614 0.37460784188135721 136.406650056552 
	-0.40914863444053173 0.29031004279465733 136.33993187976921 
	-0.42818202748568046 0.26171941847769736 136.32089848672405 
	-0.45511405171451491 0.21226809330128399 136.29396646249523 
	-0.47542607991388186 0.15713247213115764 136.27365443429585 
	-0.48202151120927184 0.13567008189199026 136.26705900300044 
	-0.49244797326772671 0.093311068344588993 136.25663254094201 
	-0.49827352221464682 0.049238175770121365 136.25080699199509 
	-0.49996537850661849 0.027279384406764445 136.24911513570311 
	-0.50090575858737951 -0.015884706281704311 136.24817475562236 
	-0.49722318985328506 -0.058749739491785261 136.25185732435642 
	-0.49422407377829947 -0.080067837463858163 136.25485644043141 
	-0.48506244026770595 -0.12697887931929083 136.26401807394205 
	-0.47079704442297876 -0.17134616264605451 136.27828346978674 
	-0.46122059762556278 -0.19552354021326507 136.28785991658418 
	-0.45054181311470076 -0.21820356444218247 136.29853870109503 
	-0.43879128094517128 -0.23971276930209329 136.31028923326454 
	0 
	null_surface 
	null_surface 
	nullbs 
	nullbs 
	-1 
	-1 
	I I 
	0 
	0 
	7 0.52844176969671075 1.1468266743455962 1.762965544143219 2.0387942887708834 2.2016342036447893 2.3549960836730137 2.506101898364844 
	
	-1 
	none F F 1 F 0 } I I #
End-of-ACIS-data 
