1200 0 1 0           
37 Abaqus, Inc. - ABAQUS 6.5-PR10 - 1209 14 ACIS 12.0.9 NT 24 Wed Dec 01 14:59:17 2004 
1 9.9999999999999995e-007 1e-010 
-0 body $1 -1 -1 $-1 $2 $-1 $3 F #
-1 ref_vt-eye-attrib $-1 -1 $-1 $-1 $0 $4 $-1 #
-2 lump $5 -1 -1 $-1 $-1 $6 $0 F #
-3 transform $-1 -1 1 0 0 0 1 0 0 0 1 0 0 0 1 no_rotate no_reflect no_shear #
-4 eye_refinement $-1 -1 @5 grid  1 @3 tri 1 @4 surf 0 @3 adj 0 @4 grad 0 @9 postcheck 0 @4 stol 0.064615777660177148 @4 ntol 15 @4 dsil 0 @8 flatness 0 @7 pixarea 0 @4 hmax 0 @6 gridar 0 @5 mgrid 512 @5 ugrid 0 @5 vgrid 0 @10 end_fields #
-5 cell_ptr-ct-attrib $-1 -1 $-1 $-1 $2 $7 $-1 auto #
-6 shell $-1 -1 -1 $-1 $-1 $-1 $8 $-1 $2 F #
-7 cell3d-cell $-1 -1 $9 $2 $-1 1 $10 #
-8 face $11 -1 -1 $-1 $12 $13 $6 $-1 $14 forward double in F T -13.5 -11.5 -1.5707963267948966 -1.1780972450961702 #
-9 cell3d-cell $-1 -1 $15 $2 $-1 1 $16 #
-10 cshell $-1 -1 $-1 $17 $7 #
-11 cface_ptr-ct-attrib $-1 -1 $-1 $-1 $8 $17 $18 #
-12 face $19 -1 -1 $-1 $20 $21 $6 $-1 $22 forward single F F #
-13 loop $-1 -1 -1 $-1 $-1 $23 $8 F unknown #
-14 spline-surface $-1 -1 -1 $-1 forward { exactsur full nurbs 1 2 both open open none none 2 2 
	-13.5 1 -11.5 1 
	-1.5707963267948966 2 -1.1780972450961702 2 
	-4.6324932330952171e-015 -0.99999999999999822 31.171572778176703 1 
	0 0.99999999999999689 31.171572778176703 1 
	-7.5245420129419989 -0.99999999999999822 31.171572778176703 0.98078528040323998 
	-7.5245420129419909 0.99999999999999689 31.171572778176703 0.98078528040324042 
	-14.476312370220411 -0.99999999999999822 34.051090342664693 1 
	-14.476312370220402 0.99999999999999689 34.051090342664693 1 
	0 
	0 
	0 
	0 
	0 
	0 
	0 
	F 1 F 0 F 1 F 0 } I I I I #
-15 cell3d-cell $-1 -1 $-1 $2 $-1 1 $24 #
-16 cshell $-1 -1 $-1 $25 $9 #
-17 cface $-1 -1 $26 $10 $8 1 #
-18 cface $-1 -1 $-1 $24 $8 0 #
-19 cface_ptr-ct-attrib $-1 -1 $-1 $-1 $12 $-1 $27 #
-20 face $28 -1 -1 $-1 $29 $30 $6 $-1 $31 forward double in F F #
-21 loop $-1 -1 -1 $-1 $-1 $32 $12 F unknown #
-22 plane-surface $-1 -1 -1 $-1 0 1 0 1 0 0 0 1 0 forward_v I I I I #
-23 coedge $-1 -1 -1 $-1 $33 $34 $35 $36 reversed $13 $37 #
-24 cshell $-1 -1 $-1 $38 $15 #
-25 cface $-1 -1 $39 $16 $40 0 #
-26 cface $-1 -1 $41 $10 $42 0 #
-27 cface $-1 -1 $43 $10 $12 0 #
-28 cface_ptr-ct-attrib $-1 -1 $-1 $-1 $20 $44 $38 #
-29 face $45 -1 -1 $-1 $46 $47 $6 $-1 $22 forward single F F #
-30 loop $-1 -1 -1 $-1 $-1 $48 $20 F unknown #
-31 plane-surface $-1 -1 -1 $-1 0 1 19 0 0 -1 -1 0 0 forward_v I I I I #
-32 coedge $-1 -1 -1 $-1 $49 $50 $23 $36 reversed $21 $-1 #
-33 coedge $-1 -1 -1 $-1 $51 $23 $52 $53 reversed $13 $54 #
-34 coedge $-1 -1 -1 $-1 $23 $51 $55 $56 forward $13 $57 #
-35 coedge $-1 -1 -1 $-1 $58 $59 $32 $36 forward $60 $-1 #
-36 edge $-1 -1 -1 $-1 $61 -1 $62 1 $35 $63 forward @7 unknown F #
-37 pcurve $-1 -1 -1 $-1 0 forward { exppc nubs 1 open 2 
	-1 1 1 1 
	-13.5 -1.5707963267948966 
	-11.5 -1.5707963267948966 
	0 
	-1 
	spline forward { ref 0 } I I I I 
	} 0 0 #
-38 cface $-1 -1 $64 $24 $20 0 #
-39 cface $-1 -1 $65 $16 $66 0 #
-40 face $67 -1 -1 $-1 $66 $68 $6 $-1 $69 forward single F F #
-41 cface $-1 -1 $70 $10 $71 0 #
-42 face $72 -1 -1 $-1 $73 $74 $6 $-1 $75 forward single F F #
-43 cface $-1 -1 $76 $10 $77 0 #
-44 cface $-1 -1 $78 $16 $20 1 #
-45 cface_ptr-ct-attrib $-1 -1 $-1 $-1 $29 $-1 $78 #
-46 face $79 -1 -1 $-1 $80 $81 $6 $-1 $82 reversed single F F #
-47 loop $-1 -1 -1 $-1 $-1 $83 $29 F unknown #
-48 coedge $-1 -1 -1 $-1 $84 $85 $83 $86 forward $30 $-1 #
-49 coedge $-1 -1 -1 $-1 $87 $32 $88 $89 forward $21 $-1 #
-50 coedge $-1 -1 -1 $-1 $32 $90 $91 $92 forward $21 $-1 #
-51 coedge $-1 -1 -1 $-1 $34 $33 $93 $94 forward $13 $95 #
-52 coedge $-1 -1 -1 $-1 $96 $97 $98 $53 forward $99 $-1 #
-53 edge $-1 -1 -1 $-1 $100 -0.39269908169872614 $61 0 $52 $101 forward @7 unknown F #
-54 pcurve $-1 -1 -1 $-1 0 reversed { exppc nubs 2 open 7 
	-0.39269908169872614 2 -0.32724923474893847 2 -0.2617993877991508 2 -0.19634954084936307 2 -0.1308996938995754 2 
	-0.065449846949787671 2 0 2 
	-11.5 -1.1780972450961702 
	-11.5 -1.2110273960676412 
	-11.5 -1.2437812822489283 
	-11.5 -1.2765352440305826 
	-11.5 -1.3091840502706016 
	-11.5 -1.3418328940282314 
	-11.5 -1.3744467859455332 
	-11.5 -1.407060677862835 
	-11.5 -1.4397095216204647 
	-11.5 -1.4723583278604837 
	-11.5 -1.5051122896421383 
	-11.5 -1.5378661758234253 
	-11.5 -1.5707963267948966 
	0.001 
	7.9333872804454586e-011 
	spline forward { ref 0 } I I I I 
	} 0 0 #
-55 coedge $-1 -1 -1 $-1 $91 $102 $103 $56 forward $104 $-1 #
-56 edge $-1 -1 -1 $-1 $105 2.7488935718910668 $62 3.1415926535897931 $103 $106 forward @7 unknown F #
-57 pcurve $-1 -1 -1 $-1 0 forward { exppc nubs 2 open 7 
	2.7488935718910668 2 2.8143434188408545 2 2.8797932657906422 2 2.9452431127404299 2 3.0106929596902177 2 
	3.0761428066400054 2 3.1415926535897931 2 
	-13.5 -1.1780972450961702 
	-13.5 -1.2110273960676412 
	-13.5 -1.2437812822489283 
	-13.5 -1.2765352440305824 
	-13.5 -1.3091840502706016 
	-13.5 -1.3418328940282314 
	-13.5 -1.3744467859455332 
	-13.5 -1.4070606778628352 
	-13.5 -1.4397095216204647 
	-13.5 -1.4723583278604837 
	-13.5 -1.5051122896421383 
	-13.5 -1.5378661758234253 
	-13.5 -1.5707963267948966 
	0.001 
	7.9333872804454586e-011 
	spline forward { ref 0 } I I I I 
	} 0 0 #
-58 coedge $-1 -1 -1 $-1 $107 $35 $108 $109 reversed $60 $-1 #
-59 coedge $-1 -1 -1 $-1 $35 $107 $96 $110 forward $60 $-1 #
-60 loop $-1 -1 -1 $-1 $-1 $35 $111 F unknown #
-61 vertex $-1 -1 -1 $-1 $89 $112 #
-62 vertex $-1 -1 -1 $-1 $109 $113 #
-63 straight-curve $-1 -1 -1 $-1 0 0 31.171572778176703 0 -1 0 I I #
-64 cface $-1 -1 $114 $24 $115 0 #
-65 cface $-1 -1 $116 $16 $117 0 #
-66 face $118 -1 -1 $-1 $117 $119 $6 $-1 $120 reversed single F F #
-67 cface_ptr-ct-attrib $-1 -1 $-1 $-1 $40 $-1 $25 #
-68 loop $-1 -1 -1 $-1 $-1 $121 $40 F unknown #
-69 plane-surface $-1 -1 -1 $-1 0 -25 0 -4.3856260497115313e-016 -1 0 1 -4.3856260497115313e-016 0 forward_v I I I I #
-70 cface $-1 -1 $27 $10 $122 0 #
-71 face $123 -1 -1 $-1 $42 $104 $6 $-1 $124 forward single F F #
-72 cface_ptr-ct-attrib $-1 -1 $-1 $-1 $42 $-1 $26 #
-73 face $125 -1 -1 $-1 $126 $127 $6 $-1 $128 forward single F F #
-74 loop $-1 -1 -1 $-1 $-1 $129 $42 F unknown #
-75 torus-surface $-1 -1 -1 $-1 0 3.9999999999999991 68.999999999999986 0 1 4.7369515717340015e-017 37.828427221823283 -3.0000000000000009 0 -4.7369515717340015e-017 1 forward_v I I I I #
-76 cface $-1 -1 $130 $10 $131 0 #
-77 face $132 -1 -1 $-1 $71 $133 $6 $-1 $134 forward single F F #
-78 cface $-1 -1 $135 $16 $29 0 #
-79 cface_ptr-ct-attrib $-1 -1 $-1 $-1 $46 $-1 $114 #
-80 face $136 -1 -1 $-1 $131 $137 $6 $-1 $82 reversed single F F #
-81 loop $-1 -1 -1 $-1 $-1 $138 $46 F unknown #
-82 plane-surface $-1 -1 -1 $-1 -14.476312370220402 24.999999999999996 34.051090342664693 1 3.3010374711112667e-016 0 0 0 1 forward_v I I I I #
-83 coedge $-1 -1 -1 $-1 $139 $140 $107 $86 forward $47 $-1 #
-84 coedge $-1 -1 -1 $-1 $141 $48 $142 $143 forward $30 $-1 #
-85 coedge $-1 -1 -1 $-1 $48 $141 $144 $145 forward $30 $-1 #
-86 edge $-1 -1 -1 $-1 $146 0 $147 2 $83 $148 forward @7 unknown F #
-87 coedge $-1 -1 -1 $-1 $149 $49 $150 $151 forward $21 $-1 #
-88 coedge $-1 -1 -1 $-1 $98 $152 $49 $89 reversed $74 $-1 #
-89 edge $-1 -1 -1 $-1 $61 1.5707963267948966 $153 2.8017557441356722 $88 $154 forward @7 unknown F #
-90 coedge $-1 -1 -1 $-1 $50 $149 $155 $156 forward $21 $-1 #
-91 coedge $-1 -1 -1 $-1 $157 $55 $50 $92 reversed $104 $-1 #
-92 edge $-1 -1 -1 $-1 $158 -2.8017557441356722 $62 -1.5707963267948966 $91 $159 forward @7 unknown F #
-93 coedge $-1 -1 -1 $-1 $160 $161 $162 $94 forward $163 $-1 #
-94 edge $-1 -1 -1 $-1 $100 24 $105 26 $162 $164 forward @7 unknown F #
-95 pcurve $-1 -1 -1 $-1 0 forward { exppc nubs 1 open 2 
	24 1 26 1 
	-11.5 -1.1780972450961702 
	-13.5 -1.1780972450961702 
	0 
	-1 
	spline forward { ref 0 } I I I I 
	} 0 0 #
-96 coedge $-1 -1 -1 $-1 $165 $52 $59 $110 reversed $99 $-1 #
-97 coedge $-1 -1 -1 $-1 $52 $165 $166 $167 forward $99 $-1 #
-98 coedge $-1 -1 -1 $-1 $129 $88 $33 $53 reversed $74 $-1 #
-99 loop $-1 -1 -1 $-1 $-1 $97 $126 F unknown #
-100 vertex $-1 -1 -1 $-1 $53 $168 #
-101 ellipse-curve $-1 -1 -1 $-1 0 0.99999999999999678 68.999999999999986 0 -1 0 0 0 -37.828427221823283 1 F -0.39269908169872614 F 0 #
-102 coedge $-1 -1 -1 $-1 $55 $157 $160 $169 forward $104 $-1 #
-103 coedge $-1 -1 -1 $-1 $170 $108 $34 $56 reversed $171 $-1 #
-104 loop $-1 -1 -1 $-1 $-1 $102 $71 F unknown #
-105 vertex $-1 -1 -1 $-1 $56 $172 #
-106 ellipse-curve $-1 -1 -1 $-1 0 -1 68.999999999999986 0 -1 0 0 -1.7919142778464109e-015 37.828427221823283 1 F 2.7488935718910668 F 3.1415926535897931 #
-107 coedge $-1 -1 -1 $-1 $59 $58 $48 $86 reversed $60 $-1 #
-108 coedge $-1 -1 -1 $-1 $103 $173 $58 $109 forward $171 $-1 #
-109 edge $-1 -1 -1 $-1 $147 19 $62 31.171572778176703 $108 $174 forward @7 unknown F #
-110 edge $-1 -1 -1 $-1 $146 19 $61 31.171572778176703 $59 $175 forward @7 unknown F #
-111 face $176 -1 -1 $-1 $77 $60 $6 $-1 $22 forward single F F #
-112 point $-1 -1 -1 $-1 0 1 31.171572778176703 #
-113 point $-1 -1 -1 $-1 0 -1 31.171572778176703 #
-114 cface $-1 -1 $177 $24 $46 0 #
-115 face $178 -1 -1 $-1 $179 $171 $6 $-1 $180 forward single F F #
-116 cface $-1 -1 $181 $16 $182 0 #
-117 face $183 -1 -1 $-1 $182 $184 $6 $-1 $185 forward single F F #
-118 cface_ptr-ct-attrib $-1 -1 $-1 $-1 $66 $-1 $39 #
-119 loop $-1 -1 -1 $-1 $-1 $186 $66 F unknown #
-120 plane-surface $-1 -1 -1 $-1 -64.806504495004702 24.999999999999979 3 0 0 1 -1 -3.2892195372836477e-016 0 forward_v I I I I #
-121 coedge $-1 -1 -1 $-1 $187 $188 $189 $190 forward $68 $-1 #
-122 face $191 -1 -1 $-1 $111 $192 $6 $-1 $193 forward single F F #
-123 cface_ptr-ct-attrib $-1 -1 $-1 $-1 $71 $-1 $41 #
-124 torus-surface $-1 -1 -1 $-1 0 -4.0000000000000027 68.999999999999986 0 1 4.7369515717340015e-017 37.828427221823283 -3.0000000000000009 0 -4.7369515717340015e-017 1 forward_v I I I I #
-125 cface_ptr-ct-attrib $-1 -1 $-1 $-1 $73 $-1 $181 #
-126 face $194 -1 -1 $-1 $-1 $99 $6 $-1 $195 forward single F F #
-127 loop $-1 -1 -1 $-1 $-1 $196 $73 F unknown #
-128 cone-surface $-1 -1 -1 $-1 -57.721989656699456 9 19 -1 0 0 0 -5.6568542494923797 -5.6568542494923797 1 I I 0 -1 7.9999999999999991 forward I I I I #
-129 coedge $-1 -1 -1 $-1 $152 $98 $161 $197 forward $74 $-1 #
-130 cface $-1 -1 $-1 $10 $198 0 #
-131 face $199 -1 -1 $-1 $115 $163 $6 $-1 $200 reversed single F F #
-132 cface_ptr-ct-attrib $-1 -1 $-1 $-1 $77 $-1 $43 #
-133 loop $-1 -1 -1 $-1 $-1 $201 $77 F unknown #
-134 plane-surface $-1 -1 -1 $-1 0 -3.0000000000000013 51.499999951461596 0 -1 7.6129578620283256e-017 0 7.6129578620283256e-017 1 forward_v I I I I #
-135 cface $-1 -1 $202 $16 $203 0 #
-136 cface_ptr-ct-attrib $-1 -1 $-1 $-1 $80 $-1 $202 #
-137 loop $-1 -1 -1 $-1 $-1 $204 $80 F unknown #
-138 coedge $-1 -1 -1 $-1 $205 $166 $141 $206 reversed $81 $-1 #
-139 coedge $-1 -1 -1 $-1 $207 $83 $208 $209 reversed $47 $-1 #
-140 coedge $-1 -1 -1 $-1 $83 $210 $211 $212 reversed $47 $-1 #
-141 coedge $-1 -1 -1 $-1 $85 $84 $204 $206 forward $30 $-1 #
-142 coedge $-1 -1 -1 $-1 $213 $208 $173 $143 forward $214 $-1 #
-143 edge $-1 -1 -1 $-1 $147 -22.721989656699456 $215 -8.2456772864790633 $173 $216 forward @7 unknown F #
-144 coedge $-1 -1 -1 $-1 $211 $196 $165 $145 forward $127 $-1 #
-145 edge $-1 -1 -1 $-1 $217 43.245677286479058 $146 57.721989656699456 $165 $218 forward @7 unknown F #
-146 vertex $-1 -1 -1 $-1 $110 $219 #
-147 vertex $-1 -1 -1 $-1 $109 $220 #
-148 straight-curve $-1 -1 -1 $-1 0 1 19 0 -1 0 I I #
-149 coedge $-1 -1 -1 $-1 $90 $87 $221 $222 forward $21 $-1 #
-150 coedge $-1 -1 -1 $-1 $223 $224 $87 $151 reversed $192 $-1 #
-151 edge $-1 -1 -1 $-1 $153 0 $225 5.0000000970770913 $150 $226 forward @7 unknown F #
-152 coedge $-1 -1 -1 $-1 $88 $129 $223 $227 reversed $74 $-1 #
-153 vertex $-1 -1 -1 $-1 $89 $228 #
-154 ellipse-curve $-1 -1 -1 $-1 0 4.0000000000000009 31.171572778176703 -1 0 0 0 0 -3.0000000000000009 1 I I #
-155 coedge $-1 -1 -1 $-1 $229 $230 $90 $156 reversed $133 $-1 #
-156 edge $-1 -1 -1 $-1 $231 30.000000000000313 $158 35.000000097077404 $155 $232 forward @7 unknown F #
-157 coedge $-1 -1 -1 $-1 $102 $91 $230 $233 forward $104 $-1 #
-158 vertex $-1 -1 -1 $-1 $156 $234 #
-159 ellipse-curve $-1 -1 -1 $-1 0 -4.0000000000000009 31.171572778176703 -1 0 0 0 0 -3.0000000000000009 1 I I #
-160 coedge $-1 -1 -1 $-1 $235 $93 $102 $169 reversed $163 $-1 #
-161 coedge $-1 -1 -1 $-1 $93 $236 $129 $197 reversed $163 $-1 #
-162 coedge $-1 -1 -1 $-1 $166 $205 $51 $94 reversed $81 $-1 #
-163 loop $-1 -1 -1 $-1 $-1 $160 $131 F unknown #
-164 straight-curve $-1 -1 -1 $-1 -14.476312370220402 24.999999999999996 34.051090342664693 3.3010374711112667e-016 -1 0 I I #
-165 coedge $-1 -1 -1 $-1 $97 $96 $85 $145 reversed $99 $-1 #
-166 coedge $-1 -1 -1 $-1 $138 $162 $97 $167 reversed $81 $-1 #
-167 edge $-1 -1 -1 $-1 $217 1.9744548286676533 $100 17.025545171332347 $97 $237 forward @7 unknown F #
-168 point $-1 -1 -1 $-1 -14.4763123702204 0.99999999999999822 34.051090342664693 #
-169 edge $-1 -1 -1 $-1 $238 -2.8017557441356713 $105 -1.5707963267948974 $102 $239 forward @7 unknown F #
-170 coedge $-1 -1 -1 $-1 $173 $103 $205 $240 forward $171 $-1 #
-171 loop $-1 -1 -1 $-1 $-1 $170 $115 F unknown #
-172 point $-1 -1 -1 $-1 -14.476312370220404 -1.0000000000000018 34.051090342664693 #
-173 coedge $-1 -1 -1 $-1 $108 $170 $84 $143 reversed $171 $-1 #
-174 straight-curve $-1 -1 -1 $-1 0 -1 0 0 0 1 I I #
-175 straight-curve $-1 -1 -1 $-1 0 1 0 0 0 1 I I #
-176 cface_ptr-ct-attrib $-1 -1 $-1 $-1 $111 $-1 $241 #
-177 cface $-1 -1 $241 $24 $126 0 #
-178 cface_ptr-ct-attrib $-1 -1 $-1 $-1 $115 $-1 $64 #
-179 face $242 -1 -1 $-1 $203 $214 $6 $-1 $243 forward single F F #
-180 plane-surface $-1 -1 -1 $-1 0 -1 0 0 -1 0 1 0 0 forward_v I I I I #
-181 cface $-1 -1 $44 $16 $73 0 #
-182 face $244 -1 -1 $-1 $198 $245 $6 $-1 $246 reversed single F F #
-183 cface_ptr-ct-attrib $-1 -1 $-1 $-1 $117 $-1 $65 #
-184 loop $-1 -1 -1 $-1 $-1 $247 $117 F unknown #
-185 plane-surface $-1 -1 -1 $-1 -64.806504495004717 24.999999999999979 0 -3.2892195372836477e-016 1 0 -1 -3.2892195372836477e-016 0 forward_v I I I I #
-186 coedge $-1 -1 -1 $-1 $248 $249 $250 $251 forward $119 $-1 #
-187 coedge $-1 -1 -1 $-1 $252 $121 $249 $253 forward $68 $-1 #
-188 coedge $-1 -1 -1 $-1 $121 $252 $254 $255 forward $68 $-1 #
-189 coedge $-1 -1 -1 $-1 $256 $250 $121 $190 reversed $137 $-1 #
-190 edge $-1 -1 -1 $-1 $257 6.0255451713323467 $258 14.025545171332347 $121 $259 forward @7 unknown F #
-191 cface_ptr-ct-attrib $-1 -1 $-1 $-1 $122 $-1 $70 #
-192 loop $-1 -1 -1 $-1 $-1 $260 $122 F unknown #
-193 plane-surface $-1 -1 -1 $-1 0 3.0000000000000013 51.499999951461596 0 1 7.6129578620283256e-017 0 7.6129578620283256e-017 -1 forward_v I I I I #
-194 cface_ptr-ct-attrib $-1 -1 $-1 $-1 $126 $-1 $177 #
-195 plane-surface $-1 -1 -1 $-1 -70 1 0 0 1 0 -1 0 0 forward_v I I I I #
-196 coedge $-1 -1 -1 $-1 $144 $261 $262 $263 forward $127 $-1 #
-197 edge $-1 -1 -1 $-1 $100 1.5707963267948979 $264 2.8017557441356704 $129 $265 forward @7 unknown F #
-198 face $266 -1 -1 $-1 $122 $267 $6 $-1 $268 reversed single F F #
-199 cface_ptr-ct-attrib $-1 -1 $-1 $-1 $131 $-1 $76 #
-200 plane-surface $-1 -1 -1 $-1 0 25 69.000000000000014 0.92387953251128607 3.049760955612515e-016 -0.38268343236509145 0.38268343236509145 1.2587298223300243e-016 0.92387953251128607 forward_v I I I I #
-201 coedge $-1 -1 -1 $-1 $230 $229 $235 $269 forward $133 $-1 #
-202 cface $-1 -1 $270 $16 $80 0 #
-203 face $271 -1 -1 $-1 $40 $272 $6 $-1 $246 reversed single F F #
-204 coedge $-1 -1 -1 $-1 $262 $273 $138 $206 forward $137 $-1 #
-205 coedge $-1 -1 -1 $-1 $162 $138 $170 $240 reversed $81 $-1 #
-206 edge $-1 -1 -1 $-1 $215 -13.999999999999996 $217 -11.999999999999996 $204 $274 forward @7 unknown F #
-207 coedge $-1 -1 -1 $-1 $275 $139 $276 $277 forward $47 $-1 #
-208 coedge $-1 -1 -1 $-1 $142 $278 $139 $209 forward $214 $-1 #
-209 edge $-1 -1 -1 $-1 $279 -0.78539816339744828 $147 0.78539816339744828 $208 $280 forward @7 unknown F #
-210 coedge $-1 -1 -1 $-1 $140 $281 $282 $283 forward $47 $-1 #
-211 coedge $-1 -1 -1 $-1 $261 $144 $140 $212 forward $127 $-1 #
-212 edge $-1 -1 -1 $-1 $146 -0.78539816339744828 $284 0.78539816339744828 $211 $285 forward @7 unknown F #
-213 coedge $-1 -1 -1 $-1 $278 $142 $273 $286 forward $214 $-1 #
-214 loop $-1 -1 -1 $-1 $-1 $213 $179 F unknown #
-215 vertex $-1 -1 -1 $-1 $286 $287 #
-216 straight-curve $-1 -1 -1 $-1 -22.721989656699456 -1 19 -1 0 0 F -47.521990656699458 F 86.078011343300545 #
-217 vertex $-1 -1 -1 $-1 $145 $288 #
-218 straight-curve $-1 -1 -1 $-1 -57.721989656699456 1 19 1 0 0 F -51.078011343300538 F 82.521990656699458 #
-219 point $-1 -1 -1 $-1 0 1 19 #
-220 point $-1 -1 -1 $-1 0 -1 19 #
-221 coedge $-1 -1 -1 $-1 $289 $290 $149 $222 reversed $267 $-1 #
-222 edge $-1 -1 -1 $-1 $225 -13.999999999999996 $231 -7.9999999999999964 $149 $291 forward @7 unknown F #
-223 coedge $-1 -1 -1 $-1 $260 $150 $152 $227 forward $192 $-1 #
-224 coedge $-1 -1 -1 $-1 $150 $260 $289 $292 forward $192 $-1 #
-225 vertex $-1 -1 -1 $-1 $222 $293 #
-226 straight-curve $-1 -1 -1 $-1 0 3.0000000000000027 33.999999902922895 0 -7.6129578620283256e-017 1 I I #
-227 edge $-1 -1 -1 $-1 $153 0 $264 0.39269908169872592 $223 $294 forward @7 unknown F #
-228 point $-1 -1 -1 $-1 0 3.0000000000000027 33.999999902922895 #
-229 coedge $-1 -1 -1 $-1 $201 $155 $290 $295 forward $133 $-1 #
-230 coedge $-1 -1 -1 $-1 $155 $201 $157 $233 reversed $133 $-1 #
-231 vertex $-1 -1 -1 $-1 $156 $296 #
-232 straight-curve $-1 -1 -1 $-1 0 -3 69.000000000000298 0 -7.6129578620283256e-017 -1 I I #
-233 edge $-1 -1 -1 $-1 $158 0 $238 0.39269908169872592 $157 $297 forward @7 unknown F #
-234 point $-1 -1 -1 $-1 0 -3.0000000000000027 33.999999902922895 #
-235 coedge $-1 -1 -1 $-1 $298 $160 $201 $269 reversed $163 $-1 #
-236 coedge $-1 -1 -1 $-1 $161 $298 $260 $299 reversed $163 $-1 #
-237 straight-curve $-1 -1 -1 $-1 -14.476312370220391 1 17.025545171332347 0 0 1 I I #
-238 vertex $-1 -1 -1 $-1 $269 $300 #
-239 ellipse-curve $-1 -1 -1 $-1 -14.476312370220395 -4.0000000000000009 34.051090342664686 -0.92387953251128607 -3.049760955612515e-016 0.38268343236509145 -1.1480502970952746 1.3129117810866638e-016 -2.7716385975338591 1 I I #
-240 edge $-1 -1 -1 $-1 $105 -17.025545171332347 $215 -1.9744548286676533 $170 $301 forward @7 unknown F #
-241 cface $-1 -1 $18 $24 $111 0 #
-242 cface_ptr-ct-attrib $-1 -1 $-1 $-1 $179 $-1 $270 #
-243 cone-surface $-1 -1 -1 $-1 -22.721989656699456 -9 19 1 0 0 0 5.6568542494923797 -5.6568542494923797 1 I I 0 -1 7.9999999999999991 forward I I I I #
-244 cface_ptr-ct-attrib $-1 -1 $-1 $-1 $182 $-1 $116 #
-245 loop $-1 -1 -1 $-1 $-1 $302 $182 F unknown #
-246 plane-surface $-1 -1 -1 $-1 -45.443979313398913 2.6645352591003757e-015 11 0 0 -1 -1 0 0 forward_v I I I I #
-247 coedge $-1 -1 -1 $-1 $303 $304 $305 $306 forward $184 $-1 #
-248 coedge $-1 -1 -1 $-1 $307 $186 $304 $308 reversed $119 $-1 #
-249 coedge $-1 -1 -1 $-1 $186 $307 $187 $253 reversed $119 $-1 #
-250 coedge $-1 -1 -1 $-1 $189 $305 $186 $251 reversed $137 $-1 #
-251 edge $-1 -1 -1 $-1 $258 -49.999999999999986 $309 3.5527136788005017e-015 $186 $310 forward @7 unknown F #
-252 coedge $-1 -1 -1 $-1 $188 $187 $275 $311 forward $68 $-1 #
-253 edge $-1 -1 -1 $-1 $258 17.926939877281981 $312 32.403252247502365 $187 $313 forward @7 unknown F #
-254 coedge $-1 -1 -1 $-1 $276 $314 $188 $255 reversed $272 $-1 #
-255 edge $-1 -1 -1 $-1 $315 0 $257 14.476312370220386 $188 $316 forward @7 unknown F #
-256 coedge $-1 -1 -1 $-1 $273 $189 $314 $317 reversed $137 $-1 #
-257 vertex $-1 -1 -1 $-1 $190 $318 #
-258 vertex $-1 -1 -1 $-1 $253 $319 #
-259 straight-curve $-1 -1 -1 $-1 -14.476312370220386 -24.999999999999993 17.025545171332347 0 0 -1 I I #
-260 coedge $-1 -1 -1 $-1 $224 $223 $236 $299 forward $192 $-1 #
-261 coedge $-1 -1 -1 $-1 $196 $211 $320 $321 forward $127 $-1 #
-262 coedge $-1 -1 -1 $-1 $322 $204 $196 $263 reversed $137 $-1 #
-263 edge $-1 -1 -1 $-1 $323 -0.78539816339744828 $217 0.78539816339744828 $196 $324 forward @7 unknown F #
-264 vertex $-1 -1 -1 $-1 $197 $325 #
-265 ellipse-curve $-1 -1 -1 $-1 -14.476312370220395 4.0000000000000009 34.051090342664686 -0.92387953251128607 -3.049760955612515e-016 0.38268343236509145 -1.1480502970952746 1.3129117810866638e-016 -2.7716385975338591 1 I I #
-266 cface_ptr-ct-attrib $-1 -1 $-1 $-1 $198 $-1 $130 #
-267 loop $-1 -1 -1 $-1 $-1 $326 $198 F unknown #
-268 cone-surface $-1 -1 -1 $-1 0 -169.51402871289585 68.999999999999972 0 1 7.6129578620283256e-017 21.213203435596427 -1.6149522387383009e-015 21.213203435596423 1 I I 0 1 30 forward I I I I #
-269 edge $-1 -1 -1 $-1 $327 21.916054068104447 $238 26.916054165181539 $201 $328 forward @7 unknown F #
-270 cface $-1 -1 $-1 $16 $179 0 #
-271 cface_ptr-ct-attrib $-1 -1 $-1 $-1 $203 $-1 $135 #
-272 loop $-1 -1 -1 $-1 $-1 $314 $203 F unknown #
-273 coedge $-1 -1 -1 $-1 $204 $256 $213 $286 reversed $137 $-1 #
-274 straight-curve $-1 -1 -1 $-1 -14.476312370220398 12.999999999999996 19 -3.3010374711112667e-016 1 0 I I #
-275 coedge $-1 -1 -1 $-1 $329 $207 $252 $311 reversed $47 $-1 #
-276 coedge $-1 -1 -1 $-1 $330 $254 $207 $277 reversed $272 $-1 #
-277 edge $-1 -1 -1 $-1 $279 34 $315 50 $207 $331 forward @7 unknown F #
-278 coedge $-1 -1 -1 $-1 $208 $213 $330 $332 forward $214 $-1 #
-279 vertex $-1 -1 -1 $-1 $277 $333 #
-280 ellipse-curve $-1 -1 -1 $-1 0 -9 19 1 0 0 0 5.6568542494923797 -5.6568542494923797 1 I I #
-281 coedge $-1 -1 -1 $-1 $210 $329 $334 $335 forward $47 $-1 #
-282 coedge $-1 -1 -1 $-1 $336 $320 $210 $283 reversed $245 $-1 #
-283 edge $-1 -1 -1 $-1 $337 0 $284 16 $210 $331 forward @7 unknown F #
-284 vertex $-1 -1 -1 $-1 $212 $338 #
-285 ellipse-curve $-1 -1 -1 $-1 0 9 19 1 0 0 0 -5.6568542494923797 -5.6568542494923797 1 I I #
-286 edge $-1 -1 -1 $-1 $215 -0.78539816339744828 $339 0.78539816339744828 $213 $340 forward @7 unknown F #
-287 point $-1 -1 -1 $-1 -14.476312370220393 -1 19 #
-288 point $-1 -1 -1 $-1 -14.476312370220398 1 19 #
-289 coedge $-1 -1 -1 $-1 $326 $221 $224 $292 reversed $267 $-1 #
-290 coedge $-1 -1 -1 $-1 $221 $326 $229 $295 reversed $267 $-1 #
-291 straight-curve $-1 -1 -1 $-1 0 -10.999999999999996 38.999999999999986 0 -1 -7.6129578620283256e-017 I I #
-292 edge $-1 -1 -1 $-1 $341 3.5342917352885159 $225 3.9269908169872414 $224 $342 forward @7 unknown F #
-293 point $-1 -1 -1 $-1 0 3 38.999999999999986 #
-294 ellipse-curve $-1 -1 -1 $-1 0 3.0000000000000009 68.999999999999986 0 1 4.7369515717340015e-017 0 0 -35.000000097077091 1 F 0 F 1.5707963267948966 #
-295 edge $-1 -1 -1 $-1 $231 2.3561944901923448 $327 2.7488935718910703 $229 $343 forward @7 unknown F #
-296 point $-1 -1 -1 $-1 0 -3 38.999999999999986 #
-297 ellipse-curve $-1 -1 -1 $-1 0 -3.0000000000000044 68.999999999999986 0 1 4.7369515717340015e-017 0 0 -35.000000097077091 1 F 0 F 1.5707963267948966 #
-298 coedge $-1 -1 -1 $-1 $236 $235 $326 $344 reversed $163 $-1 #
-299 edge $-1 -1 -1 $-1 $264 -26.916054165181539 $341 -21.916054068104447 $260 $345 forward @7 unknown F #
-300 point $-1 -1 -1 $-1 -13.393920169927997 -3.0000000000000022 36.664216272417434 #
-301 straight-curve $-1 -1 -1 $-1 -14.476312370220395 -1 17.025545171332347 0 0 -1 I I #
-302 coedge $-1 -1 -1 $-1 $320 $336 $322 $346 forward $245 $-1 #
-303 coedge $-1 -1 -1 $-1 $334 $247 $336 $347 forward $184 $-1 #
-304 coedge $-1 -1 -1 $-1 $247 $334 $248 $308 forward $184 $-1 #
-305 coedge $-1 -1 -1 $-1 $250 $322 $247 $306 reversed $137 $-1 #
-306 edge $-1 -1 -1 $-1 $309 -14.025545171332347 $348 -6.0255451713323467 $247 $349 forward @7 unknown F #
-307 coedge $-1 -1 -1 $-1 $249 $248 $329 $350 reversed $119 $-1 #
-308 edge $-1 -1 -1 $-1 $351 -64.806504495004702 $309 -50.330192124784304 $304 $352 forward @7 unknown F #
-309 vertex $-1 -1 -1 $-1 $306 $353 #
-310 straight-curve $-1 -1 -1 $-1 -14.476312370220398 24.999999999999993 3 -3.3010374711112667e-016 1 0 I I #
-311 edge $-1 -1 -1 $-1 $312 3 $315 11 $252 $354 forward @7 unknown F #
-312 vertex $-1 -1 -1 $-1 $311 $355 #
-313 straight-curve $-1 -1 -1 $-1 -32.403252247502365 -24.999999999999986 3 1 -4.3856260497115313e-016 0 I I #
-314 coedge $-1 -1 -1 $-1 $254 $330 $256 $317 forward $272 $-1 #
-315 vertex $-1 -1 -1 $-1 $311 $356 #
-316 straight-curve $-1 -1 -1 $-1 0 -25 11 -1 4.3856260497115313e-016 0 I I #
-317 edge $-1 -1 -1 $-1 $339 21.500000000000007 $257 37.5 $314 $357 forward @7 unknown F #
-318 point $-1 -1 -1 $-1 -14.476312370220386 -24.999999999999993 11 #
-319 point $-1 -1 -1 $-1 -14.476312370220384 -24.999999999999993 3 #
-320 coedge $-1 -1 -1 $-1 $282 $302 $261 $321 reversed $245 $-1 #
-321 edge $-1 -1 -1 $-1 $284 -57.721989656699456 $323 -43.245677286479058 $320 $358 forward @7 unknown F #
-322 coedge $-1 -1 -1 $-1 $305 $262 $302 $346 reversed $137 $-1 #
-323 vertex $-1 -1 -1 $-1 $263 $359 #
-324 ellipse-curve $-1 -1 -1 $-1 -14.476312370220406 9 19 -1 -3.3010374711112667e-016 0 0 -5.6568542494923797 -5.6568542494923797 1 I I #
-325 point $-1 -1 -1 $-1 -13.393920169927998 3.0000000000000013 36.664216272417434 #
-326 coedge $-1 -1 -1 $-1 $290 $289 $298 $344 forward $267 $-1 #
-327 vertex $-1 -1 -1 $-1 $344 $360 #
-328 straight-curve $-1 -1 -1 $-1 -3.093592176271609 -3.0000000000000036 61.531407811593809 -0.38268343236509145 -7.0334559505988498e-017 -0.92387953251128607 I I #
-329 coedge $-1 -1 -1 $-1 $281 $275 $307 $350 forward $47 $-1 #
-330 coedge $-1 -1 -1 $-1 $314 $276 $278 $332 reversed $272 $-1 #
-331 straight-curve $-1 -1 -1 $-1 0 25 11 0 -1 0 I I #
-332 edge $-1 -1 -1 $-1 $339 8.2456772864790651 $279 22.721989656699456 $330 $361 forward @7 unknown F #
-333 point $-1 -1 -1 $-1 0 -9 11 #
-334 coedge $-1 -1 -1 $-1 $304 $303 $281 $335 reversed $184 $-1 #
-335 edge $-1 -1 -1 $-1 $351 3 $337 11 $281 $362 forward @7 unknown F #
-336 coedge $-1 -1 -1 $-1 $302 $282 $303 $347 reversed $245 $-1 #
-337 vertex $-1 -1 -1 $-1 $335 $363 #
-338 point $-1 -1 -1 $-1 0 9 11 #
-339 vertex $-1 -1 -1 $-1 $332 $364 #
-340 ellipse-curve $-1 -1 -1 $-1 -14.476312370220402 -9 19 -1 -3.3010374711112667e-016 0 0 5.6568542494923797 -5.6568542494923797 1 I I #
-341 vertex $-1 -1 -1 $-1 $292 $365 #
-342 ellipse-curve $-1 -1 -1 $-1 0 3 68.999999999999986 0 -1 -7.6129578620283256e-017 21.213203435596427 -1.6149522387383009e-015 21.213203435596423 1 I I #
-343 ellipse-curve $-1 -1 -1 $-1 0 -3 68.999999999999986 0 1 -7.6129578620283256e-017 21.213203435596427 -1.6149522387383009e-015 21.213203435596423 1 I I #
-344 edge $-1 -1 -1 $-1 $341 -3 $327 3.0000000000000044 $326 $366 forward @7 unknown F #
-345 straight-curve $-1 -1 -1 $-1 -3.0935921762716116 3.0000000000000018 61.531407811593809 0.38268343236509145 -7.0334559505988498e-017 0.92387953251128607 I I #
-346 edge $-1 -1 -1 $-1 $348 -12.499999999999991 $323 3.5000000000000053 $302 $367 forward @7 unknown F #
-347 edge $-1 -1 -1 $-1 $348 50.330192124784318 $337 64.806504495004717 $303 $368 forward @7 unknown F #
-348 vertex $-1 -1 -1 $-1 $347 $369 #
-349 straight-curve $-1 -1 -1 $-1 -14.476312370220398 24.999999999999996 17.025545171332347 0 0 1 I I #
-350 edge $-1 -1 -1 $-1 $312 -37.999999999999986 $351 12.000000000000011 $329 $370 forward @7 unknown F #
-351 vertex $-1 -1 -1 $-1 $335 $371 #
-352 straight-curve $-1 -1 -1 $-1 -64.806504495004702 24.999999999999979 3 -1 -3.2892195372836477e-016 0 I I #
-353 point $-1 -1 -1 $-1 -14.476312370220402 24.999999999999996 3 #
-354 straight-curve $-1 -1 -1 $-1 0 -25 0 0 0 1 I I #
-355 point $-1 -1 -1 $-1 0 -25 3 #
-356 point $-1 -1 -1 $-1 0 -25 11 #
-357 straight-curve $-1 -1 -1 $-1 -14.476312370220397 12.500000000000005 11 3.3010374711112667e-016 -1 0 I I #
-358 straight-curve $-1 -1 -1 $-1 -57.721989656699456 9 11 -1 0 0 F -82.521990656699458 F 51.078011343300538 #
-359 point $-1 -1 -1 $-1 -14.476312370220398 9 11 #
-360 point $-1 -1 -1 $-1 -11.480502970952745 -3.0000000000000022 41.283614024661404 #
-361 straight-curve $-1 -1 -1 $-1 -22.721989656699456 -9 11 1 0 0 F -86.078011343300545 F 47.521990656699458 #
-362 straight-curve $-1 -1 -1 $-1 0 25 0 0 0 1 I I #
-363 point $-1 -1 -1 $-1 0 25 11 #
-364 point $-1 -1 -1 $-1 -14.476312370220391 -9 11 #
-365 point $-1 -1 -1 $-1 -11.480502970952747 3.0000000000000022 41.283614024661404 #
-366 straight-curve $-1 -1 -1 $-1 -11.480502970952747 2.110036785179656e-015 41.283614024661404 0 -1 -7.6129578620283256e-017 I I #
-367 straight-curve $-1 -1 -1 $-1 -14.476312370220397 12.500000000000005 11 3.3010374711112667e-016 -1 0 I I #
-368 straight-curve $-1 -1 -1 $-1 -64.806504495004717 24.999999999999979 11 1 3.2892195372836477e-016 0 I I #
-369 point $-1 -1 -1 $-1 -14.476312370220398 24.999999999999996 11 #
-370 straight-curve $-1 -1 -1 $-1 0 12.999999999999989 3 0 1 0 I I #
-371 point $-1 -1 -1 $-1 0 25 3 #
End-of-ACIS-data 
