1900 0 1 0           
37 Abaqus, Inc. - Abaqus 6.10-DEV - 2002 14 ACIS 20.0.2 NT 24 Tue Mar 09 16:46:03 2010 
1 9.9999999999999995e-007 1e-010 
-0 body $1 -1 -1 $-1 $2 $-1 $3 F #
-1 string_attrib-name_attrib-gen-attrib $-1 -1 $4 $-1 $0 2 1 1 1 1 1 1 1 1 1 1 1 1 1 0 1 1 1 @13 HKS_PART_NAME @8 cylinder #
-2 lump $5 -1 -1 $-1 $-1 $6 $0 F #
-3 transform $-1 -1 1 0 0 0 1 0 0 0 1 0 0 0 1 no_rotate no_reflect no_shear #
-4 string_attrib-name_attrib-gen-attrib $-1 -1 $-1 $1 $0 2 1 1 1 1 1 1 1 1 1 1 1 1 1 0 1 1 1 @18 HKS_ATTRIB_BODY_ID @1 1 #
-5 cell_ptr-ct-attrib $-1 -1 $-1 $-1 $2 1 1 1 1 1 1 1 1 1 1 1 1 0 1 0 1 1 1 $7 $-1 auto #
-6 shell $-1 -1 -1 $-1 $-1 $-1 $8 $-1 $2 F #
-7 cell3d-cell $-1 -1 $9 $2 $-1 1 $10 #
-8 face $11 -1 -1 $-1 $12 $13 $6 $-1 $14 forward single T -5.250240445366356 8.8031679854631477 44.749759554633641 5.250240445366356 25 55.250240445366359 F #
-9 cell3d-cell $-1 -1 $15 $2 $-1 1 $16 #
-10 cshell $-1 -1 $-1 $17 $7 #
-11 cface_ptr-ct-attrib $-1 -1 $-1 $-1 $8 1 1 1 1 1 1 1 1 1 1 1 1 0 1 0 1 1 1 $-1 $18 #
-12 face $19 -1 -1 $-1 $20 $21 $6 $-1 $22 forward single T -4.7502158346475944 9.0827352276448803 45.249784165352416 4.7502158346475944 25 54.750215834647591 F #
-13 loop $-1 -1 -1 $-1 $23 $24 $8 T -5.250240445366356 8.8031679854631477 44.749759554633641 5.250240445366356 10.250240445366357 55.250240445366359 u_sep $14 F #
-14 cone-surface $-1 -1 -1 $-1 0 25 50 0 -1 0 0 0 -5.25 1 I I 0 1 5.25 forward I I I I #
-15 cell3d-cell $-1 -1 $-1 $2 $-1 1 $25 #
-16 cshell $-1 -1 $-1 $26 $9 #
-17 cface $-1 -1 $27 $10 $28 0 #
-18 cface $-1 -1 $-1 $25 $8 0 #
-19 cface_ptr-ct-attrib $-1 -1 $-1 $-1 $12 1 1 1 1 1 1 1 1 1 1 1 1 0 1 0 1 1 1 $-1 $29 #
-20 face $30 -1 -1 $-1 $31 $32 $6 $-1 $14 forward double in F F #
-21 loop $-1 -1 -1 $-1 $33 $34 $12 T -4.7502158346475944 9.0827352276448803 45.249784165352416 4.7502158346475944 10.250215834647594 54.750215834647591 u_sep $22 F #
-22 cone-surface $-1 -1 -1 $-1 0 25 50 0 -1 0 0 0 -4.75 1 I I 0 -1 4.75 forward I I I I #
-23 loop $-1 -1 -1 $-1 $-1 $35 $8 T -5.25 25 44.75 5.25 25 55.25 u_sep $14 F #
-24 coedge $-1 -1 -1 $-1 $24 $24 $36 $37 reversed $13 $-1 #
-25 cshell $-1 -1 $-1 $29 $15 #
-26 cface $-1 -1 $38 $16 $39 0 #
-27 cface $-1 -1 $40 $10 $20 0 #
-28 face $41 -1 -1 $-1 $42 $43 $6 $-1 $44 forward single T -5.2502475680236333 8.2155907945538562 44.749752431976368 5.2502475680236333 9.7502475680236333 55.250247568023632 F #
-29 cface $-1 -1 $45 $25 $12 0 #
-30 cface_ptr-ct-attrib $-1 -1 $-1 $-1 $20 1 1 1 1 1 1 1 1 1 1 1 1 0 1 0 1 1 1 $46 $27 #
-31 face $47 -1 -1 $-1 $48 $49 $6 $-1 $22 forward single T -4.7502206302316745 8.5144725527315259 45.249779369768333 4.7502206302316745 10.250215834647594 54.750220630231667 F #
-32 loop $-1 -1 -1 $-1 $50 $51 $20 T -5.2502475680236333 8.2155907945538562 44.749752431976368 5.2502475680236333 9.7502475680236333 55.250247568023632 u_sep $14 F #
-33 loop $-1 -1 -1 $-1 $-1 $52 $12 T -4.75 25 45.25 4.75 25 54.75 u_sep $22 F #
-34 coedge $-1 -1 -1 $-1 $34 $34 $53 $54 reversed $21 $-1 #
-35 coedge $-1 -1 -1 $-1 $35 $35 $55 $56 reversed $23 $-1 #
-36 coedge $-1 -1 -1 $-1 $36 $36 $57 $37 reversed $58 $-1 #
-37 edge $-1 -1 -1 $-1 $59 24.244464994302909 $59 56.570418320040126 $60 $61 forward @7 unknown T -5.250240445366356 8.8031679854631477 44.749759554633641 5.250240445366356 10.250240445366357 55.250240445366359 #
-38 cface $-1 -1 $62 $16 $63 0 #
-39 face $64 -1 -1 $-1 $65 $66 $6 $-1 $44 forward single T -9.75 -9.75 0 9.75 9.7502475680236333 100 F #
-40 cface $-1 -1 $67 $10 $31 0 #
-41 integer_attrib-name_attrib-gen-attrib $-1 -1 $68 $-1 $28 2 4 2 1 1 1 1 1 1 1 1 1 1 1 0 1 1 1 @16 SKETCH_ENTITY_ID 600007 #
-42 face $69 -1 -1 $-1 $39 $70 $6 $-1 $71 forward single F F #
-43 loop $-1 -1 -1 $-1 $72 $73 $28 T -4.7502206302316745 8.5144725527315259 45.249779369768333 4.7502206302316745 9.7502206302316736 54.750220630231667 hole $44 F #
-44 cone-surface $-1 -1 -1 $-1 0 0 0 0 0 1 9.75 0 0 1 I I 0 -1 9.75 forward I I I I #
-45 cface $-1 -1 $74 $25 $48 0 #
-46 cface $-1 -1 $75 $16 $20 1 #
-47 cface_ptr-ct-attrib $-1 -1 $-1 $-1 $31 1 1 1 1 1 1 1 1 1 1 1 1 0 1 0 1 1 1 $-1 $40 #
-48 face $76 -1 -1 $-1 $77 $78 $6 $-1 $79 forward single T -5.25 25 44.75 5.25 25 55.25 F #
-49 loop $-1 -1 -1 $-1 $80 $81 $31 T -4.7502206302316745 8.5144725527315259 45.249779369768333 4.7502206302316745 9.7502206302316736 54.750220630231667 u_sep $22 F #
-50 loop $-1 -1 -1 $-1 $-1 $57 $20 T -5.250240445366356 8.8031679854631477 44.749759554633641 5.250240445366356 10.250240445366357 55.250240445366359 u_sep $14 F #
-51 coedge $-1 -1 -1 $-1 $51 $51 $82 $83 forward $32 $-1 #
-52 coedge $-1 -1 -1 $-1 $52 $52 $84 $85 forward $33 $-1 #
-53 coedge $-1 -1 -1 $-1 $53 $53 $86 $54 reversed $87 $-1 #
-54 edge $-1 -1 -1 $-1 $88 7.280147030537913 $88 36.40073515268957 $34 $89 forward @7 unknown T -4.7502158346475944 9.0827352276448803 45.249784165352416 4.7502158346475944 10.250215834647594 54.750215834647591 #
-55 coedge $-1 -1 -1 $-1 $55 $55 $35 $56 forward $90 $-1 #
-56 edge $-1 -1 -1 $-1 $91 -4.6881010279859598e-017 $91 6.2831853071795862 $35 $92 forward @7 unknown T -5.25 25 44.75 5.25 25 55.25 #
-57 coedge $-1 -1 -1 $-1 $57 $57 $60 $37 forward $50 $-1 #
-58 loop $-1 -1 -1 $-1 $-1 $36 $77 T -5.250240445366356 8.8031679854631477 44.749759554633641 5.250240445366356 10.250240445366357 55.250240445366359 periphery $71 F #
-59 vertex $-1 -1 -1 $-1 $37 $93 #
-60 coedge $-1 -1 -1 $-1 $60 $60 $24 $37 forward $70 $-1 #
-61 intcurve-curve $-1 -1 -1 $-1 forward { surfintcur full nubs 3 periodic 33 
	0 3 1.0117262479611524 2 2.0234524959223048 2 3.0351787438834572 2 4.0469049918446096 2 
	5.0555508267420333 2 6.0641966616394569 2 7.0728424965368806 2 8.0814883314343042 2 9.0901341663317279 2 
	10.098780001229152 2 11.107425836126575 2 12.116071671023999 2 13.127797918985152 2 14.139524166946304 2 
	15.151250414907455 2 16.162976662868608 2 17.174702910829758 2 18.186429158790911 2 19.198155406752065 2 
	20.209881654713215 2 21.218527489610636 2 22.227173324508062 2 23.235819159405487 2 24.244464994302909 2 
	25.253110829200331 2 26.261756664097756 2 27.270402498995182 2 28.279048333892604 2 29.290774581853757 2 
	30.30250082981491 2 31.314227077776064 2 32.325953325737217 3 
	5.25 8.8034084308295046 50 
	5.25 8.8034084308295046 50.337242082653717 
	5.2169967430639899 8.8233576632939865 50.683321319275315 
	5.0808778181415351 8.9024365226282924 51.366990735431507 
	4.9778198411896515 8.9614281997402117 51.70460834923901 
	4.7082797432583838 9.1059311767825335 52.348720509888253 
	4.5415826820399863 9.1913683115751841 52.655845582009242 
	4.1585990184979131 9.3708739661677036 53.222660893076522 
	3.9422556227795789 9.46477565048637 53.482365579679168 
	3.4830656955946657 9.6431966093600909 53.941555506864084 
	3.2237095750316214 9.7343597898694885 54.157797245920406 
	2.6567569382021716 9.9041257318487261 54.54105978168591 
	2.3491422106593474 9.9826006677186481 54.708110247651291 
	1.703999396551013 10.11272324387582 54.978067693719673 
	1.3658514796079904 10.164401262658954 55.081190589639533 
	0.68196618774559603 10.233060412786708 55.21718029129471 
	0.33621527829914188 10.25 55.25 
	-0.33621527829914061 10.25 55.25 
	-0.6819661877455947 10.233060412786708 55.21718029129471 
	-1.3658514796079897 10.164401262658954 55.081190589639533 
	-1.703999396551013 10.11272324387582 54.978067693719673 
	-2.3491422106593478 9.9826006677186481 54.708110247651291 
	-2.6567569382021721 9.9041257318487261 54.54105978168591 
	-3.2237095750316214 9.7343597898694885 54.157797245920406 
	-3.4830656955946657 9.6431966093600909 53.941555506864084 
	-3.9422556227795793 9.46477565048637 53.482365579679168 
	-4.1585990184979167 9.3708739661677054 53.222660893076529 
	-4.5415826820399898 9.1913683115751859 52.655845582009249 
	-4.7082797432583838 9.1059311767825335 52.348720509888253 
	-4.9778198411896515 8.9614281997402134 51.704608349239017 
	-5.0808778181415351 8.9024365226282942 51.366990735431507 
	-5.2169967430639916 8.8233576632939883 50.683321319275308 
	-5.25 8.8034084308295046 50.337242082653717 
	-5.25 8.8034084308295046 49.662757917346283 
	-5.2169967430639899 8.8233576632939865 49.316678680724685 
	-5.0808778181415351 8.9024365226282924 48.633009264568493 
	-4.9778198411896515 8.9614281997402117 48.29539165076099 
	-4.7082797432583829 9.1059311767825335 47.651279490111747 
	-4.5415826820399863 9.1913683115751841 47.344154417990758 
	-4.1585990184979131 9.3708739661677036 46.777339106923478 
	-3.9422556227795793 9.4647756504863718 46.517634420320832 
	-3.4830656955946671 9.6431966093600909 46.058444493135923 
	-3.2237095750316245 9.7343597898694885 45.842202754079594 
	-2.6567569382021752 9.9041257318487261 45.45894021831409 
	-2.3491422106593491 9.9826006677186481 45.291889752348709 
	-1.7039993965510134 10.11272324387582 45.021932306280327 
	-1.3658514796079897 10.164401262658954 44.918809410360467 
	-0.68196618774559514 10.233060412786708 44.78281970870529 
	-0.33621527829914188 10.25 44.75 
	0.33621527829913928 10.25 44.75 
	0.68196618774559303 10.233060412786708 44.78281970870529 
	1.3658514796079881 10.164401262658954 44.918809410360467 
	1.7039993965510121 10.11272324387582 45.021932306280327 
	2.3491422106593483 9.9826006677186481 45.291889752348709 
	2.6567569382021743 9.9041257318487261 45.45894021831409 
	3.2237095750316231 9.7343597898694885 45.842202754079594 
	3.4830656955946653 9.6431966093600909 46.058444493135923 
	3.9422556227795775 9.46477565048637 46.517634420320832 
	4.1585990184979167 9.3708739661677036 46.777339106923471 
	4.5415826820399898 9.1913683115751841 47.344154417990751 
	4.7082797432583821 9.1059311767825335 47.651279490111747 
	4.9778198411896497 8.9614281997402152 48.29539165076099 
	5.0808778181415351 8.9024365226282924 48.633009264568493 
	5.2169967430639899 8.8233576632939865 49.316678680724685 
	5.25 8.8034084308295046 49.662757917346283 
	5.25 8.8034084308295046 50 
	0.00024044536635606337 
	cone 0 25 50 0 -1 0 0 0 -5.25 1 I I 0 1 5.25 forward I I I I 
	cone 0 0 0 0 0 1 10.25 0 0 1 I I 0 1 10.25 forward I I I I 
	nullbs 
	nullbs 
	-1 
	-1 
	I I 
	0 
	0 
	0 
	
	-1 
	none F } I I #
-62 cface $-1 -1 $46 $16 $65 0 #
-63 face $94 -1 -1 $-1 $-1 $95 $6 $-1 $96 reversed single F F #
-64 integer_attrib-name_attrib-gen-attrib $-1 -1 $97 $-1 $39 2 4 2 1 1 1 1 1 1 1 1 1 1 1 0 1 1 1 @16 SKETCH_ENTITY_ID 600007 #
-65 face $98 -1 -1 $-1 $63 $99 $6 $-1 $100 forward single F F #
-66 loop $-1 -1 -1 $-1 $101 $82 $39 T -5.2502475680236333 8.2155907945538562 44.749752431976368 5.2502475680236333 9.7502475680236333 55.250247568023632 hole $44 F #
-67 cface $-1 -1 $-1 $10 $77 0 #
-68 cface_ptr-ct-attrib $-1 -1 $-1 $41 $28 1 1 1 1 1 1 1 1 1 1 1 1 0 1 0 1 1 1 $-1 $17 #
-69 cface_ptr-ct-attrib $-1 -1 $-1 $-1 $42 1 1 1 1 1 1 1 1 1 1 1 1 0 1 0 1 1 1 $-1 $75 #
-70 loop $-1 -1 -1 $-1 $102 $60 $42 T -5.250240445366356 8.8031679854631477 44.749759554633641 5.250240445366356 10.250240445366357 55.250240445366359 hole $71 F #
-71 cone-surface $-1 -1 -1 $-1 0 0 0 0 0 1 10.25 0 0 1 I I 0 1 10.25 forward I I I I #
-72 loop $-1 -1 -1 $-1 $-1 $103 $28 T -5.2502475680236333 8.2155907945538562 44.749752431976368 5.2502475680236333 9.7502475680236333 55.250247568023632 periphery $44 F #
-73 coedge $-1 -1 -1 $-1 $73 $73 $81 $104 reversed $43 $-1 #
-74 cface $-1 -1 $18 $25 $77 1 #
-75 cface $-1 -1 $-1 $16 $42 0 #
-76 cface_ptr-ct-attrib $-1 -1 $-1 $-1 $48 1 1 1 1 1 1 1 1 1 1 1 1 0 1 0 1 1 1 $-1 $45 #
-77 face $105 -1 -1 $-1 $28 $87 $6 $-1 $71 forward double in F F #
-78 loop $-1 -1 -1 $-1 $90 $84 $48 T -4.75 25 45.25 4.75 25 54.75 hole $79 F #
-79 plane-surface $-1 -1 -1 $-1 0 25 50 0 1 0 0 0 -1 forward_v I I I I #
-80 loop $-1 -1 -1 $-1 $-1 $86 $31 T -4.7502158346475944 9.0827352276448803 45.249784165352416 4.7502158346475944 10.250215834647594 54.750215834647591 u_sep $22 F #
-81 coedge $-1 -1 -1 $-1 $81 $81 $73 $104 forward $49 $-1 #
-82 coedge $-1 -1 -1 $-1 $82 $82 $103 $83 forward $66 $-1 #
-83 edge $-1 -1 -1 $-1 $106 8.1028087388163321 $106 40.514043694081622 $82 $107 forward @7 unknown T -5.2502475680236333 8.2155907945538562 44.749752431976368 5.2502475680236333 9.7502475680236333 55.250247568023632 #
-84 coedge $-1 -1 -1 $-1 $84 $84 $52 $85 reversed $78 $-1 #
-85 edge $-1 -1 -1 $-1 $108 -1.5408796074798235e-018 $108 6.2831853071795862 $52 $109 forward @7 unknown T -4.75 25 45.25 4.75 25 54.75 #
-86 coedge $-1 -1 -1 $-1 $86 $86 $34 $54 forward $80 $-1 #
-87 loop $-1 -1 -1 $-1 $58 $53 $77 T -4.7502158346475944 9.0827352276448803 45.249784165352416 4.7502158346475944 10.250215834647594 54.750215834647591 hole $71 F #
-88 vertex $-1 -1 -1 $-1 $54 $110 #
-89 intcurve-curve $-1 -1 -1 $-1 forward { surfintcur full nubs 3 periodic 33 
	0 3 0.91089898558743032 2 1.8217979711748606 2 2.732696956762291 2 3.6435959423497213 2 
	4.5527337143967692 2 5.4618714864438171 2 6.3710092584908651 2 7.280147030537913 2 8.1892848025849609 2 
	9.0984225746320089 2 10.007560346679057 2 10.916698118726105 2 11.827597104313536 2 12.738496089900966 2 
	13.649395075488396 2 14.560294061075826 2 15.471193046663258 2 16.382092032250689 2 17.292991017838119 2 
	18.203890003425549 2 19.113027775472595 2 20.022165547519645 2 20.931303319566695 2 21.840441091613741 2 
	22.749578863660791 2 23.65871663570784 2 24.567854407754886 2 25.476992179801936 2 26.38789116538937 2 
	27.298790150976799 2 28.209689136564229 2 29.120588122151659 3 
	4.75 9.0829510622924747 50 
	4.75 9.0829510622924747 49.696367004804188 
	4.7204247145553362 9.0986166022098196 49.384202067051937 
	4.5978600647443146 9.1611634833189335 48.766590326465611 
	4.5049169424337006 9.2079522548084203 48.461124976664401 
	4.2612854859599469 9.3232024578525579 47.877769318160382 
	4.1104037158038382 9.3916127010084782 47.59932744618974 
	3.7634220898516308 9.5359562707901464 47.085329932473982 
	3.5672787871884299 9.611749778388905 46.849764365916229 
	3.1506388083433743 9.7562543356582445 46.433124387071175 
	2.9152705726434269 9.8302865122175493 46.237036197128973 
	2.4011839797599404 9.9683324040662189 45.889888737038788 
	2.1224541937265577 10.032235342485446 45.738802349915822 
	1.5385039847584081 10.138222887693267 45.494933610290225 
	1.2327392756001774 10.180325673970753 45.401956914334711 
	0.61501575104912209 10.236231365880318 45.279470160507053 
	0.30304592401568264 10.25 45.250000000000007 
	-0.30304592401568264 10.25 45.250000000000007 
	-0.61501575104912209 10.236231365880318 45.279470160507053 
	-1.2327392756001774 10.180325673970753 45.401956914334711 
	-1.5385039847584081 10.138222887693267 45.494933610290225 
	-2.1224541937265577 10.032235342485446 45.738802349915822 
	-2.4011839797599404 9.9683324040662189 45.889888737038788 
	-2.9152705726434269 9.8302865122175493 46.237036197128973 
	-3.1506388083433743 9.7562543356582445 46.433124387071175 
	-3.5672787871884308 9.611749778388905 46.849764365916229 
	-3.7634220898516211 9.5359562707901482 47.085329932473975 
	-4.1104037158038302 9.39161270100848 47.599327446189726 
	-4.2612854859599469 9.3232024578525579 47.877769318160382 
	-4.5049169424337006 9.2079522548084203 48.461124976664401 
	-4.5978600647443146 9.1611634833189335 48.766590326465611 
	-4.7204247145553362 9.0986166022098196 49.384202067051937 
	-4.75 9.0829510622924747 49.696367004804188 
	-4.75 9.0829510622924747 50.303632995195812 
	-4.7204247145553362 9.0986166022098196 50.615797932948063 
	-4.5978600647443146 9.1611634833189335 51.233409673534389 
	-4.5049169424337014 9.2079522548084203 51.538875023335599 
	-4.2612854859599461 9.3232024578525579 52.122230681839618 
	-4.1104037158038373 9.3916127010084764 52.40067255381026 
	-3.7634220898516304 9.5359562707901446 52.914670067526018 
	-3.5672787871884286 9.611749778388905 53.150235634083771 
	-3.1506388083433734 9.7562543356582445 53.566875612928825 
	-2.9152705726434265 9.8302865122175493 53.762963802871027 
	-2.4011839797599404 9.9683324040662189 54.110111262961212 
	-2.1224541937265573 10.032235342485446 54.261197650084178 
	-1.5385039847584074 10.138222887693267 54.505066389709775 
	-1.2327392756001765 10.180325673970753 54.598043085665289 
	-0.61501575104912143 10.236231365880318 54.720529839492947 
	-0.30304592401568275 10.25 54.75 
	0.30304592401568253 10.25 54.75 
	0.61501575104912343 10.236231365880318 54.720529839492947 
	1.2327392756001807 10.180325673970753 54.598043085665289 
	1.5385039847584125 10.138222887693264 54.505066389709775 
	2.1224541937265604 10.032235342485443 54.261197650084178 
	2.4011839797599412 9.9683324040662171 54.110111262961205 
	2.9152705726434256 9.8302865122175493 53.762963802871027 
	3.1506388083433725 9.7562543356582445 53.566875612928825 
	3.5672787871884295 9.611749778388905 53.150235634083771 
	3.7634220898516295 9.5359562707901429 52.914670067526018 
	4.1104037158038373 9.3916127010084747 52.400672553810253 
	4.2612854859599523 9.3232024578525561 52.122230681839618 
	4.5049169424337041 9.2079522548084221 51.538875023335606 
	4.5978600647443146 9.1611634833189335 51.233409673534389 
	4.7204247145553362 9.0986166022098196 50.615797932948063 
	4.75 9.0829510622924747 50.303632995195812 
	4.75 9.0829510622924747 50 
	0.00021583464759406665 
	cone 0 25 50 0 -1 0 0 0 -4.75 1 I I 0 -1 4.75 forward I I I I 
	cone 0 0 0 0 0 1 10.25 0 0 1 I I 0 1 10.25 forward I I I I 
	nullbs 
	nullbs 
	-1 
	-1 
	I I 
	0 
	0 
	0 
	
	-1 
	none F } I I #
-90 loop $-1 -1 -1 $-1 $-1 $55 $48 T -5.25 25 44.75 5.25 25 55.25 periphery $79 F #
-91 vertex $-1 -1 -1 $-1 $56 $111 #
-92 ellipse-curve $-1 -1 -1 $-1 0 25 50 0 1 0 0 0 -5.25 1 I I #
-93 point $-1 -1 -1 $-1 2.4612530396926288e-016 10.25 44.75 #
-94 cface_ptr-ct-attrib $-1 -1 $-1 $-1 $63 1 1 1 1 1 1 1 1 1 1 1 1 0 1 0 1 1 1 $-1 $38 #
-95 loop $-1 -1 -1 $-1 $112 $113 $63 T -9.75 -9.75 0 9.75 9.75 0 hole $96 T #
-96 plane-surface $-1 -1 -1 $-1 0 0 0 0 0 1 1 0 0 forward_v I I I I #
-97 cface_ptr-ct-attrib $-1 -1 $-1 $64 $39 1 1 1 1 1 1 1 1 1 1 1 1 0 1 0 1 1 1 $-1 $26 #
-98 cface_ptr-ct-attrib $-1 -1 $-1 $-1 $65 1 1 1 1 1 1 1 1 1 1 1 1 0 1 0 1 1 1 $-1 $62 #
-99 loop $-1 -1 -1 $-1 $114 $115 $65 T -9.75 -9.75 100 9.75 9.75 100 hole $100 F #
-100 plane-surface $-1 -1 -1 $-1 0 0 100 0 0 1 1 0 0 forward_v I I I I #
-101 loop $-1 -1 -1 $-1 $116 $117 $39 T -9.75 -9.75 100 9.75 9.75 100 u_sep $44 F #
-102 loop $-1 -1 -1 $-1 $118 $119 $42 F unknown #
-103 coedge $-1 -1 -1 $-1 $103 $103 $51 $83 reversed $72 $-1 #
-104 edge $-1 -1 -1 $-1 $120 21.884831558315049 $120 51.064606969401787 $73 $121 forward @7 unknown T -4.7502206302316745 8.5144725527315259 45.249779369768333 4.7502206302316745 9.7502206302316736 54.750220630231667 #
-105 cface_ptr-ct-attrib $-1 -1 $-1 $-1 $77 1 1 1 1 1 1 1 1 1 1 1 1 0 1 0 1 1 1 $74 $67 #
-106 vertex $-1 -1 -1 $-1 $83 $122 #
-107 intcurve-curve $-1 -1 -1 $-1 forward { surfintcur full nubs 3 periodic 33 
	0 3 1.0147999545411004 2 2.0295999090822008 2 3.0443998636233012 2 4.0591998181644016 2 
	5.0701020483273842 2 6.0810042784903668 2 7.0919065086533495 2 8.1028087388163321 2 9.1137109689793157 2 
	10.124613199142297 2 11.135515429305279 2 12.146417659468263 2 13.161217614009363 2 14.176017568550463 2 
	15.190817523091564 2 16.205617477632664 2 17.220417432173761 2 18.235217386714858 2 19.250017341255955 2 
	20.264817295797055 2 21.275719525960035 2 22.286621756123019 2 23.297523986286002 2 24.308426216448982 2 
	25.319328446611962 2 26.330230676774946 2 27.341132906937926 2 28.352035137100906 2 29.366835091642002 2 
	30.381635046183099 2 31.396435000724196 2 32.411234955265293 3 
	5.25 8.2158383625774913 50.000000000000007 
	5.25 8.2158383625774896 49.661733348486308 
	5.2168014173556214 8.2373504926166188 49.315018586919784 
	5.080290897923553 8.3222355484237394 48.630744364777712 
	4.9770406708585444 8.3854459294819765 48.293152440868525 
	4.7073607233415355 8.539753320049245 47.649462978380996 
	4.5407150334009367 8.6307653337599834 47.342723364833802 
	4.1580482847476263 8.8214986092026315 46.776671501777884 
	3.9419647710748835 8.9210479784273886 46.517343568616141 
	3.4835385053850922 9.1098117348878915 46.058917302926346 
	3.2246543387439459 9.2061000931874446 45.842966502549885 
	2.6584431696778039 9.3852732747593599 45.459955614252678 
	2.3510948799628815 9.4680283324625965 45.292866302953854 
	1.7061086685377447 9.6052277966317252 45.022656459423288 
	1.3678405017402113 9.6597090988048766 44.919319222983027 
	0.683277025494339 9.7321169340748366 44.782966618550951 
	0.33696741005432762 9.75 44.75 
	-0.3369674100543279 9.75 44.75 
	-0.68327702549433966 9.7321169340748366 44.782966618550951 
	-1.367840501740212 9.6597090988048766 44.919319222983027 
	-1.7061086685377449 9.6052277966317252 45.022656459423288 
	-2.351094879962881 9.4680283324625965 45.292866302953854 
	-2.6584431696778039 9.3852732747593599 45.459955614252678 
	-3.2246543387439464 9.2061000931874446 45.842966502549885 
	-3.4835385053850922 9.1098117348878915 46.058917302926346 
	-3.9419647710748835 8.9210479784273886 46.517343568616141 
	-4.1580482847476263 8.8214986092026315 46.776671501777884 
	-4.5407150334009367 8.6307653337599834 47.342723364833802 
	-4.7073607233415355 8.539753320049245 47.649462978380996 
	-4.9770406708585444 8.3854459294819765 48.293152440868525 
	-5.080290897923553 8.3222355484237394 48.630744364777712 
	-5.2168014173556214 8.2373504926166188 49.315018586919784 
	-5.25 8.2158383625774896 49.661733348486308 
	-5.25 8.2158383625774931 50.338266651513706 
	-5.216801417355617 8.2373504926166206 50.684981413080237 
	-5.0802908979235486 8.3222355484237411 51.369255635222302 
	-4.9770406708585426 8.3854459294819765 51.706847559131475 
	-4.7073607233415338 8.5397533200492433 52.350537021619004 
	-4.540715033400935 8.6307653337599834 52.657276635166198 
	-4.1580482847476237 8.8214986092026315 53.223328498222116 
	-3.9419647710748782 8.9210479784273922 53.482656431383859 
	-3.4835385053850869 9.1098117348878933 53.941082697073654 
	-3.2246543387439455 9.2061000931874446 54.157033497450115 
	-2.6584431696778044 9.3852732747593599 54.540044385747322 
	-2.3510948799628775 9.4680283324625982 54.707133697046132 
	-1.7061086685377407 9.605227796631727 54.977343540576705 
	-1.3678405017402102 9.6597090988048748 55.080680777016966 
	-0.68327702549433877 9.7321169340748348 55.217033381449042 
	-0.33696741005432723 9.75 55.25 
	0.33696741005432612 9.75 55.25 
	0.68327702549433655 9.7321169340748348 55.217033381449049 
	1.3678405017402073 9.6597090988048748 55.080680777016973 
	1.7061086685377407 9.605227796631727 54.977343540576712 
	2.3510948799628775 9.4680283324625982 54.707133697046132 
	2.6584431696778048 9.3852732747593599 54.540044385747322 
	3.2246543387439459 9.2061000931874446 54.157033497450115 
	3.4835385053850869 9.1098117348878933 53.941082697073654 
	3.9419647710748773 8.9210479784273922 53.482656431383859 
	4.1580482847476192 8.8214986092026351 53.223328498222131 
	4.5407150334009296 8.630765333759987 52.657276635166212 
	4.7073607233415284 8.5397533200492486 52.350537021619012 
	4.9770406708585391 8.3854459294819801 51.706847559131482 
	5.0802908979235495 8.3222355484237411 51.369255635222302 
	5.2168014173556179 8.2373504926166206 50.684981413080237 
	5.25 8.2158383625774931 50.338266651513706 
	5.25 8.2158383625774913 50.000000000000007 
	0.00024756802363365865 
	cone 0 25 50 0 -1 0 0 0 -5.25 1 I I 0 1 5.25 forward I I I I 
	cone 0 0 0 0 0 1 9.75 0 0 1 I I 0 -1 9.75 forward I I I I 
	nullbs 
	nullbs 
	-1 
	-1 
	I I 
	0 
	0 
	0 
	
	-1 
	none F } I I #
-108 vertex $-1 -1 -1 $-1 $85 $123 #
-109 ellipse-curve $-1 -1 -1 $-1 0 25 50 0 1 0 0 0 -4.75 1 I I #
-110 point $-1 -1 -1 $-1 7.3191781355291619e-018 10.25 45.250000000000007 #
-111 point $-1 -1 -1 $-1 2.4612530396926288e-016 25 44.75 #
-112 loop $-1 -1 -1 $-1 $-1 $124 $63 F unknown #
-113 coedge $-1 -1 -1 $-1 $113 $113 $125 $126 forward $95 $-1 #
-114 loop $-1 -1 -1 $-1 $-1 $127 $65 F unknown #
-115 coedge $-1 -1 -1 $-1 $115 $115 $117 $128 reversed $99 $-1 #
-116 loop $-1 -1 -1 $-1 $-1 $125 $39 T -9.75 -9.75 0 9.75 9.75 0 u_sep $44 F #
-117 coedge $-1 -1 -1 $-1 $117 $117 $115 $128 forward $101 $-1 #
-118 loop $-1 -1 -1 $-1 $-1 $129 $42 F unknown #
-119 coedge $-1 -1 -1 $-1 $119 $119 $127 $130 forward $102 $-1 #
-120 vertex $-1 -1 -1 $-1 $104 $131 #
-121 intcurve-curve $-1 -1 -1 $-1 forward { surfintcur full nubs 3 periodic 33 
	0 3 0.91297359356746188 2 1.8259471871349238 2 2.7389207807023856 2 3.6518943742698475 2 
	4.5626567438953041 2 5.4734191135207606 2 6.3841814831462171 2 7.2949438527716737 2 8.2057062223971293 2 
	9.1164685920225832 2 10.027230961648037 2 10.937993331273493 2 11.850966924840959 2 12.763940518408425 2 
	13.67691411197589 2 14.589887705543356 2 15.502861299110823 2 16.415834892678287 2 17.328808486245752 2 
	18.241782079813216 2 19.152544449438672 2 20.063306819064131 2 20.97406918868959 2 21.884831558315049 2 
	22.795593927940509 2 23.706356297565964 2 24.61711866719142 2 25.527881036816879 2 26.440854630384344 2 
	27.353828223951808 2 28.266801817519273 2 29.179775411086737 3 
	4.75 8.5146931829632013 50.000000000000007 
	4.75 8.5146931829632031 50.304324531189167 
	4.7202925178248449 8.5314844722884011 50.616936685719196 
	4.5974507455564364 8.5983042151914546 51.23499756735589 
	4.5043654681507785 8.648225683504922 51.54046759650285 
	4.2606181314263285 8.7708748242517309 52.123555124386854 
	4.1097622254165405 8.8435439325633283 52.401733263361535 
	3.763001517903704 8.9965679236404412 52.915182293788334 
	3.5670496449939968 9.0767772095728425 53.150464776278199 
	3.1509692609873285 9.2294573095097654 53.566545160284861 
	2.9159356678782999 9.3075803729072835 53.762426078645603 
	2.4023809597068899 9.4531634356081682 54.109391262270705 
	2.1238459814850499 9.5205100307922041 54.260502581494649 
	1.5400150490884545 9.6321953224638914 54.504548607668227 
	1.2341669296058788 9.6765564727972819 54.597678102537522 
	0.61595893432134319 9.7354767614527464 54.720424402137333 
	0.30358745654181946 9.75 54.749999999999993 
	-0.30358745654181785 9.75 54.749999999999993 
	-0.61595893432134385 9.7354767614527447 54.720424402137333 
	-1.2341669296058795 9.6765564727972802 54.597678102537522 
	-1.540015049088453 9.632195322463895 54.504548607668227 
	-2.1238459814850468 9.5205100307922077 54.260502581494642 
	-2.4023809597068864 9.45316343560817 54.109391262270712 
	-2.9159356678782942 9.3075803729072852 53.762426078645611 
	-3.1509692609873259 9.2294573095097689 53.566545160284875 
	-3.5670496449939959 9.0767772095728443 53.150464776278213 
	-3.7630015179036977 8.996567923640443 52.915182293788341 
	-4.1097622254165351 8.84354393256333 52.401733263361542 
	-4.2606181314263276 8.7708748242517309 52.123555124386854 
	-4.5043654681507785 8.6482256835049203 51.54046759650285 
	-4.5974507455564382 8.598304215191451 51.234997567355883 
	-4.7202925178248449 8.5314844722883976 50.616936685719182 
	-4.75 8.5146931829632013 50.30432453118916 
	-4.75 8.5146931829631995 49.695675468810848 
	-4.7202925178248449 8.5314844722883976 49.383063314280811 
	-4.5974507455564382 8.598304215191451 48.765002432644117 
	-4.504365468150783 8.6482256835049185 48.459532403497164 
	-4.2606181314263338 8.7708748242517274 47.87644487561316 
	-4.1097622254165396 8.8435439325633283 47.598266736638465 
	-3.7630015179037035 8.9965679236404412 47.084817706211666 
	-3.5670496449940021 9.0767772095728407 46.849535223721801 
	-3.1509692609873343 9.2294573095097654 46.433454839715139 
	-2.9159356678783048 9.3075803729072835 46.237573921354397 
	-2.4023809597068948 9.4531634356081682 45.890608737729295 
	-2.1238459814850552 9.5205100307922041 45.739497418505351 
	-1.5400150490884588 9.6321953224638914 45.495451392331773 
	-1.2341669296058821 9.6765564727972819 45.402321897462478 
	-0.61595893432134519 9.7354767614527464 45.279575597862667 
	-0.30358745654182068 9.75 45.250000000000007 
	0.30358745654181879 9.75 45.250000000000007 
	0.61595893432134352 9.7354767614527464 45.279575597862667 
	1.2341669296058801 9.6765564727972819 45.402321897462478 
	1.5400150490884559 9.6321953224638914 45.495451392331773 
	2.1238459814850503 9.5205100307922041 45.739497418505351 
	2.4023809597068908 9.45316343560817 45.890608737729295 
	2.9159356678783013 9.3075803729072835 46.237573921354397 
	3.1509692609873312 9.2294573095097654 46.433454839715139 
	3.5670496449940003 9.0767772095728407 46.849535223721801 
	3.7630015179037035 8.9965679236404412 47.084817706211666 
	4.1097622254165396 8.8435439325633283 47.598266736638465 
	4.2606181314263338 8.7708748242517256 47.87644487561316 
	4.5043654681507821 8.6482256835049167 48.459532403497164 
	4.5974507455564417 8.598304215191451 48.765002432644131 
	4.7202925178248467 8.5314844722883976 49.383063314280825 
	4.75 8.5146931829631995 49.695675468810848 
	4.75 8.5146931829632013 50.000000000000007 
	0.00022063023167443301 
	cone 0 25 50 0 -1 0 0 0 -4.75 1 I I 0 -1 4.75 forward I I I I 
	cone 0 0 0 0 0 1 9.75 0 0 1 I I 0 -1 9.75 forward I I I I 
	nullbs 
	nullbs 
	-1 
	-1 
	I I 
	0 
	0 
	0 
	
	-1 
	none F } I I #
-122 point $-1 -1 -1 $-1 2.4612530396926288e-016 9.75 44.75 #
-123 point $-1 -1 -1 $-1 7.3191781355291619e-018 25 45.25 #
-124 coedge $-1 -1 -1 $-1 $124 $124 $129 $132 reversed $112 $-1 #
-125 coedge $-1 -1 -1 $-1 $125 $125 $113 $126 reversed $116 $-1 #
-126 edge $-1 -1 -1 $-1 $133 0 $133 6.2831853071795862 $125 $134 forward @7 unknown T -9.75 -9.75 0 9.75 9.75 0 #
-127 coedge $-1 -1 -1 $-1 $127 $127 $119 $130 reversed $114 $-1 #
-128 edge $135 -1 -1 $-1 $136 0 $136 6.2831853071795862 $117 $137 forward @7 unknown T -9.75 -9.75 100 9.75 9.75 100 #
-129 coedge $-1 -1 -1 $-1 $129 $129 $124 $132 forward $118 $-1 #
-130 edge $-1 -1 -1 $-1 $138 0 $138 6.2831853071795862 $119 $139 forward @7 unknown T -10.25 -10.25 100 10.25 10.25 100 #
-131 point $-1 -1 -1 $-1 7.3191781355291619e-018 9.75 45.250000000000007 #
-132 edge $-1 -1 -1 $-1 $140 0 $140 6.2831853071795862 $129 $141 forward @7 unknown T -10.25 -10.25 0 10.25 10.25 0 #
-133 vertex $-1 -1 -1 $-1 $126 $142 #
-134 ellipse-curve $-1 -1 -1 $-1 0 0 0 0 0 1 9.75 0 0 1 I I #
-135 integer_attrib-name_attrib-gen-attrib $-1 -1 $-1 $-1 $128 2 4 2 1 1 1 1 1 1 1 1 1 1 1 0 1 1 1 @16 SKETCH_ENTITY_ID 300007 #
-136 vertex $143 -1 -1 $-1 $128 $144 #
-137 ellipse-curve $-1 -1 -1 $-1 0 0 100 0 0 1 9.75 0 0 1 I I #
-138 vertex $-1 -1 -1 $-1 $130 $145 #
-139 ellipse-curve $-1 -1 -1 $-1 0 0 100 -0 -0 -1 10.25 0 0 1 I I #
-140 vertex $-1 -1 -1 $-1 $132 $146 #
-141 ellipse-curve $-1 -1 -1 $-1 0 0 0 0 0 1 10.25 0 0 1 I I #
-142 point $-1 -1 -1 $-1 9.75 0 0 #
-143 integer_attrib-name_attrib-gen-attrib $-1 -1 $-1 $-1 $136 2 4 2 1 1 1 1 1 1 1 1 1 1 1 0 1 1 1 @16 SKETCH_ENTITY_ID 300002 #
-144 point $-1 -1 -1 $-1 9.75 0 100 #
-145 point $-1 -1 -1 $-1 10.25 0 100 #
-146 point $-1 -1 -1 $-1 10.25 0 0 #
End-of-ACIS-data 
