1200 0 1 0           
35 Abaqus, Inc. - ABAQUS 6.7-DEV - 160 12 ACIS 16.0 NT 24 Tue Aug 29 17:24:27 2006 
1 9.9999999999999995e-007 1e-010 
-0 body $-1 -1 -1 $-1 $1 $-1 $2 F #
-1 lump $3 -1 -1 $-1 $-1 $4 $0 F #
-2 transform $-1 -1 1 0 0 0 1 0 0 0 1 0 0 0 1 no_rotate no_reflect no_shear #
-3 cell_ptr-ct-attrib $-1 -1 $-1 $-1 $1 $5 $-1 auto #
-4 shell $-1 -1 -1 $-1 $-1 $-1 $6 $-1 $1 F #
-5 cell3d-cell $-1 -1 $7 $1 $-1 1 $8 #
-6 face $9 -1 -1 $-1 $10 $11 $4 $-1 $12 forward double in F F #
-7 cell3d-cell $-1 -1 $13 $1 $-1 1 $14 #
-8 cshell $-1 -1 $-1 $15 $5 #
-9 cface_ptr-ct-attrib $-1 -1 $-1 $-1 $6 $16 $17 #
-10 face $18 -1 -1 $-1 $19 $20 $4 $-1 $21 forward single F F #
-11 loop $-1 -1 -1 $-1 $22 $23 $6 F unknown #
-12 cone-surface $-1 -1 -1 $-1 -63.78059018911614 233.81299982470688 -63.780590189116118 0.70710678118654757 0 0.70710678118654746 7.0710678118654746 0 -7.0710678118654755 1 I I 0 1 10 forward I I I I #
-13 cell3d-cell $-1 -1 $-1 $1 $-1 1 $24 #
-14 cshell $-1 -1 $-1 $25 $7 #
-15 cface $-1 -1 $16 $8 $26 0 #
-16 cface $-1 -1 $27 $8 $6 1 #
-17 cface $-1 -1 $-1 $14 $6 0 #
-18 cface_ptr-ct-attrib $-1 -1 $-1 $-1 $10 $-1 $28 #
-19 face $29 -1 -1 $-1 $30 $31 $4 $-1 $32 forward double in F F #
-20 loop $-1 -1 -1 $-1 $33 $34 $10 F unknown #
-21 cone-surface $-1 -1 -1 $-1 -1.0048591735576159e-014 233.81299964941388 1.0048591735576158e-014 0 -1 0 38.537390285344905 0 -38.537390285344898 1 I I 0 -1 54.500099999999918 forward I I I I #
-22 loop $-1 -1 -1 $-1 $-1 $35 $6 F unknown #
-23 coedge $-1 -1 -1 $-1 $23 $23 $36 $37 forward $11 $-1 #
-24 cshell $-1 -1 $-1 $38 $13 #
-25 cface $-1 -1 $39 $14 $30 0 #
-26 face $40 -1 -1 $-1 $41 $42 $4 $-1 $21 forward single F F #
-27 cface $-1 -1 $43 $8 $44 0 #
-28 cface $-1 -1 $17 $14 $10 0 #
-29 cface_ptr-ct-attrib $-1 -1 $-1 $-1 $19 $45 $39 #
-30 face $46 -1 -1 $-1 $47 $48 $4 $-1 $49 reversed single F F #
-31 loop $-1 -1 -1 $-1 $50 $51 $19 F unknown #
-32 cone-surface $-1 -1 -1 $-1 -1.0048591735576159e-014 332.73560102981662 1.0048591735576158e-014 0 -1 0 44.459409577782303 0 -44.459409577782296 1 I I 0 1 62.875100000000003 forward I I I I #
-33 loop $-1 -1 -1 $-1 $-1 $52 $10 F unknown #
-34 coedge $-1 -1 -1 $-1 $34 $34 $53 $54 reversed $20 $-1 #
-35 coedge $-1 -1 -1 $-1 $35 $35 $55 $56 forward $22 $-1 #
-36 coedge $-1 -1 -1 $-1 $36 $36 $52 $37 forward $42 $-1 #
-37 edge $-1 -1 -1 $-1 $57 15.104317593629151 $57 75.521587968145738 $36 $58 forward @7 unknown F #
-38 cface $-1 -1 $59 $24 $60 0 #
-39 cface $-1 -1 $28 $14 $19 0 #
-40 cface_ptr-ct-attrib $-1 -1 $-1 $-1 $26 $-1 $15 #
-41 face $61 -1 -1 $-1 $-1 $62 $4 $-1 $63 forward single F F #
-42 loop $-1 -1 -1 $-1 $64 $36 $26 F unknown #
-43 cface $-1 -1 $65 $8 $47 0 #
-44 face $66 -1 -1 $-1 $26 $67 $4 $-1 $68 forward single F F #
-45 cface $-1 -1 $69 $24 $19 1 #
-46 cface_ptr-ct-attrib $-1 -1 $-1 $-1 $30 $-1 $25 #
-47 face $70 -1 -1 $-1 $71 $72 $4 $-1 $73 reversed single F F #
-48 loop $-1 -1 -1 $-1 $74 $53 $30 F unknown #
-49 cone-surface $-1 -1 -1 $-1 55.861435713737251 233.81299982470688 55.861435713737258 -0.70710678118654757 0 -0.70710678118654746 -5.3033008588991057 0 5.3033008588991066 1 I I 0 1 7.5 forward I I I I #
-50 loop $-1 -1 -1 $-1 $-1 $75 $19 F unknown #
-51 coedge $-1 -1 -1 $-1 $51 $51 $76 $77 forward $31 $-1 #
-52 coedge $-1 -1 -1 $-1 $52 $52 $23 $37 reversed $33 $-1 #
-53 coedge $-1 -1 -1 $-1 $53 $53 $34 $54 forward $48 $-1 #
-54 edge $-1 -1 -1 $-1 $78 11.316034833447038 $78 56.580174167235185 $53 $79 forward @7 unknown F #
-55 coedge $-1 -1 -1 $-1 $55 $55 $80 $56 forward $81 $-1 #
-56 edge $-1 -1 -1 $-1 $82 45.285122022296214 $82 105.66528471869117 $55 $83 forward @7 unknown F #
-57 vertex $-1 -1 -1 $-1 $37 $84 #
-58 intcurve-curve $-1 -1 -1 $-1 forward { surfintcur full nubs 3 periodic 33 
	0 3 1.8880769470743557 2 3.7761538941487114 2 5.6642308412230671 2 7.5523077882974228 2 
	9.4403102396303549 2 11.328312690963287 2 13.216315142296219 2 15.104317593629151 2 16.992320044962081 2 
	18.880322496295012 2 20.768324947627942 2 22.656327398960872 2 24.544404346035229 2 26.432481293109582 2 
	28.320558240183939 2 30.208635187258295 2 32.096712134332648 2 33.984789081407008 2 35.872866028481369 2 
	37.760942975555722 2 39.648945426888652 2 41.536947878221582 2 43.42495032955452 2 45.31295278088745 2 
	47.20095523222038 2 49.088957683553303 2 50.976960134886234 2 52.864962586219164 2 54.753039533293517 2 
	56.641116480367877 2 58.529193427442237 2 60.41727037451659 3 
	30.812047820365656 233.81299982470688 44.954183444096614 
	30.812047820365656 233.18364084234875 44.954183444096614 
	30.862789994297554 232.53325390059936 44.919547346379836 
	31.075083034921018 231.24040793205751 44.772946679911819 
	31.23656739148846 230.59793599311269 44.660999675967027 
	31.659795348762533 229.36647713740274 44.361981368742697 
	31.921815734774235 228.77648216444027 44.174612403943833 
	32.520597172139979 227.68576446027919 43.735677202988647 
	32.857311488635716 227.18506326285444 43.483993712315495 
	33.56598118507452 226.29881824696272 42.939323687694682 
	33.962398968564877 225.88276009105485 42.627654502314158 
	34.813066298459766 225.14897574413206 41.935806740377714 
	35.267222059356101 224.83120053678186 41.5555648420209 
	36.199372490224931 224.3204853609796 40.746132974766311 
	36.678075272653601 224.12713928606627 40.316226034218026 
	37.624586827148391 223.87336691749579 39.434372740478402 
	38.092383839933447 223.81299982470688 38.982396730756349 
	38.982396730756342 223.81299982470688 38.092383839933461 
	39.434372740478402 223.87336691749579 37.624586827148406 
	40.316226034218012 224.12713928606627 36.678075272653629 
	40.746132974766297 224.3204853609796 36.19937249022496 
	41.555564842020885 224.83120053678186 35.267222059356136 
	41.935806740377707 225.14897574413206 34.813066298459781 
	42.627654502314151 225.88276009105485 33.962398968564891 
	42.939323687694674 226.29881824696272 33.565981185074534 
	43.483993712315495 227.18506326285444 32.85731148863573 
	43.735677202988626 227.68576446027922 32.52059717214 
	44.174612403943812 228.7764821644403 31.921815734774256 
	44.36198136874269 229.36647713740274 31.659795348762543 
	44.66099967596702 230.59793599311269 31.236567391488471 
	44.772946679911804 231.24040793205751 31.075083034921029 
	44.919547346379822 232.53325390059936 30.862789994297565 
	44.954183444096607 233.18364084234875 30.81204782036567 
	44.9541834440966 234.44235880706498 30.81204782036567 
	44.919547346379829 235.09274574881437 30.862789994297554 
	44.772946679911811 236.38559171735625 31.075083034921018 
	44.660999675967012 237.02806365630107 31.236567391488471 
	44.36198136874269 238.25952251201102 31.659795348762543 
	44.174612403943833 238.84951748497343 31.921815734774235 
	43.735677202988647 239.94023518913451 32.520597172139979 
	43.483993712315495 240.44093638655931 32.85731148863573 
	42.939323687694682 241.32718140245103 33.565981185074534 
	42.627654502314151 241.74323955835891 33.962398968564884 
	41.935806740377707 242.4770239052817 34.813066298459773 
	41.5555648420209 242.79479911263189 35.267222059356129 
	40.746132974766311 243.30551428843415 36.199372490224945 
	40.316226034218026 243.49886036334752 36.678075272653608 
	39.434372740478402 243.752632731918 37.624586827148399 
	38.982396730756349 243.81299982470688 38.092383839933461 
	38.092383839933447 243.81299982470688 38.982396730756349 
	37.624586827148384 243.75263273191797 39.434372740478416 
	36.678075272653608 243.49886036334749 40.316226034218026 
	36.199372490224945 243.30551428843415 40.746132974766304 
	35.267222059356129 242.79479911263189 41.5555648420209 
	34.813066298459766 242.4770239052817 41.935806740377714 
	33.962398968564877 241.74323955835891 42.627654502314158 
	33.56598118507452 241.32718140245103 42.939323687694682 
	32.857311488635723 240.44093638655931 43.483993712315495 
	32.520597172139972 239.94023518913454 43.735677202988654 
	31.921815734774228 238.84951748497346 44.17461240394384 
	31.659795348762536 238.25952251201099 44.361981368742704 
	31.236567391488464 237.02806365630107 44.660999675967034 
	31.075083034921004 236.38559171735619 44.772946679911819 
	30.862789994297543 235.09274574881434 44.919547346379836 
	30.812047820365656 234.44235880706501 44.954183444096614 
	30.812047820365656 233.81299982470688 44.954183444096614 
	0.00028711313393301927 
	cone -63.78059018911614 233.81299982470688 -63.780590189116118 0.70710678118654757 0 0.70710678118654746 7.0710678118654746 0 -7.0710678118654755 1 I I 0 1 10 forward I I I I 
	cone -1.0048591735576159e-014 233.81299964941388 1.0048591735576158e-014 0 -1 0 38.537390285344905 0 -38.537390285344898 1 I I 0 -1 54.500099999999918 forward I I I I 
	nullbs 
	nullbs 
	-1 
	-1 
	I I 
	0 
	0 
	0 
	
	-1 
	nullbs } I I #
-59 cface $-1 -1 $45 $24 $85 0 #
-60 face $86 -1 -1 $-1 $85 $87 $4 $-1 $88 forward single F F #
-61 cface_ptr-ct-attrib $-1 -1 $-1 $-1 $41 $-1 $89 #
-62 loop $-1 -1 -1 $-1 $81 $90 $41 F unknown #
-63 cone-surface $-1 -1 -1 $-1 -1.0048591735576159e-014 233.81299964941388 1.0048591735576158e-014 0 -1 0 44.459409577782303 0 -44.459409577782296 1 I I 0 1 62.875100000000003 forward I I I I #
-64 loop $-1 -1 -1 $-1 $-1 $91 $26 F unknown #
-65 cface $-1 -1 $92 $8 $93 0 #
-66 cface_ptr-ct-attrib $-1 -1 $-1 $-1 $44 $-1 $27 #
-67 loop $-1 -1 -1 $-1 $-1 $94 $44 F unknown #
-68 plane-surface $-1 -1 -1 $-1 41.498399931563625 213.81299964941388 -41.498399931563618 0 -1 0 0.70710678118654757 0 -0.70710678118654746 forward_v I I I I #
-69 cface $-1 -1 $-1 $24 $95 0 #
-70 cface_ptr-ct-attrib $-1 -1 $-1 $-1 $47 $-1 $43 #
-71 face $96 -1 -1 $-1 $93 $97 $4 $-1 $98 reversed single F F #
-72 loop $-1 -1 -1 $-1 $-1 $99 $47 F unknown #
-73 plane-surface $-1 -1 -1 $-1 28.00806129255777 253.81299964941388 56.292332538653312 0.89530406374945326 0 -0.44545553474360911 0.44545553474360911 0 0.89530406374945326 forward_v I I I I #
-74 loop $-1 -1 -1 $-1 $-1 $100 $30 F unknown #
-75 coedge $-1 -1 -1 $-1 $75 $75 $35 $56 reversed $50 $-1 #
-76 coedge $-1 -1 -1 $-1 $76 $76 $100 $77 forward $101 $-1 #
-77 edge $-1 -1 -1 $-1 $102 11.312170495202169 $102 56.560852476010872 $76 $103 forward @7 unknown F #
-78 vertex $-1 -1 -1 $-1 $54 $104 #
-79 intcurve-curve $-1 -1 -1 $-1 forward { surfintcur full nubs 3 periodic 33 
	0 3 1.414513060825175 2 2.8290261216503501 2 4.2435391824755246 2 5.6580522433007001 2 
	7.0725478908372841 2 8.487043538373868 2 9.9015391859104529 2 11.316034833447038 2 12.730530480983621 2 
	14.145026128520206 2 15.559521776056791 2 16.974017423593374 2 18.388530484418549 2 19.803043545243725 2 
	21.2175566060689 2 22.632069666894076 2 24.046582727719251 2 25.461095788544426 2 26.875608849369602 2 
	28.290121910194777 2 29.70461755773136 2 31.119113205267944 2 32.533608852804527 2 33.94810450034111 2 
	35.362600147877686 2 36.777095795414269 2 38.191591442950852 2 39.606087090487435 2 41.020600151312614 2 
	42.435113212137793 2 43.849626272962965 2 45.264139333788144 3 
	43.474041616775303 233.81299982470688 32.867439898977103 
	43.474041616775303 233.34149547109848 32.867439898977103 
	43.446579919983378 232.85408003334186 32.903872039315594 
	43.330481699205144 231.88487873036567 33.056609893274064 
	43.241862601935722 231.40308398871042 33.17287252391435 
	43.005821275036837 230.47934186116487 33.478313706322695 
	42.858178509343347 230.03664735869512 33.667702638550047 
	42.513653183999629 229.21812132138226 34.101714898886748 
	42.316699330250302 228.84230895271472 34.346317775785771 
	41.892310575901909 228.17709307347857 34.862686339759094 
	41.650352781208248 227.86486575854758 35.152204820432914 
	41.116149191769622 227.31435469764796 35.775573596749844 
	40.823872177611442 227.07603521106108 36.109365572915067 
	40.205150079454008 226.69314691305408 36.797020650130733 
	39.878173565130631 226.54827346150995 37.151408804045722 
	39.211002531323587 226.35817854714719 37.8548964270746 
	38.870790106788832 226.31299982470688 38.203990463900858 
	38.203990463900851 226.31299982470688 38.870790106788839 
	37.854896427074593 226.35817854714719 39.211002531323594 
	37.151408804045722 226.54827346150995 39.878173565130631 
	36.797020650130726 226.69314691305408 40.205150079454015 
	36.10936557291506 227.07603521106108 40.823872177611449 
	35.77557359674983 227.31435469764796 41.116149191769637 
	35.1522048204329 227.86486575854758 41.650352781208262 
	34.862686339759087 228.17709307347857 41.892310575901917 
	34.346317775785757 228.84230895271472 42.316699330250309 
	34.101714898886748 229.21812132138226 42.513653183999629 
	33.66770263855004 230.03664735869512 42.858178509343354 
	33.478313706322687 230.47934186116487 43.005821275036844 
	33.172872523914343 231.40308398871039 43.241862601935729 
	33.05660989327405 231.88487873036567 43.330481699205151 
	32.903872039315587 232.85408003334186 43.446579919983385 
	32.867439898977089 233.34149547109848 43.47404161677531 
	32.867439898977089 234.28450417831527 43.47404161677531 
	32.903872039315587 234.7719196160719 43.446579919983385 
	33.05660989327405 235.74112091904809 43.330481699205151 
	33.172872523914343 236.22291566070336 43.241862601935729 
	33.478313706322687 237.14665778824889 43.005821275036844 
	33.667702638550033 237.58935229071864 42.858178509343361 
	34.101714898886748 238.40787832803153 42.513653183999629 
	34.346317775785757 238.78369069669904 42.316699330250316 
	34.86268633975908 239.44890657593521 41.892310575901924 
	35.1522048204329 239.76113389086618 41.650352781208262 
	35.775573596749837 240.3116449517658 41.11614919176963 
	36.10936557291506 240.54996443835267 40.823872177611449 
	36.797020650130726 240.93285273635968 40.205150079454015 
	37.151408804045715 241.07772618790381 39.878173565130638 
	37.854896427074586 241.26782110226657 39.211002531323601 
	38.203990463900844 241.31299982470688 38.870790106788846 
	38.870790106788832 241.31299982470688 38.203990463900872 
	39.211002531323579 241.26782110226657 37.854896427074607 
	39.878173565130624 241.07772618790381 37.15140880404573 
	40.205150079454 240.93285273635968 36.797020650130747 
	40.823872177611428 240.54996443835267 36.109365572915081 
	41.116149191769615 240.3116449517658 35.775573596749858 
	41.650352781208248 239.76113389086618 35.152204820432921 
	41.892310575901902 239.44890657593521 34.862686339759101 
	42.316699330250295 238.78369069669904 34.346317775785778 
	42.513653183999622 238.4078783280315 34.101714898886755 
	42.858178509343347 237.58935229071864 33.667702638550047 
	43.005821275036837 237.14665778824889 33.478313706322695 
	43.241862601935722 236.22291566070334 33.17287252391435 
	43.330481699205151 235.74112091904809 33.056609893274064 
	43.446579919983385 234.7719196160719 32.903872039315608 
	43.474041616775303 234.28450417831527 32.867439898977103 
	43.474041616775303 233.81299982470688 32.867439898977103 
	0.00023461605178489673 
	cone 55.861435713737251 233.81299982470688 55.861435713737258 -0.70710678118654757 0 -0.70710678118654746 -5.3033008588991057 0 5.3033008588991066 1 I I 0 -1 7.5 forward I I I I 
	cone -5.0242958677880797e-015 253.81299964941388 1.5072887603364239e-014 0 -1 0 -38.537390285344841 0 -38.537390285344834 1 I I 0 -1 54.500099999999833 forward I I I I 
	nullbs 
	nullbs 
	-1 
	-1 
	I I 
	0 
	0 
	0 
	
	-1 
	nullbs } I I #
-80 coedge $-1 -1 -1 $-1 $80 $80 $75 $56 reversed $105 $-1 #
-81 loop $-1 -1 -1 $-1 $-1 $55 $41 F unknown #
-82 vertex $-1 -1 -1 $-1 $56 $106 #
-83 intcurve-curve $-1 -1 -1 $-1 forward { surfintcur full nubs 3 periodic 33 
	0 3 1.886900931086557 2 3.773801862173114 2 5.660702793259671 2 7.5476037243462279 2 
	9.4344629617843552 2 11.321322199222482 2 13.20818143666061 2 15.095040674098739 2 16.981899911536868 2 
	18.868759148974995 2 20.755618386413122 2 22.642477623851249 2 24.529378554937807 2 26.416279486024365 2 
	28.303180417110923 2 30.190081348197477 2 32.076982279284032 2 33.963883210370589 2 35.850784141457147 2 
	37.737685072543705 2 39.624544309981829 2 41.51140354741996 2 43.39826278485809 2 45.285122022296214 2 
	47.171981259734338 2 49.058840497172469 2 50.945699734610599 2 52.832558972048723 2 54.719459903135274 2 
	56.606360834221832 2 58.493261765308389 2 60.380162696394947 3 
	36.822429428671192 233.81299982470688 50.964565052402151 
	36.822429428671192 234.44196680173573 50.964565052402151 
	36.872006398136961 235.09206882462303 50.928870234747016 
	37.079659854253265 236.38458600694975 50.777884007707748 
	37.237674894573388 237.02701345341887 50.662613280625614 
	37.652348136254417 238.25858558855251 50.355193320399387 
	37.909285243336235 238.84873155469219 50.162748483442613 
	38.497328647953346 239.93981981320599 49.712884949879836 
	38.82839855236373 240.44073828993567 49.455360926975374 
	39.526312909189144 241.32738718724278 48.899364388165914 
	39.917194161931683 241.7435848765387 48.581846342396503 
	40.757469577500835 242.47750033728809 47.879085804092199 
	41.206778298925336 242.7952663636778 47.493791549702621 
	42.130785503494266 243.30586894762314 46.676072310863965 
	42.606187411610904 243.49911165163149 46.242935001424861 
	43.548135644365225 243.75270606323352 45.356985406872965 
	44.014672590469971 243.81299982470688 44.904146565094628 
	44.904146565094621 243.81299982470688 44.014672590469978 
	45.356985406872958 243.75270606323352 43.548135644365232 
	46.242935001424854 243.49911165163149 42.606187411610911 
	46.676072310863958 243.30586894762314 42.130785503494273 
	47.493791549702614 242.7952663636778 41.20677829892535 
	47.879085804092185 242.47750033728809 40.757469577500835 
	48.581846342396489 241.7435848765387 39.917194161931683 
	48.8993643881659 241.32738718724278 39.526312909189159 
	49.455360926975359 240.44073828993567 38.828398552363744 
	49.712884949879829 239.93981981320599 38.497328647953353 
	50.162748483442606 238.84873155469219 37.909285243336242 
	50.355193320399373 238.25858558855251 37.652348136254432 
	50.662613280625607 237.02701345341887 37.237674894573402 
	50.777884007707733 236.38458600694975 37.079659854253272 
	50.928870234747002 235.09206882462303 36.872006398136975 
	50.964565052402143 234.44196680173573 36.8224294286712 
	50.964565052402143 233.18403284767803 36.8224294286712 
	50.928870234747002 232.53393082479073 36.872006398136975 
	50.777884007707733 231.24141364246401 37.079659854253279 
	50.662613280625607 230.59898619599488 37.237674894573402 
	50.355193320399373 229.36741406086125 37.652348136254432 
	50.162748483442606 228.77726809472156 37.909285243336249 
	49.712884949879829 227.68617983620777 38.497328647953353 
	49.455360926975359 227.18526135947809 38.828398552363744 
	48.8993643881659 226.29861246217101 39.526312909189151 
	48.581846342396496 225.88241477287505 39.917194161931675 
	47.879085804092192 225.14849931212567 40.757469577500835 
	47.4937915497026 224.83073328573596 41.206778298925343 
	46.676072310863951 224.32013070179062 42.13078550349428 
	46.242935001424847 224.12688799778226 42.606187411610918 
	45.356985406872951 223.87329358618024 43.548135644365239 
	44.904146565094621 223.81299982470688 44.014672590469978 
	44.014672590469971 223.81299982470688 44.904146565094628 
	43.548135644365225 223.87329358618024 45.356985406872965 
	42.606187411610911 224.12688799778226 46.242935001424854 
	42.130785503494259 224.32013070179062 46.676072310863958 
	41.206778298925336 224.83073328573596 47.493791549702621 
	40.757469577500814 225.14849931212567 47.879085804092206 
	39.917194161931668 225.88241477287505 48.581846342396503 
	39.526312909189144 226.29861246217098 48.899364388165914 
	38.82839855236373 227.18526135947812 49.455360926975366 
	38.497328647953339 227.68617983620777 49.712884949879843 
	37.909285243336235 228.77726809472156 50.162748483442613 
	37.652348136254425 229.36741406086122 50.35519332039938 
	37.237674894573395 230.59898619599488 50.662613280625621 
	37.079659854253265 231.24141364246401 50.777884007707748 
	36.872006398136961 232.53393082479073 50.928870234747016 
	36.822429428671192 233.18403284767803 50.964565052402151 
	36.822429428671192 233.81299982470688 50.964565052402151 
	0.00028452602456647446 
	cone -1.0048591735576161e-014 233.81299982470688 1.0048591735576156e-014 0.70710678118654757 0 0.70710678118654746 7.0710678118654746 0 -7.0710678118654755 1 I I 0 1 10 forward I I I I 
	cone -1.0048591735576159e-014 233.81299964941388 1.0048591735576158e-014 0 -1 0 44.459409577782303 0 -44.459409577782296 1 I I 0 1 62.875100000000003 forward I I I I 
	nullbs 
	nullbs 
	-1 
	-1 
	I I 
	0 
	0 
	0 
	
	-1 
	nullbs } I I #
-84 point $-1 -1 -1 $-1 38.537390285344898 223.81299982470688 38.537390285344905 #
-85 face $107 -1 -1 $-1 $44 $108 $4 $-1 $109 reversed single F F #
-86 cface_ptr-ct-attrib $-1 -1 $-1 $-1 $60 $-1 $38 #
-87 loop $-1 -1 -1 $-1 $105 $110 $60 F unknown #
-88 cone-surface $-1 -1 -1 $-1 -1.0048591735576161e-014 233.81299982470688 1.0048591735576156e-014 0.70710678118654757 0 0.70710678118654746 7.0710678118654746 0 -7.0710678118654755 1 I I 0 1 10 forward I I I I #
-89 cface $-1 -1 $-1 $8 $41 0 #
-90 coedge $-1 -1 -1 $-1 $111 $112 $113 $114 forward $62 $-1 #
-91 coedge $-1 -1 -1 $-1 $115 $116 $117 $118 forward $64 $-1 #
-92 cface $-1 -1 $89 $8 $71 0 #
-93 face $119 -1 -1 $-1 $95 $120 $4 $-1 $121 forward single F F #
-94 coedge $-1 -1 -1 $-1 $122 $123 $124 $125 forward $67 $-1 #
-95 face $126 -1 -1 $-1 $60 $101 $4 $-1 $49 reversed single F F #
-96 cface_ptr-ct-attrib $-1 -1 $-1 $-1 $71 $-1 $92 #
-97 loop $-1 -1 -1 $-1 $-1 $113 $71 F unknown #
-98 plane-surface $-1 -1 -1 $-1 48.794161005204607 253.81299964941388 24.277371188169294 -0.4454555347343605 0 0.89530406375405502 -0.89530406375405502 0 -0.4454555347343605 forward_v I I I I #
-99 coedge $-1 -1 -1 $-1 $127 $128 $129 $130 reversed $72 $-1 #
-100 coedge $-1 -1 -1 $-1 $100 $100 $51 $77 reversed $74 $-1 #
-101 loop $-1 -1 -1 $-1 $131 $76 $95 F unknown #
-102 vertex $-1 -1 -1 $-1 $77 $132 #
-103 intcurve-curve $-1 -1 -1 $-1 forward { surfintcur full nubs 3 periodic 33 
	0 3 1.4140262034308004 2 2.8280524068616009 2 4.2420786102924009 2 5.6561048137232017 2 
	7.0701212340929436 2 8.4841376544626854 2 9.8981540748324264 2 11.312170495202169 2 12.726186915571908 2 
	14.140203335941646 2 15.554219756311385 2 16.968236176681124 2 18.382262380111932 2 19.79628858354274 2 
	21.210314786973548 2 22.624340990404356 2 24.038367193835157 2 25.452393397265958 2 26.866419600696759 2 
	28.280445804127559 2 29.6944622244973 2 31.108478644867045 2 32.522495065236789 2 33.93651148560653 2 
	35.350527905976264 2 36.764544326345998 2 38.178560746715732 2 39.592577167085473 2 41.006603370516281 2 
	42.420629573947089 2 43.834655777377897 2 45.248681980808705 3 
	49.445277479854809 233.81299982470688 38.83867576205661 
	49.445277479854809 233.34165775689661 38.83867576205661 
	49.417228240495518 232.85436096251277 38.874476272129733 
	49.298700110921757 231.8852974723352 39.024678343038296 
	49.208240210400291 231.40352214183798 39.139039176828589 
	48.96754517257888 230.47973414904223 39.439761809666606 
	48.817090379801073 230.03697720450467 39.626334894177418 
	48.466507154255275 229.21829641585467 40.054368233190537 
	48.26631391619599 228.84239270631707 40.295813916251149 
	47.835642405448702 228.17700752706855 40.80613915019913 
	47.5904366500028 227.86472189942899 41.092540017515077 
	47.050162024606195 227.31415580230041 41.710055850921322 
	46.755068421671965 227.07583993531949 42.041117616049981 
	46.131711545338959 226.69299850318316 42.724199037638641 
	45.802919050271804 226.54816827132265 43.076742001265785 
	45.133419601699394 226.35814782950212 43.77770585613532 
	44.792696444299821 226.31299982470688 44.126122711264784 
	44.12612271126477 226.31299982470688 44.792696444299828 
	43.77770585613532 226.35814782950212 45.133419601699408 
	43.076742001265778 226.54816827132265 45.802919050271825 
	42.724199037638627 226.69299850318316 46.131711545338973 
	42.041117616049974 227.07583993531949 46.755068421671965 
	41.710055850921322 227.31415580230041 47.050162024606195 
	41.092540017515091 227.86472189942899 47.590436650002786 
	40.806139150199115 228.17700752706855 47.835642405448709 
	40.295813916251134 228.84239270631701 48.266313916195998 
	40.054368233190552 229.21829641585467 48.466507154255268 
	39.62633489417744 230.03697720450464 48.817090379801066 
	39.439761809666599 230.47973414904217 48.967545172578866 
	39.139039176828582 231.40352214183795 49.208240210400291 
	39.024678343038275 231.8852974723352 49.298700110921772 
	38.874476272129712 232.85436096251277 49.417228240495533 
	38.838675762056596 233.34165775689661 49.445277479854816 
	38.838675762056596 234.28434189251715 49.445277479854816 
	38.874476272129712 234.77163868690099 49.417228240495533 
	39.024678343038275 235.74070217707856 49.298700110921772 
	39.139039176828589 236.22247750757577 49.208240210400305 
	39.439761809666592 237.14626550037156 48.967545172578895 
	39.626334894177418 237.58902244490909 48.817090379801073 
	40.054368233190516 238.40770323355903 48.466507154255297 
	40.295813916251134 238.78360694309669 48.266313916195998 
	40.806139150199122 239.4489921223452 47.835642405448709 
	41.092540017515098 239.7612777499848 47.590436650002779 
	41.710055850921322 240.31184384711335 47.050162024606195 
	42.041117616049988 240.55015971409426 46.755068421671979 
	42.724199037638648 240.93300114623059 46.131711545338959 
	43.076742001265785 241.07783137809113 45.802919050271797 
	43.777705856135313 241.26785181991167 45.133419601699387 
	44.12612271126477 241.31299982470688 44.792696444299821 
	44.792696444299821 241.31299982470688 44.126122711264784 
	45.133419601699401 241.26785181991167 43.777705856135334 
	45.802919050271804 241.07783137809113 43.076742001265806 
	46.131711545338945 240.93300114623065 42.724199037638655 
	46.75506842167195 240.55015971409432 42.041117616050002 
	47.050162024606152 240.31184384711338 41.710055850921371 
	47.590436650002765 239.7612777499848 41.09254001751512 
	47.835642405448695 239.44899212234523 40.80613915019913 
	48.266313916195983 238.78360694309674 40.295813916251149 
	48.466507154255261 238.40770323355909 40.054368233190552 
	48.817090379801058 237.58902244490912 39.626334894177447 
	48.967545172578873 237.14626550037158 39.439761809666614 
	49.208240210400298 236.2224775075758 39.139039176828597 
	49.298700110921757 235.74070217707856 39.024678343038296 
	49.417228240495518 234.77163868690099 38.874476272129733 
	49.445277479854809 234.28434189251715 38.83867576205661 
	49.445277479854809 233.81299982470688 38.83867576205661 
	0.00023354956411912009 
	cone 55.861435713737251 233.81299982470688 55.861435713737258 -0.70710678118654757 0 -0.70710678118654746 -5.3033008588991057 0 5.3033008588991066 1 I I 0 -1 7.5 forward I I I I 
	cone -1.0048591735576159e-014 332.73560102981662 1.0048591735576158e-014 0 -1 0 44.459409577782303 0 -44.459409577782296 1 I I 0 -1 62.875100000000003 forward I I I I 
	nullbs 
	nullbs 
	-1 
	-1 
	I I 
	0 
	0 
	0 
	
	-1 
	nullbs } I I #
-104 point $-1 -1 -1 $-1 38.537390285344841 226.31299982470688 38.537390285344848 #
-105 loop $-1 -1 -1 $-1 $-1 $80 $60 F unknown #
-106 point $-1 -1 -1 $-1 44.459409577782296 223.81299982470688 44.459409577782303 #
-107 cface_ptr-ct-attrib $-1 -1 $-1 $-1 $85 $-1 $59 #
-108 loop $-1 -1 -1 $-1 $133 $134 $85 F unknown #
-109 plane-surface $-1 -1 -1 $-1 55.861435713737251 233.81299982470688 55.861435713737258 -0.70710678118654757 0 -0.70710678118654746 0.70710678118654746 0 -0.70710678118654757 forward_v I I I I #
-110 coedge $-1 -1 -1 $-1 $110 $110 $135 $136 forward $87 $-1 #
-111 coedge $-1 -1 -1 $-1 $137 $90 $138 $139 forward $62 $-1 #
-112 coedge $-1 -1 -1 $-1 $90 $137 $122 $140 reversed $62 $-1 #
-113 coedge $-1 -1 -1 $-1 $124 $141 $90 $114 reversed $97 $-1 #
-114 edge $-1 -1 -1 $-1 $142 -20 $143 20 $90 $144 forward @7 unknown F #
-115 coedge $-1 -1 -1 $-1 $145 $91 $123 $146 forward $64 $-1 #
-116 coedge $-1 -1 -1 $-1 $91 $145 $147 $148 reversed $64 $-1 #
-117 coedge $-1 -1 -1 $-1 $141 $124 $91 $118 reversed $97 $-1 #
-118 edge $-1 -1 -1 $-1 $149 -20 $150 20 $91 $151 forward @7 unknown F #
-119 cface_ptr-ct-attrib $-1 -1 $-1 $-1 $93 $-1 $65 #
-120 loop $-1 -1 -1 $-1 $-1 $152 $93 F unknown #
-121 plane-surface $-1 -1 -1 $-1 41.498399931563561 253.81299964941388 -41.498399931563554 0 1 0 -0.70710678118654757 0 0.70710678118654746 forward_v I I I I #
-122 coedge $-1 -1 -1 $-1 $129 $94 $112 $140 forward $67 $-1 #
-123 coedge $-1 -1 -1 $-1 $94 $129 $115 $146 reversed $67 $-1 #
-124 coedge $-1 -1 -1 $-1 $117 $113 $94 $125 reversed $97 $-1 #
-125 edge $-1 -1 -1 $-1 $150 17.916052917057467 $142 26.291052917057634 $94 $153 forward @7 unknown F #
-126 cface_ptr-ct-attrib $-1 -1 $-1 $-1 $95 $-1 $69 #
-127 coedge $-1 -1 -1 $-1 $154 $99 $137 $155 reversed $72 $-1 #
-128 coedge $-1 -1 -1 $-1 $99 $154 $145 $156 reversed $72 $-1 #
-129 coedge $-1 -1 -1 $-1 $123 $122 $99 $130 forward $67 $-1 #
-130 edge $-1 -1 -1 $-1 $157 -40.771547082655054 $158 -32.396547082654898 $129 $159 forward @7 unknown F #
-131 loop $-1 -1 -1 $-1 $-1 $160 $95 F unknown #
-132 point $-1 -1 -1 $-1 44.459409577782296 226.31299982470688 44.45940957778231 #
-133 loop $-1 -1 -1 $-1 $-1 $135 $85 F unknown #
-134 coedge $-1 -1 -1 $-1 $134 $134 $160 $161 forward $108 $-1 #
-135 coedge $-1 -1 -1 $-1 $135 $135 $110 $136 reversed $133 $-1 #
-136 edge $162 -1 -1 $-1 $163 1.5707963267948966 $163 7.8539816339744828 $110 $164 forward @7 unknown F #
-137 coedge $-1 -1 -1 $-1 $112 $111 $127 $155 forward $62 $-1 #
-138 coedge $-1 -1 -1 $-1 $152 $165 $111 $139 reversed $120 $-1 #
-139 edge $-1 -1 -1 $-1 $143 1.247081164357879 $166 1.8945114892143597 $111 $167 forward @7 unknown F #
-140 edge $-1 -1 -1 $-1 $142 1.247081164357879 $157 1.8945114892143597 $122 $168 forward @7 unknown F #
-141 coedge $-1 -1 -1 $-1 $113 $117 $152 $169 reversed $97 $-1 #
-142 vertex $-1 -1 -1 $-1 $140 $170 #
-143 vertex $-1 -1 -1 $-1 $139 $171 #
-144 straight-curve $-1 -1 -1 $-1 56.292332539144965 233.81299964941388 28.008061291569629 0 1 0 I I #
-145 coedge $-1 -1 -1 $-1 $116 $115 $128 $156 forward $64 $-1 #
-146 edge $-1 -1 -1 $-1 $150 1.2470811643567683 $158 1.8945114892143602 $115 $172 forward @7 unknown F #
-147 coedge $-1 -1 -1 $-1 $165 $152 $116 $148 forward $120 $-1 #
-148 edge $-1 -1 -1 $-1 $149 1.2470811643567683 $173 1.8945114892143602 $147 $174 forward @7 unknown F #
-149 vertex $-1 -1 -1 $-1 $148 $175 #
-150 vertex $-1 -1 -1 $-1 $146 $176 #
-151 straight-curve $-1 -1 -1 $-1 48.794161005204678 233.81299964941388 24.277371188169322 0 -1 0 I I #
-152 coedge $-1 -1 -1 $-1 $147 $138 $141 $169 forward $120 $-1 #
-153 straight-curve $-1 -1 -1 $-1 32.753846022130361 213.81299964941388 16.296566255672357 0.89530406375405502 0 0.4454555347343605 I I #
-154 coedge $-1 -1 -1 $-1 $128 $127 $165 $177 reversed $72 $-1 #
-155 edge $-1 -1 -1 $-1 $166 -20 $157 20 $137 $178 forward @7 unknown F #
-156 edge $-1 -1 -1 $-1 $158 -20 $173 20 $145 $179 forward @7 unknown F #
-157 vertex $-1 -1 -1 $-1 $155 $180 #
-158 vertex $-1 -1 -1 $-1 $130 $181 #
-159 straight-curve $-1 -1 -1 $-1 9.8461499845294309 213.81299964941388 19.78940075020007 -0.44545553474360894 0 -0.89530406374945293 I I #
-160 coedge $-1 -1 -1 $-1 $160 $160 $134 $161 reversed $131 $-1 #
-161 edge $-1 -1 -1 $-1 $182 -1.5707963267948966 $182 4.7123889803846897 $134 $183 forward @7 unknown F #
-162 convexity-sys-attrib $-1 -1 $-1 $-1 $136 #
-163 vertex $-1 -1 -1 $-1 $136 $184 #
-164 ellipse-curve $-1 -1 -1 $-1 55.861435713737251 233.81299982470688 55.861435713737258 -0.70710678118654757 0 -0.70710678118654746 7.0710678118654746 0 -7.0710678118654755 1 I I #
-165 coedge $-1 -1 -1 $-1 $138 $147 $154 $177 forward $120 $-1 #
-166 vertex $-1 -1 -1 $-1 $155 $185 #
-167 ellipse-curve $-1 -1 -1 $-1 -1.0048591735576159e-014 253.81299964941388 1.0048591735576158e-014 0 -1 0 44.459409577782303 0 -44.459409577782296 1 F 0 F 3.1415926535897931 #
-168 ellipse-curve $-1 -1 -1 $-1 -1.0048591735576159e-014 213.81299964941388 1.0048591735576158e-014 0 -1 0 44.459409577782303 0 -44.459409577782296 1 F 0 F 3.1415926535897931 #
-169 edge $-1 -1 -1 $-1 $143 -26.291052917057648 $149 -17.916052917057481 $152 $186 forward @7 unknown F #
-170 point $-1 -1 -1 $-1 56.292332539144965 213.81299964941388 28.008061291569629 #
-171 point $-1 -1 -1 $-1 56.292332539144965 253.81299964941388 28.008061291569629 #
-172 ellipse-curve $-1 -1 -1 $-1 -1.0048591735576159e-014 213.81299964941388 1.0048591735576158e-014 0 -1 0 38.537390285344962 0 -38.537390285344955 1 F 0 F 3.1415926535897931 #
-173 vertex $-1 -1 -1 $-1 $177 $187 #
-174 ellipse-curve $-1 -1 -1 $-1 -1.0048591735576159e-014 253.81299964941388 1.0048591735576158e-014 0 -1 0 38.537390285344848 0 -38.537390285344841 1 F 0 F 3.1415926535897931 #
-175 point $-1 -1 -1 $-1 48.794161005204607 253.81299964941388 24.277371188169294 #
-176 point $-1 -1 -1 $-1 48.794161005204607 213.81299964941388 24.277371188169294 #
-177 edge $-1 -1 -1 $-1 $173 32.396547082654884 $166 40.77154708265504 $165 $188 forward @7 unknown F #
-178 straight-curve $-1 -1 -1 $-1 28.008061292557773 233.81299964941388 56.292332538653319 0 -1 0 I I #
-179 straight-curve $-1 -1 -1 $-1 24.277371189080011 233.81299964941388 48.794161004751579 0 1 0 I I #
-180 point $-1 -1 -1 $-1 28.00806129255777 213.81299964941388 56.292332538653312 #
-181 point $-1 -1 -1 $-1 24.277371189079972 213.81299964941388 48.794161004751501 #
-182 vertex $-1 -1 -1 $-1 $161 $189 #
-183 ellipse-curve $-1 -1 -1 $-1 55.861435713737251 233.81299982470688 55.861435713737258 -0.70710678118654757 0 -0.70710678118654746 -5.3033008588991057 0 5.3033008588991066 1 I I #
-184 point $-1 -1 -1 $-1 55.861435713737251 223.81299982470688 55.861435713737258 #
-185 point $-1 -1 -1 $-1 28.00806129255777 253.81299964941388 56.292332538653312 #
-186 straight-curve $-1 -1 -1 $-1 32.753846022130347 253.81299964941388 16.296566255672346 -0.89530406375405502 0 -0.4454555347343605 I I #
-187 point $-1 -1 -1 $-1 24.277371189079972 253.81299964941388 48.794161004751501 #
-188 straight-curve $-1 -1 -1 $-1 9.8461499845294416 253.81299964941388 19.78940075020008 0.44545553474360894 0 0.89530406374945293 I I #
-189 point $-1 -1 -1 $-1 55.861435713737251 226.31299982470688 55.861435713737258 #
End-of-ACIS-data 
