1200 0 1 0           
35 Abaqus, Inc. - ABAQUS 6.7-DEV - 160 12 ACIS 16.0 NT 24 Thu Aug 24 13:29:33 2006 
1 9.9999999999999995e-007 1e-010 
-0 body $-1 -1 -1 $-1 $1 $-1 $2 F #
-1 lump $3 -1 -1 $-1 $-1 $4 $0 F #
-2 transform $-1 -1 1 0 0 0 1 0 0 0 1 0 0 0 1 no_rotate no_reflect no_shear #
-3 cell_ptr-ct-attrib $-1 -1 $-1 $-1 $1 $5 $-1 auto #
-4 shell $-1 -1 -1 $-1 $-1 $-1 $6 $-1 $1 F #
-5 cell3d-cell $-1 -1 $7 $1 $-1 1 $8 #
-6 face $9 -1 -1 $-1 $10 $11 $4 $-1 $12 forward double in F F #
-7 cell3d-cell $-1 -1 $-1 $1 $-1 1 $13 #
-8 cshell $-1 -1 $-1 $14 $5 #
-9 cface_ptr-ct-attrib $-1 -1 $-1 $-1 $6 $15 $16 #
-10 face $17 -1 -1 $-1 $18 $19 $4 $-1 $20 forward single F F #
-11 loop $-1 -1 -1 $-1 $21 $22 $6 F unknown #
-12 cone-surface $-1 -1 -1 $-1 55.861435713737251 233.81299982470688 55.861435713737258 -0.70710678118654757 0 -0.70710678118654746 5.9821232448872452 0 -5.9821232448872461 1 I I 0 -1 8.459999824706891 forward I I I I #
-13 cshell $-1 -1 $-1 $23 $7 #
-14 cface $-1 -1 $24 $8 $25 0 #
-15 cface $-1 -1 $26 $8 $6 1 #
-16 cface $-1 -1 $27 $13 $6 0 #
-17 cface_ptr-ct-attrib $-1 -1 $-1 $-1 $10 $-1 $28 #
-18 face $29 -1 -1 $-1 $30 $31 $4 $-1 $32 reversed single F F #
-19 loop $-1 -1 -1 $-1 $33 $34 $10 F unknown #
-20 cone-surface $-1 -1 -1 $-1 -1.0048591735576159e-014 233.81299964941388 1.0048591735576158e-014 0 -1 0 38.537390285344905 0 -38.537390285344898 1 I I 0 -1 54.500099999999918 forward I I I I #
-21 loop $-1 -1 -1 $-1 $-1 $35 $6 F unknown #
-22 coedge $-1 -1 -1 $-1 $22 $22 $36 $37 forward $11 $-1 #
-23 cface $-1 -1 $38 $13 $39 0 #
-24 cface $-1 -1 $15 $8 $40 0 #
-25 face $41 -1 -1 $-1 $42 $43 $4 $-1 $32 reversed single F F #
-26 cface $-1 -1 $-1 $8 $44 0 #
-27 cface $-1 -1 $45 $13 $46 0 #
-28 cface $-1 -1 $-1 $13 $10 0 #
-29 cface_ptr-ct-attrib $-1 -1 $-1 $-1 $18 $-1 $38 #
-30 face $47 -1 -1 $-1 $48 $49 $4 $-1 $50 reversed single F F #
-31 loop $-1 -1 -1 $-1 $51 $52 $18 F unknown #
-32 plane-surface $-1 -1 -1 $-1 55.861435713737251 233.81299982470688 55.861435713737258 -0.70710678118654757 0 -0.70710678118654746 0.70710678118654746 0 -0.70710678118654757 forward_v I I I I #
-33 loop $-1 -1 -1 $-1 $-1 $53 $10 F unknown #
-34 coedge $-1 -1 -1 $-1 $54 $55 $56 $57 forward $19 $-1 #
-35 coedge $-1 -1 -1 $-1 $35 $35 $58 $59 forward $21 $-1 #
-36 coedge $-1 -1 -1 $-1 $36 $36 $60 $37 forward $43 $-1 #
-37 edge $-1 -1 -1 $-1 $61 -1.5707963267948966 $61 4.7123889803846897 $36 $62 forward @7 unknown F #
-38 cface $-1 -1 $63 $13 $18 0 #
-39 face $64 -1 -1 $-1 $25 $65 $4 $-1 $66 forward single F F #
-40 face $67 -1 -1 $-1 $39 $68 $4 $-1 $69 reversed single F F #
-41 cface_ptr-ct-attrib $-1 -1 $-1 $-1 $25 $-1 $14 #
-42 face $70 -1 -1 $-1 $44 $71 $4 $-1 $72 forward single F F #
-43 loop $-1 -1 -1 $-1 $73 $36 $25 F periphery $32 T #
-44 face $74 -1 -1 $-1 $75 $76 $4 $-1 $20 forward single F F #
-45 cface $-1 -1 $77 $13 $30 0 #
-46 face $78 -1 -1 $-1 $40 $79 $4 $-1 $80 forward single F F #
-47 cface_ptr-ct-attrib $-1 -1 $-1 $-1 $30 $-1 $45 #
-48 face $81 -1 -1 $-1 $46 $82 $4 $-1 $83 reversed single F F #
-49 loop $-1 -1 -1 $-1 $-1 $84 $30 F unknown #
-50 plane-surface $-1 -1 -1 $-1 28.00806129255777 253.81299964941388 56.292332538653312 0.89530406374945326 0 -0.44545553474360911 0.44545553474360911 0 0.89530406374945326 forward_v I I I I #
-51 loop $-1 -1 -1 $-1 $-1 $60 $18 F unknown #
-52 coedge $-1 -1 -1 $-1 $52 $52 $85 $86 reversed $31 $-1 #
-53 coedge $-1 -1 -1 $-1 $53 $53 $35 $59 reversed $33 $-1 #
-54 coedge $-1 -1 -1 $-1 $87 $34 $88 $89 forward $19 $-1 #
-55 coedge $-1 -1 -1 $-1 $34 $87 $90 $91 reversed $19 $-1 #
-56 coedge $-1 -1 -1 $-1 $92 $93 $34 $57 reversed $82 $-1 #
-57 edge $-1 -1 -1 $-1 $94 -20 $95 20 $34 $96 forward @7 unknown F #
-58 coedge $-1 -1 -1 $-1 $58 $58 $53 $59 forward $76 $-1 #
-59 edge $-1 -1 -1 $-1 $97 12.769285036700548 $97 63.84642518350276 $58 $98 forward @7 unknown F #
-60 coedge $-1 -1 -1 $-1 $60 $60 $22 $37 reversed $51 $-1 #
-61 vertex $-1 -1 -1 $-1 $37 $99 #
-62 ellipse-curve $-1 -1 -1 $-1 55.861435713737251 233.81299982470688 55.861435713737258 0.70710678118654757 0 0.70710678118654746 5.9821232448872461 0 -5.9821232448872452 1 I I #
-63 cface $-1 -1 $16 $13 $75 0 #
-64 cface_ptr-ct-attrib $-1 -1 $-1 $-1 $39 $-1 $23 #
-65 loop $-1 -1 -1 $-1 $100 $85 $39 F unknown #
-66 cone-surface $-1 -1 -1 $-1 -1.0048591735576161e-014 233.81299982470688 1.0048591735576156e-014 0.70710678118654757 0 0.70710678118654746 7.0710678118654746 0 -7.0710678118654755 1 I I 0 1 10 forward I I I I #
-67 cface_ptr-ct-attrib $-1 -1 $-1 $-1 $40 $-1 $24 #
-68 loop $-1 -1 -1 $-1 $101 $102 $40 F unknown #
-69 cone-surface $-1 -1 -1 $-1 55.861435713737251 233.81299982470688 55.861435713737258 -0.70710678118654757 0 -0.70710678118654746 -5.3033008588991057 0 5.3033008588991066 1 I I 0 1 7.5 forward I I I I #
-70 cface_ptr-ct-attrib $-1 -1 $-1 $-1 $42 $-1 $77 #
-71 loop $-1 -1 -1 $-1 $-1 $103 $42 F unknown #
-72 plane-surface $-1 -1 -1 $-1 41.498399931563625 213.81299964941388 -41.498399931563618 0 -1 0 0.70710678118654757 0 -0.70710678118654746 forward_v I I I I #
-73 loop $-1 -1 -1 $-1 $-1 $104 $25 F unknown #
-74 cface_ptr-ct-attrib $-1 -1 $-1 $-1 $44 $-1 $26 #
-75 face $105 -1 -1 $-1 $-1 $106 $4 $-1 $107 forward single F F #
-76 loop $-1 -1 -1 $-1 $108 $58 $44 F unknown #
-77 cface $-1 -1 $109 $13 $42 0 #
-78 cface_ptr-ct-attrib $-1 -1 $-1 $-1 $46 $-1 $27 #
-79 loop $-1 -1 -1 $-1 $-1 $110 $46 F unknown #
-80 plane-surface $-1 -1 -1 $-1 41.498399931563561 253.81299964941388 -41.498399931563554 0 1 0 -0.70710678118654757 0 0.70710678118654746 forward_v I I I I #
-81 cface_ptr-ct-attrib $-1 -1 $-1 $-1 $48 $-1 $109 #
-82 loop $-1 -1 -1 $-1 $-1 $111 $48 F unknown #
-83 plane-surface $-1 -1 -1 $-1 48.794161005204607 253.81299964941388 24.277371188169294 -0.4454555347343605 0 0.89530406375405502 -0.89530406375405502 0 -0.4454555347343605 forward_v I I I I #
-84 coedge $-1 -1 -1 $-1 $112 $113 $114 $115 reversed $49 $-1 #
-85 coedge $-1 -1 -1 $-1 $85 $85 $52 $86 forward $65 $-1 #
-86 edge $116 -1 -1 $-1 $117 1.5707963267948966 $117 7.8539816339744828 $85 $118 forward @7 unknown F #
-87 coedge $-1 -1 -1 $-1 $55 $54 $113 $119 forward $19 $-1 #
-88 coedge $-1 -1 -1 $-1 $103 $114 $54 $89 reversed $71 $-1 #
-89 edge $-1 -1 -1 $-1 $95 1.2470811643567683 $120 1.8945114892143602 $54 $121 forward @7 unknown F #
-90 coedge $-1 -1 -1 $-1 $122 $110 $55 $91 forward $79 $-1 #
-91 edge $-1 -1 -1 $-1 $94 1.2470811643567683 $123 1.8945114892143602 $90 $124 forward @7 unknown F #
-92 coedge $-1 -1 -1 $-1 $111 $56 $110 $125 reversed $82 $-1 #
-93 coedge $-1 -1 -1 $-1 $56 $111 $103 $126 reversed $82 $-1 #
-94 vertex $-1 -1 -1 $-1 $91 $127 #
-95 vertex $-1 -1 -1 $-1 $89 $128 #
-96 straight-curve $-1 -1 -1 $-1 48.794161005204678 233.81299964941388 24.277371188169322 0 -1 0 I I #
-97 vertex $-1 -1 -1 $-1 $59 $129 #
-98 intcurve-curve $-1 -1 -1 $-1 forward { surfintcur full nubs 3 periodic 33 
	0 3 1.596176613532718 2 3.192353227065436 2 4.7885298405981542 2 6.384706454130872 2 
	7.9808510997732913 2 9.5769957454157097 2 11.17314039105813 2 12.769285036700548 2 14.36542968234297 2 
	15.961574327985392 2 17.557718973627814 2 19.153863619270236 2 20.750040232802952 2 22.346216846335672 2 
	23.942393459868388 2 25.538570073401104 2 27.13474668693382 2 28.730923300466536 2 30.327099913999252 2 
	31.923276527531968 2 33.519421173174393 2 35.115565818816819 2 36.711710464459244 2 38.307855110101663 2 
	39.903999755744081 2 41.5001444013865 2 43.096289047028918 2 44.692433692671337 2 46.288610306204049 2 
	47.884786919736769 2 49.480963533269488 2 51.077140146802208 3 
	44.052382654142328 233.81299982470688 32.088136164367846 
	44.052382654142328 233.2809409535293 32.088136164367846 
	44.02204573225535 232.7309890205446 32.129926356296501 
	43.89373539074073 231.63755926325172 32.304994529612934 
	43.795779862236422 231.09407111748095 32.438221154183402 
	43.534599033779813 230.05214759038694 32.787912580066163 
	43.371123900791304 229.55286594727446 33.004613590832044 
	42.989103283536728 228.62976055460896 33.500685150781095 
	42.77047025076385 228.20595723034955 33.780026283093861 
	42.298608193752187 227.45580344132628 34.369041888384444 
	42.02921871619121 227.10368335036927 34.698995909543186 
	41.433247193513701 226.48277502133328 35.40849573230139 
	41.106622885639808 226.2139460542044 35.78797038725461 
	40.413739850947806 225.7819898560746 36.568605397777816 
	40.046879081867552 225.61851901929489 36.970360302409318 
	39.296822779834407 225.40399965640464 37.766649103381866 
	38.913605186241014 225.35299999999995 38.161175384448782 
	38.161175384448782 225.35299999999998 38.913605186241028 
	37.766649103381866 225.40399965640464 39.296822779834407 
	36.970360302409311 225.61851901929489 40.046879081867559 
	36.568605397777802 225.7819898560746 40.413739850947834 
	35.787970387254603 226.2139460542044 41.106622885639823 
	35.408495732301418 226.48277502133328 41.433247193513694 
	34.698995909543207 227.10368335036927 42.029218716191203 
	34.36904188838443 227.45580344132628 42.298608193752202 
	33.780026283093846 228.20595723034955 42.770470250763864 
	33.500685150781074 228.62976055460899 42.989103283536757 
	33.00461359083203 229.55286594727446 43.371123900791325 
	32.787912580066163 230.05214759038694 43.534599033779813 
	32.438221154183395 231.09407111748095 43.795779862236429 
	32.304994529612927 231.63755926325172 43.893735390740751 
	32.129926356296494 232.7309890205446 44.022045732255371 
	32.088136164367832 233.2809409535293 44.052382654142335 
	32.088136164367832 234.34505869588446 44.052382654142335 
	32.129926356296494 234.89501062886916 44.022045732255371 
	32.304994529612927 235.98844038616204 43.893735390740751 
	32.438221154183402 236.53192853193281 43.795779862236429 
	32.787912580066163 237.57385205902682 43.534599033779813 
	33.00461359083203 238.0731337021393 43.371123900791325 
	33.500685150781074 238.99623909480476 42.989103283536764 
	33.780026283093832 239.4200424190642 42.770470250763871 
	34.369041888384423 240.17019620808748 42.298608193752202 
	34.6989959095432 240.52231629904449 42.029218716191203 
	35.408495732301411 241.14322462808047 41.433247193513687 
	35.787970387254603 241.41205359520936 41.106622885639823 
	36.568605397777802 241.84400979333915 40.413739850947834 
	36.970360302409311 242.00748063011886 40.046879081867559 
	37.766649103381859 242.22199999300912 39.296822779834415 
	38.161175384448782 242.27299964941378 38.913605186241028 
	38.913605186241014 242.27299964941378 38.161175384448782 
	39.2968227798344 242.22199999300912 37.766649103381866 
	40.046879081867552 242.00748063011886 36.970360302409311 
	40.41373985094782 241.84400979333915 36.568605397777809 
	41.106622885639808 241.41205359520936 35.78797038725461 
	41.433247193513679 241.14322462808047 35.408495732301418 
	42.029218716191188 240.52231629904449 34.698995909543214 
	42.298608193752187 240.17019620808748 34.369041888384452 
	42.77047025076385 239.4200424190642 33.780026283093868 
	42.98910328353675 238.99623909480476 33.500685150781081 
	43.371123900791325 238.07313370213927 33.004613590832037 
	43.534599033779813 237.57385205902682 32.787912580066163 
	43.795779862236422 236.53192853193281 32.438221154183402 
	43.89373539074073 235.98844038616204 32.304994529612934 
	44.02204573225535 234.89501062886916 32.129926356296501 
	44.052382654142328 234.34505869588446 32.088136164367846 
	44.052382654142328 233.81299982470688 32.088136164367846 
	0.00025436638189566425 
	cone 55.861435713737251 233.81299982470688 55.861435713737258 -0.70710678118654757 0 -0.70710678118654746 5.9821232448872452 0 -5.9821232448872461 1 I I 0 -1 8.459999824706891 forward I I I I 
	cone -1.0048591735576159e-014 233.81299964941388 1.0048591735576158e-014 0 -1 0 38.537390285344905 0 -38.537390285344898 1 I I 0 -1 54.500099999999918 forward I I I I 
	nullbs 
	nullbs 
	-1 
	-1 
	I I 
	0 
	0 
	0 
	
	-1 
	nullbs } I I #
-99 point $-1 -1 -1 $-1 55.861435713737251 225.35299999999998 55.861435713737258 #
-100 loop $-1 -1 -1 $-1 $-1 $130 $39 F unknown #
-101 loop $-1 -1 -1 $-1 $-1 $131 $40 F unknown #
-102 coedge $-1 -1 -1 $-1 $102 $102 $132 $133 forward $68 $-1 #
-103 coedge $-1 -1 -1 $-1 $134 $88 $93 $126 forward $71 $-1 #
-104 coedge $-1 -1 -1 $-1 $104 $104 $131 $135 forward $73 $-1 #
-105 cface_ptr-ct-attrib $-1 -1 $-1 $-1 $75 $-1 $63 #
-106 loop $-1 -1 -1 $-1 $136 $137 $75 F unknown #
-107 cone-surface $-1 -1 -1 $-1 -1.0048591735576159e-014 233.81299964941388 1.0048591735576158e-014 0 -1 0 44.459409577782303 0 -44.459409577782296 1 I I 0 1 62.875100000000003 forward I I I I #
-108 loop $-1 -1 -1 $-1 $-1 $132 $44 F unknown #
-109 cface $-1 -1 $28 $13 $48 0 #
-110 coedge $-1 -1 -1 $-1 $90 $138 $92 $125 forward $79 $-1 #
-111 coedge $-1 -1 -1 $-1 $93 $92 $137 $139 reversed $82 $-1 #
-112 coedge $-1 -1 -1 $-1 $140 $84 $141 $142 reversed $49 $-1 #
-113 coedge $-1 -1 -1 $-1 $84 $140 $87 $119 reversed $49 $-1 #
-114 coedge $-1 -1 -1 $-1 $88 $134 $84 $115 forward $71 $-1 #
-115 edge $-1 -1 -1 $-1 $143 -40.771547082655054 $120 -32.396547082654898 $114 $144 forward @7 unknown F #
-116 convexity-sys-attrib $-1 -1 $-1 $-1 $86 #
-117 vertex $-1 -1 -1 $-1 $86 $145 #
-118 ellipse-curve $-1 -1 -1 $-1 55.861435713737251 233.81299982470688 55.861435713737258 -0.70710678118654757 0 -0.70710678118654746 7.0710678118654746 0 -7.0710678118654755 1 I I #
-119 edge $-1 -1 -1 $-1 $120 -20 $123 20 $87 $146 forward @7 unknown F #
-120 vertex $-1 -1 -1 $-1 $115 $147 #
-121 ellipse-curve $-1 -1 -1 $-1 -1.0048591735576159e-014 213.81299964941388 1.0048591735576158e-014 0 -1 0 38.537390285344962 0 -38.537390285344955 1 F 0 F 3.1415926535897931 #
-122 coedge $-1 -1 -1 $-1 $138 $90 $140 $148 forward $79 $-1 #
-123 vertex $-1 -1 -1 $-1 $148 $149 #
-124 ellipse-curve $-1 -1 -1 $-1 -1.0048591735576159e-014 253.81299964941388 1.0048591735576158e-014 0 -1 0 38.537390285344848 0 -38.537390285344841 1 F 0 F 3.1415926535897931 #
-125 edge $-1 -1 -1 $-1 $150 -26.291052917057648 $94 -17.916052917057481 $110 $151 forward @7 unknown F #
-126 edge $-1 -1 -1 $-1 $95 17.916052917057467 $152 26.291052917057634 $103 $153 forward @7 unknown F #
-127 point $-1 -1 -1 $-1 48.794161005204607 253.81299964941388 24.277371188169294 #
-128 point $-1 -1 -1 $-1 48.794161005204607 213.81299964941388 24.277371188169294 #
-129 point $-1 -1 -1 $-1 38.537390285344898 225.35299999999998 38.537390285344905 #
-130 coedge $-1 -1 -1 $-1 $130 $130 $154 $155 reversed $100 $-1 #
-131 coedge $-1 -1 -1 $-1 $131 $131 $104 $135 reversed $101 $-1 #
-132 coedge $-1 -1 -1 $-1 $132 $132 $102 $133 reversed $108 $-1 #
-133 edge $-1 -1 -1 $-1 $156 11.316034833447038 $156 56.580174167235185 $102 $157 forward @7 unknown F #
-134 coedge $-1 -1 -1 $-1 $114 $103 $158 $159 forward $71 $-1 #
-135 edge $-1 -1 -1 $-1 $160 -1.5707963267948966 $160 4.7123889803846897 $104 $161 forward @7 unknown F #
-136 loop $-1 -1 -1 $-1 $-1 $154 $75 F unknown #
-137 coedge $-1 -1 -1 $-1 $162 $158 $111 $139 forward $106 $-1 #
-138 coedge $-1 -1 -1 $-1 $110 $122 $162 $163 reversed $79 $-1 #
-139 edge $-1 -1 -1 $-1 $152 -20 $150 20 $137 $164 forward @7 unknown F #
-140 coedge $-1 -1 -1 $-1 $113 $112 $122 $148 reversed $49 $-1 #
-141 coedge $-1 -1 -1 $-1 $158 $162 $112 $142 forward $106 $-1 #
-142 edge $-1 -1 -1 $-1 $165 -20 $143 20 $141 $166 forward @7 unknown F #
-143 vertex $-1 -1 -1 $-1 $142 $167 #
-144 straight-curve $-1 -1 -1 $-1 9.8461499845294309 213.81299964941388 19.78940075020007 -0.44545553474360894 0 -0.89530406374945293 I I #
-145 point $-1 -1 -1 $-1 55.861435713737251 223.81299982470688 55.861435713737258 #
-146 straight-curve $-1 -1 -1 $-1 24.277371189080011 233.81299964941388 48.794161004751579 0 1 0 I I #
-147 point $-1 -1 -1 $-1 24.277371189079972 213.81299964941388 48.794161004751501 #
-148 edge $-1 -1 -1 $-1 $123 32.396547082654884 $165 40.77154708265504 $122 $168 forward @7 unknown F #
-149 point $-1 -1 -1 $-1 24.277371189079972 253.81299964941388 48.794161004751501 #
-150 vertex $-1 -1 -1 $-1 $163 $169 #
-151 straight-curve $-1 -1 -1 $-1 32.753846022130347 253.81299964941388 16.296566255672346 -0.89530406375405502 0 -0.4454555347343605 I I #
-152 vertex $-1 -1 -1 $-1 $159 $170 #
-153 straight-curve $-1 -1 -1 $-1 32.753846022130361 213.81299964941388 16.296566255672357 0.89530406375405502 0 0.4454555347343605 I I #
-154 coedge $-1 -1 -1 $-1 $154 $154 $130 $155 forward $136 $-1 #
-155 edge $-1 -1 -1 $-1 $171 45.285122022296214 $171 105.66528471869117 $154 $172 forward @7 unknown F #
-156 vertex $-1 -1 -1 $-1 $133 $173 #
-157 intcurve-curve $-1 -1 -1 $-1 forward { surfintcur full nubs 3 periodic 33 
	0 3 1.414513060825175 2 2.8290261216503501 2 4.2435391824755246 2 5.6580522433007001 2 
	7.0725478908372841 2 8.487043538373868 2 9.9015391859104529 2 11.316034833447038 2 12.730530480983621 2 
	14.145026128520206 2 15.559521776056791 2 16.974017423593374 2 18.388530484418549 2 19.803043545243725 2 
	21.2175566060689 2 22.632069666894076 2 24.046582727719251 2 25.461095788544426 2 26.875608849369602 2 
	28.290121910194777 2 29.70461755773136 2 31.119113205267944 2 32.533608852804527 2 33.94810450034111 2 
	35.362600147877686 2 36.777095795414269 2 38.191591442950852 2 39.606087090487435 2 41.020600151312614 2 
	42.435113212137793 2 43.849626272962965 2 45.264139333788144 3 
	43.474041616775303 233.81299982470688 32.867439898977103 
	43.474041616775303 233.34149547109848 32.867439898977103 
	43.446579919983378 232.85408003334186 32.903872039315594 
	43.330481699205144 231.88487873036567 33.056609893274064 
	43.241862601935722 231.40308398871042 33.17287252391435 
	43.005821275036837 230.47934186116487 33.478313706322695 
	42.858178509343347 230.03664735869512 33.667702638550047 
	42.513653183999629 229.21812132138226 34.101714898886748 
	42.316699330250302 228.84230895271472 34.346317775785771 
	41.892310575901909 228.17709307347857 34.862686339759094 
	41.650352781208248 227.86486575854758 35.152204820432914 
	41.116149191769622 227.31435469764796 35.775573596749844 
	40.823872177611442 227.07603521106108 36.109365572915067 
	40.205150079454008 226.69314691305408 36.797020650130733 
	39.878173565130631 226.54827346150995 37.151408804045722 
	39.211002531323587 226.35817854714719 37.8548964270746 
	38.870790106788832 226.31299982470688 38.203990463900858 
	38.203990463900851 226.31299982470688 38.870790106788839 
	37.854896427074593 226.35817854714719 39.211002531323594 
	37.151408804045722 226.54827346150995 39.878173565130631 
	36.797020650130726 226.69314691305408 40.205150079454015 
	36.10936557291506 227.07603521106108 40.823872177611449 
	35.77557359674983 227.31435469764796 41.116149191769637 
	35.1522048204329 227.86486575854758 41.650352781208262 
	34.862686339759087 228.17709307347857 41.892310575901917 
	34.346317775785757 228.84230895271472 42.316699330250309 
	34.101714898886748 229.21812132138226 42.513653183999629 
	33.66770263855004 230.03664735869512 42.858178509343354 
	33.478313706322687 230.47934186116487 43.005821275036844 
	33.172872523914343 231.40308398871039 43.241862601935729 
	33.05660989327405 231.88487873036567 43.330481699205151 
	32.903872039315587 232.85408003334186 43.446579919983385 
	32.867439898977089 233.34149547109848 43.47404161677531 
	32.867439898977089 234.28450417831527 43.47404161677531 
	32.903872039315587 234.7719196160719 43.446579919983385 
	33.05660989327405 235.74112091904809 43.330481699205151 
	33.172872523914343 236.22291566070336 43.241862601935729 
	33.478313706322687 237.14665778824889 43.005821275036844 
	33.667702638550033 237.58935229071864 42.858178509343361 
	34.101714898886748 238.40787832803153 42.513653183999629 
	34.346317775785757 238.78369069669904 42.316699330250316 
	34.86268633975908 239.44890657593521 41.892310575901924 
	35.1522048204329 239.76113389086618 41.650352781208262 
	35.775573596749837 240.3116449517658 41.11614919176963 
	36.10936557291506 240.54996443835267 40.823872177611449 
	36.797020650130726 240.93285273635968 40.205150079454015 
	37.151408804045715 241.07772618790381 39.878173565130638 
	37.854896427074586 241.26782110226657 39.211002531323601 
	38.203990463900844 241.31299982470688 38.870790106788846 
	38.870790106788832 241.31299982470688 38.203990463900872 
	39.211002531323579 241.26782110226657 37.854896427074607 
	39.878173565130624 241.07772618790381 37.15140880404573 
	40.205150079454 240.93285273635968 36.797020650130747 
	40.823872177611428 240.54996443835267 36.109365572915081 
	41.116149191769615 240.3116449517658 35.775573596749858 
	41.650352781208248 239.76113389086618 35.152204820432921 
	41.892310575901902 239.44890657593521 34.862686339759101 
	42.316699330250295 238.78369069669904 34.346317775785778 
	42.513653183999622 238.4078783280315 34.101714898886755 
	42.858178509343347 237.58935229071864 33.667702638550047 
	43.005821275036837 237.14665778824889 33.478313706322695 
	43.241862601935722 236.22291566070334 33.17287252391435 
	43.330481699205151 235.74112091904809 33.056609893274064 
	43.446579919983385 234.7719196160719 32.903872039315608 
	43.474041616775303 234.28450417831527 32.867439898977103 
	43.474041616775303 233.81299982470688 32.867439898977103 
	0.00023461605178489673 
	cone 55.861435713737251 233.81299982470688 55.861435713737258 -0.70710678118654757 0 -0.70710678118654746 -5.3033008588991057 0 5.3033008588991066 1 I I 0 -1 7.5 forward I I I I 
	cone -5.0242958677880797e-015 253.81299964941388 1.5072887603364239e-014 0 -1 0 -38.537390285344841 0 -38.537390285344834 1 I I 0 -1 54.500099999999833 forward I I I I 
	nullbs 
	nullbs 
	-1 
	-1 
	I I 
	0 
	0 
	0 
	
	-1 
	nullbs } I I #
-158 coedge $-1 -1 -1 $-1 $137 $141 $134 $159 reversed $106 $-1 #
-159 edge $-1 -1 -1 $-1 $152 1.247081164357879 $143 1.8945114892143597 $134 $174 forward @7 unknown F #
-160 vertex $-1 -1 -1 $-1 $135 $175 #
-161 ellipse-curve $-1 -1 -1 $-1 55.861435713737251 233.81299982470688 55.861435713737258 -0.70710678118654757 0 -0.70710678118654746 -5.3033008588991057 0 5.3033008588991066 1 I I #
-162 coedge $-1 -1 -1 $-1 $141 $137 $138 $163 forward $106 $-1 #
-163 edge $-1 -1 -1 $-1 $150 1.247081164357879 $165 1.8945114892143597 $162 $176 forward @7 unknown F #
-164 straight-curve $-1 -1 -1 $-1 56.292332539144965 233.81299964941388 28.008061291569629 0 1 0 I I #
-165 vertex $-1 -1 -1 $-1 $142 $177 #
-166 straight-curve $-1 -1 -1 $-1 28.008061292557773 233.81299964941388 56.292332538653319 0 -1 0 I I #
-167 point $-1 -1 -1 $-1 28.00806129255777 213.81299964941388 56.292332538653312 #
-168 straight-curve $-1 -1 -1 $-1 9.8461499845294416 253.81299964941388 19.78940075020008 0.44545553474360894 0 0.89530406374945293 I I #
-169 point $-1 -1 -1 $-1 56.292332539144965 253.81299964941388 28.008061291569629 #
-170 point $-1 -1 -1 $-1 56.292332539144965 213.81299964941388 28.008061291569629 #
-171 vertex $-1 -1 -1 $-1 $155 $178 #
-172 intcurve-curve $-1 -1 -1 $-1 forward { surfintcur full nubs 3 periodic 33 
	0 3 1.886900931086557 2 3.773801862173114 2 5.660702793259671 2 7.5476037243462279 2 
	9.4344629617843552 2 11.321322199222482 2 13.20818143666061 2 15.095040674098739 2 16.981899911536868 2 
	18.868759148974995 2 20.755618386413122 2 22.642477623851249 2 24.529378554937807 2 26.416279486024365 2 
	28.303180417110923 2 30.190081348197477 2 32.076982279284032 2 33.963883210370589 2 35.850784141457147 2 
	37.737685072543705 2 39.624544309981829 2 41.51140354741996 2 43.39826278485809 2 45.285122022296214 2 
	47.171981259734338 2 49.058840497172469 2 50.945699734610599 2 52.832558972048723 2 54.719459903135274 2 
	56.606360834221832 2 58.493261765308389 2 60.380162696394947 3 
	36.822429428671192 233.81299982470688 50.964565052402151 
	36.822429428671192 234.44196680173573 50.964565052402151 
	36.872006398136961 235.09206882462303 50.928870234747016 
	37.079659854253265 236.38458600694975 50.777884007707748 
	37.237674894573388 237.02701345341887 50.662613280625614 
	37.652348136254417 238.25858558855251 50.355193320399387 
	37.909285243336235 238.84873155469219 50.162748483442613 
	38.497328647953346 239.93981981320599 49.712884949879836 
	38.82839855236373 240.44073828993567 49.455360926975374 
	39.526312909189144 241.32738718724278 48.899364388165914 
	39.917194161931683 241.7435848765387 48.581846342396503 
	40.757469577500835 242.47750033728809 47.879085804092199 
	41.206778298925336 242.7952663636778 47.493791549702621 
	42.130785503494266 243.30586894762314 46.676072310863965 
	42.606187411610904 243.49911165163149 46.242935001424861 
	43.548135644365225 243.75270606323352 45.356985406872965 
	44.014672590469971 243.81299982470688 44.904146565094628 
	44.904146565094621 243.81299982470688 44.014672590469978 
	45.356985406872958 243.75270606323352 43.548135644365232 
	46.242935001424854 243.49911165163149 42.606187411610911 
	46.676072310863958 243.30586894762314 42.130785503494273 
	47.493791549702614 242.7952663636778 41.20677829892535 
	47.879085804092185 242.47750033728809 40.757469577500835 
	48.581846342396489 241.7435848765387 39.917194161931683 
	48.8993643881659 241.32738718724278 39.526312909189159 
	49.455360926975359 240.44073828993567 38.828398552363744 
	49.712884949879829 239.93981981320599 38.497328647953353 
	50.162748483442606 238.84873155469219 37.909285243336242 
	50.355193320399373 238.25858558855251 37.652348136254432 
	50.662613280625607 237.02701345341887 37.237674894573402 
	50.777884007707733 236.38458600694975 37.079659854253272 
	50.928870234747002 235.09206882462303 36.872006398136975 
	50.964565052402143 234.44196680173573 36.8224294286712 
	50.964565052402143 233.18403284767803 36.8224294286712 
	50.928870234747002 232.53393082479073 36.872006398136975 
	50.777884007707733 231.24141364246401 37.079659854253279 
	50.662613280625607 230.59898619599488 37.237674894573402 
	50.355193320399373 229.36741406086125 37.652348136254432 
	50.162748483442606 228.77726809472156 37.909285243336249 
	49.712884949879829 227.68617983620777 38.497328647953353 
	49.455360926975359 227.18526135947809 38.828398552363744 
	48.8993643881659 226.29861246217101 39.526312909189151 
	48.581846342396496 225.88241477287505 39.917194161931675 
	47.879085804092192 225.14849931212567 40.757469577500835 
	47.4937915497026 224.83073328573596 41.206778298925343 
	46.676072310863951 224.32013070179062 42.13078550349428 
	46.242935001424847 224.12688799778226 42.606187411610918 
	45.356985406872951 223.87329358618024 43.548135644365239 
	44.904146565094621 223.81299982470688 44.014672590469978 
	44.014672590469971 223.81299982470688 44.904146565094628 
	43.548135644365225 223.87329358618024 45.356985406872965 
	42.606187411610911 224.12688799778226 46.242935001424854 
	42.130785503494259 224.32013070179062 46.676072310863958 
	41.206778298925336 224.83073328573596 47.493791549702621 
	40.757469577500814 225.14849931212567 47.879085804092206 
	39.917194161931668 225.88241477287505 48.581846342396503 
	39.526312909189144 226.29861246217098 48.899364388165914 
	38.82839855236373 227.18526135947812 49.455360926975366 
	38.497328647953339 227.68617983620777 49.712884949879843 
	37.909285243336235 228.77726809472156 50.162748483442613 
	37.652348136254425 229.36741406086122 50.35519332039938 
	37.237674894573395 230.59898619599488 50.662613280625621 
	37.079659854253265 231.24141364246401 50.777884007707748 
	36.872006398136961 232.53393082479073 50.928870234747016 
	36.822429428671192 233.18403284767803 50.964565052402151 
	36.822429428671192 233.81299982470688 50.964565052402151 
	0.00028452602456647446 
	cone -1.0048591735576161e-014 233.81299982470688 1.0048591735576156e-014 0.70710678118654757 0 0.70710678118654746 7.0710678118654746 0 -7.0710678118654755 1 I I 0 1 10 forward I I I I 
	cone -1.0048591735576159e-014 233.81299964941388 1.0048591735576158e-014 0 -1 0 44.459409577782303 0 -44.459409577782296 1 I I 0 1 62.875100000000003 forward I I I I 
	nullbs 
	nullbs 
	-1 
	-1 
	I I 
	0 
	0 
	0 
	
	-1 
	nullbs } I I #
-173 point $-1 -1 -1 $-1 38.537390285344841 226.31299982470688 38.537390285344848 #
-174 ellipse-curve $-1 -1 -1 $-1 -1.0048591735576159e-014 213.81299964941388 1.0048591735576158e-014 0 -1 0 44.459409577782303 0 -44.459409577782296 1 F 0 F 3.1415926535897931 #
-175 point $-1 -1 -1 $-1 55.861435713737251 226.31299982470688 55.861435713737258 #
-176 ellipse-curve $-1 -1 -1 $-1 -1.0048591735576159e-014 253.81299964941388 1.0048591735576158e-014 0 -1 0 44.459409577782303 0 -44.459409577782296 1 F 0 F 3.1415926535897931 #
-177 point $-1 -1 -1 $-1 28.00806129255777 253.81299964941388 56.292332538653312 #
-178 point $-1 -1 -1 $-1 44.459409577782296 223.81299982470688 44.459409577782303 #
End-of-ACIS-data 
